<svg xmlns="http://www.w3.org/2000/svg" width="64" height="36"><style><![CDATA[.B{fill:#006ed0}.C{clip-path:url(#B)}]]></style><defs><clipPath id="A"><path d="M61.51 0A2.488 2.488 0 0 1 64 2.474v31.052A2.48 2.48 0 0 1 61.51 36H2.49A2.488 2.488 0 0 1 0 33.526V2.474A2.48 2.48 0 0 1 2.49 0h59.02z"/></clipPath><clipPath id="B"><path d="M4.441 0v1.11H2.07c-.235 0-.388.008-.518.094-.142.084-.194.21-.194.375a.4.4 0 0 0 .283.389c.136.045.283.059.503.059l.696.018c.702.016 1.184.133 1.477.42.251.25.387.567.387 1.104 0 1.121-.728 1.645-2.032 1.645H.153V4.096H2.66c.245 0 .42-.031.528-.13a.455.455 0 0 0-.005-.684c-.099-.08-.235-.116-.46-.116C1.514 3.126 0 3.202 0 1.552 0 .796.493 0 1.849 0H4.44z"/></clipPath><clipPath id="C"><path d="M4.316 0v1.078H1.288v.948h2.954V3.09H1.288v1.037l3.028.005v1.082H0V0h4.316z"/></clipPath><clipPath id="D"><path d="M2.985 0c.655 0 1.132.028 1.556.246.408.238.665.563.665 1.158 0 .832-.576 1.257-.917 1.387.288.102.524.286.634.438.182.254.209.492.214.952v1.033H3.839v-.652c0-.314.031-.778-.21-1.02-.188-.188-.476-.232-.948-.232H1.299v1.904H0V0h2.985zm-.094 1.079H1.3v1.17h1.57c.253 0 .466-.008.64-.107a.557.557 0 0 0 .267-.5c0-.223-.1-.385-.268-.47-.156-.089-.386-.093-.617-.093z"/></clipPath><clipPath id="E"><path d="M5.2 0l1.592 1.71L8.436 0h4.132c1.026 0 2.18.274 2.18 1.718s-1.122 1.747-2.252 1.747h-1.614v1.749H8.37L6.777 3.488 5.122 5.214H0V0h5.2zm4.394.56L7.61 2.616 9.594 4.74V.56zm-5.064.518H1.288v.948h2.839V3.09H1.288v1.037h3.18l1.476-1.53L4.53 1.079zm8.038 0h-1.686v1.328h1.671c.497 0 .806-.237.806-.688 0-.456-.324-.64-.79-.64z"/></clipPath><clipPath id="F"><path d="M3.913 0v1.117H2.687c-.472 0-.738.068-.995.309-.22.22-.372.634-.372 1.18 0 .559.116.962.356 1.225.2.206.56.269.901.269h.58L4.98 0h1.938l2.19 4.93V0h1.968l2.273 3.63V0h1.324v5.213h-1.832L10.39 1.3v3.913H7.757L7.253 4.05H4.567L4.08 5.213H2.566c-.629 0-1.424-.134-1.875-.577S0 3.594 0 2.646c0-.773.141-1.48.697-2.038C1.115.192 1.77 0 2.661 0h1.252zm1.97.886l-.88 2.077h1.765L5.883.886z"/></clipPath><clipPath id="G"><path d="M1.32 0v5.213H0V0h1.32z"/></clipPath><clipPath id="H"><path d="M4.54.25c.409.233.654.572.654 1.154a1.47 1.47 0 0 1-.911 1.39c.283.103.525.286.64.438.182.26.214.491.214.957v1.024H3.833l-.005-.658c0-.313.03-.764-.204-1.015-.19-.184-.477-.223-.943-.223H1.293v1.896H0V0h2.974c.66 0 1.148.017 1.566.25zm-1.655.835H1.293v1.158h1.57c.253 0 .463-.003.64-.107.168-.084.267-.268.267-.496s-.104-.384-.272-.46c-.152-.085-.388-.095-.613-.095z"/></clipPath><clipPath id="I"><path d="M4.32 0v1.085H1.293v.94h2.954v1.069H1.293v1.04H4.32v1.079H0V0h4.32z"/></clipPath><clipPath id="J"><path d="M4.237 0l2.2 4.935V0h2.11l1.692 3.536L11.793 0h2.153v5.213h-1.325l-.005-4.083-1.875 4.083H9.605l-1.88-4.086v4.086h-2.63L4.6 4.05H1.906l-.501 1.163H0L2.316 0h1.92zm-.99.886l-.88 2.077h1.765L3.247.886z"/></clipPath></defs><g clip-path="url(#A)"><path fill="#f7f7f7" d="M0 0h64v36H0V0z"/></g><g transform="translate(45.627 19.246)" class="C B"><path d="M0 0h4.703v5.214H0V0z"/></g><g transform="translate(50.519 19.246)" class="C B"><path d="M0 0h4.703v5.214H0V0z"/></g><g clip-path="url(#C)" transform="translate(40.689 19.246)" class="B"><path d="M0 0h4.316v5.214H0V0z"/></g><g clip-path="url(#D)" transform="translate(34.767 19.246)" class="B"><path d="M0 0h5.206v5.214H0V0z"/></g><g clip-path="url(#E)" transform="translate(19.412 19.246)" class="B"><path d="M0 0h14.747v5.214H0V0z"/></g><g clip-path="url(#F)" transform="translate(35.113 11.279)" class="B"><path d="M0 0h14.673v5.213H0V0z"/></g><g clip-path="url(#G)" transform="translate(33.16 11.279)" class="B"><path d="M0 0h1.319v5.213H0V0z"/></g><g clip-path="url(#H)" transform="translate(27.216 11.279)" class="B"><path d="M0 0h5.194v5.213H0V0z"/></g><g clip-path="url(#I)" transform="translate(22 11.279)" class="B"><path d="M0 0h4.32v5.213H0V0z"/></g><g clip-path="url(#J)" transform="translate(7.09 11.279)" class="B"><path d="M0 0h13.946v5.213H0V0z"/></g></svg>