<svg xmlns="http://www.w3.org/2000/svg" width="259" height="100"><g fill="none" fill-rule="evenodd" class="symbols"><g fill-rule="nonzero" class="symbols__asendia"><g class="symbols__asendia__svg-layer"><path fill="#FFF000" class="symbols__asendia__svg-layer__path2215" d="M0 0h259v100H0z"/><g fill="#211E1E" class="symbols__asendia__svg-layer__g15621"><path d="M91.441 73.04v-.03c0-1.653-1.21-3.034-2.908-3.034-1.704 0-2.886 1.353-2.886 3.006v.028c0 1.654 1.205 3.029 2.908 3.029 1.704 0 2.886-1.347 2.886-3m-8.001 0v-.029c0-2.738 2.15-4.988 5.115-4.988 2.965 0 5.093 2.216 5.093 4.96v.028c0 2.739-2.15 4.989-5.115 4.989-2.965 0-5.093-2.216-5.093-4.96" class="symbols__asendia__svg-layer__g15621__path2217"/><path d="M95.487 76.455l1.245-1.5c.866.721 1.777 1.17 2.875 1.17.865 0 1.386-.34 1.386-.91v-.022c0-.54-.334-.818-1.935-1.233-1.935-.494-3.18-1.028-3.18-2.943v-.034c0-1.744 1.397-2.903 3.355-2.903 1.404 0 2.598.443 3.565 1.227l-1.092 1.602c-.849-.596-1.686-.954-2.495-.954-.815 0-1.24.369-1.24.84v.023c0 .637.413.847 2.071 1.273 1.947.511 3.05 1.21 3.05 2.892v.028c0 1.915-1.454 2.989-3.53 2.989a6.07 6.07 0 01-4.075-1.545" class="symbols__asendia__svg-layer__g15621__path2219"/><path d="M134.464 70.574v-.029c0-.55-.374-.892-.911-.892-.56 0-.928.392-.928.978v.028c0 .426.164.739.56 1.193.832-.318 1.279-.67 1.279-1.278m-.113 5.08l-1.845-1.87c-.622.33-.888.801-.888 1.267v.028c0 .67.565 1.125 1.346 1.125.481 0 .945-.204 1.387-.55m1.177 1.215c-.775.648-1.698 1.074-2.807 1.074-1.839 0-3.231-1.074-3.231-2.784v-.023c0-1.233.656-2.096 1.867-2.647-.47-.66-.667-1.267-.667-1.927v-.028c0-1.324 1.058-2.534 2.908-2.534 1.63 0 2.705 1.074 2.705 2.42v.029c0 1.29-.826 2.051-2.02 2.523l1.279 1.278c.31-.494.628-1.063.928-1.653l1.55.858c-.368.676-.775 1.392-1.256 2.034l1.403 1.42L136.642 78l-1.114-1.13z" class="symbols__asendia__svg-layer__g15621__path2221"/><path d="M144.559 76.455l1.256-1.5c.86.715 1.76 1.17 2.863 1.17.86 0 1.392-.34 1.392-.91v-.027c0-.535-.333-.813-1.946-1.228-1.924-.494-3.175-1.028-3.175-2.943v-.028c0-1.75 1.398-2.904 3.356-2.904 1.403-.006 2.597.438 3.57 1.222l-1.097 1.596c-.855-.59-1.692-.948-2.501-.948-.81 0-1.234.375-1.234.84v.023c0 .637.413.841 2.071 1.273 1.947.506 3.05 1.21 3.05 2.892v.028c0 1.915-1.46 2.989-3.53 2.989a6.097 6.097 0 01-4.075-1.545" class="symbols__asendia__svg-layer__g15621__path2223"/><path d="M175.07 76.455l1.25-1.5c.86.721 1.766 1.17 2.864 1.17.866 0 1.386-.34 1.386-.915v-.022c0-.535-.328-.813-1.935-1.228-1.93-.494-3.186-1.028-3.186-2.943v-.027c0-1.75 1.404-2.904 3.362-2.904 1.397 0 2.597.438 3.57 1.222l-1.098 1.596c-.854-.59-1.686-.954-2.495-.954-.81 0-1.24.38-1.24.847v.028c0 .63.414.835 2.072 1.267 1.952.506 3.05 1.21 3.05 2.892v.023c0 1.92-1.454 2.994-3.526 2.994a6.087 6.087 0 01-4.074-1.545" class="symbols__asendia__svg-layer__g15621__path2225"/><path d="M184.401 76.455l1.245-1.5c.866.715 1.766 1.17 2.87 1.17.865 0 1.386-.34 1.386-.915v-.022c0-.535-.329-.813-1.936-1.228-1.935-.494-3.186-1.034-3.186-2.943v-.027c0-1.75 1.404-2.91 3.362-2.91 1.403 0 2.591.444 3.57 1.228l-1.097 1.596c-.85-.59-1.687-.954-2.502-.954-.803 0-1.227.38-1.227.847v.028c0 .63.407.835 2.07 1.267 1.947.506 3.045 1.21 3.045 2.892v.023c0 1.92-1.454 2.994-3.531 2.994a6.073 6.073 0 01-4.069-1.545" class="symbols__asendia__svg-layer__g15621__path2227"/><path d="M216.757 73.04v-.03c0-1.653-1.205-3.034-2.914-3.034-1.697 0-2.874 1.358-2.874 3.006v.028c0 1.654 1.205 3.029 2.908 3.029 1.698 0 2.88-1.353 2.88-3m-8 0v-.029c0-2.744 2.155-4.988 5.12-4.988 2.965 0 5.093 2.221 5.093 4.96v.028c0 2.739-2.162 4.989-5.127 4.989-2.96 0-5.087-2.222-5.087-4.96" class="symbols__asendia__svg-layer__g15621__path2229"/><path d="M220.803 76.455l1.25-1.5c.861.715 1.772 1.17 2.87 1.17.866 0 1.386-.34 1.386-.91v-.027c0-.535-.328-.813-1.935-1.228-1.93-.494-3.18-1.028-3.18-2.943v-.028c0-1.75 1.398-2.91 3.361-2.91 1.398 0 2.592.444 3.565 1.228l-1.098 1.596c-.849-.59-1.686-.948-2.495-.948-.81 0-1.24.369-1.24.84v.023c0 .637.42.841 2.077 1.273 1.947.506 3.045 1.21 3.045 2.892v.023c0 1.914-1.449 2.994-3.531 2.994a6.118 6.118 0 01-4.075-1.545" class="symbols__asendia__svg-layer__g15621__path2231"/><path d="M27.572 75.926c.934 0 1.5-.33 1.5-1.045v-.029c0-.647-.481-1.045-1.568-1.045h-2.439v2.12h2.507zm-.56-3.886c.928 0 1.522-.296 1.522-1.017v-.029c0-.63-.492-.988-1.386-.988h-2.083v2.034h1.947zM23 68.142h4.465c1.097 0 1.963.307 2.505.858.447.437.657.977.657 1.636v.029c0 1.09-.572 1.693-1.256 2.08 1.114.431 1.8 1.073 1.8 2.369v.028c0 1.767-1.433 2.648-3.6 2.648H23v-9.648z" class="symbols__asendia__svg-layer__g15621__path2233"/><path class="symbols__asendia__svg-layer__g15621__path2235" d="M35.896 73.989l-3.701-5.847h2.479l2.286 3.875 2.337-3.875h2.399l-3.689 5.807v3.841h-2.111z"/><path class="symbols__asendia__svg-layer__g15621__path2237" d="M48.503 68.142h2.111v7.716h4.787v1.932h-6.898z"/><path d="M63.199 73.75l-1.279-3.125-1.273 3.125h2.552zm-2.23-5.676h1.953l4.12 9.716h-2.213l-.877-2.165h-4.063l-.877 2.165h-2.15l4.106-9.716z" class="symbols__asendia__svg-layer__g15621__path2239"/><path d="M77.798 73.011c1.053 0 1.675-.636 1.675-1.466v-.028c0-.949-.656-1.454-1.714-1.454h-1.636v2.947h1.675zm-3.791-4.869h3.927c2.292 0 3.678 1.364 3.678 3.34v.024c0 2.233-1.726 3.386-3.882 3.386h-1.607v2.898h-2.116v-9.648z" class="symbols__asendia__svg-layer__g15621__path2241"/><path class="symbols__asendia__svg-layer__g15621__path2243" d="M107.653 70.097h-2.925v-1.955h7.956v1.955h-2.92v7.693h-2.116z"/><path class="symbols__asendia__svg-layer__g15621__path2245" d="M114.992 68.148l7.244-.006v1.892h-5.144v1.954h4.532v1.887h-4.532v2.028h5.211v1.887h-7.311z"/><path class="symbols__asendia__svg-layer__g15621__path2247" d="M153.607 68.08h2.263l1.992 6.528 2.151-6.563h1.81l2.156 6.563 1.992-6.534h2.213l-3.282 9.716h-1.845l-2.162-6.313-2.167 6.313h-1.845z"/><path class="symbols__asendia__svg-layer__g15621__path2249" d="M170.526 68.142h2.111v9.648h-2.111z"/><path d="M203.12 73.011c1.053 0 1.67-.636 1.67-1.466v-.028c0-.949-.663-1.46-1.72-1.46h-1.625v2.953h1.675zm-3.79-4.869h3.921c2.298 0 3.678 1.37 3.678 3.335v.029c0 2.233-1.725 3.392-3.876 3.392h-1.607v2.892h-2.116v-9.648z" class="symbols__asendia__svg-layer__g15621__path2251"/><path class="symbols__asendia__svg-layer__g15621__path2253" d="M232.969 70.097h-2.925v-1.955H238v1.955h-2.92v7.693h-2.111z"/></g><g fill="#211E1E" class="symbols__asendia__svg-layer__g15610"><path d="M71.69 37.762c-.38-.17-.754-.332-1.112-.5-2.886-1.289-4.285-1.988-4.285-3.57 0-2.142 2.139-2.458 3.406-2.458 2.754 0 5.105 1.406 5.756 1.84a.915.915 0 00.674.118.857.857 0 00.55-.42l2.739-4.776a.859.859 0 00-.235-1.126C76.657 24.964 73.331 24 69.318 24c-6.482 0-11.184 4.121-11.184 9.78 0 5.976 3.713 8.603 7.339 10.377.769.39 1.523.735 2.24 1.052 2.828 1.28 4.425 2.09 4.425 3.716 0 1.693-1.692 2.84-4.212 2.84-3.318 0-5.551-1.655-6.35-2.244a.837.837 0 00-.68-.154.89.89 0 00-.572.405l-2.879 4.724a.884.884 0 00.184 1.126C58.859 56.63 62.323 59 68.065 59 75.551 59 80.4 54.908 80.4 48.587c0-6.322-4.123-8.728-8.708-10.825" class="symbols__asendia__svg-layer__g15610__path2297"/><path d="M107.191 50.706l-11.213.008v-6.638h9.492a.876.876 0 00.864-.883v-5.299a.863.863 0 00-.864-.868h-9.492v-5.49l10.883-.008a.863.863 0 00.865-.868v-5.586a.87.87 0 00-.866-.874H88.434a.87.87 0 00-.864.875v32.1c0 .487.388.877.857.877l18.764-.008a.87.87 0 00.872-.868v-5.593a.876.876 0 00-.872-.876" class="symbols__asendia__svg-layer__g15610__path2299"/><path d="M145.438 24.199h-6.145a.868.868 0 00-.857.875v16.963c0 .604.007 1.2.022 1.766a62.284 62.284 0 00-1.707-2.59l-11.52-16.633a.855.855 0 00-.711-.38l-6.812.007a.87.87 0 00-.864.876v32.1c0 .479.388.869.864.869h6.145c.47 0 .857-.39.857-.869V38.814c0-.338 0-.692-.015-1.03.418.64.901 1.34 1.421 2.06l12.415 17.839a.894.894 0 00.717.368h6.19c.483 0 .864-.39.864-.876v-32.1a.865.865 0 00-.865-.876" class="symbols__asendia__svg-layer__g15610__path2301"/><path d="M176.265 40.882c0 6.711-3.26 9.971-9.976 9.971h-2.3V31.39h2.066c7.156 0 10.21 2.84 10.21 9.493m-10.261-16.684h-9.639a.876.876 0 00-.871.875v32.1c0 .487.395.877.871.877h9.404c12.13 0 19.38-6.499 19.38-17.36 0-10.48-6.98-16.492-19.145-16.492" class="symbols__asendia__svg-layer__g15610__path2303"/><path d="M199.417 24.199h-6.768a.865.865 0 00-.864.875v32.1c0 .48.38.877.864.877h6.768a.873.873 0 00.856-.876l.008-32.1a.865.865 0 00-.865-.876" class="symbols__asendia__svg-layer__g15610__path2305"/><path d="M42.958 38.652v2.76l-11.455.007v-2.76c0-4.996 1.604-6.99 5.728-7.123 4.123.132 5.727 2.127 5.727 7.116m2.3-12.702c-2.11-1.162-4.512-1.75-8.027-1.75-3.516 0-5.925.589-8.02 1.744C25.102 28.107 23 32.191 23 38.086v19.118c0 .479.388.876.872.876h6.76a.88.88 0 00.871-.876V48.75h11.455v8.455c0 .479.388.876.865.876h6.767a.868.868 0 00.857-.876l.007-19.126c0-5.894-2.087-9.979-6.196-12.128" class="symbols__asendia__svg-layer__g15610__path2307"/><path d="M229.511 38.652v2.76l-11.47.007v-2.767c0-4.99 1.612-6.984 5.736-7.116 4.123.132 5.734 2.127 5.734 7.116m2.293-12.702c-2.11-1.162-4.52-1.75-8.027-1.75-3.516 0-5.926.589-8.02 1.737-4.116 2.17-6.211 6.248-6.211 12.142v19.126c0 .479.38.869.871.869h6.76c.477 0 .865-.39.865-.869V48.75h11.47v8.455c0 .479.38.869.864.869h6.76c.476 0 .857-.39.857-.869L238 38.078c0-5.894-2.095-9.979-6.196-12.128" class="symbols__asendia__svg-layer__g15610__path2309"/></g></g></g></g></svg>