<svg xmlns="http://www.w3.org/2000/svg" width="185" height="100"><defs><linearGradient id="a" x1="6.84%" x2="61.989%" y1="58.138%" y2="43.353%"><stop offset="0%" stop-color="#AB0604"/><stop offset="100%" stop-color="#DA0219"/></linearGradient><linearGradient id="b" x1=".962%" x2="65.644%" y1="50%" y2="34.601%"><stop offset="0%" stop-color="#AB0604"/><stop offset="100%" stop-color="#DA0219"/></linearGradient></defs><g fill="none" fill-rule="evenodd" class="symbols"><g class="symbols__b-post"><g fill="#575756" fill-rule="nonzero" class="symbols__b-post__svg-layer"><g class="symbols__b-post__svg-layer__group"><path d="M120.967 92.9c-1.163 0-2.325-.263-3.1-.394V100h-5.297V75.414c1.55-.657 4.52-1.314 7.75-1.314 6.846 0 10.462 3.55 10.462 9.466 0 5.522-3.358 9.334-9.816 9.334m-.646-15.25c-1.034 0-1.938.13-2.454.394v11.044c.387.131 1.55.394 2.454.394 3.358 0 5.037-2.366 5.037-5.916.13-3.682-1.679-5.917-5.037-5.917m22.733 15.514c-6.07 0-9.558-4.075-9.558-9.597 0-5.39 3.358-9.466 9.558-9.466 6.2 0 9.558 4.075 9.558 9.466 0 5.522-3.487 9.597-9.558 9.597m0-15.514c-2.842 0-4.262 2.235-4.262 5.917 0 3.681 1.42 5.785 4.262 5.785 2.842 0 4.263-2.104 4.263-5.785-.13-3.682-1.421-5.917-4.263-5.917m18.342 15.514c-2.584 0-5.296-.657-6.846-1.314l1.68-3.55c1.032.526 3.358 1.183 4.907 1.183 1.938 0 3.23-.789 3.23-1.972 0-1.315-1.421-1.972-3.23-2.498-2.712-.789-6.07-1.972-6.07-5.522 0-3.155 2.841-5.39 7.75-5.39 2.712 0 4.908.525 6.458 1.314l-1.68 3.156c-.903-.526-2.84-1.052-4.132-1.052-1.809 0-2.971.789-2.971 1.84 0 1.447 1.42 1.973 3.229 2.499 2.712.92 6.2 1.84 6.2 5.521 0 3.55-2.971 5.785-8.525 5.785m19.246-.131c-4.134 0-5.942-1.972-5.942-5.785v-9.335h-2.713v-3.418h2.714v-4.076l5.296-1.314v5.39H184v3.418h-4.004v8.94c0 1.447 1.033 1.973 2.454 1.973a5.48 5.48 0 001.55-.263v3.813c-.775.394-2.067.657-3.358.657m-71.43-9.466c0 5.916-3.745 9.466-10.462 9.466-3.23 0-6.2-.657-7.75-1.315V67h5.296v7.494c.646-.263 1.937-.394 2.97-.394 6.459 0 9.946 3.812 9.946 9.466m-5.425 0c0-3.419-1.679-5.917-5.037-5.917-.904 0-2.067.132-2.454.395v11.044c.516.263 1.55.394 2.454.394 3.23-.131 5.037-2.235 5.037-5.916" class="symbols__b-post__svg-layer__group__shape"/></g></g><path fill="url(#a)" d="M25.494 31.968L67.422 19.44C56.938 37.352 46.033 47.597 34.708 50.174c-11.325 2.577-14.397-3.492-9.214-18.206z" class="symbols__b-post__path-3" transform="translate(.543)"/><path fill="url(#b)" d="M8.227 37.35c-13.391 32.728-10.434 51.32 8.87 55.778C32.74 96.739 66.414 80.595 86.711 60.25c15.97-16.006 34.63-36.432 45.58-60.25l-30.727 9.122C94.59 22.788 86.208 34.496 76.42 44.244c-8.368 8.333-28.952 26.044-45.795 26.044-16.651 0-20.149-12.134-10.493-36.403L8.227 37.35z" class="symbols__b-post__path-4" transform="translate(.543)"/></g></g></svg>