<svg xmlns="http://www.w3.org/2000/svg" xmlns:xlink="http://www.w3.org/1999/xlink" width="250" height="250" viewBox="0 0 250 250">
  <defs>
    <path id="c" d="M0 0h21.6a4 4 0 0 1 4 4v258.797a4 4 0 0 1-4 4H0V0z"/>
    <path id="e" d="M0 0h36a4 4 0 0 1 4 4v151a4 4 0 0 1-4 4H0V0z"/>
    <path id="g" d="M0 0h18.497a4 4 0 0 1 4 4v101.553a4 4 0 0 1-4 4H0V0z"/>
    <path id="k" d="M3.846 2.499s.107 4.06-.855 6.402c0 0-1.068 3.696-2.991 7.809L8.92 19l6.837-9.682L18 2.238 13.033 0 3.846 2.499z"/>
    <path id="m" d="M0 4.964S1.448 14.414 1.034 21l14.845-1.05 1.345-7.016L18 3.532 15.88.239 11.69 0 0 4.964z"/>
    <path id="o" d="M22.203.038c-3.665.404-4.789 2.883-10.995 7.79-1.271 1.011-7.331 2.73-4.301 5.007.733.556 1.808.91 4.056.202 1.173-.354 4.594-1.77 4.594-1.77s-2.444 4.249-5.473 5.16c0 0-3.763.202-4.936-1.569 0 0-3.421-3.54-4.839.961-.684 2.277-.635 6.728 4.448 8.347 0 0-.44 4.856 6.157 4.45 0 0 2.737 3.542 8.601-.707 0 0 4.399 6.525 11.485-17.704 0 .05-1.955-10.926-8.797-10.167z"/>
    <linearGradient id="q" x1="28.937%" x2="54.59%" y1="137.225%" y2="42.136%">
      <stop offset="0%" stop-color="#3E2914"/>
      <stop offset="9.4%" stop-color="#46301A" stop-opacity=".906"/>
      <stop offset="26.6%" stop-color="#5B432B" stop-opacity=".734"/>
      <stop offset="49.7%" stop-color="#826C55" stop-opacity=".503"/>
      <stop offset="77.3%" stop-color="#C0B3A5" stop-opacity=".227"/>
      <stop offset="100%" stop-color="#FFF" stop-opacity="0"/>
    </linearGradient>
    <linearGradient id="r" x1="54.87%" x2="62.425%" y1="45.993%" y2="33.607%">
      <stop offset="7%" stop-color="#EDBD95"/>
      <stop offset="100%" stop-color="#3E2914"/>
    </linearGradient>
    <rect id="a" width="250" height="250" x="37" y="0"/>
    <rect id="i" width="237" height="121" x="0" y="0"/>
  </defs>
  <g fill="none" fill-rule="evenodd" transform="translate(-37)">
    <mask id="b" fill="#fff">
      <use xlink:href="#a"/>
    </mask>
    <rect width="249" height="249" x="37.5" y=".5" stroke="#979797"/>
    <rect width="250" height="245.528" x="37" fill="#FF4560" mask="url(#b)"/>
    <path fill="#FF4560" d="M219 142.406h18.497a4 4 0 0 1 4 4V246a4 4 0 0 1-4 4H219V142.406z" mask="url(#b)" transform="matrix(-1 0 0 1 460.497 0)"/>
    <g mask="url(#b)" opacity=".26">
      <g transform="translate(6 24)">
        <path fill="#FFC065" d="M24 0h75a4 4 0 0 1 4 4v259a4 4 0 0 1-4 4H24V0z"/>
        <path fill="#CA9E52" d="M24 0h75a4 4 0 0 1 4 4v259a4 4 0 0 1-4 4H24V0z" opacity=".3" style="mix-blend-mode:multiply"/>
        <g opacity=".5" transform="translate(42 54)">
          <rect width="39.585" height="25.472" fill="#FEFCE5" rx="4"/>
          <rect width="27.115" height="1.665" x="4.241" y="4.495" fill="#4D1A64"/>
          <rect width="31.103" height="1.665" x="4.241" y="11.154" fill="#4D1A64"/>
          <rect width="22.33" height="1.665" x="4.241" y="17.814" fill="#4D1A64"/>
        </g>
        <g transform="translate(33 75)">
          <ellipse cx="12.8" cy="13.367" fill="#904092" rx="12.8" ry="13.367"/>
          <path fill="#B886B8" fill-rule="nonzero" d="M21.255 13.036l-.056-.02c-.174-3.381-1.493-6.211-3.697-7.537-.01-.004-.037 0-.034.026.087.422.132.855.158 1.306 0 .04-.042.05-.056.02-.338-.76-.785-1.415-1.324-1.908a4.372 4.372 0 0 0-1.212-.8c-.023-.009-.03.015-.023.03a8.402 8.402 0 0 1 .645 2.067c.003.027-.042.05-.056.019-.418-.632-.933-1.155-1.536-1.528a3.798 3.798 0 0 0-.757-.363 4.398 4.398 0 0 0-1.183-.244c-.023-.008-.034.027-.012.035.32.206.625.459.892.75.322.35.592.747.835 1.185.019.02-.004.051-.026.043-.602-.034-1.209.021-2.176.337a2.326 2.326 0 0 0-.765-.184c-.778-.072-1.525.22-2.15.827-.532.512-.957 1.231-1.218 2.022a5.69 5.69 0 0 0-.19.765c-.472.142-.9.34-1.298.56-1.007.589-1.762 1.436-2.115 2.507-.392 1.187-.23 2.48.355 3.706.72 1.496 2.09 2.886 3.88 3.868.391.219.816.41 1.245.591.134.048.264.108.399.156 3.613 1.3 7.232.61 8.877-1.492.34-.386.646-.822.938-1.29a.158.158 0 0 0 .034-.066c.167-.278.322-.56.463-.874.748.048 1.562-.675 1.919-1.757.403-1.221.061-2.463-.756-2.757z"/>
        </g>
      </g>
    </g>
    <g mask="url(#b)" opacity=".6">
      <g transform="translate(196 75)">
        <path fill="#FFC065" d="M24 0h75a4 4 0 0 1 4 4v259a4 4 0 0 1-4 4H24V0z" opacity=".7"/>
        <path fill="#CA9E52" d="M24 0h75a4 4 0 0 1 4 4v259a4 4 0 0 1-4 4H24V0z" opacity=".3" style="mix-blend-mode:multiply"/>
        <g opacity=".3" transform="translate(32 18)">
          <g transform="translate(0 16)">
            <rect width="39.585" height="25.472" fill="#FEFCE5" rx="4"/>
            <rect width="27.115" height="1.665" x="4.241" y="4.495" fill="#4D1A64"/>
            <rect width="31.103" height="1.665" x="4.241" y="11.154" fill="#4D1A64"/>
            <rect width="22.33" height="1.665" x="4.241" y="17.814" fill="#4D1A64"/>
          </g>
          <g transform="translate(31)">
            <ellipse cx="12.8" cy="13.367" fill="#904092" rx="12.8" ry="13.367"/>
            <path fill="#B886B8" fill-rule="nonzero" d="M21.255 13.036l-.056-.02c-.174-3.381-1.493-6.211-3.697-7.537-.01-.004-.037 0-.034.026.087.422.132.855.158 1.306 0 .04-.042.05-.056.02-.338-.76-.785-1.415-1.324-1.908a4.372 4.372 0 0 0-1.212-.8c-.023-.009-.03.015-.023.03a8.402 8.402 0 0 1 .645 2.067c.003.027-.042.05-.056.019-.418-.632-.933-1.155-1.536-1.528a3.798 3.798 0 0 0-.757-.363 4.398 4.398 0 0 0-1.183-.244c-.023-.008-.034.027-.012.035.32.206.625.459.892.75.322.35.592.747.835 1.185.019.02-.004.051-.026.043-.602-.034-1.209.021-2.176.337a2.326 2.326 0 0 0-.765-.184c-.778-.072-1.525.22-2.15.827-.532.512-.957 1.231-1.218 2.022a5.69 5.69 0 0 0-.19.765c-.472.142-.9.34-1.298.56-1.007.589-1.762 1.436-2.115 2.507-.392 1.187-.23 2.48.355 3.706.72 1.496 2.09 2.886 3.88 3.868.391.219.816.41 1.245.591.134.048.264.108.399.156 3.613 1.3 7.232.61 8.877-1.492.34-.386.646-.822.938-1.29a.158.158 0 0 0 .034-.066c.167-.278.322-.56.463-.874.748.048 1.562-.675 1.919-1.757.403-1.221.061-2.463-.756-2.757z"/>
          </g>
        </g>
        <mask id="d" fill="#fff">
          <use transform="matrix(-1 0 0 1 25.6 0)" xlink:href="#c"/>
        </mask>
        <use fill="#CA9E52" transform="matrix(-1 0 0 1 25.6 0)" xlink:href="#c"/>
        <line x1="25.19" x2="-1.013" y1="1.074" y2="271.652" stroke="#97733A" stroke-linecap="square" stroke-width="3" mask="url(#d)"/>
        <line x1="26.612" x2=".409" y1="1.074" y2="271.652" stroke="#97733A" stroke-linecap="square" stroke-width="3" mask="url(#d)" transform="matrix(-1 0 0 1 27.021 0)"/>
      </g>
    </g>
    <g mask="url(#b)">
      <g transform="translate(79 124)">
        <path fill="#FFC065" d="M40 0l121.955.035a4.007 4.007 0 0 1 4 4.001L166 155c.003 2.21-1.788 4-3.997 4.001L162 159l-121.955-.035L40 0z"/>
        <path fill="#2C2312" d="M40 0l121.955.035a4.007 4.007 0 0 1 4 4.001L166 155c.003 2.21-1.788 4-3.997 4.001L162 159l-121.955-.035L40 0z" opacity=".2" style="mix-blend-mode:multiply"/>
        <g opacity=".7" transform="translate(53 38)">
          <ellipse cx="12.381" cy="13" fill="#904092" rx="12.381" ry="13"/>
          <path fill="#B886B8" fill-rule="nonzero" d="M20.56 12.678l-.054-.02c-.168-3.288-1.445-6.04-3.576-7.33-.01-.004-.036 0-.033.026.084.41.127.83.153 1.27 0 .038-.04.05-.055.019-.327-.739-.76-1.376-1.28-1.855a4.227 4.227 0 0 0-1.173-.779c-.022-.008-.03.015-.022.03a8.206 8.206 0 0 1 .624 2.01c.003.027-.04.05-.054.019-.404-.615-.903-1.124-1.486-1.487a3.665 3.665 0 0 0-.732-.353 4.235 4.235 0 0 0-1.145-.237c-.021-.007-.033.027-.01.034.309.2.603.447.861.73.312.34.573.726.809 1.153.018.019-.004.049-.026.041-.582-.033-1.169.02-2.105.327a2.24 2.24 0 0 0-.74-.179c-.752-.069-1.474.214-2.08.805C7.922 7.4 7.511 8.1 7.26 8.87a5.558 5.558 0 0 0-.183.743c-.457.139-.871.33-1.257.546-.974.572-1.704 1.396-2.046 2.437-.378 1.154-.222 2.413.343 3.605.698 1.454 2.022 2.806 3.754 3.761.378.213.79.4 1.204.575.13.047.256.105.386.152 3.495 1.264 6.996.593 8.586-1.452.33-.375.626-.799.908-1.254a.145.145 0 0 0 .033-.064c.161-.27.312-.545.448-.85.724.046 1.51-.656 1.856-1.709.39-1.188.06-2.396-.73-2.681z"/>
        </g>
        <mask id="f" fill="#fff">
          <use transform="matrix(-1 0 0 1 40 0)" xlink:href="#e"/>
        </mask>
        <use fill="#C09243" transform="matrix(-1 0 0 1 40 0)" xlink:href="#e"/>
        <line x1="38.125" x2="-1.875" y1=".641" y2="162.145" stroke="#97733A" stroke-linecap="square" stroke-width="3" mask="url(#f)" opacity=".5"/>
        <line x1="40.625" x2=".625" y1=".641" y2="162.145" stroke="#97733A" stroke-linecap="square" stroke-width="3" mask="url(#f)" opacity=".5" transform="matrix(-1 0 0 1 41.25 0)"/>
      </g>
    </g>
    <path fill="#FFF" d="M223.159 145.11l64.828-.104a4 4 0 0 1 4.007 4.007l-.16 100.884a4 4 0 0 1-3.993 3.994l-64.828.103a4 4 0 0 1-4.007-4.007l.16-100.884a4 4 0 0 1 3.993-3.994z" mask="url(#b)"/>
    <g mask="url(#b)" opacity=".7">
      <g transform="translate(219 145)">
        <path fill="#FFC065" d="M22.171.116l68.816-.11a4 4 0 0 1 4.007 4.007l-.16 100.884a4 4 0 0 1-3.993 3.994L22 109 22.171.116z"/>
        <g transform="translate(50 10)">
          <rect width="36.579" height="22.555" fill="#FEFCE5" rx="4"/>
          <rect width="25.056" height="1.474" x="3.919" y="3.98" fill="#4D1A64"/>
          <rect width="28.741" height="1.474" x="3.919" y="9.877" fill="#4D1A64"/>
          <rect width="20.634" height="1.474" x="3.919" y="15.774" fill="#4D1A64"/>
        </g>
        <g transform="translate(43 30)">
          <ellipse cx="11.427" cy="11.882" fill="#904092" rx="11.427" ry="11.882"/>
          <path fill="#B886B8" fill-rule="nonzero" d="M18.976 11.587l-.05-.018c-.155-3.005-1.333-5.52-3.3-6.7-.01-.003-.034 0-.03.025.076.374.117.759.14 1.16 0 .035-.037.045-.05.017-.302-.675-.701-1.257-1.182-1.695a3.905 3.905 0 0 0-1.082-.712c-.02-.007-.027.014-.02.028a7.443 7.443 0 0 1 .576 1.837c.002.024-.038.044-.051.017a4.49 4.49 0 0 0-1.371-1.359 3.397 3.397 0 0 0-.675-.323 3.942 3.942 0 0 0-1.057-.216c-.02-.007-.03.024-.01.031.285.183.557.408.795.667.288.311.53.663.746 1.053.017.018-.003.045-.023.038-.538-.03-1.08.019-1.943.3a2.084 2.084 0 0 0-.683-.164c-.694-.064-1.36.195-1.92.735-.474.455-.853 1.094-1.086 1.798a5.04 5.04 0 0 0-.17.68 5.887 5.887 0 0 0-1.16.498c-.898.523-1.572 1.276-1.887 2.228-.35 1.054-.206 2.205.316 3.294.644 1.33 1.866 2.565 3.465 3.438.349.195.728.365 1.11.525.12.043.237.097.357.14 3.226 1.155 6.457.541 7.925-1.328.303-.342.577-.73.838-1.146a.146.146 0 0 0 .03-.058c.15-.248.288-.499.414-.777.668.042 1.394-.6 1.713-1.562.36-1.086.054-2.19-.675-2.45z"/>
        </g>
        <mask id="h" fill="#fff">
          <use transform="matrix(-1 0 0 1 22.497 0)" xlink:href="#g"/>
        </mask>
        <use fill="#CA9E52" transform="matrix(-1 0 0 1 22.497 0)" xlink:href="#g"/>
        <line x1="22.136" x2="-.962" y1=".442" y2="111.85" stroke="#97733A" stroke-linecap="square" stroke-width="3" mask="url(#h)"/>
        <line x1="23.459" x2=".361" y1=".442" y2="111.85" stroke="#97733A" stroke-linecap="square" stroke-width="3" mask="url(#h)" transform="matrix(-1 0 0 1 23.82 0)"/>
      </g>
    </g>
    <rect width="250" height="250" x="37" fill="#FF4560" mask="url(#b)" style="mix-blend-mode:color"/>
    <g mask="url(#b)">
      <g transform="translate(0 177)">
        <path fill="#FFC065" d="M18.168 0h194.64a4 4 0 0 1 4 4v91.507a4 4 0 0 1-4 4H18.167V0z"/>
        <g transform="translate(128 22)">
          <rect width="60.99" height="37.852" fill="#FEFCE5" rx="4"/>
          <g fill="#4D1A64" transform="translate(6.099 7.57)">
            <rect width="41.473" height="2.523"/>
            <rect width="47.572" height="2.523" y="10.094"/>
            <rect width="34.155" height="2.523" y="20.188"/>
          </g>
        </g>
        <g transform="rotate(-30 117.576 -288.827)">
          <ellipse cx="19.968" cy="21.037" fill="#904092" rx="19.968" ry="21.037"/>
          <path fill="#B886B8" fill-rule="nonzero" d="M33.16 20.516l-.087-.032c-.272-5.321-2.33-9.775-5.768-11.862-.017-.006-.058 0-.053.043.135.663.205 1.344.246 2.055 0 .061-.065.079-.087.03-.528-1.195-1.225-2.226-2.065-3.002a6.816 6.816 0 0 0-1.892-1.26c-.035-.013-.047.024-.036.049.138.295.258.585.372.892.286.739.478 1.525.635 2.36.005.043-.065.08-.088.03-.651-.994-1.456-1.818-2.396-2.405a5.903 5.903 0 0 0-1.18-.572 6.81 6.81 0 0 0-1.847-.383c-.035-.012-.053.043-.018.055.5.325.975.722 1.391 1.18.503.552.924 1.176 1.304 1.866.029.031-.007.08-.042.067-.939-.054-1.885.033-3.394.53a3.603 3.603 0 0 0-1.194-.29c-1.213-.112-2.378.346-3.354 1.303-.83.805-1.493 1.937-1.9 3.182a9.02 9.02 0 0 0-.295 1.203 10.2 10.2 0 0 0-2.026.883c-1.572.925-2.75 2.26-3.3 3.944-.61 1.868-.359 3.905.553 5.833 1.125 2.354 3.26 4.542 6.054 6.088.61.344 1.273.646 1.942.93.21.075.413.17.622.246 5.638 2.045 11.284.96 13.849-2.35.53-.606 1.008-1.293 1.464-2.03a.249.249 0 0 0 .053-.103c.26-.438.503-.882.723-1.376 1.167.075 2.436-1.062 2.993-2.765.628-1.922.096-3.877-1.179-4.339z"/>
        </g>
      </g>
    </g>
    <g mask="url(#b)">
      <g transform="translate(37 3)">
        <mask id="j" fill="#fff">
          <use xlink:href="#i"/>
        </mask>
        <g mask="url(#j)">
          <g transform="scale(-1 1) rotate(-30 -172.244 473.953)">
            <path fill="#EDBD95" fill-rule="nonzero" d="M22.773 80.872c-2.34-2.023-1.12-1.875-3.948-7.154-.585-1.085-3.51-5.082-.731-5.625.682-.148 1.51-.049 2.876 1.135.682.592 1.511-.05 1.511-.05s.682-.986-1.121-2.565c0 0-1.17 1.53-2.486 2.368 0 0-1.512 1.234-1.122-2.27.195-1.775-1.852-4.094 2.145-3.601 0 0-2.145-7.204 2.291-4.835 0 0-1.803-6.76 4.095-5.181 0 0 12.724 9.621 8.922 24.473-.05 0-8.483 6.76-12.432 3.305z"/>
            <path fill="#4AAB4C" fill-rule="nonzero" d="M52.104 300l.89-3.397c.098-.1 4.1-8.89 12.005-22.028 4.595-7.642 8.053-15.434 10.277-23.076 2.766-9.491 3.606-18.882 2.52-27.923-1.878-15.734-12.846-28.072-25.494-42.357-9.437-10.64-19.219-21.629-26.729-35.565-8.646-16.034-12.549-33.166-11.956-52.247.346-11.639 4.2-20.68 7.905-29.47 3.706-8.792 7.213-17.084 7.609-28.023C29.625 20.53 28.044.65 28.044.45L33.38 0c0 .2 1.63 20.43 1.086 36.064-.444 11.938-4.298 21.079-8.053 29.97-3.656 8.691-7.114 16.883-7.46 27.472-1.235 40.66 19.219 63.687 37.301 84.066 12.747 14.336 24.753 27.873 26.828 45.305 1.136 9.79.247 19.93-2.718 30.17-2.371 8.142-6.027 16.334-10.869 24.426C61.245 291.159 52.5 299.6 52.105 300z"/>
            <path fill="#000" fill-rule="nonzero" d="M17.218 72.99l7.387-19s2.167 3.477 1.478 5.896c-.69 2.42-8.865 13.103-8.865 13.103z" opacity=".18"/>
            <path fill="#EDBD95" fill-rule="nonzero" d="M33.098 65.177c.242-4.048-2.177-6.554-4.112-9.204-.63-.868-1.742-2.795-3.387-1.157-.387.386-.484 1.012-.484 2.554.048 4.096 2.42 6.217 2.42 6.217l5.563 1.59z"/>
            <path fill="#453836" fill-rule="nonzero" d="M24.93 122.565c-.4 0-.751-.05-1.102-.15-3.106-.949-3.006-1.897-2.154-9.088.701-4.245-.902-1.099 1.403-4.944.5 2.397-.852-7.14-.552-4.693 2.756-10.737-1.002-22.521-1.152-23.57.2-.05.651-.15.702-.2.65-.15.901-.599.851-1.248-.1-.849-.902-1.947.401-2.247.802-.05 1.253.55 1.603.65.401.199.802.299 1.203.299.1 0 .2 0 .35-.05a2.966 2.966 0 0 0 2.355-2.147c.25-1 .15-2.098.35-3.096.552-3.146-2.003-8.989 1.053-9.089-3.006-4.793 2.655-1.298 2.705-1.298 1.804 3.146 5.36 11.935 5.712 15.48.35 2.996.05 6.142-.451 9.088-1.203 6.642-1.804 13.583-3.457 20.174-.551 2.247-1.253 4.344-2.004 6.342 1.052-.65 2.104-1.448 2.805-2.148.31-.272.612-.555.902-.848l.35-.35s-1.602 1.848-1.702 2.147v.05c.15 0 .901-.649 1.102-.649.05 0 .05.05.05.1-.35.999-.952 2.297-1.704 3.595-.751 1.299-1.653 2.447-2.354 3.346-.351.45-.702.749-.902.999-.4.25-3.507 3.445-6.363 3.545m34.118 104.814c-.2-3.346.652-5.793 1.654-8.889 2.605-7.99 5.51-15.73 9.017-23.37 2.906-6.341-5.06-9.837-3.657-16.678 1.253-6.142 2.956-12.983 1.954-19.225-1.303-7.99.501-16.528-6.914-18.176-7.264-1.598-16.883-2.996-23.797.6-3.657 1.897-8.016 6.191-9.57 10.036-5.41 13.433-8.917 29.062-9.368 43.493-.15 4.445.601 9.638.15 14.082-.25 2.447-.65 4.644-1.302 6.542-1.052 2.946-1.904 3.944-2.405 4.394-2.054 4.244-4.66 4.344.852 5.493.651.15 1.252-2.847 1.102-1.798-.15 1.049.501 6.442 4.008 4.744 0 0 .45-.8 2.305.649 0 0 5.21-.65 5.31-6.492 0-1.048.802-3.295.702-4.394-.25-2.497.751-2.796 1.102-4.194 1.002-3.895 3.757-10.587 8.467-8.09 5.51 2.846 5.711 7.54 4.559 13.682-.2 1.049-.602 3.696-.852 4.644-.752 2.647-.752 3.046-1.403 5.593-.4 1.548-1.302 3.396 1.002 4.594.35.2 2.305-1.598 3.808.55 1.202 1.747 1.753 6.141 7.114 1.797.651-.5 1.252 2.597 3.507 3.446 1.252.449 2.555-1.998 2.806-6.792.1-2.247-.1-5.592-.15-6.241z"/>
            <path fill="#FFF" fill-rule="nonzero" d="M30.812 221.062s2.656 5.25 3.207 7.596c.45 1.886.851 4.435-3.607 7.544-2.405 1.683-6.463 5.761-8.116 9.024-1.854 3.721-3.958 9.38-12.073 12.286-2.054.714-6.864 1.427-8.717-1.173-1.052-1.478-2.104-4.486-.05-7.34 3.005-4.079 6.061-10.451 8.065-18.608.651-2.753-1.052-11.878 5.811-9.788 1.203.357 2.104.663 4.71 1.784 1.753.765 6.813 2.345 7.614-1.172.2-.867.852-4.079 1.704-2.702.55.713.65.815 1.452 2.549z"/>
            <g transform="translate(.165 218.875)">
              <path fill="#79207A" fill-rule="nonzero" d="M31.332 3.177s1.423 2.432 2.135 4.913c.508 1.8-.814 4.232-5.287 7.199-2.44 1.654-7.219 6.518-9.15 9.437-4.118 6.323-8.643 8.366-11.845 9.485-2.084.681-6.05.584-6.507-.632-.407-1.07-.458-1.362.966-3.746 2.541-4.232 6.15-9.972 8.184-17.755.661-2.626-1.016-11.48 5.897-9.34 1.22.39 2.135.633 4.779 1.703 1.779.73 6.913 2.238 7.727-1.118.203-.827.864-3.892 1.728-2.578.457.68.56.778 1.373 2.432z"/>
              <path fill="#79207A" fill-rule="nonzero" d="M9.37 33.773l-2.084.779c-2.033.68-6.405.73-7.015-.876-.457-1.265-.457-1.702.966-4.086l.458-.778c2.44-4.038 5.795-9.632 7.676-16.928.152-.535.152-1.41.203-2.432.102-2.53.203-5.692 2.135-6.956 1.017-.681 2.39-.73 4.067-.195.203.049.356.097.56.195 1.016.292 2.033.632 4.27 1.556 1.474.584 4.371 1.41 5.998.633.61-.292 1.017-.779 1.17-1.508l.05-.146c.457-1.8.864-2.919 1.576-3.016.203-.049.559 0 .864.486.102.146.152.244.203.34.305.439.509.78 1.22 2.141.102.195 1.424 2.53 2.186 5.01.458 1.557-.101 4.135-5.44 7.637-2.49 1.606-7.218 6.47-9.048 9.291-3.355 5.108-6.913 7.491-10.014 8.853zm3.203-30.79c-.101.048-.254.096-.356.194-1.575 1.07-1.728 3.988-1.779 6.372-.05 1.07-.05 1.946-.254 2.578-1.932 7.394-5.287 13.036-7.778 17.122l-.457.779c-1.373 2.286-1.271 2.48-.915 3.453.305.827 3.965 1.07 5.998.39 3.305-1.12 7.626-3.21 11.642-9.291 1.931-2.919 6.71-7.832 9.252-9.534 3.863-2.53 5.693-4.913 5.134-6.762-.712-2.432-2.084-4.815-2.084-4.864-.661-1.362-.865-1.654-1.17-2.092-.05-.097-.152-.194-.203-.34-.05-.049-.05-.098-.05-.098-.153.146-.458.633-.865 2.433l-.05.146c-.255.924-.763 1.605-1.627 1.994-.051 0-.051.049-.102.049-2.39 1.021-6.151-.487-6.609-.633-2.186-.924-3.202-1.216-4.168-1.508a2.551 2.551 0 0 1-.56-.194c-1.22-.487-2.236-.535-2.999-.195z"/>
            </g>
            <path fill="#F3F2F2" fill-rule="nonzero" d="M13 249.89s-7.392-6.176-10.99-2.218c0 0-2.432 2.74-1.946 4.262 0 0 .973 2.435 7.149.913-.049 0 3.21-.957 5.787-2.957z"/>
            <path fill="#9A4D94" fill-rule="nonzero" d="M16.499 225.168s-4.578-.671-5.378.48c0 0 .178-2.062.933-3.07.534-.671 1.334-1.774 5.067.144 0 0-.845 1.823-.622 2.446z"/>
            <path fill="#A09FA3" fill-rule="nonzero" d="M14.149 248.125l-.754-.571c-.518-.333-.99-.667-1.178-1.19-.47-1.191.566-2.191 1.13-2.763l.19-.19c8.807-8.952 8.807-18.19 8.807-18.286h.754c0 .096 0 2.429-1.083 5.953-1.037 3.238-3.203 8.047-7.913 12.857l-.189.19c-.612.62-1.224 1.238-.942 1.905.094.286.518.571.942.857.283.19.565.381.848.62l-.612.618z"/>
            <path fill="#371F4B" fill-rule="nonzero" d="M18.409 247.235c2.454-4.434 5.014-7.438 8.002-9.393 5.441-3.623 7.042-6.198 7.469-7.056l.213 1.096c-.8 1.288-2.454 3.433-7.149 6.58-2.88 1.907-5.335 4.815-7.789 9.154-.373.715-1.44 1.955-1.973 2.527h-.054l-.373-.715c.533-.668 1.333-1.621 1.654-2.193zm-2.294-18.118c-.16-.953.586-1.86 1.653-1.955 1.067-.143 2.081.525 2.188 1.478.16.954-.587 1.86-1.654 1.955-1.014.143-2.027-.524-2.187-1.478z"/>
            <path fill="#80838A" fill-rule="nonzero" d="M19.156 230.171c-.182.09-.363.136-.544.182-.544.09-1.043-.046-1.497-.363-.408-.318-.725-.816-.77-1.315-.091-.544.045-1.043.362-1.496a1.827 1.827 0 0 1 1.315-.771c.544-.091 1.043.045 1.497.362.436.306.717.786.77 1.315.091.544-.045 1.043-.362 1.497a1.954 1.954 0 0 1-.771.59zm-1.406-2.992c-.181.09-.363.226-.499.408-.226.272-.317.634-.226.952.045.363.226.635.498.861.273.227.635.318.953.227.725-.09 1.224-.77 1.088-1.45-.09-.726-.77-1.225-1.451-1.09-.09 0-.227.046-.363.092z"/>
            <path fill="#371F4B" fill-rule="nonzero" d="M14.205 234.35c-.165-1.098.605-2.142 1.703-2.252 1.1-.165 2.143.605 2.253 1.703.165 1.1-.605 2.143-1.703 2.253-1.044.165-2.088-.605-2.253-1.703z"/>
            <path fill="#80838A" fill-rule="nonzero" d="M17.522 235.015c-.182.09-.363.135-.544.18-1.088.135-2.131-.63-2.267-1.709-.091-.54.045-1.034.362-1.484.318-.405.817-.72 1.315-.764.544-.09 1.043.045 1.497.36.408.314.725.809.77 1.303.091.54-.045 1.035-.362 1.484-.182.27-.454.495-.771.63zm-1.36-3.013c-.5.225-.817.765-.771 1.35.09.719.77 1.213 1.45 1.078.363-.045.636-.225.862-.494.227-.27.318-.63.227-.945-.045-.36-.227-.63-.499-.854-.272-.225-.635-.315-.952-.225a.846.846 0 0 0-.317.09z"/>
            <path fill="#371F4B" fill-rule="nonzero" d="M10.84 238.18c-.166-1.098.604-2.142 1.702-2.252 1.1-.165 2.143.605 2.253 1.703.165 1.1-.605 2.143-1.703 2.253-1.044.165-2.088-.605-2.253-1.703z"/>
            <path fill="#80838A" fill-rule="nonzero" d="M14.486 240.21c-.18.09-.36.136-.54.18-1.078.136-2.113-.63-2.248-1.713-.134-1.082.63-2.12 1.71-2.255 1.078-.135 2.113.631 2.248 1.714.09.541-.045 1.037-.36 1.488-.27.226-.495.451-.81.586zm-2.113-1.623c.09.721.764 1.218 1.439 1.082.72-.09 1.214-.766 1.08-1.443-.09-.722-.765-1.218-1.44-1.082-.674.045-1.169.721-1.079 1.443z"/>
            <g transform="translate(4.835 222.643)">
              <mask id="l" fill="#fff">
                <use xlink:href="#k"/>
              </mask>
              <path fill="#FFF" fill-rule="nonzero" d="M13.94 4.373c-.16.104-.373.104-.587.104-2.403-.365-9.187-.73-11.323 1.926-.374.468-1.015.52-1.496.156C.054 6.195 0 5.569.374 5.1c3.365-4.11 12.872-2.758 13.3-2.705.587.104.961.624.854 1.145a1.087 1.087 0 0 1-.587.833zm-2.884 5.57a.915.915 0 0 1-.64.052C8.278 9.526 2.295 8.953.16 11.556c-.374.469-1.015.52-1.495.156-.481-.364-.534-.989-.16-1.457C1.868 6.09 10.468 7.86 10.842 7.912c.587.104.908.677.8 1.198-.052.416-.266.676-.587.832zm-2.83 5.83c-.214.104-.481.104-.695.052-1.976-.52-7.638-1.25-9.72 1.353-.375.469-1.016.52-1.496.156-.481-.364-.535-.989-.16-1.457 3.418-4.165 11.59-2.135 11.91-2.03.588.156.908.728.748 1.249-.107.312-.32.572-.587.677z" mask="url(#l)"/>
            </g>
            <path fill="#79207A" fill-rule="nonzero" d="M33.19 118.47s12.14-11.138 8.441-29c0 0-10.054 5.57-17.168 3.613-.427 2.558-2.656 23.13-3.13 21.825l11.856 3.562z"/>
            <path fill="#453836" fill-rule="nonzero" d="M53.912 183.766l.05 1.57.15 1.519.15 1.012.2 1.165c.35 1.62.949 3.545 1.948 5.57.55 1.013 1.15 2.076 1.9 3.14.749 1.012 1.598 2.076 2.647 3.088 1.999 1.975 4.547 3.798 7.545 4.963a23.007 23.007 0 0 0 9.944 1.62 25.068 25.068 0 0 0 5.396-.911l.7-.203.15-.05c.15-.051-.15.05-.1.05h.05l.1-.05.4-.152c.5-.203.999-.355 1.498-.557l.4-.152.3-.152.6-.304c.4-.203.8-.354 1.249-.557 3.448-1.772 6.745-4.203 9.943-7.039 3.148-2.835 6.196-5.924 9.294-9.064 3.098-3.088 6.296-6.177 9.694-8.861 3.448-2.684 7.195-4.963 11.143-6.431a30.94 30.94 0 0 1 11.592-1.924c.9-.05 1.799.101 2.648.152.45.05.85.101 1.25.101.4.05.799.152 1.199.203l2.348.455c.75.203 1.45.405 2.149.557 1.399.355 2.648.861 3.797 1.216 1.15.405 2.199.86 3.098 1.265 1.849.76 3.248 1.52 4.197 2.026l1.45.76c1.448.76 2.048 2.531 1.299 4-.7 1.468-2.449 2.025-3.898 1.316l-.15-.05s-.45-.253-1.349-.658c-.9-.406-2.198-1.115-3.897-1.773-.85-.354-1.75-.76-2.799-1.063-1.049-.355-2.148-.76-3.347-1.013l-1.85-.456c-.649-.1-1.298-.202-1.998-.354-.35-.05-.7-.152-1.05-.152-.349-.05-.699-.05-1.048-.101-.7-.05-1.45-.152-2.149-.102-2.948-.05-6.096.456-9.244 1.671-3.148 1.216-6.246 3.14-9.244 5.57-2.998 2.482-5.946 5.419-8.944 8.508-2.998 3.088-6.046 6.38-9.394 9.52-3.348 3.139-7.145 6.076-11.342 8.304-.55.304-1.15.557-1.7.81l-.849.405c-.15.05-.3.152-.4.203l-.4.152c-.499.202-.999.405-1.498.557l-.35.151-.1.051h-.05l-.2.05-.2.051-.85.254a35.805 35.805 0 0 1-6.945 1.316c-4.646.355-9.243-.405-13.29-1.924-4.048-1.52-7.496-3.9-10.244-6.482-1.4-1.316-2.548-2.683-3.598-4.05-1.049-1.368-1.898-2.786-2.648-4.153a30.93 30.93 0 0 1-2.798-7.545c-.1-.557-.25-1.063-.35-1.57-.1-.506-.15-.962-.2-1.367l-.25-2.329c-.05-1.063-.05-1.57-.05-1.57-.1-2.38 1.7-4.355 4.048-4.456 2.348-.101 4.297 1.722 4.397 4.102-.15.05-.15.101-.15.152z"/>
            <path fill="#1D1D1B" fill-rule="nonzero" d="M51.296 97.293c.783-.527 1.665-.879 2.546-1.23.881-.308 1.86-.571 2.791-.703a16.46 16.46 0 0 1 2.938-.132c.98.044 1.959.22 2.889.44a13.45 13.45 0 0 1 5.142 2.547 15.393 15.393 0 0 1 3.623 3.997c-1.322-1.23-2.644-2.416-4.162-3.382-.343-.264-.784-.44-1.126-.703-.196-.088-.392-.22-.588-.307l-.294-.132-.294-.132c-.832-.395-1.664-.659-2.546-.878-1.714-.483-3.574-.615-5.435-.483-.93.044-1.86.175-2.742.351-.93.22-1.812.483-2.742.747zm-12.83.131a10.979 10.979 0 0 0-3.33-.527 11.05 11.05 0 0 0-3.182.352 4.06 4.06 0 0 1-.783.22c-.245.043-.49.175-.735.263-.245.088-.49.176-.734.307-.245.132-.49.264-.735.352l-.685.395-.686.44c-.44.307-.881.658-1.371.922l.98-1.318.587-.571c.196-.176.392-.395.636-.527l.735-.483a1.09 1.09 0 0 1 .392-.22l.391-.22c.54-.307 1.127-.439 1.665-.658a8.419 8.419 0 0 1 3.624-.132c1.224.263 2.35.703 3.232 1.405z"/>
            <path fill="#79207A" fill-rule="nonzero" d="M16.88 194.984c.3.398 1.254 5.275 8.928 8.41 13.492 5.424 30.747 4.926 42.985 3.533.702-1.592 6.872-22.642 6.671-27.071-.2-4.03-5.618-16.97-8.376-21.249-2.608-.796-38.02-19.507-45.293-15.078-.451.647-7.774 18.91-6.07 31.798v.15l-.1.1s.1 4.976.352 9.355c.3 3.234.05 5.971.903 10.052z"/>
            <path fill="#FFF" fill-rule="nonzero" d="M59.632 228.977c1.616 1.959 1.616 2.812 4.751 6.579 0 0 2.94 3.515 2.596 7.734 0 0-.98 7.733-1.96 12.203-1.91 8.839-6.318 14.513-12.147 16.874 0 0-10.629 5.624-12.735-4.47-.196-1.054-.245-1.657.392-5.072 1.176-6.277 1.763-12.203 0-25.461-.049-.452-.343-1.356.49-1.758 0 0-2.743-4.269.833-6.629 2.84-1.858 11.265-4.67 13.176 3.214 0 0 1.812.402 3.135.553.685.05 1.763-.302 1.469-2.863-.049-.2-.44-1.456 0-.904z"/>
            <g transform="translate(38.293 226.13)">
              <path fill="#79207A" fill-rule="nonzero" d="M20.12 2.708c1.642 1.968 1.692 2.422 4.579 6.459 0 0 .548 1.564-.896 7.014 0 0-2.19 9.587-4.38 13.877-2.39 4.592-6.222 8.275-10.452 10.092 0 0-7.068 3.23-8.71.555-.35-.606.248-3.33.447-4.037 1.444-6.257 1.792-12.262 0-25.584-.05-.454-.796-1.362.448-1.715 0 0-2.737-4.34.896-6.711C4.94.79 13.55-3.145 15.442 5.887c0 0 1.84.404 3.185.555.697.05 1.792-.303 1.493-2.876-.05-.152-.448-1.413 0-.858z"/>
              <path fill="#79207A" fill-rule="nonzero" d="M11.061 39.342c-.647.404-1.344.707-1.99 1.01-.3.151-7.268 3.28-8.91.504-.299-.454-.15-1.766.398-4.138v-.05c1.394-6.106 1.842-12.01 0-25.533 0-.05-.05-.202-.1-.303-.1-.303-.248-.706-.1-1.11.1-.202.3-.353.548-.454-.497-.908-2.24-4.643 1.046-6.762.597-.404 5.923-3.734 9.954-2.018 1.892.807 3.136 2.573 3.733 5.298.398.101 1.941.404 3.036.555.25.05.598 0 .896-.303.399-.403.548-1.21.399-2.371 0-.05-.05-.101-.05-.253-.15-.555-.2-.857 0-.958.199-.101.348.1.398.202.896 1.11 1.344 1.715 2.04 2.775l2.54 3.683v.05c0 .051.547 1.717-.897 7.116 0 .1-2.19 9.688-4.38 13.927-2.04 3.835-5.077 7.115-8.56 9.133zM.858 9.672c-.1.05-.2.15-.25.201-.099.202 0 .505.1.808.05.151.1.252.1.403C2.649 24.71 2.25 30.613.808 36.77v.05C.16 39.696.26 40.453.36 40.654c1.543 2.523 8.412-.605 8.461-.605 4.231-1.817 8.014-5.45 10.353-9.991 2.19-4.189 4.33-13.726 4.38-13.827 1.294-4.945.946-6.71.896-6.913-1.294-1.766-1.99-2.876-2.538-3.683-.647-.96-1.046-1.565-1.842-2.523 0 .1.05.202.05.252a.9.9 0 0 1 .05.303c.149 1.261 0 2.17-.498 2.674-.299.303-.697.454-1.195.404-1.344-.152-3.185-.555-3.235-.555l-.1-.05v-.102C14.596 3.364 13.4 1.648 11.61.891 7.776-.723 2.599 2.506 2.002 2.91c-3.434 2.22-.945 6.257-.796 6.459l.15.202-.25.05c-.05-.05-.149 0-.248.05z"/>
            </g>
            <path fill="#F3F2F2" fill-rule="nonzero" d="M57.44 257.625s-9.2-7.002-16.893.681c0 0-.831 3.307-1.091 5.154-.104.73.26 2.14 2.339 2.237 0 0 8.784.584 15.645-8.072z"/>
            <path fill="#371F4B" fill-rule="nonzero" d="M51.033 237.717c-.567-.977-.206-2.16.723-2.726.98-.566 2.167-.206 2.734.72.568.926.207 2.16-.722 2.727-.98.566-2.167.257-2.735-.72z"/>
            <path fill="#80838A" fill-rule="nonzero" d="M52.88 237.952a1.988 1.988 0 0 1-2.718-.727 2.017 2.017 0 0 1 .722-2.737 1.988 1.988 0 0 1 2.718.727c.594.94.255 2.181-.722 2.737zm-1.614-2.865c-.637.342-.85 1.154-.467 1.796.34.641 1.147.855 1.784.47.637-.342.849-1.154.467-1.796-.382-.641-1.19-.855-1.784-.47z"/>
            <path fill="#371F4B" fill-rule="nonzero" d="M50.765 242.19c-.567-.98-.206-2.167.723-2.735.98-.567 2.167-.206 2.734.723.568.98.207 2.167-.722 2.734-.929.568-2.167.207-2.735-.722z"/>
            <path fill="#80838A" fill-rule="nonzero" d="M52.612 242.416a1.988 1.988 0 0 1-2.718-.727 2.017 2.017 0 0 1 .722-2.737 1.988 1.988 0 0 1 2.718.727c.594.94.255 2.181-.722 2.737zm-1.614-2.865c-.637.342-.85 1.154-.467 1.796.34.641 1.146.855 1.783.47.638-.342.85-1.154.468-1.796-.383-.599-1.19-.813-1.784-.47z"/>
            <path fill="#371F4B" fill-rule="nonzero" d="M49.363 250.61c-.567-.978-.206-2.161.723-2.727.98-.566 2.167-.206 2.734.72.568.978.207 2.161-.722 2.727-.929.566-2.167.257-2.735-.72z"/>
            <path fill="#80838A" fill-rule="nonzero" d="M52.576 250.478a1.988 1.988 0 0 1-2.718-.727 2.017 2.017 0 0 1 .722-2.737 1.988 1.988 0 0 1 2.718.727c.594.94.255 2.181-.722 2.737zm-1.614-2.865c-.637.342-.85 1.154-.467 1.796.34.641 1.147.855 1.784.47.637-.342.849-1.154.467-1.796-.382-.641-1.19-.855-1.784-.47z"/>
            <path fill="#A09FA3" fill-rule="nonzero" d="M48.221 251.561c-.05-1.857.05-4.719.202-7.53.101-2.31.202-4.468.152-5.924 0-3.564 1.716-5.672 3.332-5.823 1.97-.2 3.585.402 5 1.004a13 13 0 0 0 1.615.603c1.11.3 1.919.25 2.373-.151.556-.552.505-1.757.505-1.757l.05.1.657.804.101.1c-.05.402-.353 1.004-.707 1.355-.656.603-1.717.703-3.13.352-.556-.15-1.111-.402-1.717-.603-1.414-.552-2.828-1.104-4.595-.903-1.06.1-2.626 1.757-2.576 5.02 0 1.506-.1 3.665-.151 5.974-.101 2.76-.252 5.622-.202 7.43 0 .753.202 1.305 2.07 1.857a32.333 32.333 0 0 1 6.817 2.761l-.404.753c-2.474-1.355-4.847-2.159-6.615-2.66-2.02-.703-2.726-1.406-2.777-2.762z"/>
            <path fill="#371F4B" fill-rule="nonzero" d="M60.752 257.749c3.964-9.499 5.373-20.967 5.373-21.065 0 0 .521.886.626 1.427.052.099-1.304 10.877-5.477 20.573l-.522-.935z"/>
            <path fill="#9A4D94" fill-rule="nonzero" d="M50.468 232.17s-6.667.847-8.76 2.184c0 0-1.702-2.006-1.118-3.833 0 0 3.211-2.452 8.661-2.14 0 0 .633 1.783 1.217 3.789z"/>
            <g transform="translate(39.512 233.581)">
              <mask id="n" fill="#fff">
                <use xlink:href="#m"/>
              </mask>
              <path fill="#FFF" fill-rule="nonzero" d="M13.655 4.105a.927.927 0 0 1-.517.143c-2.845.047-10.604.716-12.569 3.484-.31.477-.983.573-1.5.286-.517-.286-.62-.907-.31-1.384 1.293-1.814 4.138-3.15 8.43-3.866 3.052-.525 5.794-.525 5.897-.525.62 0 1.086.43 1.086 1.002 0 .382-.206.716-.517.86zm-.569 6.06a1.11 1.11 0 0 1-.569.144c-2.638-.048-9.88.382-11.793 3.15-.31.477-.983.573-1.5.286-.517-.286-.62-.906-.31-1.384C.207 10.5 2.948 9.26 7.034 8.686c2.897-.43 5.432-.381 5.535-.381.62 0 1.086.477 1.034 1.002 0 .382-.206.716-.517.859zm-.362 6.158a1.47 1.47 0 0 1-.62.143c-2.483-.239-9.363-.191-11.276 2.53-.31.477-.983.572-1.5.286-.518-.287-.621-.907-.31-1.384C.31 16.036 3 14.89 6.982 14.509c2.793-.286 5.224-.048 5.327-.048.597.058 1.034.546.983 1.098a1 1 0 0 1-.569.764z" mask="url(#n)"/>
            </g>
            <path fill="#000" fill-rule="nonzero" d="M15.155 78.171s-2.028 5.759-2.208 14.447c-.18 8.688.18 13.553.18 13.553s2.209-8.688 2.66-13.354c.45-4.667-.632-14.646-.632-14.646z" opacity=".15"/>
            <g transform="translate(15.986 52.123)">
              <ellipse cx="4.682" cy="7.959" fill="#EDBD95" fill-rule="nonzero" rx="1.909" ry="2.876"/>
              <path fill="#EDBD95" fill-rule="nonzero" d="M4.818 12.17c0 1.387-1.227 3.184-2.409 3.184C1.227 15.354.5 13.557.5 12.17c0-1.386 1.136-2.721 2.318-2.721 1.182 0 2 1.335 2 2.721z"/>
              <ellipse cx="1.545" cy="16.638" fill="#EDBD95" fill-rule="nonzero" rx="1.545" ry="2.362"/>
              <ellipse cx="7.091" cy="3.389" fill="#EDBD95" fill-rule="nonzero" rx="1.909" ry="3.389"/>
            </g>
            <path fill="#000" fill-rule="nonzero" d="M82.792 244.467s-2.99 15.495-11.315 28.586c-6.404 10.074-7.685 11.608-7.685 11.608s17.719-37.841 17.719-39.99c0-2.147 1.28-.204 1.28-.204z" opacity=".15"/>
            <path fill="#EDBD95" fill-rule="nonzero" d="M86.218 216.419c-3.665.404-4.789 2.883-10.995 7.79-1.271 1.011-7.331 2.73-4.301 5.007.733.556 1.808.91 4.056.202 1.173-.354 4.594-1.77 4.594-1.77s-2.444 4.249-5.473 5.16c0 0-3.763.202-4.936-1.569 0 0-3.421-3.54-4.839.961-.684 2.277-.635 6.728 4.448 8.347 0 0-.44 4.856 6.157 4.45 0 0 2.737 3.542 8.601-.707 0 0 4.399 6.525 11.485-17.704 0 .05-1.955-10.926-8.797-10.167z"/>
            <g transform="translate(64.015 216.381)">
              <mask id="p" fill="#fff">
                <use xlink:href="#o"/>
              </mask>
              <g fill-rule="nonzero" mask="url(#p)">
                <g transform="translate(4.112 20.958)">
                  <path fill="#EDBD95" d="M.45 3.713S7.34 5.13 9.782.527"/>
                  <path fill="#BF9A80" d="M5.776 4.118L4.31 4.37C2.208 4.573.498 4.219.4 4.219c-.293-.05-.44-.354-.39-.607a.495.495 0 0 1 .586-.405c.049 0 6.597 1.316 8.796-2.933.147-.253.44-.354.685-.203.244.152.342.456.195.708-.88 1.67-2.443 2.833-4.496 3.339z"/>
                  <path fill="#EDBD95" d="M6.362 8.316s4.545-.657 6.744-5.058"/>
                  <path fill="#BF9A80" d="M7.047 8.67c-.343.102-.587.102-.587.152-.293.05-.537-.152-.586-.455a.52.52 0 0 1 .44-.607c.048 0 4.349-.708 6.353-4.755.146-.253.44-.354.684-.202.244.152.342.455.195.708-1.808 3.642-5.131 4.856-6.5 5.16z"/>
                  <path fill="#EDBD95" d="M15.061 8.367s1.222-1.518 2.346-4.25"/>
                  <path fill="#BF9A80" d="M15.159 8.873c-.147.05-.293 0-.44-.101-.195-.203-.244-.506-.049-.709 0 0 1.173-1.517 2.248-4.097.098-.253.391-.404.636-.253.244.101.39.405.244.658-1.124 2.731-2.346 4.3-2.395 4.35a.268.268 0 0 1-.244.152z"/>
                </g>
              </g>
            </g>
            <path fill="#453836" fill-rule="nonzero" d="M68.953 186.659l1.006 3.992c3.62 8.084 6.636 16.417 8.898 24.95.603 2.195 1.106 4.49.553 6.736-.151.649-.402 1.398.05 1.897.855.948 2.111-.55 3.217-1.248 1.86-1.198 4.374.549 5.128 2.645.754 2.096.453 4.391.855 6.537.302 1.596 1.407 3.343 3.016 3.393 1.408 0 2.464-1.248 3.167-2.445 3.67-6.338 3.67-14.072 2.162-21.308-.201-.898-.402-1.846-.653-2.744-2.414-9.282-4.274-15.07-8.798-23.503l-18.6 1.098z"/>
            <path fill="#79207A" fill-rule="nonzero" d="M57.148 186.95c5.763 6.113 10.836 13.238 12.068 14.955 1.773-1.768 7.635-9.397 19.703-13.49-4.089-10.812-13.3-26.728-26.747-22.939-5.96 1.668-9.26 7.529-7.98 13.642.542 2.78 2.316 5.154 2.956 7.832z"/>
            <path fill="#3D3D3C" fill-rule="nonzero" d="M14.822 141.502c.5.5-.6-.6 0 0z"/>
            <path fill="#453836" fill-rule="nonzero" d="M48.81 76.881c3.06 2.394 8.228 6.731 8.329 8.775v.549h-.552c-3.211.1-6.272.598-9.131 1.495a39.605 39.605 0 0 0-3.663 1.346l-.15.05h-.15c-2.91-.448-5.971-.15-8.63.798a15.324 15.324 0 0 0-4.967 2.842 14.117 14.117 0 0 0-3.663 4.886c-1.454 3.19-2.458 7.378-3.06 10.37l-.1.399-.452.05c-2.308.149-4.616.797-6.873 1.994-3.663 1.894-6.823 4.985-8.98 8.675-2.91 5.085-3.764 10.968-2.51 17 1.506 6.93 5.67 13.71 12.493 20.292 2.057 1.994 5.368 4.238 9.282 6.332 4.013 2.143 9.783 4.387 14.7 5.733 18.914 5.235 37.377-1.396 47.01-16.851 1.505-2.393 2.81-4.836 4.013-7.28l.151-.348.401.05c1.004.15 2.007.05 3.06-.2a9.91 9.91 0 0 0 3.663-1.894c2.258-1.795 3.964-4.487 4.867-7.578 1.003-3.54 1.053-6.532.2-8.825-.802-2.244-2.508-3.79-4.716-4.437-.4-.1-.802-.2-1.354-.2l-.502-.05v-.498c-.05-3.19-.502-6.282-1.304-9.124-4.817-17.2-14.6-25.476-18.012-27.969.452 1.695 1.004 4.487.602 6.132l-.3 1.247-.703-1.047c-3.713-5.784-7.726-9.323-10.385-11.218a30.878 30.878 0 0 0-3.462-2.144c1.254 2.294 3.462 6.83 3.512 10.42l.05 1.546-1.003-1.197c-5.67-6.63-13.797-9.223-17.71-10.12z"/>
            <path fill="#EDBD95" fill-rule="nonzero" d="M92.16 125.187c5.605-3.83 13.64-2.089 10.466 9.401-1.587 5.67-6.15 9.351-10.268 8.207-2.331-.646-4.018-2.735-4.712-5.471-1.389-5.471 1.091-9.849 4.514-12.137zM81.644 143.84a16.602 16.602 0 0 0-1.935-5.92 22.645 22.645 0 0 0-3.075-4.376c-.843-.896-1.637-1.691-2.331-2.239 1.984-1.69 5.06-4.725 6.746-8.853a15.951 15.951 0 0 0 1.24-7.262 18.524 18.524 0 0 0-1.786-6.765c-2.629-5.422-7.837-9.799-13.541-11.39-3.225-.896-6.449-.846-9.276.149a13.374 13.374 0 0 0-4.018 2.238c-.149-.647-.347-1.293-.645-1.89-1.24-2.487-3.67-4.328-6.895-5.223-3.025-.846-6.448-.746-9.374.348-1.588.597-3.026 1.393-4.266 2.487-1.34 1.144-2.381 2.587-3.125 4.178-1.687 3.73-2.778 9.153-3.274 11.938-2.53-.249-5.258.348-7.936 1.741-3.274 1.691-6.151 4.526-8.036 7.859-2.629 4.626-3.423 9.998-2.232 15.569 1.389 6.466 5.357 12.982 11.805 19.2 3.72 3.58 12.351 8.604 21.776 11.24 6.349 1.791 12.301 2.289 17.658 1.543 6.498-.896 11.955-3.73 16.22-8.357 4.812-5.322 6.945-10.793 6.3-16.215z"/>
            <path fill="url(#q)" fill-rule="nonzero" d="M74.325 52.094a16.598 16.598 0 0 0-1.936-5.92 22.645 22.645 0 0 0-3.076-4.376c-.844-.896-1.637-1.691-2.332-2.239 1.985-1.69 5.061-4.725 6.748-8.853a15.946 15.946 0 0 0 1.24-7.262 18.519 18.519 0 0 0-1.786-6.765c-2.63-5.422-7.84-9.799-13.546-11.39-3.225-.896-6.45-.846-9.279.149a13.38 13.38 0 0 0-4.019 2.238c-.149-.647-.347-1.293-.645-1.89-1.24-2.487-3.672-4.328-6.897-5.223-3.027-.846-6.45-.746-9.378.348-1.588.597-3.027 1.393-4.268 2.487-1.34 1.144-2.381 2.587-3.126 4.178-1.687 3.73-2.778 9.153-3.275 11.938-2.53-.249-5.26.348-7.939 1.741-3.275 1.691-6.153 4.526-8.038 7.859C.143 33.74-.651 39.112.54 44.683c1.39 6.466 5.359 12.982 11.81 19.2 3.721 3.58 12.355 8.604 21.783 11.24 6.35 1.791 12.305 2.289 17.664 1.543 6.5-.896 11.959-3.73 16.226-8.357 4.813-5.322 6.947-10.793 6.302-16.215z" transform="translate(6.251 90.827)"/>
            <g opacity=".29" transform="translate(25.751 94.372)">
              <path fill="#FFF" fill-rule="nonzero" d="M46.374 9.578c-14.597-9.953-20.526 1.879-19.817.863.152-.457.355-9.293-12.417-10.41C4.713-.832 0 16.535 0 16.535c2.534-.203 4.663 0 7.197.05 1.723.052 3.142.356 4.815.356 1.267.102 2.382.66 3.598.914 7.653 1.778 14.545 5.23 21.692 9.04a21.632 21.632 0 0 1 4.46 3.199c2.686 2.336 4.662 4.062 7.196 6.855.102.102.558-.101.609.051 2.584-2.387 12.416-16.809-3.193-27.422z"/>
              <path fill="url(#r)" fill-rule="nonzero" d="M46.374 9.578c-14.597-9.953-20.526 1.879-19.817.863.152-.457.355-9.293-12.417-10.41C4.713-.832 0 16.535 0 16.535c2.534-.203 4.663 0 7.197.05 1.723.052 3.142.356 4.815.356 1.267.102 2.382.66 3.598.914 7.653 1.778 14.545 5.23 21.692 9.04a21.632 21.632 0 0 1 4.46 3.199c2.686 2.336 4.662 4.062 7.196 6.855.102.102.558-.101.609.051 2.584-2.387 12.416-16.809-3.193-27.422z"/>
            </g>
            <path fill="#2E2E2E" fill-rule="nonzero" d="M67.657 118.507c1.242.43 2.882-.906 3.676-3.005.795-2.098.448-4.15-.794-4.579-1.242-.43-2.882.906-3.677 3.005-.795 2.099-.447 4.15.795 4.58zm-23.946-7.345c1.043.286 2.335-.859 2.882-2.624.546-1.765.149-3.434-.895-3.72-1.043-.286-2.335.858-2.881 2.623-.547 1.765-.15 3.435.894 3.72zm57.828 20.32a5.65 5.65 0 0 0-.05-1.575c-.05-.572-.248-1.145-.496-1.67 0-.095-.05-.142-.05-.238-.05-.047-.1-.143-.149-.19-.348-.525-.795-1.002-1.292-1.336a4.425 4.425 0 0 0-1.59-.763 4.329 4.329 0 0 0-1.54-.096c-.248 0-.447.048-.645.096-.1.047-.2.047-.299.095-.099.048-.198.048-.298.095-.149.048-.347.144-.496.191-.15.048-.299.143-.398.191-.1.095-.248.143-.348.19-.099.049-.198.144-.298.192l-.497.381s.2-.047.597-.19c.099 0 .198-.048.298-.048.1-.048.248-.048.347-.096.15 0 .299-.047.448-.047.149-.048.298-.048.447-.048.646-.048 1.44 0 2.136.334.696.334 1.292.906 1.739 1.717 0 .048 0 .095.05.143 0 .048.05.095.099.143.199.382.397.811.546 1.24.15.43.2.859.249 1.288.1.811.05 1.622-.05 2.242-.1.62-.248 1.145-.348 1.526a3.716 3.716 0 0 0-.198.525l.099-.095c.05-.096.199-.191.298-.334a6.38 6.38 0 0 0 .894-1.383c.447-.668.745-1.527.795-2.48zm-7.452-1.909c.845 1.336 1.192 2.004.646 3.435-.646 1.669-3.18 2.098-3.18 2.098 1.789.763 4.124 1.097 5.117-1.526.895-2.29-.745-3.434-2.583-4.007z"/>
            <path fill="#000" fill-rule="nonzero" d="M51.144 146.16c-4.496 4.096.766 5.446-.92 7.567-2.657 3.325-7.715 1.831-9.707-2.314-1.073-2.169.05-7.905 4.904-6.459 1.584-.82 3.475-.385 5.723 1.205z" opacity=".26"/>
            <path fill="#2E2E2E" fill-rule="nonzero" d="M58.968 142.46c0-.05 0-.146.051-.195v-.387c0-.243-.101-.534-.203-.727-.102-.243-.204-.437-.356-.582-.254-.34-.56-.582-.814-.775-.254-.194-.508-.291-.66-.388-.153-.097-.255-.097-.255-.097s.05.097.153.242c.101.146.203.34.356.582.305.485.61 1.211.66 1.89 0 .097-9.762 0-20.898-1.55-2.084-9.79 2.085-18.756 3.814-21.422 2.186-1.26 6.508-2.568 11.898 1.454.814.582 1.576-1.018 1.729-1.454.864-2.714-2.847-6.251-8.339-7.996-5.44-1.696-10.576-.921-11.44 1.745-.153.387-.56 2.083.457 2.229 3.102.388 3.864 2.568 4.068 3.974-1.017 1.696-.966 2.132-2.695 6.155-1.424 3.344-2.644 10.322-1.068 15.314-4.322-.678-12.864-1.26-14.492-2.81.108-.139.227-.269.356-.388.102-.097.204-.194.306-.243.101-.048.101-.097.101-.097h-.152c-.102 0-.255.049-.407.097a2.106 2.106 0 0 0-.56.291c-.101.097-.203.145-.305.242-.101.097-.152.243-.203.34V138c0 .049 0 .049-.05.097v.582c.046.201.152.386.304.533l.102.097.102.097c0 .048.05.048.05.048l.051.049.102.097s0-.049-.05-.146c0 0 0-.048-.052-.048 0-.049 0-.049-.05-.097v-.097c0-.048 0-.048-.051-.097 0-.048 0-.097-.051-.145v-.485c10.983 5.476 15.05 15.557 19.17 16.526 6.965 1.6 7.932-10.468 18.203-12.164 0 .048 0 .048-.051.097-.102.339-.254.581-.407.824-.05.048-.05.097-.102.193-.05.049-.05.097-.101.146-.051.048-.051.097-.102.145l-.102.097c-.101.146-.152.194-.152.194s.101 0 .254-.097c.05 0 .102-.048.153-.048.05-.049.101-.049.152-.097.051-.049.102-.049.204-.097a.7.7 0 0 1 .203-.146c.254-.193.61-.436.813-.823.051-.049.051-.097.102-.146.051-.048.051-.097.102-.145a.867.867 0 0 0 .102-.34s0-.048.05-.096v-.049z"/>
            <path fill="#E07569" fill-rule="nonzero" d="M51.077 146.41c-4.09 4.06.69 5.448-.838 7.555-2.365 3.34-6.996 1.85-8.82-2.313-.985-2.21.05-7.915 4.435-6.476 1.478-.77 3.203-.36 5.223 1.234z"/>
            <path fill="#000" fill-rule="nonzero" d="M51.46 146.046c-3.054-.311-8.572-1.158-9.656 4.588-.986-1.915.05-6.86 4.434-5.612 1.478-.757 3.203-.401 5.223 1.024z" opacity=".16"/>
          </g>
        </g>
      </g>
    </g>
  </g>
</svg>
