<svg xmlns="http://www.w3.org/2000/svg" width="297" height="64"><defs><linearGradient id="a" x1="-.4%" x2="101.4%" y1="50.1%" y2="50.1%"><stop offset="0%" stop-color="#006CAF"/><stop offset="33.2%" stop-color="#0081C5"/><stop offset="73.3%" stop-color="#0095DA"/><stop offset="100%" stop-color="#009CE1"/></linearGradient></defs><g fill="none" fill-rule="evenodd" class="symbols"><g fill-rule="nonzero" class="symbols__chronopost"><g class="symbols__chronopost__chronopost-1"><path fill="url(#a)" d="M37.54 28.627h-.803l-1.404-.818a.393.393 0 01-.401-.41v-2.25c0-.409 0-.409.401-.817l16.864-10.633L27.703 0h-1.606L1.404 13.701 29.108 30.06c.401 0 .401.41.401.818v23.72c0 .408 0 .408-.401.817l-1.405.818H26.9l-1.404-.818c-.402 0-.402-.409-.402-.818V33.534a.401.401 0 00-.401-.409L0 18.61v28.217a3.7 3.7 0 00.803 1.842L25.696 63.59c.401 0 .401.409.803.409.401 0 .803 0 .803-.409l24.892-14.926a2.26 2.26 0 00.803-1.841V18.609L37.541 28.627z" class="symbols__chronopost__chronopost-1__path"/><path fill="#3C3C3B" d="M216.703 56h-6.446V24.427a31.032 31.032 0 0110.079-2.242c7.723 0 13.114 4.859 13.114 11.815 0 7.897-4.78 12.427-13.114 12.427v-5.094a6.11 6.11 0 004.745-1.946 8.02 8.02 0 001.71-5.387 5.947 5.947 0 00-1.693-4.772 5.976 5.976 0 00-4.762-1.747c-1.27-.19-2.566.1-3.633.815V56zM83.326 47.852a11.86 11.86 0 01-8.905-3.5 11.805 11.805 0 01-3.405-8.925 11.807 11.807 0 013.405-8.925A11.861 11.861 0 0183.326 23a9.847 9.847 0 016.458 1.427v6.109a8.344 8.344 0 00-5.854-2.24 5.976 5.976 0 00-4.762 1.747 5.947 5.947 0 00-1.694 4.772 5.947 5.947 0 001.694 4.771 5.976 5.976 0 004.762 1.747 17.955 17.955 0 003.535-.465h.032c.75-.184 1.516-.298 2.287-.34v5.908l-.588.18-.136.042-.19.06a18.855 18.855 0 01-5.544 1.134zm208.637-.612c-6.696 0-10.089-3.222-10.089-9.573V14.24h6.456V23h8.073v5.094h-8.073v9.573c0 2.295 1.661 3.666 4.433 3.666A7.22 7.22 0 00297 40.52v5.908c-1.608.605-3.32.88-5.037.813zm-22.398 0a14.337 14.337 0 01-6.939-2.037h.478v-5.907a11.033 11.033 0 007.266 2.852 2.554 2.554 0 001.878-.536c.53-.42.871-1.034.947-1.706 0-.868-.984-1.473-3.63-2.24-5.161-.833-7.266-2.958-7.266-7.333a6.666 6.666 0 012.448-5.587 10.105 10.105 0 016.23-1.755c2.247-.193 4.5.305 6.455 1.427v5.915a11.275 11.275 0 00-6.456-2.24c-1.901 0-2.825.734-2.825 2.24 0 .745.467 1.379 2.825 2.24 2.259.131 4.427.93 6.23 2.293a6.348 6.348 0 011.84 5.04c.01 5.408-4.89 7.334-9.481 7.334zm-21.794-.203a11.86 11.86 0 01-8.904-3.5 11.805 11.805 0 01-3.405-8.925c0-6.783 5.51-12.282 12.31-12.282 6.797 0 12.309 5.499 12.309 12.282a11.805 11.805 0 01-3.403 8.922 11.86 11.86 0 01-8.9 3.503h-.007zm0-18.943c-3.829 0-5.851 2.253-5.851 6.518a5.928 5.928 0 001.489 4.544 5.955 5.955 0 004.362 1.975c3.829 0 5.852-2.254 5.852-6.519.007-4.144-2.126-6.518-5.845-6.518h-.007zm-52.054 18.943a11.86 11.86 0 01-8.903-3.501 11.805 11.805 0 01-3.404-8.924 12.277 12.277 0 016.104-10.778 12.333 12.333 0 0112.408 0 12.277 12.277 0 016.104 10.778 11.805 11.805 0 01-3.405 8.925 11.86 11.86 0 01-8.904 3.5zm0-18.943c-3.827 0-5.85 2.253-5.85 6.518a5.928 5.928 0 001.489 4.543 5.955 5.955 0 004.36 1.976c3.83 0 5.852-2.254 5.852-6.519a6.045 6.045 0 00-1.53-4.507 6.072 6.072 0 00-4.321-2.011zm-50.848 18.943a11.86 11.86 0 01-8.904-3.5 11.805 11.805 0 01-3.406-8.925 11.807 11.807 0 013.405-8.925 11.861 11.861 0 018.905-3.502 11.861 11.861 0 018.904 3.502 11.807 11.807 0 013.405 8.925 11.805 11.805 0 01-3.405 8.925 11.86 11.86 0 01-8.904 3.5zm0-18.943c-3.829 0-5.852 2.253-5.852 6.518a5.928 5.928 0 001.49 4.544 5.955 5.955 0 004.362 1.975c3.828 0 5.851-2.254 5.851-6.519 0-4.144-2.132-6.518-5.851-6.518zm20.986 18.335h-5.65V24.427a26.792 26.792 0 0110.902-2.242 11.03 11.03 0 017.466 2.04 9.4 9.4 0 012.622 7.535v14.667h-6.455V31.76c0-2.295-1.66-3.666-4.433-3.666a8.26 8.26 0 00-4.433.812v17.521l-.019.002zm-41.366 0h-6.458V31.763a9.264 9.264 0 012.849-7.536 11.04 11.04 0 017.232-2.04 9.16 9.16 0 012.2.359c.992.283 2.016.44 3.047.466v5.894a9.056 9.056 0 00-4.432-.812c-3.239 0-4.433.994-4.433 3.666v14.667l-.005.002zm-15.73 0V31.763c0-2.296-1.659-3.667-4.433-3.667a8.256 8.256 0 00-4.433.813v17.52h-6.479V12h7.263v11a11.76 11.76 0 002.25-.33h.06a17.955 17.955 0 013.535-.466 8.762 8.762 0 016.456 2.876 8.723 8.723 0 012.22 6.699v14.667l-6.439-.017z" class="symbols__chronopost__chronopost-1__shape"/></g></g></g></svg>