<svg xmlns="http://www.w3.org/2000/svg" xmlns:xlink="http://www.w3.org/1999/xlink" width="136.299" height="128.994" viewBox="0 0 136.299 128.994">
  <defs>
    <polygon id="a" points="0 0 118.567 0 118.567 71.566 0 71.566"/>
    <polygon id="c" points="0 0 117.249 0 117.249 98.514 0 98.514"/>
  </defs>
  <g fill="none" fill-rule="evenodd" opacity=".7" style="mix-blend-mode:luminosity" transform="rotate(10 9.55 109.164)">
    <g transform="translate(.44 38.434)">
      <mask id="b" fill="#fff">
        <use xlink:href="#a"/>
      </mask>
      <path fill="#E19100" d="M115.798 0l2.105 11.542c2.9 15.906-3.735 33.221-19.4 45.598-24.364 19.247-61.346 19.234-82.612-.032C8.286 50.218 3.72 41.8 2.105 32.95L0 21.408c1.613 8.851 6.18 17.267 13.786 24.159 21.266 19.264 58.246 19.28 82.611.03C112.063 33.222 118.7 15.906 115.797 0" mask="url(#b)"/>
    </g>
    <path fill="#E19100" d="M94.33 20.967C77.083 5.39 46.987 5.379 27.23 20.942 14.54 30.938 9.162 44.972 11.519 57.86l2.103 11.496c-2.358-12.887 3.021-26.921 15.712-36.919 19.758-15.561 49.855-15.55 67.098.025 3.732 3.37 6.56 7.2 8.498 11.287a33.07 33.07 0 0 1 2.658 8.229c-.632-3.45-1.472-8.05-2.102-11.498a33.195 33.195 0 0 0-2.658-8.228c-1.94-4.088-4.768-7.916-8.499-11.286"/>
    <path fill="#FCBA06" d="M27.273 24.941c19.81-15.594 49.984-15.582 67.271.024 17.276 15.597 15.227 40.975-4.582 56.568-19.795 15.582-49.97 15.572-67.244-.024-17.29-15.608-15.24-40.987 4.555-56.568"/>
    <mask id="d" fill="#fff">
      <use xlink:href="#c"/>
    </mask>
    <path fill="#FFD03E" d="M89.94 77.575c19.797-15.603 21.845-40.997 4.58-56.604-17.277-15.616-47.43-15.628-67.226-.024C7.512 36.539 5.464 61.934 22.742 77.55c17.264 15.607 47.416 15.617 67.199.024M20.072 14.42c24.404-19.238 61.424-19.223 82.722.03 21.289 19.242 18.773 50.42-5.63 69.655-24.391 19.226-61.41 19.211-82.699-.031-21.298-19.253-18.784-50.43 5.607-69.654" mask="url(#d)"/>
    <g transform="rotate(-63 55.404 15.191)">
      <path fill="#E19100" d="M45.04 56.594c5.814-4.474 7.54-11.748 3.82-18.725-1.3-2.523-3.112-4.761-5.41-6.44-3.33-2.431-7.392-3.45-11.448-3.751-4.225-.314-9.86 1.646-13.715-.203-2.658-1.276-3.166-3.149-2.524-4.79a6.2 6.2 0 0 1 1.106-.403c2.339-.13 4.92.903 5.957 3.026l11.035-4.223 2.87-2.89c-4.053-7.68-12.189-12.207-20.852-10.307L11.722 0 6.617 1.937 3.776 4.848l3.755 7.129a14.806 14.806 0 0 0-2.063 2.253c.098-.076.197-.15.297-.224-.107.079-.207.164-.311.246l.014-.022c-.116.092-.228.186-.34.28-.07.058-.143.114-.213.174-.231.2-.455.406-.67.618C.93 18.529-.659 23.08.255 27.939c.88 4.673 3.87 9.15 7.788 11.825.985.673 1.97 1.18 2.958 1.57a19.753 19.753 0 0 0 4.69 1.393c2.546.422 6.176-.211 9.655-.45 1.753.022 3.526.173 5.323.634 4.491 1.15 5.028 3.788 3.738 5.978l-.02.009c-3.094 1.288-6.502.303-8.175-2.651L14.99 50.569l-2.859 2.869c4.362 8.288 13.335 12.12 22.362 9.729l4.512 8.569 5.095-1.98 2.889-2.847-4.2-7.97.064-.056.06-.053c.182-.157.358-.316.53-.478l.007-.007a15.575 15.575 0 0 0 1.592-1.751l-.025.018.025-.018z"/>
      <path fill="#FFD03E" d="M48.86 37.87c-3.004-5.834-8.485-9.104-14.907-10-4.333-.606-17.804 3.05-18.683-3.74-.754-5.837 8.24-6.17 10.418-1.711l11.043-4.224C32.678 10.515 24.54 5.988 15.88 7.888L11.72 0 6.616 1.938l4.121 7.82C.23 15.29 1.074 28.806 9.543 35.858c6.623 5.517 13.997 3.483 21.89 4.066 3.292.243 8.035 1.116 6.586 5.743-1.596 5.093-9.482 4.685-11.807.58l-11.223 4.322c4.367 8.295 13.346 12.135 22.382 9.743l4.519 8.576 5.098-1.98-4.555-8.643c7.85-4.149 10.656-12.465 6.427-20.395"/>
    </g>
  </g>
</svg>
