<svg xmlns="http://www.w3.org/2000/svg" xmlns:xlink="http://www.w3.org/1999/xlink" width="107.611" height="101.195" viewBox="0 0 107.611 101.195">
  <defs>
    <polygon id="a" points="0 0 97.009 0 97.009 58.554 0 58.554"/>
    <polygon id="c" points="0 0 95.931 0 95.931 80.602 0 80.602"/>
  </defs>
  <g fill="none" fill-rule="evenodd" opacity=".7" style="mix-blend-mode:luminosity" transform="rotate(-7 97.006 5.933)">
    <g transform="translate(.36 31.446)">
      <mask id="b" fill="#fff">
        <use xlink:href="#a"/>
      </mask>
      <path fill="#E19100" d="M94.744 0l1.722 9.444c2.374 13.014-3.056 27.18-15.873 37.307C60.659 62.5 30.4 62.488 13.002 46.725 6.779 41.087 3.042 34.2 1.722 26.959L0 17.516c1.32 7.241 5.057 14.127 11.28 19.766 17.399 15.762 47.656 15.774 67.59.024C91.688 27.181 97.118 13.014 94.744 0" mask="url(#b)"/>
    </g>
    <path fill="#E19100" d="M77.179 17.155c-14.11-12.745-38.734-12.754-54.9-.02C11.896 25.312 7.496 36.794 9.424 47.34l1.721 9.406C9.215 46.203 13.617 34.72 24 26.54c16.166-12.732 40.79-12.723 54.899.021 3.053 2.758 5.367 5.89 6.953 9.235a27.057 27.057 0 0 1 2.175 6.732l-1.72-9.407a27.16 27.16 0 0 0-2.175-6.732c-1.587-3.345-3.901-6.477-6.953-9.234"/>
    <path fill="#FCBA06" d="M22.314 20.407c16.209-12.76 40.896-12.75 55.04.02 14.135 12.76 12.458 33.524-3.749 46.282-16.195 12.749-40.884 12.74-55.018-.02C4.441 53.92 6.118 33.155 22.314 20.407"/>
    <mask id="d" fill="#fff">
      <use xlink:href="#c"/>
    </mask>
    <path fill="#FFD03E" d="M73.588 63.47c16.196-12.766 17.872-33.543 3.747-46.312-14.136-12.777-38.807-12.786-55.004-.02C6.146 29.896 4.47 50.673 18.607 63.451c14.125 12.77 38.795 12.777 54.98.02M16.424 11.797c19.967-15.74 50.255-15.728 67.681.025 17.418 15.743 15.36 41.252-4.607 56.99-19.955 15.73-50.244 15.719-67.662-.025-17.426-15.752-15.369-41.26 4.588-56.99" mask="url(#d)"/>
    <g transform="rotate(-63 45.33 12.43)">
      <path fill="#E19100" d="M36.852 46.304c4.756-3.66 6.168-9.612 3.124-15.32-1.063-2.065-2.545-3.896-4.427-5.27-2.723-1.988-6.047-2.823-9.365-3.068-3.458-.257-8.068 1.346-11.222-.167-2.175-1.043-2.59-2.576-2.065-3.918.29-.139.594-.25.905-.33 1.913-.106 4.026.739 4.874 2.476l9.029-3.456 2.347-2.364c-3.316-6.285-9.972-9.988-17.06-8.433L9.591 0 5.414 1.585 3.089 3.967l3.073 5.832a12.114 12.114 0 0 0-1.688 1.844c.08-.063.161-.123.243-.184-.088.065-.17.134-.255.202l.012-.018c-.095.075-.187.152-.279.228-.057.048-.117.094-.173.143-.19.164-.373.333-.549.506C.761 15.16-.539 18.883.21 22.86c.719 3.823 3.166 7.485 6.372 9.675.805.55 1.612.965 2.42 1.283 1.21.53 2.493.917 3.837 1.14 2.084.345 5.053-.172 7.9-.367 1.434.017 2.885.14 4.355.518 3.674.94 4.113 3.1 3.058 4.891l-.016.007c-2.532 1.054-5.32.248-6.689-2.169l-9.182 3.537-2.34 2.347c3.57 6.78 10.911 9.917 18.297 7.96l3.692 7.01 4.168-1.619 2.364-2.33-3.437-6.52.053-.046.05-.044c.147-.127.292-.258.432-.39l.006-.006c.477-.452.912-.93 1.303-1.433l-.021.015.02-.015z"/>
      <path fill="#FFD03E" d="M39.977 30.984c-2.459-4.772-6.943-7.448-12.197-8.182-3.546-.495-14.567 2.497-15.286-3.06-.617-4.775 6.742-5.047 8.523-1.4l9.035-3.455c-3.315-6.284-9.972-9.988-17.06-8.433L9.59 0 5.413 1.585l3.372 6.4C.188 12.51.879 23.567 7.808 29.338c5.419 4.514 11.452 2.849 17.91 3.326 2.693.199 6.574.913 5.388 4.699-1.306 4.167-7.758 3.833-9.66.474l-9.183 3.537c3.574 6.786 10.92 9.928 18.313 7.97l3.697 7.018 4.172-1.62-3.727-7.071c6.423-3.395 8.718-10.2 5.259-16.688"/>
    </g>
  </g>
</svg>
