<svg xmlns="http://www.w3.org/2000/svg" width="125.907" height="96.616" viewBox="0 0 125.907 96.616">
  <g fill="none" fill-rule="evenodd" opacity=".6" style="mix-blend-mode:luminosity" transform="rotate(20 10.654 60.424)">
    <path fill="#E19100" d="M87.587 10.965c-17.638-8.162-46.238-8.157-63.75 0-8.708 4.057-13.07 9.377-13.09 14.705l-.042 12.097c.02-5.327 4.382-10.647 13.088-14.703 17.514-8.158 46.114-8.163 63.752 0 8.878 4.11 13.309 9.513 13.291 14.91l.043-12.098c.02-5.398-4.413-10.802-13.292-14.911"/>
    <path fill="#FCBA06" d="M87.587 15.014c-17.638-8.165-46.239-8.16-63.75 0-17.525 8.161-17.442 21.439.196 29.602 17.64 8.162 46.25 8.162 63.775 0 17.51-8.16 17.417-21.44-.22-29.602"/>
    <path fill="#E19100" d="M110.987 36.665c-.023 6.553-5.394 13.093-16.125 18.092-21.6 10.06-56.74 10.06-78.479 0C5.442 49.694-.022 43.048 0 36.41l.323-10.774c-.023 6.635 5.44 13.281 16.38 18.346 21.742 10.06 56.88 10.06 78.482-.002 10.729-4.998 16.102-11.537 16.126-18.09l-.324 10.774z"/>
    <path fill="#FFD03E" d="M24.034 40.568c17.638 8.162 46.249 8.162 63.774 0 17.511-8.157 17.417-21.44-.22-29.603-17.64-8.162-46.238-8.158-63.751 0-17.525 8.163-17.442 21.44.197 29.603M94.928 7.546c21.742 10.06 21.856 26.374.258 36.435-21.603 10.061-56.74 10.061-78.482.001-21.74-10.06-21.857-26.375-.256-36.436 21.6-10.061 56.74-10.061 78.48 0"/>
    <g transform="rotate(21 -6.78 101.065)">
      <path fill="#E19100" d="M46.16 11.073l-.21-.042c.606-1.319.851-2.645.371-3.693l-1.456-3.064-.002.002c-.409-1.065-1.498-1.855-3.621-2.074-1.794-.35-2.725 2.29-4.53 2.529-2.365.312-4.843-.074-7.146 1.275L27.101.37C20.61-.842 13.77 1.944 8.551 5.653L3.46 4.613 0 7.504l2.033 5.131.776 2.956L1.7 15.27l1.728 3.275c.06.18.134.356.225.525l.048.11.007-.016c.731 1.262 2.34 2.187 4.947 2.508 3.037.373 6.317-.616 9.166-1.737l1.805 4.572c6.94 1.32 14.184-2.067 19.65-6.133l5.587 1.15 3.463-2.92-2.166-5.53z"/>
      <path fill="#FFD03E" d="M12.147 11.72c-2.366-2.6 5.614-5.422 7.522-5.156L27.162.287c-6.49-1.211-13.33 1.575-18.548 5.285L3.52 4.532.062 7.422l5.045 1.033c-10.195 9.322 3.906 10.934 10.68 8.529 2.751-.977 19.855-12.324 18.589-6.312-.584 2.774-6.19 4.446-8.539 4.237l-7.618 6.395c6.943 1.315 14.189-2.074 19.66-6.139l5.587 1.144 3.467-2.917-5.636-1.151c2.941-2.715 6.89-9.413.007-10.12-7.15-1.394-26.816 12.174-29.157 9.6z"/>
    </g>
  </g>
</svg>
