<svg xmlns="http://www.w3.org/2000/svg" width="301" height="77"><defs><linearGradient id="a" x1=".083%" x2="100.133%" y1="50.01%" y2="50.01%"><stop offset="0%" stop-color="#F25C19"/><stop offset="37.9%" stop-color="#F25C19"/><stop offset="100%" stop-color="#FAB217"/></linearGradient></defs><g fill="none" fill-rule="evenodd" class="symbols"><g fill-rule="nonzero" class="symbols__colissimo"><g class="symbols__colissimo__colissimo-2"><path fill="url(#a)" d="M33 0c-.438 0-.832.088-1.182.263L1.663 16.732l33.788 19.666c.306.175.569.569.569.963v28.69c0 .393-.219.744-.57.963l-1.837 1.007c-.175.088-.35.131-.525.131h-.044a1.21 1.21 0 01-.57-.131l-1.837-1.007c-.35-.22-.526-.57-.57-.964V40.427c-.043-.219-.13-.394-.306-.482L0 22.601v33.945c0 .744.525 1.708 1.182 2.058l30.636 18.09c.35.175.788.306 1.182.306.394 0 .832-.088 1.182-.307l30.636-18.089c.7-.482 1.138-1.226 1.182-2.058V22.6L45.824 34.339c-.35.175-.744.175-1.095 0l-1.75-1.051c-.175-.088-.307-.263-.394-.394v-.044a.88.88 0 01-.175-.57l-.044-2.102c0-.394.219-.745.525-.964l21.49-12.526L34.225.263A2.935 2.935 0 0033 0" class="symbols__colissimo__colissimo-2__path"/><path fill="#393536" d="M143.362 17v29.85c0 8.121 4.544 10.799 11.578 10.843V51.02h-.044c-2.709-.22-4.107-1.8-4.107-4.653V17h-7.427zm18.743 1.449a3.72 3.72 0 00-3.713 3.73 3.72 3.72 0 003.713 3.732 3.72 3.72 0 003.714-3.731 3.72 3.72 0 00-3.714-3.731m57.63 0a3.72 3.72 0 00-3.715 3.73 3.72 3.72 0 003.714 3.732 3.72 3.72 0 003.714-3.731 3.72 3.72 0 00-3.714-3.731m-39.19 10.228c-5.943 0-10.53 2.81-10.53 8.91 0 5.049 2.621 7.507 8.869 8.649 3.058.614 4.194 1.316 4.194 2.985 0 1.755-1.529 2.414-3.845 2.414-2.709 0-6.204-1.185-8.782-3.117v6.892c2.229 1.449 5.637 2.239 8.957 2.239 6.423 0 10.967-2.722 10.967-8.78 0-4.96-2.403-7.726-9.525-9.042-2.622-.615-3.583-1.361-3.583-2.81 0-1.317 1.049-2.37 3.54-2.37 2.84 0 5.242.922 7.864 2.677V30.74c-2.447-1.361-4.85-2.063-8.127-2.063m22.414 0c-5.942 0-10.53 2.81-10.53 8.91 0 5.049 2.622 7.507 8.87 8.649 3.058.614 4.194 1.316 4.194 2.985 0 1.755-1.53 2.414-3.845 2.414-2.709 0-6.204-1.185-8.782-3.117v6.892c2.228 1.449 5.636 2.239 8.957 2.239 6.422 0 10.966-2.722 10.966-8.78 0-4.96-2.403-7.726-9.524-9.042-2.622-.615-3.583-1.361-3.583-2.81 0-1.317 1.048-2.37 3.539-2.37 2.84 0 5.243.922 7.864 2.677V30.74c-2.446-1.361-4.85-2.063-8.126-2.063m-101.408.307C93.117 28.984 87 34.778 87 43.558 87 52.249 92.68 58 101.637 58c2.84 0 5.592-.57 8.039-2.063v-7.024c-2.097 1.624-4.413 2.502-6.99 2.502-5.025 0-8.171-3.248-8.171-7.989 0-4.96 3.277-7.857 7.864-7.857 2.534 0 4.763.702 7.078 2.546v-7.068c-2.403-1.405-4.718-2.063-7.908-2.063m24.511 0c-8.258 0-14.418 5.838-14.418 14.486s6.204 14.486 14.418 14.486c8.258 0 14.506-5.838 14.506-14.486s-6.292-14.486-14.506-14.486m160.434 0c-8.257 0-14.418 5.838-14.418 14.486s6.205 14.486 14.418 14.486c8.258 0 14.506-5.838 14.506-14.486s-6.292-14.486-14.506-14.486m-45.133.044c-4.107 0-8.607.922-12.452 2.414v25.943h7.428v-21.07c1.485-.44 2.84-.703 4.631-.703 2.84 0 4.195 1.493 4.195 4.434v17.34h7.47V39.518c0-1.317-.305-2.238-.567-2.853 1.223-.615 3.233-1.054 5.155-1.054 2.928 0 4.195 1.493 4.195 4.434v17.34h7.47V39.738c0-8.165-4.15-10.711-10.703-10.711-4.02 0-6.86 1.053-9.35 2.195-1.573-1.405-4.282-2.195-7.472-2.195m-82.97.527v27.83h7.472v-27.83h-7.471zm57.63 0v27.83h7.47v-27.83h-7.47zM126.06 35.48c4.02 0 6.947 3.073 6.947 8.033 0 4.96-2.927 8.033-6.947 8.033s-6.947-3.073-6.947-8.033c0-5.004 2.927-8.033 6.947-8.033m160.434 0c4.02 0 6.947 3.073 6.947 8.033 0 4.96-2.927 8.033-6.947 8.033s-6.946-3.073-6.946-8.033c0-5.004 2.927-8.033 6.946-8.033" class="symbols__colissimo__colissimo-2__shape"/></g></g></g></svg>