<svg xmlns="http://www.w3.org/2000/svg" width="214" height="97"><g fill="none" fill-rule="evenodd" class="symbols"><g class="symbols__dpd"><g class="symbols__dpd__dpd-logo"><path fill="#DC0032" d="M40.202.267l-38.124 20.8 42.33 24.7c.364.207.832.675.832 1.143v36.348c0 .52-.468.832-.52.884l-2.545 1.404c-.415.208-.987.26-1.558-.052l-2.233-1.248c-.312-.156-.624-.624-.624-1.092V50.966c0-.572-.623-.832-1.038-1.092L0 28.451v43.003c0 .936.935 2.028 1.662 2.496L39.89 96.518c1.246.728 1.974.624 3.636-.26l37.76-22.308c.883-.52 1.714-1.508 1.714-2.548V28.451L57.653 43.27c-.311.207-.883.26-1.246.051L54.12 41.97c-.467-.26-.883-.78-.883-1.352l-.052-2.704c0-.415.26-.935.624-1.143l27.112-15.808L42.747.163c-.52-.208-1.922-.26-2.545.104z" class="symbols__dpd__dpd-logo__xmlid-6-"/><g fill="#3C3D3B" fill-rule="nonzero" class="symbols__dpd__dpd-logo__group"><path d="M135.849 70.645V20h-9.509v16.604c-.888-.52-4.754-1.197-7.836-1.145-10.135.26-17.71 8.276-17.5 18.01.26 12.751 7.836 18.112 19.642 18.841 6.164.468 13.425-1.406 15.202-1.666zm-9.456-6.87c-.627.156-4.754.572-6.269.312-6.269-.99-9.246-4.216-9.35-9.734-.053-5.933 2.402-10.202 9.716-10.514 1.254-.052 5.328.677 5.85 1.145l.053 18.79zM214 70.644V20h-9.508v16.604c-.888-.52-4.754-1.197-7.836-1.145-10.134.26-17.71 8.276-17.5 18.01.26 12.752 7.836 18.113 19.642 18.842 6.112.468 13.374-1.406 15.202-1.666zm-9.455-6.87c-.627.156-4.754.572-6.27.312-6.268-.99-9.246-4.216-9.35-9.734-.053-5.933 2.403-10.202 9.716-10.514 1.254-.052 5.329.677 5.851 1.145l.053 18.79z" class="symbols__dpd__dpd-logo__group__shape"/><path d="M141.23 38.478V86h9.611l-.052-41.328c.627-.156 4.702-.677 6.27-.573 6.32.365 9.246 3.904 9.35 9.474.105 3.539-1.097 6.506-3.396 8.328-1.776 1.405-4.179 2.082-7 2.186v8.328c4.44.104 8.881-.78 12.433-3.071 4.598-2.967 7.889-9.525 7.68-15.72-.314-11.242-6.687-17.697-19.643-17.957-6.06-.26-13.425 1.874-15.254 2.81z" class="symbols__dpd__dpd-logo__group__xmlid-1-"/></g></g></g></g></svg>