<svg xmlns="http://www.w3.org/2000/svg" width="299" height="83"><g fill="none" fill-rule="evenodd" class="symbols"><g fill-rule="nonzero" class="symbols__fedex"><g class="symbols__fedex__fedex-express-6"><path fill="#FF5A00" d="M297.179 71.504c0-4.603-3.229-7.973-7.676-7.973-4.44 0-7.673 3.37-7.673 7.973 0 4.595 3.233 7.96 7.673 7.96 4.447 0 7.676-3.37 7.676-7.96zm-9.693.409v5.207h-1.664V65.637h4.135c2.423 0 3.535 1.07 3.535 3.156 0 1.284-.859 2.302-1.965 2.45v.048c.96.155 1.313 1.021 1.51 2.606.152 1.027.354 2.809.716 3.227h-1.97c-.457-1.08-.411-2.607-.764-3.886-.292-.972-.805-1.327-1.908-1.327h-1.616v.005l-.01-.003zm2.063-1.485c1.616 0 2.078-.87 2.078-1.637 0-.908-.462-1.625-2.078-1.625h-2.063v3.266h2.063v-.004zM280 71.504c0-5.67 4.453-9.504 9.495-9.504 5.057 0 9.505 3.833 9.505 9.504 0 5.659-4.446 9.496-9.505 9.496-5.042 0-9.495-3.837-9.495-9.496z" class="symbols__fedex__fedex-express-6__shape"/><g fill="#FF5A00" class="symbols__fedex__fedex-express-6__group"><path d="M246.96 80l-11.131-12.432L224.796 80H201.58l22.69-25.388-22.69-25.395h23.94l11.244 12.336 10.82-12.336h23.102L248.11 54.505 271 80h-24.04zM157 80V0h44.58v17.832h-25.697v11.385h25.697v17.158h-25.697v15.748h25.697V80H157z" class="symbols__fedex__fedex-express-6__group__shape"/></g><path fill="#29007C" d="M138.28 0v32.775h-.207c-4.144-4.77-9.323-6.433-15.33-6.433-12.306 0-21.577 8.386-24.83 19.464-3.713-12.21-13.285-19.693-27.476-19.693-11.527 0-20.626 5.181-25.38 13.625V29.246h-23.82V17.853h26V.003H0v80.082h21.236v-33.66h21.166a32.034 32.034 0 00-.97 7.917c0 16.698 12.738 28.431 29.002 28.431 13.67 0 22.687-6.435 27.452-18.15h-18.2c-2.46 3.526-4.329 4.567-9.25 4.567-5.705 0-10.629-4.988-10.629-10.893h37.058C98.473 71.562 108.791 83 122.951 83c6.109 0 11.701-3.009 15.12-8.092h.206v5.188H157V.004h-18.72V0zM60.398 46.664c1.183-5.09 5.122-8.414 10.038-8.414 5.413 0 9.15 3.222 10.132 8.414h-20.17zm66.52 21.234c-6.9 0-11.187-6.44-11.187-13.164 0-7.19 3.73-14.097 11.187-14.097 7.736 0 10.818 6.91 10.818 14.097 0 6.811-3.263 13.164-10.818 13.164z" class="symbols__fedex__fedex-express-6__group__shape"/></g></g></g></svg>