<svg xmlns="http://www.w3.org/2000/svg" xmlns:xlink="http://www.w3.org/1999/xlink" width="514.932" height="546.34" viewBox="0 0 514.932 546.34">
  <defs>
    <path id="b" d="M0 153.247L15.52 6.344c.49-4.6 2.692-6.699 6.608-6.295 3.916.403 71.597 7.53 203.042 21.38 3.557.605 5.15 2.773 4.777 6.502-.373 3.73-5.86 56.164-16.463 157.303L103.378 196 0 153.247z"/>
    <path id="d" d="M11.765 5.51l200.693.044a7.262 7.262 0 0 1 7.254 7.254l.035 165.074a7.248 7.248 0 0 1-7.248 7.255s-.002 0-.003-.003l-200.693-.043a7.262 7.262 0 0 1-7.254-7.255L4.514 12.762a7.248 7.248 0 0 1 7.248-7.254s.002 0 .003.003z"/>
    <path id="f" d="M7.987 2.794l97.732.027a5.685 5.685 0 0 1 5.678 5.677l.021 79.777a5.671 5.671 0 0 1-5.671 5.678c-.001 0-.002 0-.003-.003L8.01 93.923a5.685 5.685 0 0 1-5.677-5.677L2.312 8.469A5.671 5.671 0 0 1 7.984 2.79s.002 0 .003.003z"/>
    <path id="h" d="M5.494 76.86c-1.165-4.222-.038-6.688 3.38-7.4l214.554-57.62c3.033-.495 4.952.657 5.757 3.458.804 2.8 6.607 24.278 17.407 64.434l5.808-34c.497-3.423 2.88-4.755 7.148-3.997 4.23.752 68.783 12.201 193.66 34.35.21.037 6.294.898 5.288 8.08-1.194 8.526-5.724 37.787-13.59 87.782l-152.602 34.566-249.715 10.08C19.024 127.66 6.659 81.083 5.494 76.86z"/>
    <path id="j" d="M11.109 5.942l219.563.048a6.252 6.252 0 0 1 6.245 6.245l.04 181.179a6.24 6.24 0 0 1-6.24 6.245c-.001 0-.002 0-.003-.003l-219.563-.048a6.252 6.252 0 0 1-6.245-6.245l-.04-181.179a6.24 6.24 0 0 1 6.24-6.245s.002 0 .003.003z"/>
    <path id="l" d="M10.086 5.392l199.212.054a5.685 5.685 0 0 1 5.678 5.678l.044 164.553a5.671 5.671 0 0 1-5.671 5.678c-.001 0-.002 0-.003-.003l-199.213-.054a5.685 5.685 0 0 1-5.677-5.678L4.41 11.067a5.671 5.671 0 0 1 5.672-5.678s.002 0 .003.003z"/>
    <filter id="a" width="104.8%" height="110.7%" x="-1.2%" y="-7.1%" filterUnits="objectBoundingBox">
      <feOffset dx="4" dy="4" in="SourceAlpha" result="shadowOffsetOuter1"/>
      <feGaussianBlur in="shadowOffsetOuter1" result="shadowBlurOuter1" stdDeviation="4"/>
      <feColorMatrix in="shadowBlurOuter1" result="shadowMatrixOuter1" values="0 0 0 0 0 0 0 0 0 0 0 0 0 0 0 0 0 0 0.2 0"/>
      <feMerge>
        <feMergeNode in="shadowMatrixOuter1"/>
        <feMergeNode in="SourceGraphic"/>
      </feMerge>
    </filter>
    <filter id="n" width="138.3%" height="126.9%" x="-16.4%" y="-11.5%" filterUnits="objectBoundingBox">
      <feOffset dx="8" dy="8" in="SourceAlpha" result="shadowOffsetOuter1"/>
      <feGaussianBlur in="shadowOffsetOuter1" result="shadowBlurOuter1" stdDeviation="17"/>
      <feColorMatrix in="shadowBlurOuter1" result="shadowMatrixOuter1" values="0 0 0 0 0.174293707 0 0 0 0 0.120281994 0 0 0 0 0.276865434 0 0 0 0.4 0"/>
      <feMerge>
        <feMergeNode in="shadowMatrixOuter1"/>
        <feMergeNode in="SourceGraphic"/>
      </feMerge>
    </filter>
    <linearGradient id="o" x1="0%" x2="0%" y1="0%" y2="0%">
      <stop offset="0%" stop-color="#8F6A4C"/>
      <stop offset="13.24%" stop-color="#A57B58"/>
      <stop offset="39.17%" stop-color="#CC986D"/>
      <stop offset="63.13%" stop-color="#E7AD7C"/>
      <stop offset="84.17%" stop-color="#F8BA85"/>
      <stop offset="100%" stop-color="#FEBE88"/>
    </linearGradient>
  </defs>
  <g fill="none" fill-rule="evenodd" filter="url(#a)" transform="translate(.167 30)">
    <g transform="rotate(-3 1748.738 45.792)">
      <g transform="translate(231.809 73.248)">
        <mask id="c" fill="#fff">
          <use xlink:href="#b"/>
        </mask>
        <use fill="#863888" xlink:href="#b"/>
        <g mask="url(#c)" opacity=".8">
          <g transform="rotate(3 33.275 144.26)">
            <mask id="e" fill="#fff">
              <use transform="rotate(3 112.13 95.322)" xlink:href="#d"/>
            </mask>
            <use fill="#F0B481" transform="rotate(3 112.13 95.322)" xlink:href="#d"/>
            <polygon fill="#C59269" points="159.826 9.609 219.603 9.622 219.641 189.202 159.864 189.189" mask="url(#e)" transform="rotate(3 189.734 99.406)"/>
            <g fill="#CE9449" mask="url(#e)" opacity=".3" style="mix-blend-mode:multiply">
              <g transform="rotate(3 39.848 1436.18)">
                <polygon points="0 0 23.911 0 23.911 62.255 0 64.649"/>
                <rect width="23.911" height="32.325" x="107.598"/>
              </g>
            </g>
            <g mask="url(#e)">
              <g transform="rotate(3 -1005.537 2048.592)">
                <rect width="44.235" height="41.902" fill="#FFC696" rx="3.626"/>
                <g stroke-linecap="square" transform="translate(7.173 5.986)">
                  <line x1=".575" x2="29.314" y1=".599" y2=".599" stroke="#CE9449" stroke-width="5.439"/>
                  <line x1=".575" x2="22.416" y1="10.176" y2="10.176" stroke="#CE9449" stroke-width="5.439"/>
                  <line x1=".575" x2="25.865" y1="19.754" y2="19.754" stroke="#CE9449" stroke-width="5.439"/>
                  <line x1=".575" x2="18.968" y1="29.332" y2="29.332" stroke="#CE9449" stroke-width="5.439"/>
                </g>
              </g>
            </g>
          </g>
        </g>
      </g>
      <g transform="rotate(5 -1984.492 707.518)">
        <mask id="g" fill="#fff">
          <use transform="rotate(3 56.865 48.372)" xlink:href="#f"/>
        </mask>
        <use fill="#CA8C78" transform="rotate(3 56.865 48.372)" xlink:href="#f"/>
        <polygon fill="#CA8C78" points="81.039 4.876 111.34 4.884 111.365 96.013 81.064 96.005" mask="url(#g)" transform="rotate(3 96.202 50.444)"/>
        <g fill="#CA8C78" mask="url(#g)" opacity=".3" style="mix-blend-mode:multiply">
          <g transform="rotate(3 20.177 728.519)">
            <polygon points="0 0 12.12 0 12.12 31.592 0 32.807"/>
            <rect width="12.12" height="16.403" x="54.541"/>
          </g>
        </g>
        <g mask="url(#g)">
          <g transform="rotate(3 -510.296 1038.96)">
            <rect width="22.423" height="21.264" fill="#CA8C78" rx="2.838"/>
            <g stroke-linecap="square" transform="translate(3.636 3.038)">
              <line x1=".291" x2="14.859" y1=".304" y2=".304" stroke="#CA8C78" stroke-width="4.257"/>
              <line x1=".291" x2="11.363" y1="5.164" y2="5.164" stroke="#CA8C78" stroke-width="4.257"/>
              <line x1=".291" x2="13.111" y1="10.024" y2="10.024" stroke="#CA8C78" stroke-width="4.257"/>
              <line x1=".291" x2="9.615" y1="14.885" y2="14.885" stroke="#CA8C78" stroke-width="4.257"/>
            </g>
          </g>
        </g>
      </g>
      <g transform="rotate(-5 2128.557 92.935)">
        <mask id="i" fill="#fff">
          <use transform="rotate(3 231.83 114.16)" xlink:href="#h"/>
        </mask>
        <use fill="#AF715D" transform="rotate(3 231.83 114.16)" xlink:href="#h"/>
        <g mask="url(#i)" style="mix-blend-mode:luminosity">
          <g transform="rotate(3 161.626 58.795)">
            <g opacity=".8" transform="rotate(-18 219.888 45.708)">
              <mask id="k" fill="#fff">
                <use transform="rotate(3 120.911 102.799)" xlink:href="#j"/>
              </mask>
              <use fill="#F0B481" transform="rotate(3 120.911 102.799)" xlink:href="#j"/>
              <polygon fill="#C59269" points="172.341 10.363 236.799 10.377 236.842 204.043 172.383 204.029" mask="url(#k)" transform="rotate(3 204.591 107.203)"/>
              <g fill="#CE9449" mask="url(#k)" opacity=".3" style="mix-blend-mode:multiply">
                <g transform="rotate(3 42.96 1548.65)">
                  <polygon points="0 0 25.783 0 25.783 67.138 0 69.72"/>
                  <rect width="25.783" height="34.86" x="116.024"/>
                </g>
              </g>
              <g mask="url(#k)">
                <g transform="rotate(3 -1084.418 2209.022)">
                  <rect width="47.699" height="45.189" fill="#FFC696" rx="3.122"/>
                  <g stroke-linecap="square" transform="translate(7.735 6.456)">
                    <line x1=".62" x2="31.609" y1=".646" y2=".646" stroke="#CE9449" stroke-width="4.683"/>
                    <line x1=".62" x2="24.172" y1="10.975" y2="10.975" stroke="#CE9449" stroke-width="4.683"/>
                    <line x1=".62" x2="27.89" y1="21.303" y2="21.303" stroke="#CE9449" stroke-width="4.683"/>
                    <line x1=".62" x2="20.453" y1="31.632" y2="31.632" stroke="#CE9449" stroke-width="4.683"/>
                  </g>
                </g>
              </g>
            </g>
            <g transform="rotate(7 -170.21 2034.872)">
              <mask id="m" fill="#fff">
                <use transform="rotate(3 109.716 93.372)" xlink:href="#l"/>
              </mask>
              <use fill="#F0B481" transform="rotate(3 109.716 93.372)" xlink:href="#l"/>
              <polygon fill="#C59269" points="156.379 9.411 214.869 9.427 214.917 185.333 156.426 185.317" mask="url(#m)" transform="rotate(3 185.648 97.372)"/>
              <g fill="#CE9449" mask="url(#m)" opacity=".3" style="mix-blend-mode:multiply">
                <g transform="rotate(3 38.922 1405.29)">
                  <polygon points="0 0 23.396 0 23.396 60.981 0 63.327"/>
                  <rect width="23.396" height="31.663" x="105.281"/>
                </g>
              </g>
              <g mask="url(#m)">
                <g transform="rotate(3 -985.045 2004.53)">
                  <rect width="43.282" height="41.045" fill="#FFC696" rx="2.838"/>
                  <g stroke-linecap="square" transform="translate(7.019 5.864)">
                    <line x1=".562" x2="28.682" y1=".586" y2=".586" stroke="#CE9449" stroke-width="4.257"/>
                    <line x1=".562" x2="21.933" y1="9.968" y2="9.968" stroke="#CE9449" stroke-width="4.257"/>
                    <line x1=".562" x2="25.308" y1="19.35" y2="19.35" stroke="#CE9449" stroke-width="4.257"/>
                    <line x1=".562" x2="18.559" y1="28.732" y2="28.732" stroke="#CE9449" stroke-width="4.257"/>
                  </g>
                </g>
              </g>
            </g>
          </g>
        </g>
        <g mask="url(#i)">
          <g transform="rotate(-39 124.004 -48.221)">
            <ellipse cx="12.414" cy="13.094" fill="#FFB85B" rx="12.414" ry="13.094"/>
            <path fill="#FFF" fill-rule="nonzero" d="M20.615 12.77l-.054-.02c-.169-3.312-1.449-6.084-3.586-7.383-.01-.004-.036 0-.033.026.084.413.128.837.153 1.28 0 .037-.04.048-.054.018-.328-.744-.762-1.386-1.284-1.869a4.237 4.237 0 0 0-1.176-.784c-.022-.008-.03.015-.022.03a8.295 8.295 0 0 1 .626 2.025c.003.027-.04.05-.055.019-.405-.62-.905-1.132-1.49-1.498a3.668 3.668 0 0 0-.733-.355 4.23 4.23 0 0 0-1.148-.239c-.022-.008-.033.027-.012.034.31.202.606.45.865.735.313.343.575.731.81 1.161.019.02-.003.05-.025.042-.584-.034-1.172.02-2.11.33a2.238 2.238 0 0 0-.743-.18c-.754-.07-1.478.215-2.085.81-.516.501-.928 1.206-1.18 1.98a5.62 5.62 0 0 0-.185.75c-.458.14-.873.333-1.26.55-.976.575-1.708 1.406-2.05 2.454-.38 1.163-.224 2.43.343 3.63.7 1.466 2.027 2.827 3.764 3.79.38.214.791.402 1.207.578.13.048.257.106.387.154 3.505 1.273 7.015.597 8.61-1.463a9.53 9.53 0 0 0 .91-1.263.155.155 0 0 0 .033-.064c.162-.273.313-.55.45-.857.725.047 1.514-.66 1.86-1.72.39-1.197.06-2.414-.733-2.702z" opacity=".5"/>
          </g>
        </g>
      </g>
      <g transform="rotate(-9 970.024 -2241.898)">
        <ellipse cx="12.414" cy="13.094" fill="#FFB85B" rx="12.414" ry="13.094"/>
        <path fill="#FFF" fill-rule="nonzero" d="M20.615 12.77l-.054-.02c-.169-3.312-1.449-6.084-3.586-7.383-.01-.004-.036 0-.033.026.084.413.128.837.153 1.28 0 .037-.04.048-.054.018-.328-.744-.762-1.386-1.284-1.869a4.237 4.237 0 0 0-1.176-.784c-.022-.008-.03.015-.022.03a8.295 8.295 0 0 1 .626 2.025c.003.027-.04.05-.055.019-.405-.62-.905-1.132-1.49-1.498a3.668 3.668 0 0 0-.733-.355 4.23 4.23 0 0 0-1.148-.239c-.022-.008-.033.027-.012.034.31.202.606.45.865.735.313.343.575.731.81 1.161.019.02-.003.05-.025.042-.584-.034-1.172.02-2.11.33a2.238 2.238 0 0 0-.743-.18c-.754-.07-1.478.215-2.085.81-.516.501-.928 1.206-1.18 1.98a5.62 5.62 0 0 0-.185.75c-.458.14-.873.333-1.26.55-.976.575-1.708 1.406-2.05 2.454-.38 1.163-.224 2.43.343 3.63.7 1.466 2.027 2.827 3.764 3.79.38.214.791.402 1.207.578.13.048.257.106.387.154 3.505 1.273 7.015.597 8.61-1.463a9.53 9.53 0 0 0 .91-1.263.155.155 0 0 0 .033-.064c.162-.273.313-.55.45-.857.725.047 1.514-.66 1.86-1.72.39-1.197.06-2.414-.733-2.702z" opacity=".5"/>
      </g>
    </g>
    <g filter="url(#n)" transform="translate(110.296)">
      <g transform="translate(0 205.703)">
        <path fill="#784C43" d="M3.32 131.937c-8.537 39.867 43.953 2.718 43.953 2.718S59.987 65.613 59.261 65.25c-.727-.362-30.695-3.986-30.695-3.986S11.856 92.07 3.32 131.937z"/>
        <path fill="#FFD03E" d="M202.16 0s26.614 5.515 45.954 35.4c-.149.061-.302.116-.446.185-2.3 1.1-4.114 2.994-5.731 4.962a53.033 53.033 0 0 0-9.654 17.94c-.731 2.364-1.298 4.786-2.26 7.066-1.997 4.73-5.575 8.588-9.082 12.341l-12.275 13.132c-1.302 1.392-2.608 2.792-3.808 4.271l-.975-.664 8.413 65.947s-41.54 14.608-108.96 14.608c-46.52 0-64.204-12.655-70.697-20.501l-.212-.26.037-.407c.425-4.988.797-13.491 1.043-27.18l.031-1.815c.252-15.172 1.838-24.674 3.893-33.605l.23-.99c.194-.824.391-1.644.592-2.465l.242-.986c.08-.33.162-.659.244-.989l.259-1.04c1.17-4.693 2.413-9.57 3.603-15.363a411.205 411.205 0 0 1 6.426-26.781 367.55 367.55 0 0 1 1.044-3.691l-.36-.364c-4.113-4.078-9.566-6.807-15.309-7.623-.006-.041-.024-.088-.024-.127 0-3.262 4.722-15.584 4.722-15.584l.043.041c.44.43 4.22 4.127 8.182 8.035l.506.5.507.5.506.5.503.498c1.087 1.077 2.147 2.13 3.112 3.093l.652.653.057-.168c.235-.704.365-1.073.365-1.073l127.06 16.99c1.19-9.964 8.378-24.96 21.566-44.986zM29.062 148.607s.617 2.392 3.3 5.742l.064.078-.019.224c-.76 8.286-1.68 5.807-2.362 1.803l-.048-.289a61.81 61.81 0 0 1-.095-.59l-.045-.3-.067-.453-.088-.627a141.035 141.035 0 0 1-.636-5.544l-.004-.044z"/>
        <path fill="#E19100" d="M49.027 42.805a410.986 410.986 0 0 0-6.426 26.781l-9.125-1.514c-3.375-.56-6.92-1.196-9.563-3.364-1.626-1.334-2.778-3.15-3.766-5.005-.96-1.805-1.804-3.716-2.039-5.746-.234-2.03.208-4.212 1.563-5.745 2.196-2.483 6.45-3.033 7.606-6.137.476-1.279.29-2.706.05-4.123l-.103-.606c-.31-1.815-.562-3.574.54-4.939 1.168-1.448 3.302-1.604 5.157-1.449.495.042.988.1 1.48.17.009.052.02.107.038.163l-.015-.055-.022-.107c5.912.839 11.516 3.706 15.668 7.986a391.79 391.79 0 0 0-1.043 3.69zm141.256 14.468c1.824-.557 3.69-.987 5.55-1.414 5.842-1.345 11.685-2.689 17.528-4.032l1.204-.278c4.62-1.077 9.277-2.3 13.236-4.882 2.074-1.352 3.9-3.044 5.83-4.596a53.143 53.143 0 0 1 18.048-9.48c2.443-.73 5.008-1.285 7.53-.914.158.023.315.064.474.095 2.353.475 4.596 1.882 5.53 4.076 1.123 2.64.157 5.692-1.155 8.244-1.157 2.25-2.625 4.76-1.762 7.136.678 1.868 2.6 2.972 3.698 4.629 1.877 2.83.944 6.827-1.287 9.389-2.231 2.562-5.463 4-8.622 5.259-11.304 4.5-23.17 7.74-33.854 13.553-4.179 2.273-8.162 4.934-12.547 6.78-.81.342-1.597 1.41-2.388 2.563l-.366.535c-.978 1.432-1.973 2.84-3.043 3.028l-.875-7.817-9.577-23.983z"/>
        <path fill="#ECBC93" d="M61.058 168.01s2.605-2.623-1.875-8.341c-3.123-3.988-10.991-14.946-15.469-21.214a9.506 9.506 0 0 0-8.829-3.914 9.493 9.493 0 0 0-8.372 8.515l-.237 2.473a9.477 9.477 0 0 0 4.082 8.725l19.955 13.667s6.21 4.594 10.745.09"/>
        <path fill="#ECBC93" d="M67.987 173.952c-6.716-1.535-15.79 8.948-24.185-5.19-15.588-47.18-32.954 1.762-6.865 19.86 13.11 9.296 30.419 10.513 34.341-5.637 1.916-7.893-3.291-9.033-3.291-9.033"/>
        <path fill="#ECBC93" d="M55.437 186.728c-5.01-1.145-11.78 6.676-18.043-3.872-11.63-35.2-24.585 1.315-5.121 14.817 9.78 6.935 22.693 7.844 25.62-4.205 1.43-5.89-2.456-6.74-2.456-6.74"/>
        <path fill="#ECBC93" d="M42.944 189.455c-4.021-2.567-12.332 2.873-14.557-9.008.666-36.913-21.86-6.005-9.023 12.582 6.404 9.484 17.396 14.159 23.652 3.562 3.056-5.18-.072-7.136-.072-7.136"/>
        <path fill="#ECBC93" d="M28.433 181.783c-3.505-2.238-12.683 2.682-12.687-7.851-.002-8.842-19.05-5.234-7.863 10.965 5.581 8.265 15.16 12.339 20.613 3.104 2.664-4.514-.063-6.218-.063-6.218"/>
        <path fill="#784C43" d="M6.264 182.384s7.114-.247 16.754-7.658c5.968-4.588 6.582-11.094 7.746-16.481.862-3.988 5.124-6.278 8.892-4.696 5.437 2.283 12.033 1.328 8.618-8.793 0 0-10.528-34.409-30.016-27.354s-23.19 43.5-11.994 64.982m199.677-90.629s-17.094 49.973-29.071 63.218c-11.978 13.244 45.807 19.192 45.807 19.192s23.948-39.728 33.773-76.032c9.824-36.303 3.836-28.614 2.55-32.883-1.286-4.27-53.06 26.505-53.06 26.505"/>
      </g>
      <g fill-rule="nonzero" transform="rotate(10 23.811 272.164)">
        <g transform="translate(5.006 20.623)">
          <path fill="#784C43" d="M217.503 80.609h-.783c-16.129-40.069-44.315-68.51-77.355-74.952 2.505 5.185 4.854 10.213 7.046 15.556.157.471-.313.786-.626.471-7.36-7.7-15.66-13.67-24.428-17.284-5.95-2.514-12.058-3.929-18.478-4.4 1.723 2.357 3.445 4.243 5.168 6.285 4.228 4.871 7.83 10.371 11.274 16.342.157.314-.313.786-.626.471-7.83-5.813-16.442-9.899-25.524-11.784-3.602-.786-7.203-1.1-10.962-1.1-5.324 0-6.107 5.5-1.565 7.856 5.48 2.829 10.491 6.443 15.345 10.685-7.83 2.829-15.189 6.128-25.994 14.142-3.601-.157-7.203.157-10.334 1.1-10.022 2.514-18.165 9.27-23.489 19.327-4.54 8.485-6.89 19.013-6.89 29.698 0 3.457.313 6.757.783 10.057-5.324 3.77-9.865 8.013-13.936 12.413C5.95 126.962 0 140.476 0 154.932c0 16.028 7.36 30.955 19.73 43.212 15.19 14.927 38.052 25.77 64.515 29.855 5.794.943 11.9 1.414 18.008 1.728 1.879 0 3.758.157 5.637.157 50.579 0 93.014-24.04 104.915-56.567 2.662-6.128 4.698-12.728 6.42-19.642.157-.314.157-.628.157-.942.94-4.086 1.722-8.171 2.192-12.571 9.552-2.671 16.755-14.928 16.755-29.54 0-16.5-9.239-30.013-20.826-30.013z"/>
          <path fill="#FEBE88" d="M199.182 154.618v-2.514c-1.096-19.013-13.623-35.983-32.727-47.611 0-23.727-10.335-51.854-35.703-58.139-13.153-3.3-31.474 0-40.243 11.314-4.385-6.286-13.31-9.586-21.923-9.586-2.505 0-5.167.315-7.516.943-8.456 2.043-15.033 7.7-19.73 16.342-4.072 7.542-6.264 17.127-6.264 26.87 0 4.714.47 9.27 1.41 13.67-18.791 12.256-30.692 29.698-30.692 48.868 0 36.926 43.219 66.939 96.616 66.939s96.615-30.013 96.615-66.939c.157 0 .157-.157.157-.157z"/>
          <path fill="url(#o)" d="M161.13 102.136c-2.035-21.527-11.43-43.526-32.57-49.182-12.214-3.3-30.378-.315-38.678 10.999-4.54-7.071-11.9-11.314-21.922-11.314-32.727 0-30.065 51.383-30.065 51.383s17.538-17.914 63.732-17.914c23.175.158 43.375 5.814 59.504 16.028z"/>
          <ellipse cx="215.937" cy="110.15" fill="#FEBE88" rx="16.755" ry="24.355"/>
          <path fill="#41413F" d="M214.684 107.007c-.783 0-1.566.314-2.192.786-.157.157-.157.314 0 .471 1.566 1.257 2.662 3.614 2.662 6.285 0 2.672-1.096 5.029-2.662 6.286-.157.157-.157.314 0 .471.626.471 1.41.786 2.192.786 2.819 0 5.168-3.3 5.168-7.543 0-4.242-2.35-7.542-5.168-7.542zm.627-13.042c-3.289 0-6.264 1.729-8.456 4.714-.157.157.156.629.313.471 1.722-.942 3.601-1.57 5.637-1.57 7.203 0 13.154 7.384 14.563 17.127 0 .314.47.314.47 0 0-.786.156-1.415.156-2.2 0-10.214-5.637-18.542-12.683-18.542zm-81.114 54.21c-.313-.156-.47.158-.313.472 1.88 1.886 3.132 4.243 3.602 6.6a1.2 1.2 0 0 1-.314.785c-4.697 2.2-9.395 4.243-14.406 5.971-8.456 2.986-17.381 5.5-26.777 7.228-9.082 1.729-18.32 2.829-28.03 3.3-.156-3.614-.312-7.228-.312-10.842 0-13.985 1.409-27.498 4.228-40.383 1.722-7.542 7.986-12.413 17.85-12.413 3.29 0 6.42.628 9.083 1.728 3.288 1.257 6.42-1.886 5.01-5.185-2.974-6.6-11.587-12.728-25.21-12.885-10.961-.157-20.357 4.557-24.428 11.156-1.41 2.357.47 5.343 3.132 5.028 7.516-.628 12.527 4.714 11.9 7.857-3.444 14.3-5.167 29.541-5.167 45.097 0 3.614.157 7.385.313 11h-5.324c-3.758 0-7.673-.158-11.43-.315-4.542-.314-9.083-.628-13.467-1.257-.314 0-.47-.314-.314-.629.157-.47.47-.942.783-1.414.157-.314-.156-.628-.313-.314-.783.629-1.566 1.257-1.879 2.043-.313.628-.47 1.257-.47 1.885 0 1.572.94 2.986 2.35 3.929.312.157.625-.158.312-.472-.47-.471-.783-1.1-.94-1.728 0-.157.157-.315.314-.315 6.107.472 15.346 11.471 24.741 15.557 3.915 1.728 8.456 2.67 13.467 2.67 4.697 0 9.239-.942 12.997-2.513 8.769-3.614 16.755-8.171 23.488-13.514 5.324-4.4 11.588-8.17 18.321-11.627 2.975-1.572 6.264-2.986 9.395-4.243.157-.157.47.157.314.314-.627 1.729-1.723 3.457-3.132 5.028-.157.158 0 .629.313.472 3.288-1.729 5.48-4.243 6.264-7.228.156-.629.313-1.257.313-2.043.156-3.457-2.35-6.757-6.264-8.8zm-16.911-53.11c3.914 0 7.046-4.557 7.046-10.214 0-5.656-3.132-10.213-7.046-10.213-3.915 0-7.047 4.557-7.047 10.213 0 5.657 3.132 10.214 7.047 10.214zM59.19 93.179c3.132 0 5.637-3.614 5.637-8.013 0-4.4-2.505-8.014-5.637-8.014-3.132 0-5.637 3.614-5.637 8.014 0 4.4 2.662 8.013 5.637 8.013zm32.257 102.608a47.556 47.556 0 0 1-17.381 3.3c-6.42 0-12.37-1.258-17.382-3.3-.313-.157-.47.314-.313.471 4.228 3.457 10.648 5.657 17.695 5.657 7.046 0 13.467-2.2 17.694-5.657.314-.157 0-.628-.313-.471z"/>
        </g>
        <path fill="#6C2D6D" d="M92.904 10.41s9.045-17.593 59.157-7.037a63.17 63.17 0 0 0-4.095-.625c1.284.17 2.647.388 4.095.657l.545.111c2.037.43 3.961.86 5.79 1.258 4.2.94 7.873 1.783 11.048 2.564 7.521 1.799 12.348 3.2 15.33 4.155 1.476.43 2.92.956 4.33 1.56a135.248 135.248 0 0 1 24.087 13.073c.625.398 1.202.796 1.764 1.21.196.158.383.317.562.475 10.818 7.878 21.106 18.623 22.257 31.417 1.732 18.74-2.534 36.94-5.052 46.174-4.522-4.41-16.372-5.063-18.425-3.726a79.993 79.993 0 0 0-18.361-6.512l.019.009-.024-.002c-1.105.796-25.294 21.744-62.744 8.05a92.16 92.16 0 0 1-20.767-11.082c-.94-.65-1.863-1.28-2.771-1.89.898.617 1.81 1.252 2.739 1.906 6.398 4.601 13.406 8.311 20.799 11.066-9.205-1.545-14.93-4.777-16.485-5.875-20.142-14.06-33.435-19.792-43.618-22.307-8.665-2.132-15.72-2.568-22.23-3.357-1.227.833-2.855 1.858-3.06 2.162-.095.192-5.492 5.487-9.3 13.773-7.842 2.134-15.571 3.535-21.585 3.232a43.304 43.304 0 0 1-3.039-.923c1.076.384 2.114.694 3.04.94-22.037-2.112-23.542-23.657 1.458-23.817a.205.205 0 0 1-.031-.003L68.4 56.887l24.503-46.476z"/>
        <path fill="#000" d="M95.544 111.053c35.66 6.026 85.506-7.529 85.506-7.529-3.895-3.628-11.01-15.968-14.874-20.204-9.504-10.47-24.249-16.991-38.481-17.007-8.062 0-15.435 2.126-21.3 6.122a31.374 31.374 0 0 0-7.79 7.528 18.486 18.486 0 0 0-2.74-3.82c-4.376-4.763-11.236-7.336-19.138-7.336-7.629.031-12.443-.624-18.758 3.628-3.237 2.19-16.607 10.007-18.423 37.65 0-.863 11.634-6.529 55.998.968z" opacity=".2"/>
        <g transform="translate(.153 .002)">
          <path fill="#6C2D6D" d="M133.187 103.22a92.16 92.16 0 0 1-20.767-11.08C78.135 68.415 64.73 71.886 39.151 67.858c-7.184-1.13-15.234.08-20.814-.812L68.4 56.887c7.505-2.022 18.057-1.098 29.474 1.354 25.321 5.43 54.972 18.422 65.395 23.342 8.387 3.98 22.13 9.473 32.698 13.565-.305.08-24.68 22.005-62.781 8.073z"/>
          <path fill="#6C2D6D" d="M47.795 73.844c.32-.477 4.137-2.722 4.426-3.232-26.267-3.375-45.607-2.818-48.926 5.716-3.416 8.773 7.841 12.993 13.614 14.521 6.014.303 13.743-1.098 21.585-3.232C40.69 82.38 45.63 75.47 49.735 72.093c.978-1.91-2.036 1.943-1.94 1.751z"/>
          <path fill="#863888" d="M50.184 71.52c-26.732-3.471-43.538-3.726-46.89 4.856-3.43 8.741 7.842 12.96 13.615 14.49-22.434-2.15-23.589-24.441 2.839-23.804 5.66.143 12.187-.335 19.371.796 25.578 4.028 39.096.207 73.269 24.297 6.398 4.601 13.406 8.311 20.799 11.066-9.205-1.545-14.93-4.777-16.485-5.875-20.142-14.06-33.435-19.792-43.618-22.307-9.125-2.245-16.1-2.643-22.9-3.52z"/>
          <path fill="#6C2D6D" d="M232.722 105.402c2.518-9.235 6.784-27.434 5.052-46.174-1.17-13.008-11.787-23.9-22.803-31.813 6.141 4.889 3.544 9.665 3.11 12.5-.48 3.072-22.145 55.25-22.145 55.25a79.993 79.993 0 0 1 18.361 6.511c2.053-1.337 13.903-.684 18.425 3.726z"/>
          <path fill="#863888" d="M214.987 27.431c6.141 4.889 3.544 9.665 3.11 12.5-.48 3.072-22.145 55.25-22.145 55.25-10.568-4.093-24.295-9.57-32.698-13.567-10.423-4.92-40.058-17.896-65.379-23.341 0 0 24.728-48.117 28.593-51.302 3.463-2.818 8.787-6.687 25.593-3.566l.545.111c2.037.43 3.961.86 5.79 1.258 4.2.94 7.873 1.783 11.048 2.564 7.521 1.799 12.348 3.2 15.33 4.155 1.476.43 2.92.956 4.33 1.56a135.248 135.248 0 0 1 24.087 13.073h.048c.577.398 1.154.796 1.716 1.21l.032.095zM179.034 12.99c.08-.239-1.267-.764-3.015-1.178-1.748-.414-3.223-.573-3.32-.35-.08.238 1.267.764 3.015 1.178 1.764.43 3.24.589 3.32.35z"/>
          <path fill="#6C2D6D" d="M184.79 11.493c-2.982-.955-7.793-2.34-15.33-4.171 0 0 10.76-4.681 15.33 4.171z"/>
          <path fill="#3E1550" d="M176.035 11.812c1.748.43 3.095.955 3.015 1.178-.08.239-1.572.08-3.32-.35-1.748-.43-3.095-.956-3.014-1.179.08-.222 1.555-.063 3.32.35z"/>
          <path fill="#863888" d="M152.061 3.373c-16.806-3.105-22.13.7-25.593 3.567-3.865 3.168-28.593 51.3-28.593 51.3-11.433-2.451-21.953-3.375-29.474-1.353l24.503-46.476s9.045-17.594 59.157-7.038zm-29.266-1.735c0-.24-1.49-.462-3.287-.478-1.796-.016-3.255.175-3.24.414.017.239 1.492.462 3.288.478 1.796.015 3.255-.176 3.24-.414z"/>
          <path fill="#3E1550" d="M119.492 1.16c1.796 0 3.287.239 3.287.478 0 .238-1.41.43-3.239.414-1.828-.016-3.287-.24-3.287-.478 0-.239 1.443-.43 3.239-.414z"/>
        </g>
      </g>
    </g>
  </g>
</svg>
