<svg xmlns="http://www.w3.org/2000/svg" width="72.597" height="72.597" viewBox="0 0 72.597 72.597">
  <defs>
    <linearGradient id="b" x1="100%" x2="-2.051%" y1="50%" y2="50%">
      <stop offset="0%" stop-color="#5DB900"/>
      <stop offset="100%" stop-color="#478D00"/>
    </linearGradient>
    <filter id="a" width="101.1%" height="98.9%" x="-.6%" y="2.5%" filterUnits="objectBoundingBox">
      <feOffset dy="2" in="SourceAlpha" result="shadowOffsetOuter1"/>
      <feGaussianBlur in="shadowOffsetOuter1" result="shadowBlurOuter1" stdDeviation="2"/>
      <feColorMatrix in="shadowBlurOuter1" result="shadowMatrixOuter1" values="0 0 0 0 0.17254902 0 0 0 0 0.121568627 0 0 0 0 0.278431373 0 0 0 0.2 0"/>
      <feMerge>
        <feMergeNode in="shadowMatrixOuter1"/>
        <feMergeNode in="SourceGraphic"/>
      </feMerge>
    </filter>
  </defs>
  <g fill="none" fill-rule="evenodd" filter="url(#a)" opacity=".8" transform="translate(-113.627 -19.074)">
    <g transform="rotate(21 10.92 376.207)">
      <circle cx="25" cy="25" r="25" fill="url(#b)"/>
      <path fill="#99DF59" fill-rule="nonzero" d="M40.065 24.437l-.104-.037c-.321-6.305-2.757-11.582-6.825-14.054-.02-.007-.07 0-.063.05.16.786.243 1.593.291 2.435 0 .073-.077.094-.104.035-.623-1.415-1.45-2.637-2.443-3.556a8.066 8.066 0 0 0-2.239-1.493c-.041-.015-.055.029-.042.058.163.35.305.693.44 1.057.339.876.566 1.807.751 2.797.007.05-.077.093-.104.035-.77-1.178-1.722-2.155-2.835-2.85a6.988 6.988 0 0 0-1.397-.677 8.05 8.05 0 0 0-2.185-.454c-.041-.015-.063.05-.021.065.59.385 1.153.856 1.646 1.399.595.653 1.093 1.392 1.542 2.21.034.037-.007.094-.049.08-1.111-.065-2.23.038-4.017.627-.468-.194-.957-.323-1.413-.343-1.435-.133-2.814.41-3.97 1.543-.98.954-1.765 2.295-2.246 3.77-.156.477-.264.948-.35 1.426-.873.266-1.663.634-2.398 1.046-1.86 1.096-3.254 2.677-3.905 4.673-.723 2.212-.425 4.626.655 6.91 1.33 2.79 3.858 5.381 7.164 7.213.722.408 1.506.765 2.298 1.101.248.09.488.202.736.292 6.672 2.423 13.353 1.137 16.389-2.784.627-.718 1.193-1.532 1.732-2.404a.295.295 0 0 0 .063-.122c.308-.52.595-1.046.856-1.63 1.38.088 2.883-1.259 3.541-3.277.744-2.277.114-4.593-1.394-5.14z"/>
    </g>
  </g>
</svg>
