<svg xmlns="http://www.w3.org/2000/svg" width="78.663" height="90.157" viewBox="0 0 78.663 90.157">
  <defs>
    <linearGradient id="a" x1="50%" x2="50%" y1="0%" y2="100%">
      <stop offset="0%" stop-color="#FB587E"/>
      <stop offset="100%" stop-color="#FF4560"/>
    </linearGradient>
    <filter id="b" width="101.1%" height="102.1%" x="-.6%" y="-.8%" filterUnits="objectBoundingBox">
      <feOffset dy="2" in="SourceAlpha" result="shadowOffsetOuter1"/>
      <feGaussianBlur in="shadowOffsetOuter1" result="shadowBlurOuter1" stdDeviation="2"/>
      <feColorMatrix in="shadowBlurOuter1" result="shadowMatrixOuter1" values="0 0 0 0 0.17254902 0 0 0 0 0.121568627 0 0 0 0 0.278431373 0 0 0 0.2 0"/>
      <feMerge>
        <feMergeNode in="shadowMatrixOuter1"/>
        <feMergeNode in="SourceGraphic"/>
      </feMerge>
    </filter>
  </defs>
  <g fill="url(#a)" fill-rule="evenodd" filter="url(#b)" opacity=".8" transform="translate(-31.669 -559.68)">
    <path d="M96.752 581.62c-2.745-5.083-7.72-9.135-13.913-11.39-6.193-2.254-12.61-2.347-17.98-.217-6.578 2.57-11.535 8.214-14.52 16.416-6.46 17.75 6.52 46.098 7.137 47.283.364.773.973 1.315 1.685 1.574.712.26 1.598.261 2.302-.123 1.234-.512 29.4-13.884 35.86-31.633 2.986-8.202 2.817-15.711-.57-21.91zm-18.658 1.782c-5.745-2.091-12.103.955-14.203 6.726-2.1 5.771.835 12.127 6.58 14.218 5.744 2.09 12.102-.956 14.202-6.727 2.1-5.77-.835-12.127-6.58-14.217z"/>
  </g>
</svg>
