<svg xmlns="http://www.w3.org/2000/svg" xmlns:xlink="http://www.w3.org/1999/xlink" width="250" height="250" viewBox="0 0 250 250">
  <defs>
    <linearGradient id="h" x1="49.13%" x2="49.805%" y1="0%" y2="53.501%">
      <stop offset="0%" stop-color="#8F6A4C"/>
      <stop offset="13.24%" stop-color="#A57B58"/>
      <stop offset="39.17%" stop-color="#CC986D"/>
      <stop offset="63.13%" stop-color="#E7AD7C"/>
      <stop offset="84.17%" stop-color="#F8BA85"/>
      <stop offset="100%" stop-color="#FEBE88"/>
    </linearGradient>
    <linearGradient id="j" x1="50%" x2="50%" y1="50%" y2="100%">
      <stop offset="0%" stop-color="#5DB900"/>
      <stop offset="100%" stop-color="#478D00"/>
    </linearGradient>
    <ellipse id="e" cx="49.969" cy="32.429" rx="49.969" ry="32.429"/>
    <ellipse id="k" cx="129" cy="69.5" rx="129" ry="69.5"/>
    <filter id="g" width="143.6%" height="132%" x="-19.2%" y="-13.3%" filterUnits="objectBoundingBox">
      <feOffset dx="8" dy="8" in="SourceAlpha" result="shadowOffsetOuter1"/>
      <feGaussianBlur in="shadowOffsetOuter1" result="shadowBlurOuter1" stdDeviation="17"/>
      <feColorMatrix in="shadowBlurOuter1" result="shadowMatrixOuter1" values="0 0 0 0 0.174293707 0 0 0 0 0.120281994 0 0 0 0 0.276865434 0 0 0 0.4 0"/>
      <feMerge>
        <feMergeNode in="shadowMatrixOuter1"/>
        <feMergeNode in="SourceGraphic"/>
      </feMerge>
    </filter>
    <filter id="i" width="97.9%" height="71%" x="7.6%" y="0%" filterUnits="objectBoundingBox">
      <feOffset dy="-8" in="SourceAlpha" result="shadowOffsetOuter1"/>
      <feGaussianBlur in="shadowOffsetOuter1" result="shadowBlurOuter1" stdDeviation="5"/>
      <feColorMatrix in="shadowBlurOuter1" result="shadowMatrixOuter1" values="0 0 0 0 0.470588235 0 0 0 0 0.298039216 0 0 0 0 0.262745098 0 0 0 0.17 0"/>
      <feMerge>
        <feMergeNode in="shadowMatrixOuter1"/>
        <feMergeNode in="SourceGraphic"/>
      </feMerge>
    </filter>
    <rect id="a" width="250" height="250" x="0" y="0"/>
    <rect id="c" width="250" height="250" x="0" y="0"/>
  </defs>
  <g fill="none" fill-rule="evenodd">
    <mask id="b" fill="#fff">
      <use xlink:href="#a"/>
    </mask>
    <use fill="#D8D8D8" xlink:href="#a"/>
    <g mask="url(#b)">
      <g transform="translate(0 .555)">
        <mask id="d" fill="#fff">
          <use xlink:href="#c"/>
        </mask>
        <use fill="#CCF1E0" xlink:href="#c"/>
        <g mask="url(#d)">
          <g transform="translate(-15.861 4.023)">
            <g transform="translate(129.026)">
              <ellipse cx="10.264" cy="17.025" fill="#EFFFFD" rx="10.264" ry="9.459"/>
              <ellipse cx="22.689" cy="9.459" fill="#EFFFFD" rx="10.264" ry="9.459"/>
              <ellipse cx="30.252" cy="17.025" fill="#EFFFFD" rx="10.264" ry="9.459"/>
              <ellipse cx="22.689" cy="19.728" fill="#EFFFFD" rx="10.264" ry="9.459"/>
            </g>
            <g transform="translate(0 15.495)">
              <mask id="f" fill="#fff">
                <use xlink:href="#e"/>
              </mask>
              <g fill="#FFF" mask="url(#f)">
                <g transform="translate(15.666 19.998)">
                  <ellipse cx="17.09" cy="28.569" rx="17.09" ry="16.057"/>
                  <ellipse cx="37.931" cy="16.057" rx="17.09" ry="16.057"/>
                  <ellipse cx="50.436" cy="28.569" rx="17.09" ry="16.057"/>
                  <ellipse cx="29.595" cy="36.911" rx="17.09" ry="16.057"/>
                </g>
              </g>
            </g>
          </g>
        </g>
        <g filter="url(#g)" mask="url(#d)">
          <g transform="rotate(-10 152.714 -203.696)">
            <g transform="translate(0 164.012)">
              <path fill="#784C43" d="M2.947 117.137c-7.578 35.394 39.015 2.413 39.015 2.413s11.285-61.297 10.64-61.62c-.645-.321-27.246-3.538-27.246-3.538s-14.832 27.35-22.41 62.745z"/>
              <path fill="#FFD03E" d="M179.444 0s23.625 4.896 40.791 31.428c-.132.055-.267.104-.396.165-2.04.977-3.651 2.658-5.087 4.406a47.087 47.087 0 0 0-8.57 15.927c-.648 2.098-1.15 4.25-2.005 6.273-1.772 4.2-4.948 7.625-8.062 10.957L185.22 80.814c-1.156 1.237-2.315 2.48-3.38 3.793l-.866-.59 7.468 58.55-.176.06-.22.074c-4.112 1.375-40.068 12.835-96.321 12.835-41.293 0-56.99-11.236-62.754-18.202l-.188-.231.033-.36c.377-4.43.707-11.979.926-24.132l.027-1.611c.396-23.799 4.485-31.883 8.045-49.22a365.31 365.31 0 0 1 5.704-23.776c.322-1.162.632-2.257.926-3.277l-.338-.342c-3.649-3.61-8.482-6.026-13.57-6.749-.005-.037-.021-.078-.021-.112 0-2.897 4.192-13.837 4.192-13.837s7.339 7.173 12.013 11.846l.424.424c.24-.722.373-1.101.373-1.101L160.301 39.94c1.055-8.846 7.436-22.16 19.143-39.94zM25.797 131.936s.547 2.124 2.93 5.098l.056.069-.017.2c-.664 7.238-1.465 5.224-2.067 1.77l-.052-.304a54.924 54.924 0 0 1-.125-.783l-.048-.32-.047-.323-.045-.323-.045-.323a91.411 91.411 0 0 1-.021-.161l-.042-.32c-.09-.693-.17-1.363-.237-1.96l-.074-.675a112.85 112.85 0 0 1-.166-1.645z"/>
              <path fill="#E19100" d="M42.934 37.627l.585.376a364.944 364.944 0 0 0-5.705 23.777l-8.1-1.345c-2.995-.497-6.142-1.06-8.488-2.986-1.443-1.184-2.466-2.797-3.342-4.444-.853-1.602-1.602-3.298-1.81-5.1-.208-1.803.184-3.74 1.387-5.102.74-.836 1.741-1.425 2.756-1.985l.554-.304c1.471-.809 2.875-1.639 3.441-3.16 1.026-2.755-1.415-6.293.432-8.582 1.037-1.286 2.931-1.424 4.578-1.287.44.038.877.09 1.315.151a.888.888 0 0 0 .006.038l-.006-.037c5.247.745 10.222 3.29 13.907 7.09-.294 1.02-.603 2.116-.925 3.277l-.291-.187zm125.969 13.221c1.619-.494 3.275-.876 4.926-1.256l15.558-3.579c4.448-1.023 8.998-2.09 12.818-4.58 1.842-1.201 3.462-2.704 5.175-4.081a47.169 47.169 0 0 1 16.02-8.418c2.17-.646 4.446-1.14 6.684-.81.14.02.28.056.421.084 2.09.422 4.08 1.67 4.909 3.618.997 2.344.14 5.054-1.025 7.32-1.027 1.997-2.33 4.226-1.564 6.336.601 1.657 2.307 2.638 3.282 4.109 1.666 2.513.838 6.06-1.142 8.336-1.98 2.275-4.85 3.552-7.654 4.669-2.701 1.076-5.439 2.07-8.182 3.05l-3.528 1.257c-6.27 2.239-12.503 4.55-18.34 7.726-3.709 2.018-7.245 4.38-11.137 6.019-.77.324-1.513 1.386-2.266 2.488l-.347.508c-.814 1.183-1.644 2.287-2.533 2.443l-.776-6.94-8.501-21.293z"/>
              <path fill="#784C43" d="M182.801 81.462s-15.173 44.367-25.804 56.126c-10.632 11.758 40.66 17.04 40.66 17.04s21.257-35.272 29.978-67.503c8.72-32.231 3.406-25.404 2.264-29.195-1.142-3.79-47.098 23.532-47.098 23.532"/>
            </g>
            <g fill-rule="nonzero" transform="rotate(10 21.929 250.65)">
              <path fill="#784C43" d="M193.202 71.603h-.695C178.18 36.01 153.143 10.747 123.794 5.025c2.226 4.606 4.312 9.072 6.26 13.818.138.419-.279.698-.557.419-6.538-6.84-13.91-12.144-21.699-15.354C102.513 1.675 97.088.418 91.385 0c1.53 2.094 3.06 3.769 4.59 5.583 3.756 4.327 6.955 9.212 10.015 14.516.139.28-.278.698-.556.419-6.955-5.165-14.605-8.794-22.673-10.468-3.199-.698-6.398-.978-9.736-.978-4.73 0-5.425 4.886-1.391 6.98 4.868 2.512 9.319 5.722 13.63 9.49-6.954 2.513-13.491 5.444-23.089 12.562-3.199-.14-6.398.14-9.18.977-8.902 2.234-16.135 8.235-20.864 17.168-4.034 7.537-6.12 16.89-6.12 26.38 0 3.071.278 6.002.695 8.933-4.73 3.35-8.763 7.119-12.38 11.027C5.287 112.778 0 124.78 0 137.622c0 14.237 6.537 27.497 17.526 38.384 13.492 13.26 33.8 22.89 57.307 26.52 5.146.837 10.571 1.256 15.996 1.535 1.669 0 3.338.14 5.007.14 44.928 0 82.622-21.356 93.193-50.248 2.365-5.444 4.173-11.306 5.703-17.447.14-.28.14-.558.14-.838.834-3.629 1.53-7.258 1.947-11.166 8.484-2.373 14.883-13.26 14.883-26.24 0-14.656-8.207-26.66-18.5-26.66z"/>
              <path fill="#FEBE88" d="M176.928 137.343v-2.233c-.974-16.889-12.101-31.963-29.07-42.292 0-21.076-9.18-46.06-31.714-51.643-11.684-2.931-27.958 0-35.747 10.05-3.895-5.583-11.823-8.515-19.474-8.515-2.225 0-4.59.28-6.676.838-7.511 1.814-13.353 6.84-17.526 14.516-3.617 6.7-5.564 15.214-5.564 23.867 0 4.188.417 8.235 1.252 12.144-16.691 10.887-27.263 26.38-27.263 43.408 0 32.8 38.39 59.46 85.822 59.46 47.43 0 85.821-26.66 85.821-59.46.14 0 .14-.14.14-.14z"/>
              <path fill="url(#h)" d="M143.128 90.725c-1.808-19.122-10.154-38.663-28.931-43.688-10.85-2.93-26.985-.279-34.357 9.77-4.034-6.28-10.571-10.049-19.473-10.049-29.07 0-26.706 45.642-26.706 45.642s15.578-15.912 56.611-15.912c20.586.14 38.53 5.164 52.856 14.237z"/>
              <path fill="#41413F" d="M190.698 95.052c-.695 0-1.39.279-1.947.697-.139.14-.139.28 0 .42 1.391 1.116 2.365 3.21 2.365 5.582 0 2.373-.974 4.467-2.365 5.583-.139.14-.139.28 0 .42.556.418 1.252.697 1.947.697 2.504 0 4.59-2.931 4.59-6.7 0-3.768-2.086-6.7-4.59-6.7zm.557-11.585c-2.921 0-5.564 1.535-7.511 4.187-.14.14.139.558.278.419 1.53-.838 3.2-1.396 5.007-1.396 6.399 0 11.684 6.56 12.936 15.214 0 .279.417.279.417 0 0-.698.14-1.256.14-1.954 0-9.073-5.008-16.47-11.267-16.47zm-65.002 52.323c-.278-.14-.417.14-.278.418 1.669 1.675 2.782 3.769 3.199 5.863 0 .279-.14.558-.278.697-4.173 1.955-8.346 3.769-12.797 5.304-7.511 2.652-15.44 4.886-23.785 6.42-8.068 1.536-16.274 2.513-24.898 2.932-.14-3.21-.278-6.42-.278-9.63 0-12.423 1.252-24.427 3.755-35.872 1.53-6.7 7.094-11.027 15.857-11.027 2.921 0 5.703.559 8.068 1.536 2.92 1.116 5.702-1.675 4.45-4.606-2.642-5.862-10.292-11.306-22.394-11.445-9.736-.14-18.082 4.047-21.698 9.91-1.252 2.093.417 4.745 2.781 4.466 6.677-.558 11.128 4.187 10.572 6.979-3.06 12.701-4.59 26.24-4.59 40.058 0 3.21.139 6.56.278 9.77h-4.73c-3.338 0-6.815-.139-10.153-.279-4.034-.279-8.068-.558-11.962-1.116-.279 0-.418-.28-.279-.559.14-.418.418-.837.696-1.256.139-.279-.14-.558-.278-.279-.696.558-1.391 1.117-1.67 1.815a3.727 3.727 0 0 0-.417 1.675c0 1.395.835 2.651 2.087 3.489.278.14.556-.14.278-.419-.417-.419-.696-.977-.835-1.535 0-.14.14-.28.278-.28 5.425.42 13.632 10.19 21.977 13.819 3.478 1.535 7.511 2.373 11.962 2.373 4.173 0 8.207-.838 11.545-2.234 7.79-3.21 14.883-7.258 20.864-12.003 4.73-3.908 10.293-7.258 16.275-10.329 2.642-1.396 5.563-2.652 8.345-3.768.14-.14.417.14.278.279-.556 1.535-1.53 3.07-2.782 4.466-.139.14 0 .558.279.419 2.92-1.535 4.868-3.769 5.563-6.42.14-.559.279-1.117.279-1.815.139-3.07-2.087-6.002-5.564-7.816zm-13.427-48.36c3.477 0 6.26-4.048 6.26-9.073s-2.783-9.072-6.26-9.072-6.26 4.047-6.26 9.072c0 5.025 2.783 9.072 6.26 9.072zm-52.067-4.3c2.782 0 5.008-3.21 5.008-7.118 0-3.908-2.226-7.119-5.008-7.119s-5.007 3.21-5.007 7.119c0 3.908 2.364 7.118 5.007 7.118zm20.472 90.782a42.243 42.243 0 0 1-15.44 2.931c-5.702 0-10.988-1.116-15.439-2.93-.278-.14-.417.278-.278.418 3.756 3.07 9.458 5.025 15.718 5.025 6.259 0 11.962-1.954 15.717-5.025.279-.14 0-.558-.278-.419z"/>
            </g>
          </g>
        </g>
        <g filter="url(#i)" mask="url(#d)">
          <g transform="translate(-17 124)">
            <path fill="#59CCDF" d="M92.315 8.803c-73.054 27.172-110.49 109.065-83.604 182.9 26.885 73.834 107.916 111.665 180.973 84.493 73.056-27.174 110.492-109.064 83.604-182.899C246.403 19.466 165.374-18.368 92.315 8.803"/>
            <path fill="#863888" d="M202.229 84.028c.22-.334.205-1.043.044-1.385.452-.157.975-.12 1.453-.167 1.07-.096.711-.083 1.026-.858.384-.944 1.035-.652 1.927-1.149-.307-.894-1.066-2.422-2.14-2.55-.745-.09-1.029.695-1.654.884-.95.278-.83-.268-1.058-.892-.307-.836-.961-1.077-1.854-.783-1.055.345-1.045.46-1.483-.674-1.917-.34-2.24.799-3.784 1.306-.562-.817-.439-2.08-1.037-2.834-.38-.475-1.25-.926-1.81-1.13-1.11-.415-1.047.549-.955 1.432.129 1.157 1.226 1.266 1.402 2.503.313 2.258 1.707 4.14 2.497 6.276.407 1.09.859 2.032 2.03 2.314 2.169.515.627-1.404 1.504-2.535.413-.533.617-.076 1.143-.249.333-.109.504-.738.945-.655.52.1.722 2.828 1.804 1.146M137.887 3.557c.895-.247 1.765-.677 2.647-.966.068.432.507.748.625 1.067.69-.313 1.278-.743 1.428-1.402 2.334.146.328 2.211.801 3.339.72 1.72 2.823-.308 4.238-.634.068.185.173.38.242.56 1.69-.213 1.336-2.044 2.975-2.317 1.158-.191 2.707.78 2.37 2.102 1.904 1.088 5.523-3.238 6.523.663 1.174-.154 1.927-1.55 3.172-1.608 1.594-.08 1.389.971 2.098 1.812 1.1 1.314 1.725 1.274 2.899.215.759-.687 0-1.043 1.234-1.319.473-.103 1.9.621 2.329.78-.184.852.068 1.688-.024 2.48 1.904.607 4.769-.975 5.67 1.411-.563.194-.854.677-.823 1.3.502.157 1.828.757 2.256.802 1.344.154 2.579-1.478 3.818-1.298.943.135 1.329 1.722 1.964 2.054 1.05.555 1.975.003 2.99-.36.429 1.594.528 1.865 2.201 1.546 1.08-.204 3.06-1.404 3.51.279.353 1.319-1.386 2.364-2.46 2.187-1.186-.189-1.895-1.526-3.237-1.625-3.209-.23-4.167 4.772-1.86 6.54.92.705 5.743.745 7.004.121 1.142-.568 1.315-1.963 2.702-2.165.386.886-.468 1.868-.166 2.693.281.783 1.384 1.322 2.153 1.051 1.45-.504 1.936-3.97 3.842-2.738a7.88 7.88 0 0 0 .538 1.703c1.066-.347 2.248-.637 2.896-1.64 1.741.57.641 3.416 3.327 2.386.922-.358 1.1-1.062 2.043-1.027.286.013.667 1.011 1.604.878 3.939-.549-.378-2.985-1.158-3.638-.2-.164-.46-.446-.722-.777-23.01-12.924-49.482-19.317-76.42-17.783.462.918 1.807 1.656 2.313 2.19 1.08 1.13.347 1.719 2.458 1.138m98.994 164.174c.315-.544.373-.629.82-1.085.31-.33.603-.451.868-.878.573-.91.334-3.402-1.244-2.606-.074.037.21 2.152-.116 2.553-.643.788-1.914.682-2.518 1.79-.378.704-.583 1.46.305 1.79 1.142.427 1.478-.855 1.885-1.564m-17.753 14.694c.032 2.057 4.435 1.666 5.354.414 1.19-1.637-.312-3.458 1.45-5 1.147-.995 1.748-2.568 2.99-3.325.757-.462 1.67-.92 2.463-1.335.315-.164 1.208-.268 1.418-.536 1.103-1.403-.945-2.63-2.226-2.377-1.505.294-2.92.684-4.417 1.061-.987.25-1.888.39-2.849.775-1.273.512-1.764 1.422-2.442 2.532-.533.873-1.783 1.236-1.444 2.319.491 1.592 2.466 1.348 2.76 3.208-.872.43-3.078.876-3.057 2.264m14.431 17.73c-1.11-.383-1.61-1.067-1.701-1.79-.244-1.902 2.326-4.054 4.18-1.647 1.636 2.13.04 4.312-2.479 3.436M121.67 108.973c1.137-1.13 3.138.26 4.075 1.024 1.8 1.468 2.989 4.243 3.385 6.502.142.807-.066 2.24-.937.987-.68-.977-.363-2.282-1.381-2.978-.702-.48-1.65-.697-2.4-1.085-1.098-.557-1.73-.953-2.46-1.974-.51-.717-.978-1.778-.282-2.476m-17.143-38.235c-.384-.228-.625-.767-1.082-.889-.62-.164-.662.258-1.09.61-.307.25-.711.284-1.063.494-.602.35-1.053.932-.95 1.624.075.507.553 1.17.359 1.714-.491 1.388-1.927-.936-2.416-1.326-.85-.685-1.835-.17-2.678.31-.94.536-1.452 1.24-2.552 1.56-.378.11-1.219.242-1.022-.488.092-.34.557-.366.833-.507-.11-.355-.045-.732-.16-1.106.627-.335.65-.228 1.081.124.688.568.964.186 1.505-.249.764-.608 1.79-.764 2.673-1.136 1.373-.586 1.034-2.558 2.707-3.038.82-.236.809.374 1.478.435.694.066 1.095-.897 1.683-.902.31-.006.77.52 1.195.6 2.35.44 2.12-1.747 2.807-3.254.265-.584 1.284-1.207 1.896-.862 1.352.772-.11 2.014-.179 2.982-.055.773.55 2.325-.094 2.951-.441.43-1.31.226-1.833.303-.496.071-.903.345-1.426.353-.52.013-1.22-.03-1.672-.303m-2.19 26.36c-1.024.007-1.253.406-1.985.981-.67.52-1.195 1.065-1.841 1.654-.36.326-.83.73-1.297.432-1.505-.974 1.46-2.603 1.961-3.16.502-.555 1.056-1.141 1.702-1.518 1.37-.807 2.817.058 3.844 1.008-.593.637-1.6.595-2.384.602m-8.623-3.752c-.604 1.08-1.87.855-2.904.921-1.111.066-1.009-.146-1.418-1.298.302-.127 1.24-.284 1.37-.589.063-.148-.262-.793-.275-.971-.016-.276.076-.621.141-.876.042-.17.35-.04.376-.297.045-.398-.439-.955-.612-1.274-.412-.745-.47-.719-.105-1.523.229-.502.496-1.55 1.04-1.123.234.184.131.635.155.895.09.929.323 1.722.677 2.592.764-.273 1.405.579 2.14.534 1.003-.059 1.791-.746 2.098-1.58.389-1.053 1.056-1.66 1.757-2.555.428-.552 1.625-1.149 1.775.114.09.762-1.381 1.59-1.867 2.123-.452.491-.336 1.094-.743 1.5-.446.446-1.505.58-2.061.907-1.153.688-.988 1.497-1.544 2.5m-11.36-9.492c-1.462-2.036 1.623-2.213 1.644-3.967.01-.91-.75-.306-1.202-.072-.326.167-1.668.645-1.757-.186-.026-.292.536-.597.783-.732.454-.231 1.302.013 1.601-.2.336-.238.042-.795.447-1.109.714-.56 2.03-.618 2.864-1.019.394-.185 1.6-.918 1.174.024-.115.252-.651.446-.814.754-.168.302-.115.563-.396.897-.097.114-.284.255-.428.4-.105.104-.197.213-.224.316-.168.658.71.518 1.15.33.463-.194.927-.537 1.282.04.932 1.546-1.497 1.154-1.996 1.79-.162.207-.147.789-.186 1.054-.063.467.055.374-.334.674-1.026.79-2.523.499-3.607 1.006m-8.59-56.61c-.86.555-2.273-.002-3.006.672-.564.515-.147 1.964-1.339 1.619-1.512-.433-.155-4.113 1.142-3.559.88.377.788.412 1.849.43.735.014 1.132-.334 1.355.839m-7.305 4.652c.068 1.696-1.426 2.218-2.429 3.243-.898.918-1.67 1.947-2.644 2.77-.594.504-1.505.61-1.73 1.34-.274.9.887 1.932.091 2.88-.155.185-2.51.782-2.862.695-1.265-.319-1.62-1.481-.864-2.346.79-.91 1.584-1.25 2.227-2.338.457-.767.85-1.547 1.234-2.343.11-.228.223-.46.334-.693.913-1.895 1.966-4.007 4.167-4.575 1.426-.371 2.397-.515 2.476 1.367m46.66 36.127c.094-.48.77-1.032.564-1.56-.247-.62-.861-.43-.934-1.268-.05-.6.708-1.94 1.375-1.938.583 0 .867.934.954 1.388.128.682-.105 1.152-.355 1.773-.247.613.095 4.96-1.329 3.277-.27-.318-.346-1.292-.275-1.672m-1.11-9.895c-.103-1.062.64-1.582 1.178-2.354.551-.786.344-1.231 1.245-1.667.577 1.094-.767 4.244 1.079 4.496.761.1 1.497-.427 2.169-.364.84.082 1.005 1.07 1.63 1.468.757.485 1.618.087 2.398.682 1.599 1.218.493 3.232-1.403 2.462-.627-.257-.774-.854-1.228-1.313-.843-.852-.87-.146-1.81-.175-.814-.024-1.32-.688-2.124-.65-1 .05-1.389-.099-2.18-.868-.448-.436-.887-1.043-.955-1.717m10.642 8.176c-.593.069-1.92-1.367-1.544-1.497.63-.215 1.618-.507 2.261-.202 1.127.537.226 1.587-.717 1.699m19.851 57.968c-.094-.815.116-.887.646-1.569.712-.926.93-1.77 1.245-2.86.415-1.43 1.412-2.092 2.255-3.249 1.119-1.528 2.195-1.393 3.776-1.534.903-.076 1.867-.875 2.757-.809.89.066 1.019.802 1.702 1.28.966.673 4.466 1.889 2.436 3.42-.761.576-2.027.377-2.864.958-.959.669-1.07 2.03-2.322 2.213-1.89.281-.732-1.399-1.945-2.017-1.21-.615-1.775 1.68-2.466 2.24-.57.47-1.29.724-1.736 1.377-.372.547-.202.971-.758 1.417-1.095.879-2.55.635-2.726-.867m15.067.631c-.557 1.184.097 2.816.648 3.949.835 1.706 1.807 3.821 1.615 5.827-.055.632-.404 2.086-.861 2.567-.88.926-1.226.517-1.688-.093-.786-1.038-.877-2.683-1.631-3.76-1.119-1.598-1.392-2.535-1.562-4.459-.1-1.165-1.122-2.696-1.116-3.893.01-1.032.756-1.348 1.544-1.86.9-.587 3.41-3.4 4.098-1.266.287.894-.695 2.248-1.047 2.988m3.487-6.157c1.145-.554 3.271-.618 4.338.104 1.15.785 1.236 2.306 1.622 3.535.318 1.016 1.702 3.256.097 3.906-1.735.706-1.874-.81-2.544-1.887-.872.04-.189 1.181-1.129 1.293-.586-1.027.17-2.564-.733-3.474-.672-.677-1.987-.04-2.633-.772-.856-.972.105-2.285.982-2.705m5.023-1.027c.35-.586 2.463-.066 2.883.25.722.539 1.52 1.375 1.885 2.226-.845.552-1.034.008-1.68-.215-.623-.212-3.85-1-3.088-2.26m6.042 4.407c.304-.91 1.326-1.669 1.728-2.624.606-1.462 1.908-3.93 4.03-3.248.78.25 1 1.231 1.008 2.062.013 1.223-.349 1.446-1.281 1.9-.675.331-1.649.408-2.256.862-.666.494-.932 1.558-1.604 2.078-1.04.79-2.066.297-1.625-1.03m1.066 7.553c-.814 1.003-6.853 5.647-6.806 2.006.02-1.916 2.65-3.44 4.015-4.177.942-.512 1.64-2.534 3.02-1.908 1.386.632.461 3.232-.23 4.079m95.568 36.977c-2.245.7-3.76 2.361-5.805 3.495-.867.477-1.823 1.12-2.311 1.95-.284.48-.499 1.494-.633 2.051-.052.234-.417.218-.504.443-.097.242.454.751.313.95-.397.552-1.429.932-2.172 1.075-1.16.231-1.098-.111-2.2-.366-3.03-.703-4.966 2.078-7.458 3.413-.543.286-1.777.496-2.179.92-.47.489-.14.5-.365 1.036-.457 1.098-.564 2.709-2.2 1.236.07 1.054-.804 1.393-1.744 1.637-1.922.497-2.804-.286-1.932 2.214-1.854.703-2.865 1.021-4.076 2.444-1.003 1.183-2.166 2.277-3.712 2.661-1.707.425-2.437.3-3.587 1.537-.993 1.072-1.318 1.823-1.84 3.171-.3.775-.384 1.324-.565 1.967-.284 1.003-.646 1.146-1.18 2.085-.848 1.497.276 2.293-.102 3.74-.651 2.454-5.734 1.398-4.327 4.662-.767.04-1.751-.151-2.508.204-.997.48-1.076 1.213-2.342 1.322-.798.069-1.948-.637-2.77-.151-.948.557-.835 1.878-1.507 2.667-.549.629-1.854 1.372-2.594 1.735-1.907.92-4.711.807-5.8-1.306-.888-1.711-.678-3.69-1.056-5.525-.242-1.146-.37-3.943-1.148-4.707-1.334-1.306-2.589.42-3.605 1.12-1.021.708-5.32 2.162-4.85 3.574-1.008.443-2.156.162-3.224.462-.922.263-1.73.86-2.66 1.13-.953-2.287-1.657-4.774.572-6.65-.41-1.343-.982-2.64-1.426-3.98-.212-.65-.322-1.778-.136-2.45.26-.944 1.63-1.321 1.712-2.165.142-1.489-2.24-1.515-3.161-1.269-1.103.284-1.665 1.181-2.43 1.914-.931.88-2.187 1.44-2.956 2.48-.646.863-.824 1.662-1.814 2.299.388 1.343 1.071 2.49.898 3.882-.35 2.861-2.503 1.184-3.627 2.965-.57.9.237 1.533-.425 2.353-.38.47-2.095.78-2.707.89-1.502.275-3.038 0-4.503.498-1.082.367-1.45.892-2.747.693-2.384-.369-4.183-2.394-5.367-4.376-1.368-2.285-2.875-4.782-4.01-7.104-1.278-2.611-.013-4.52-.918-7.022-.83-2.3-2.629-3.542-1.445-6.31.465-1.09 1.479-1.948 2.353-2.646 1.846-1.462 1.447-1.146 2.266-2.866 1.11-2.333 2.544-2.77 5.186-3.622 1.73-.555 3.143-.7 4.831-.945.862-.127 2.435.008 3.146-.748.465-.494.48-2.134 1.069-3.044.709-1.096 1.657-2.006 2.883-2.47.415-.155 1.071.01 1.434-.208.425-.265.462-.902.743-1.056 1.47-.796 2.555.263 4.088-.016 1.88-.345 1.279-2.362 2.57-2.869 1.815-.713 3.897 1.155 5.685 1.086.34-.01-.538 3.79-.372 4.174.48 1.13 1.903 1.051 2.864 1.566 1.854.995 4.7 5.318 7.163 3.635 2.353-1.605-.493-4.593-1.562-6.04-1.166-1.576-2.392-3.099-3.734-4.535-.575-.613-1.294-1.64-2.024-2.043-.491-.268-1.05-.096-1.429-.313-1.843-1.064-2.03-3.142-2.313-5.17-.042-.323.186-1.021.07-1.292-.312-.727-1.462-.929-1.688-1.43-.764-1.725 1.636-2.057 2.776-1.93-.16-.801.9-2.268 1.147-3.195.357-1.358 1.686-3.51 2.358-4.418.875-1.18 3.85-2.805 3.23-4.554-.4-1.122-2.232-1.48-2.799-2.86-.562.156-1.16.257-1.749.313-.528-1.412-1.147-2.55-.391-3.928-1.573-.334-3.834-4.283-2.999-5.695.533.236.491-.008 1.022-.016-.612-1.364.78-1.722.995-2.807.15-.727-.397-1.367-.452-2.054-.296-3.848 3.107-3.859 4.173-6.842.848-2.372-3.69-2.789-3.713-5.615-.01-1.924 2.1-3.174 2.431-5.002.258-1.441-.858-4.02.657-5.217 2.056-1.624.858 2.247 1.286 3.338.764 1.937 2.264 3.508 4.293 1.749.765-.663.712-.918.814-2.051.132-1.37.053-2.622.379-4.013.183-.812.551-1.7.582-2.516.032-1.021-.37-2.027-.27-3.094.105-1.205 1.153-2.648.964-3.763-.373-2.255-2.923-2.63-4.598-1.886.796 2.425 2.329 6.084-1.825 6.146-3.547.05-2.298-5.613-6.465-5.759-4.114-.143-4.154 4.012-5.49 6.807-.685 1.435-1.801 1.881-1.93-.313-.113-1.882.937-4.074 1.318-5.92.402-1.967 1.048-3.04 2.804-4.127 3.582-2.224 4.703-1.646 5.906-5.783.073-.268.157-.6.304-.833.108-.178.368-.194.423-.406.108-.403-.21-.841-.383-1.181-.244-.494-.307-.671-.166-1.242.048-.186.1-.507.21-.669.09-.14.418-.265.48-.408.193-.446-.233-.788-.228-1.21.011-.467.568-.85.586-1.314.01-.263-.236-.929-.326-1.202-.315-1-1.507-1.271-2.434-.897-1.034.414-.761.92-1.89.098-.699-.507-.911-.515-1.615-.708-.83-.234-.916-.65-1.536-1.322-.594.199-1.426.717-2.038.759-.551.034-.709-.369-1.168-.464-.475-.099-.827.103-1.268.262-1.166.43-2.385 1.17-3.645.857-1.463-.366-3.077-.727-4.5-1.326-1.429-.603-2.555-1.781-3.958-2.42-.593-.274-1.173-.282-1.806-.486-.64-.205-1.216-.573-1.917-.502-1.633.178-.785 1.778-.265 2.813.312.618.454.762.373 1.465-.063.552-.037 1.359-.229 1.863-.386 1.035-2.47 1.497-3.395 1.019-.512-.263-.774-.929-1.155-1.361a7.033 7.033 0 0 0-1.494-1.258c-.883-.573-1.799-1.534-2.665-2.02-.988-.541-2.01.491-3.099.258-.517-.112-.935-.558-1.473-.608-.572-.053-1.192.297-1.72.496-.843.313-1.252.268-2.098.353-1.042.104-1.04.648-1.504 1.412-.623 1.027-3.403.934-3.393 2.518.008 1.447 3.043.974 3.787 1.88.333.395.055 1.114.383 1.475.205.22.478.002.706.164.213.151.305.356.497.555.955 1.032 1.41 1.231 1.478 2.592.097 1.81 1.418 1.179 2.678 2.078.341.244.59.52.927.765.567.4 1.352.631 1.849 1.103.375.359.643.913.898 1.388.126.229.194.531.338.743.25.375.799.6 1 .966.05.059.111.104.187.136-.302 1.064-.28 2.542-.273 3.667-.588.189-1.654.748-1.76 1.468-.246 1.751 1.986 2.921 3.215 3.625 1.675.958 3.106 2.064 3.883 3.943.363.886 0 1.18-.766 1.775-1.442 1.11-3.186.765-4.196-.865-.489-.804-.168-2.807-1.26-3.115-.639-.18-.912.605-1.474.706-.698.122-1.483-.648-1.885-1.205-.662-.926-.987-2.205-1.3-3.296-.365-1.276-.788-2.012-2.095-1.02-1.455 1.1-3.367 1.787-5.102 2.506-.586.242-1.153.36-1.767.085-.48-.22-.772-.762-1.334-.839-.468-.069-.833.306-1.221.282-.638-.045-.596-.528-1.082-.879-.58-.408-3.138-.777-3.645-.371-.661.525.119.958-.992.947-.583-.002-1.169-.504-1.76-.533-.249-.014-.635.196-.842.159-.465-.085-.838-.552-.932-1.176-.053-.34.081-.589.034-.9-.118-.745-.344-1.472-.45-2.236-.204-1.534-.412-2.131-1.443-3.129-2.266.358 1.52 5.496-.967 6.069-1.315.303-1.875-1.295-2.11-2.282-.177-.72-.19-1.28-.655-1.959-.496-.727-.548-.536-.478-1.486.037-.472-.078-1.303.032-1.743.176-.674.922-1.064 1.294-1.648.696-1.093-.59-2.192-.002-3.145.7-1.133 2.085-.69 2.053-2.184-.02-.724.095-1.974.418-2.627.265-.536 1.428-1.536 2.085-1.337.667.201.622 1.475 1.499 1.568.512.05 1.662-.372 2.195-.568-.079-.889.152-1.513 1.124-1.68.465-.077 1.153-.034 1.208.565-.733.319-.767 1.938-.43 2.577.448.87 1.853 1.017 2.643.632 1.011-.496 1.05-1.494.843-2.582-.181-.987-.856-1.202-1.03-2.094.82-.212.576-1.43.195-1.988-.286-.416-.436-.175-.822-.493-.433-.353-.604-1.197-1.234-1.383-1.195-.353-2.505.945-3.744.536-1.258-.414-1.686-1.359-.696-2.311.714-.685 1.292-.605.935-1.584-.486-1.335-.988-2.84-2.345-3.511-.69-.337-1.541.13-2.195-.282-.365-.233-.956-1.528-1.027-1.966-.081-.47-.312-.135.16-.645.27-.292.809-.36 1.163-.51-.097-.198-.11-.504-.22-.708 1.525-1.25 1.848.725 2.683 1.396 1.505 1.207 1.342-.645 2.374-1 .59.73.42 1.541.759 2.29.417.931 2.059 1.088 2.891.576.339-.21.667-.6.79-1.025.084-.308-.152-1.07-.073-1.226.627-1.244 1.783.886 2.156 1.282.648.682 1.961 1.165 1.788 2.322-.229 1.491-2.421 1.375-2.92 2.518-.32.754.362 2.298.864 2.858.703.786 2.037 1.07 2.97.682-.14-.918-.121-2.688.863-3.078.854-.337 1.89.536 2.353-.653-.052.133 1.568 1.481 1.775 1.558.362.143.565.202.906-.016.407-.25.302-.706.87-.746.485-.037.989.51 1.42.67 1.01.37 1.877-.054 2.89-.091 1.298-.045 6.295-.056 6.287-1.765-.01-1.98-3.474-1.696-3.84-3.731.36-.13 1.49-.55 1.616-.969.173-.578-.665-1.398-1.035-1.69-1.134-.894-1.993-.602-3.314-.467-1.517.164-2.63 1.266-4.222 1.226-1.03-.024-4.049-.709-3.432-2.314.567-1.457 2.697-.3 3.724-.555.467-.12.89-.326 1.352-.43.706-.162.772-.037 1.494.088 1.137.194 2.227-.212 1.906-1.476-.139-.549-.178-1.175-.614-1.504-.53-.398-1.318-.064-1.765-.645-.722-.963-.283-1.81-1.917-1.613-.514.06-1.215.167-1.63.517-.373.318-.439.995-.785 1.263-.701.544-3.35.857-4.102.128-.517-.5-.186-1.147-.323-1.707-.15-.594-.643-.9-.774-1.523-.074-.358-.1-.855.073-1.215.234-.486.953-.775.95-1.356-.004-.762-.81-1.062-1.417-.879-1.13.335-.748 1.258-.827 2.126-.754.334-1.205.968-1.899 1.3-1.037.496-1.657.013-2.528-.38-.835-.376-1.234.017-2.111.208-.455.1-.998.042-1.47.058-.66.019-1.059.165-1.69.308-.92.212-1.787-.266-2.701-.47-1.2-.273-2.526-.178-3.629.486-.754.454-1.116 1.154-1.911.544-.715.143-1.518.167-2.046.289-1.402.332-1.494.83-1.003 2.16.302.83 1.57 3.198 1.019 3.81-.825-.379-1.242-.384-1.657-1.225-.37-.743-.41-1.32-.467-2.078-.069-.865-.166-.96-1.114-1.128-.661-.111-1.502.027-1.47-.95.042-1.515 2.321-1.09 3.23-1.528.645-.308 1.75-1.075 2.142-1.924-.155-.449-.35-.879-.672-1.24-.73-.809-1.675-.329-2.57-.02-.452-.699.338-1.397.763-1.914.948-1.15.812-1.627.68-3.063.82-.422 1.334-1.645 2.432-.86.806.576.882 1.75 2.061 1.956.966.168 2.629-.422 3.437-.995.69-.488 1.23-1.65 2.135-1.799.376-.058 1.016.324 1.436.334.746.014 1.011-.244 1.639-.631 1.092-.674 1.82-.197 3.009-.284.743-.053.748-.18 1.45.122.543.239 1.556.486 2.024.85.604.466.588 1.329 1.003 1.92.404.571 1.118 1.091 1.646 1.54.504.435.904 1.1 1.463 1.252 1.084.292 3.455-.573 4.282-1.258.699.433 1.122 1.224 1.374 1.99.118.367.076 1.1.27 1.349.814 1.037 2.072-.449 3.138-.624 1.415-.23 1.88.581 2.665 1.64.517.711 1.4 1.733 2.445 1.083.018.71-.329 1.377-.323 2.075.008.746.317 1.467.577 2.179.442 1.196.717 2.47 1.6 3.354.638.637.934.812 1.436 1.77.454.86.835 1.619 1.809 1.876.882.234 1.308-.276 2.045-.42 1.011-.196 2.085-.028 3.075.218.118 1.102.423 2.115 1.63 2.105.817-.016 1.991-1.027 2.43.146-.463.292-.63.992-.41 1.515.35.833.885.348 1.51.844.696.55.583 2.003.96 2.914 1.458-.324.586-3.76.431-4.766 2.12-.454 1.416 1.92 2.143 3.025.79 1.207 3.571 3.168 4.868 1.409.596-.815-.142-1.693.993-2.468.255-.17.63-.154.885-.329.275-.18.533-.687.74-.804 1.885-1.064 1.79 1.47 2.812 2.516.977.992 3.994 1.33 3.59-.743-.35-1.805-3.923-2.914-4.755-4.679-.297-.64-.203-1.22-.337-1.773-.294-1.218-.91-1.613-1.761-2.446-.885-.863-1.02-1.71-1.605-2.683-.215-.358-.173-.61-.62-.818-.504-.236-.898.253-1.268.11-2.79-1.08-.268-3.204 1.602-3.084-.152-2.041-1.394-2.691-2.452-4.366-.295-.461-.31-.878-.71-1.26-.693-.68-1.617-.802-2.255-1.486-1.024-1.099-1.29-2.582-2.804-2.896-2.064-.413-3.466 0-5.383-1.03-.428-.225-1.048-.458-1.279-.89-.42-.802.12-.802.176-1.383.108-1.096-.352-3.015-1.153-3.872-1.142-1.229-3.017.013-3.786-1.863-.228-.563.165-.934-.105-1.491-.32-.661-.943-.544-1.3-1.176-.543-.953.512-1.74-.128-2.683-.26-.385-.93-.528-1.337-.714-.202-.09-.523.04-.748-.04-.1-.034-.134-.422-.279-.448-.858-.143-1.59.263-2.37.772-.799.518-1.434 2.29-2.658 1.545-.832-.507-.418-1.773-1.662-2.007-.229-.045-.48.274-.701.253-.536-.062-.78-.446-1.26-.558-.591-.138-1.353.175-1.841-.294-.468-.449-.231-1.627-.678-2.243-1.045-1.435-3.715-.586-5.146-.342-1.665.284-4.362.573-5.758-.663-1.011-.897-1.106-3.97-3.03-3.028-.833.406-1.117 2.17-1.663 2.874-.984 1.27-1.636.562-1.538-.961.139-2.107 3.072-2.184.013-3.522-3.225-1.411-5.987 1.37-9.338-.888-.937-.632-1.433-1.89-2.602-2.158-1.436-.329-4.06 2.226-5.44 1.712-1.387-.515-1.81-.905-.956-2.596 1.478-2.927 11.682-2.393 7.83-7.234-2.447-3.083-7.827.17-10.865.544-.699.085-1.403.152-2.114.207a141.655 141.655 0 0 0-12.475 3.986C72.702 16.098 55.66 27.34 41.739 41.306c.003.122-.002.239-.023.355-.35 1.906-2.894 2.7-3.718 4.459-.633 1.348-.077 3.115-.775 4.328-.924 1.59-3.668.974-3.77 3.354-.09 2.19 1.535 2.94.065 4.933-.777 1.049-2.088 3.076-3.372 3.464-1.606.488-2.292-.943-3.985-.136-.662.316-1.355.573-2.059.823a145.893 145.893 0 0 0-1.967 3.038c1.16 1.19 2.802 2.256 3.97 2.346.87.07 2.138-.037 2.786-.77.804-.907.363-2.621 1.951-2.908 1.006.9.69 1.441.57 2.36-.06.493-.651.427-.625.997.032.605 1.331 1.484 1.741 1.789 2.374 1.772 4.721 1.42 5.732-1.444.176-.49-.005-2.707.444-3.033.987-.727 1.155.836 1.223 1.523.108 1.117-.527 2.338.799 3.12.96.566 2.37-.05 3.303-.44 1.35-.56 2.791-1.019 2.93-2.42.158-1.579-1.003-2.009.147-3.588.56-.77 1.854-1.393 2.054-2.33.05-.225-.418-1.334-.407-1.746.018-.96.18-1.29 0-2.194-.179-.924-.701-1.394-.266-2.394.578-1.31 1.174-1.07 1.221-2.534.032-.98-.514-2.041-.2-3.023 1.004-3.115 2.015-.528 2.674.783.457.905 1.93 4.724 3.077 4.466.985-.223.476-2.42 1.907-2.343 1.281.072.462 1.542.501 2.123.137 1.996 1.171 2.938 2.891 3.848.92.483 1.597.446 2.253 1.313.418.55.339 1.386.811 1.964 1.05 1.29 2.794.579 3.963 1.884.307.343.273.78.927.81.719.032 1.35-.661 2.182-.555.94.12.782.656 1.223 1.34.84-.422 1.484-.14 2.02.52.648.804 1.325 1.396 2.52 1.24.683-.093 1.45-.584 1.977-.974.315-.234.523-.765.985-.436.853.598.024 2.169 1.751 1.696.486-.133.725-.305.95-.75.256-.502-.073-1.386.403-1.763.987-.777 1.034 1.181 1.407 1.65.344.43.444.338.959.37.514.031 1.475.029 1.948-.149.58-.21.291-.093.585-.369.142-.127.284-.44.468-.613.105-.1.396-.178.525-.263.63-.4.494-.777.995-.228.457.51.081.85.087 1.224.005.448.089.979-.006 1.48-.047.252-.336.263-.349.552-.016.335.384.727.525.977.649 1.112.182 2.091-1.029 2.433-1.5.425-1.932-.69-2.996-1.183-.872-.406-1.74.422-2.594.021-.66-.316-.42-1.26-.993-1.696-.966-.735-1.909.279-2.799.568-.759.247-1.549.247-2.331.31-.754.062-1.647-.159-2.369.107-.72.262-.932.915-1.518 1.297-1.176.765-2.736.728-3.463-.538-.26-.46-.26-1.269-.622-1.659-.586-.634-1.733-.318-2.442-.777-1.045-.672-3.844-3.206-1.767-4.106-1.384-.38-2.786-1.162-4.254-1.112-2.035.067-3.915.903-5.758 1.92-1.917 1.058-3.28 1.758-4.063 3.85-.36.96-.002 2.73-.244 3.285-1.336 3.03-3.358.486-6.018 2.282.003.616.357 1.714.738 2.227.391-.168 1.076-.197 1.504-.428 2.096 3.302-4.322 2.88-5.87 3.843-.71.44-4.622 3.667-2.296 4.53-.12.538-.614.764-.764 1.25-.291.97.202 1.841.281 2.783.06.746-.173 1.208.19 2.015.38.843.887 1.321 1.057 2.295.197 1.144.11 2.484-.948 3.036-1.318.693-3.736.42-4.7 1.709-1.01-.398-3.156-.595-4.188-.281-1.328.403-1.116.944-1.313 2.011-.11.597-.667.395-.278 1.205.3.608.893.552 1.555.655 1.866.298 2.92.263 4.64-.31 1.648-.555 3.074-.942 4.534-1.775.407-.237.83-.529 1.329-.64.451-.104.99.125 1.394-.167.761-.547.129-.656.446-1.399.528-1.236 2.18-1.496 3.125-2.699 1.06-1.353.522-2.536 2.468-2.927.496-.098.515 4.422.646 4.806 1.4-.915 2.786-1.642 3.718-3.192.284-.48-.094-.828.439-1.157.766-.475 1.517.276 1.793.793 1.092 2.057-.073 4.002 2.663 4.973 1.536.547 2.746.818 3.47 2.4.313.687.901 1.411 1.051 1.984.255.958-.488 2.036-.375 2.885.207 1.552 2.4 1.9 2.675 3.49-.772.366-2.447 1.698-1.278 2.664.52.427 2.103-.074 2.81.01.464.895-.324 1.009-.458 1.651-.173.828.384 1.11.633 1.797.2.568.137 1.04.386 1.664.286.724.974 1.236 1.09 2.144.136 1.106-.313 1.74.302 2.818.341.597 1.076 1.146 1.538 1.685.607.695 1.193 1.393 1.235 2.447.055 1.31-1.017 2.829-.358 4.06.533.984 1.045.533 1.846.953.494.257 1.14 1.072 1.442 1.592-1.368 1.207 1.124 3.126 2.384 1.977.825-.748-.115-2.93-.438-3.909a26.52 26.52 0 0 1 1.21-.462c1.064 1.3 2.24 2.545 3.823 3.376-.391 1.061-.144 1.032-.858 1.666-.539.475-1.463.491-1.337 1.476-.72.055-2.41-.17-2.915.65-.509.817.654 1.762.814 2.55.287 1.399-1 1.921-.338 3.288.401.83 1.244 1.24 1.478 2.203.368 1.533-.391 3.142.181 4.646.152.39.822.985.872 1.25.157.881-1.187 1.84-1.308 2.938-.097.862.218 1.085.494 1.865.478 1.338-.515 1.956-.357 3.257.192 1.613.916 2.95 2.263 3.89-2.478 2.075.258 3.62 1.507 5.249.52.68 1.55 1.627 1.66 2.5.06.467-.444.541-.454.87-.008.34.173.618.252.963.38 1.614 1.61 2.16 2.32 3.381.387.666.426 1.322.933 1.927 1.754 2.054 4.881.557 6.507 2.338.593.647.06 1.189.433 1.895.373.705 1.502.573 1.948 1.125.55.676.15 1.799.704 2.375.473.488 1.547.58 2.114 1.197.84.91 1.179 2.35 1.63 3.595.518 1.417.846 2.166 2.111 3.063.326.228.77.536 1.145.676.226.083.73-.053.856.024.588.367.615.868.988 1.46.16.26.945.942.966 1.287.04.631-.762.796-.496 1.632.383 1.197 2 1.505 2.988 1.76 1.42.381 1.775.793 2.738 1.82.728.78 1.899.745 2.44 1.449.483.629-.071 1.98-.01 2.768.041.488.054 1.088.175 1.57.176.685.906 1.298 1.778 1.038 1.17-.35 1.468-2.21 2.618-.77.451.558.685 1.089 1.223 1.534.444.375 1.158.613 1.594 1.038.447.44.617 1.483 1.148 1.794.362.21 1.911.042 2.287-.167 1.557-.87-1.132-3.726-1.641-4.445-.56-.788-1.379-1.372-2.277-1.69-.746-.26-1.652.254-2.3-.147-.562-.35-.833-1.59-1.08-2.194-.333-.833-.622-1.497-1.17-2.187-.457-.581-.838-1.027-1.114-1.706-.134-.33-.22-1.046-.46-1.293-.285-.297-1.065-.376-1.436-.538-.62-.271-.976-.661-1.475-1.08-.546-.46-.964-.802-1.376-1.338-.226-.292-.405-.565-.675-.777-.478-.385-1.06-.616-1.457-.972-.436-.395-.827-.931-1.224-1.324-.77-.764-1.565-1.313-2.158-2.221-.292-.443-.71-.984-.793-1.536-.095-.648.241-.924.38-1.566 1.345.183 2.154 1.627 3.175 2.388.383.279.638.443.793.924.184.597-.108 1.308.205 1.78.265.409 1.536.767 1.943.961.528.255.992.573 1.352 1.064 1.153 1.571 2.757 2.664 4.356 3.718 1.458.955 2.195.931 3.655 1.417 2.177.727 2.245 3.843 4.963 3.63.578.956 2.053 2.47 2.993 3.039 1.334.807 2.834.17 4.084 1.22 1.005.847 1.835 2.312 2.772 3.257 1.723 1.725 2.2 2.223 2.293 4.5.086 2.219.963 3.02 3.046 3.859 1.097.45 2.208 1.396 3.445 1.433 1.105.026 2.035-1.035 3.053-1.125.586-.061 1.271.398 1.928.363 1.076-.066 1.751-.812 2.807-.501.769.22 1.386 1.398 2.326 1.462 1.035.074 2.313-1.41 3.217-1.322.522.053 1.286.977 1.817 1.216 1.018.461 1.77.236 2.825.374 1.888.25 2.888.167 4.763-.449 2.025-.658 3.695-1.746 5.666-2.37 1.33-.416 1.81-.305 3.24.017 2.548.57 4.948.337 7.52-.359 1.818-.485 3.525-.419 5.344-.61 1.072-.109 2.13-.515 3.11-.94-.51-2.433 3.368-.43 4.046-.074.672.348.64.555 1.341.69.486.098 1.074-.223 1.833.045.958.343 1.468 1.025 2.219 1.646 3.308 2.728 8.35.923 12.055-.343.971-.334 3.936-.668 4.46-1.706.51-1.006-.708-1.964-.304-2.747.428-.825 2.3-.607 2.778-.52 1.52.295 2.356 1.46 3.561 1.959 1.491.62 5.178-1.465 2.647 2.361-.494.744-1.4 1.12-1.886 1.858-.646.982-.412 1.786-.79 2.837-1.121 3.089-1.392 7.563-2.16 10.904-.99 4.299-7.085 9.45.007 10.214 2.736.292 5.57-2.232 8.098-1.656 4.083.937 2.187 3.917 4.542 6.043 1.271 1.146 2.74 1.33 4.267 1.043 23.953-22.01 39.618-51.732 44.533-83.778-.919.29-1.888.57-3.014.743-2.852.451-5.798.86-8.563 1.72m-64.355 4.41c-1.35-.226-2.607 2.394-2.426 3.58.323 2.126 3.96 1.762 4.43-.098.265-1.056-.864-3.29-2.004-3.482m14.227-147.485c-.9.865-1.654 2.635-1.308 3.484-.68.56-1.638 1.115-1.667 2.115-.042 1.767 1.181 1.176 2.21 1.396 2.254.486 1.857 1.881 3.054 3.29 1.106 1.303 2.211.34 3.406.972 1.518.796 2.116 2.184 4.238 1.26.41 1.439 2.216.905 3.248 1.667.517.382.701 1.03 1.268 1.449.817.607 1.358.6 1.951 1.475.407.597.392 1.478.804 2.073.49.714 1.945 1.231 2.455 2.07.394.642.27 1.345.599 2.067.572 1.274 1.914 1.74 2.764 2.863.557.738.914 1.834 1.73 2.314.668.39 1.547.189 2.293.765.848.64.953 1.483 1.423 2.337.715 1.288 1.366 1.529 2.55 2.275 1.547.976 6.136 6.021 9.219 6.854a141.101 141.101 0 0 0-40.237-40.726m-1.967 153.934c-.425-1.335-1.822-2.19-3.072-1.468-1.379.794-2.33 1.728-3.928 2.227-1.402.443-2.287-.115-3.671-.048-1.006.055-2.017.698-2.846 1.236-2.238 1.444-4.427 1.704-6.79 2.766-1.416.636-2.621 1.433-3.871 2.33-.798.57-2.287.918-2.904 1.634-.447.518-.473 2.314.142 2.79.554.434 1.567-.027 2.384-.168 1.578-.284 2.872-.746 4.214-1.743 1.093-.81 1.825-2.046 2.944-2.837 1.116-.788 2.586-1.2 3.886-1.677 1.48-.531 2.612-.693 4.112-.674.759.005 2.35-.789 3.03-.359-.328 2.405 2.928.788 3.857.136 1.229-.865 3.046-2.487 2.513-4.145m-14.775-12.42c-.378.136-4.304 1.43-4.167 1.754.205.473.808 1.765 1.436 1.863.982.154 1.19-1.226 2.166-1.252.982-.022 1.282 1.045 2.44.148 1.895-1.46-.229-3.11-1.875-2.513m5.262 23.716c-.92 2.06 1.231 1.688 2.476 1.21 1.439-.551 2.426-2.223 4.07-2.276.832-.024 1.266.9 1.652.928.288.022.7-.084.942-.268.62-.467-1.074-2.107-1.47-2.247-1.085-.393-1.967.252-2.965.485-1.415.327-4.022.637-4.705 2.168" opacity=".303" style="mix-blend-mode:multiply"/>
          </g>
        </g>
      </g>
    </g>
    <path fill="url(#j)" stroke="#F5F5F5" stroke-width="1.5" d="M50.415 152.525c-3.54-3.209-8.51-4.97-13.915-4.97-5.405 0-10.374 1.761-13.915 4.97-4.349 3.9-6.585 9.752-6.585 17.05 0 15.792 17.953 34.352 18.76 35.107.498.503 1.119.755 1.74.755s1.305-.252 1.74-.755c.807-.755 18.76-19.315 18.76-35.107 0-7.298-2.236-13.15-6.585-17.05h0zM36 158.555c-4.981 0-9 4.068-9 9.027 0 4.96 4.019 8.973 9 8.973s9-4.069 9-9.028c0-4.96-4.019-8.972-9-8.972h0z" mask="url(#b)"/>
    <g mask="url(#b)">
      <g transform="rotate(10 -788.718 345.588)">
        <mask id="l" fill="#fff">
          <use xlink:href="#k"/>
        </mask>
        <path stroke="#FFF" stroke-dasharray="8" stroke-width="2" d="M64.737 70.26c69.588 0 126-26.864 126-60 0-33.138-56.412-60-126-60s-126 26.862-126 60c0 33.136 56.412 60 126 60z" mask="url(#l)"/>
      </g>
    </g>
  </g>
</svg>
