<svg xmlns="http://www.w3.org/2000/svg" xmlns:xlink="http://www.w3.org/1999/xlink" width="250" height="250" viewBox="0 0 250 250">
  <defs>
    <linearGradient id="b" x1="84.025%" x2="47.734%" y1="13.207%" y2="81.113%">
      <stop offset="0%" stop-color="#FFD03E"/>
      <stop offset="100%" stop-color="#E19100"/>
    </linearGradient>
    <linearGradient id="d" x1="131.677%" x2="13.967%" y1="93.715%" y2="24.39%">
      <stop offset="0%" stop-color="#7BB447"/>
      <stop offset="100%" stop-color="#8BCA50"/>
    </linearGradient>
    <linearGradient id="e" x1="96.82%" x2="-38.114%" y1="85.089%" y2="-15.069%">
      <stop offset="0%" stop-color="#7BB447"/>
      <stop offset="100%" stop-color="#7BB447"/>
      <stop offset="100%" stop-color="#50A01D"/>
    </linearGradient>
    <linearGradient id="f" x1="131.677%" x2="13.967%" y1="93.78%" y2="24.351%">
      <stop offset="0%" stop-color="#7BB447"/>
      <stop offset="100%" stop-color="#8BCA50"/>
    </linearGradient>
    <linearGradient id="g" x1="131.677%" x2="13.967%" y1="93.784%" y2="24.349%">
      <stop offset="0%" stop-color="#7BB447"/>
      <stop offset="100%" stop-color="#8BCA50"/>
    </linearGradient>
    <linearGradient id="h" x1="131.677%" x2="13.967%" y1="0%" y2="24.382%">
      <stop offset="0%" stop-color="#7BB447"/>
      <stop offset="100%" stop-color="#8BCA50"/>
    </linearGradient>
    <linearGradient id="i" x1="96.82%" x2="-38.114%" y1="85.099%" y2="-15.089%">
      <stop offset="0%" stop-color="#7BB447"/>
      <stop offset="100%" stop-color="#7BB447"/>
      <stop offset="100%" stop-color="#50A01D"/>
    </linearGradient>
    <linearGradient id="j" x1="131.677%" x2="13.967%" y1="93.793%" y2="24.344%">
      <stop offset="0%" stop-color="#7BB447"/>
      <stop offset="100%" stop-color="#8BCA50"/>
    </linearGradient>
    <linearGradient id="k" x1="131.677%" x2="13.967%" y1="93.797%" y2="24.341%">
      <stop offset="0%" stop-color="#7BB447"/>
      <stop offset="100%" stop-color="#8BCA50"/>
    </linearGradient>
    <linearGradient id="l" x1="49.13%" x2="49.805%" y1="0%" y2="55.716%">
      <stop offset="0%" stop-color="#8F6A4C"/>
      <stop offset="13.24%" stop-color="#A57B58"/>
      <stop offset="39.17%" stop-color="#CC986D"/>
      <stop offset="63.13%" stop-color="#E7AD7C"/>
      <stop offset="84.17%" stop-color="#F8BA85"/>
      <stop offset="100%" stop-color="#FEBE88"/>
    </linearGradient>
    <linearGradient id="m" x1="28.378%" x2="58.037%" y1="26.82%" y2="79.195%">
      <stop offset="0%" stop-color="#5E5E5E"/>
      <stop offset="100%" stop-color="#3C3C3B"/>
    </linearGradient>
    <rect id="a" width="250" height="250" x="0" y="0"/>
  </defs>
  <g fill="none" fill-rule="evenodd">
    <mask id="c" fill="#fff">
      <use xlink:href="#a"/>
    </mask>
    <use fill="url(#b)" xlink:href="#a"/>
    <g mask="url(#c)">
      <g transform="rotate(-20 -316.365 -155.126)">
        <g transform="rotate(-30 273.417 24.675)">
          <g style="mix-blend-mode:darken">
            <g transform="translate(0 34.104)">
              <g transform="rotate(15 18.842 143.122)">
                <path fill="url(#d)" d="M128.717 111.25c.975-5.664-2.174-11.38-5.155-16.233-4.08-6.641-9.142-12.692-14.528-18.3a93.914 93.914 0 0 0-2.691-2.709c-6.427-6.621-13.194-12.921-20.299-18.81C73.92 45.15 60.68 36.032 45.934 30.228c-7.085-2.789-14.606-4.834-22.247-5.365-1.609-.112-2.718.179-3.274 1.789-1.736 5.018-2.697 10.626-2.576 15.913.105 4.616.97 9.18 2.469 13.522l7.447-3.669 4.339 9.527c7.147-4.26 13.676-8.173 13.867-8.365 0 0-6.808 6.873-13.456 13.598L42.268 79.8 64.01 63.013s-3.085 6.378-15.892 19.07l20.48 18.076 6.762-5.513-3.085 7.961a212.65 212.65 0 0 0 7.971 3.396c6.558 2.744 13.135 5.45 19.798 7.937 5.696 2.126 11.465 4.065 17.206 6.069 1.282.447 2.625.9 3.975.705 2.816-.408 4.665-3.068 5.987-5.351a12.307 12.307 0 0 0 1.506-4.112" transform="rotate(-42 73.362 72.801)"/>
                <path fill="#7BB447" d="M16.15 75.224s-.93 6.203-3.058 13.507c.255.25.514.494.775.737 2.06-7.69 2.283-14.244 2.283-14.244m11.946-.279s-.557 6.02-2.197 13.258l.868.378c1.467-7.478 1.329-13.636 1.329-13.636m22.054 3.687s-.314 9.334-2.49 18.858l.995.18c2.25-9.77 1.496-19.038 1.496-19.038"/>
                <path fill="url(#e)" d="M128.717 111.25c.975-5.664-2.174-11.38-5.155-16.233-4.08-6.641-9.142-12.692-14.528-18.3a93.914 93.914 0 0 0-2.691-2.709c-6.427-6.621-13.194-12.921-20.299-18.81C73.92 45.15 60.68 36.032 45.934 30.228c-7.085-2.789-14.606-4.834-22.247-5.365-1.609-.112-2.718.179-3.274 1.789-1.736 5.018-2.697 10.626-2.576 15.913.105 4.616.97 9.18 2.469 13.522l7.447-3.669 4.339 9.527c7.147-4.26 13.676-8.173 13.867-8.365 0 0-6.808 6.873-13.456 13.598L42.268 79.8 64.01 63.013s-3.085 6.378-15.892 19.07l20.48 18.076 6.762-5.513-3.085 7.961a212.65 212.65 0 0 0 7.971 3.396c6.558 2.744 13.135 5.45 19.798 7.937 5.696 2.126 11.465 4.065 17.206 6.069 1.282.447 2.625.9 3.975.705 2.816-.408 4.665-3.068 5.987-5.351a12.307 12.307 0 0 0 1.506-4.112" style="mix-blend-mode:multiply" transform="rotate(-42 73.362 72.801)"/>
              </g>
              <g transform="translate(8.745 11.225)">
                <path fill="url(#f)" d="M148.534 128.488c1.098-6.51-2.552-13.098-6.004-18.693-4.725-7.655-10.578-14.637-16.802-21.11a109.29 109.29 0 0 0-3.11-3.127c-7.425-7.644-15.242-14.919-23.445-21.722-14-11.61-29.28-22.153-46.277-28.893-8.167-3.238-16.833-5.623-25.63-6.267-1.852-.136-3.127.193-3.76 2.043-1.977 5.763-3.058 12.209-2.897 18.29.142 5.31 1.157 10.562 2.902 15.563l8.555-4.187 5.036 10.975c8.208-4.868 15.706-9.34 15.924-9.56 0 0-7.806 7.875-15.428 15.58l11.295 14.56 24.95-19.212s-3.522 7.321-18.208 21.862l23.652 20.88 7.76-6.312-3.518 9.143a246.887 246.887 0 0 0 9.19 3.94c7.56 3.185 15.143 6.325 22.823 9.215 6.565 2.47 13.214 4.726 19.831 7.055 1.477.52 3.025 1.047 4.578.828 3.24-.457 5.356-3.508 6.868-6.128.9-1.56 1.448-3.139 1.715-4.723" transform="rotate(-42 84.663 84.02)"/>
                <path fill="#7BB447" d="M18.582 86.81s-1.074 7.109-3.532 15.481c.295.286.594.566.895.844 2.379-8.814 2.637-16.325 2.637-16.325m13.798-.322s-.643 6.902-2.538 15.196l1.003.433c1.695-8.57 1.535-15.629 1.535-15.629"/>
                <path fill="#8BCA50" fill-opacity=".6" d="M161.884 74.328c-3.541-5.573-10.661-8.026-16.97-9.874-8.634-2.528-17.656-3.8-26.612-4.445a109.29 109.29 0 0 0-4.404-.243c-10.632-.712-21.31-.888-31.958-.454-18.172.74-36.582 3.128-53.723 9.493-8.236 3.058-16.273 7.084-23.24 12.492-1.468 1.139-2.195 2.237-1.429 4.035 2.388 5.605 5.898 11.119 10.087 15.53 3.658 3.85 7.927 7.075 12.57 9.624l3.556-8.836 11.086 4.787c2.842-9.111 5.422-17.451 5.438-17.76 0 0-.532 11.075-1.041 21.902l18.137 3.262 5.686-30.973s2.28 7.798 1.097 28.43l31.547-.31 1.544-9.882 3.504 9.148a246.887 246.887 0 0 0 9.466-3.22c7.75-2.693 15.485-5.432 23.126-8.424 6.532-2.557 12.982-5.33 19.458-8.027 1.446-.602 2.949-1.246 3.957-2.448 2.101-2.507 1.632-6.19 1.003-9.15a14.046 14.046 0 0 0-1.885-4.657" style="mix-blend-mode:multiply"/>
              </g>
            </g>
            <g transform="translate(36.683)">
              <g transform="rotate(47 61.509 141.46)">
                <path fill="url(#g)" d="M148.68 128.62c1.097-6.515-2.557-13.109-6.013-18.708-4.73-7.663-10.59-14.652-16.82-21.131a109.449 109.449 0 0 0-3.114-3.13C115.3 78 107.475 70.717 99.263 63.907 85.249 52.285 69.955 41.73 52.94 34.98c-8.174-3.243-16.848-5.632-25.652-6.278-1.854-.136-3.13.193-3.764 2.044-1.976 5.767-3.057 12.218-2.894 18.304.143 5.313 1.16 10.57 2.907 15.575l8.562-4.188 5.042 10.985c8.214-4.87 15.717-9.344 15.936-9.564 0 0-7.81 7.879-15.438 15.589l11.308 14.574L73.915 72.8s-3.524 7.326-18.22 21.875l23.677 20.9 7.765-6.313-3.518 9.149a246.182 246.182 0 0 0 9.198 3.945c7.568 3.19 15.156 6.334 22.844 9.227 6.571 2.474 13.225 4.732 19.849 7.065 1.478.52 3.027 1.049 4.582.83 3.242-.457 5.36-3.51 6.872-6.131a14.05 14.05 0 0 0 1.716-4.727" transform="rotate(-42 84.747 84.102)"/>
                <path fill="#8BCA50" fill-opacity=".6" d="M162.047 74.406c-3.545-5.576-10.672-8.03-16.987-9.88-8.643-2.529-17.674-3.801-26.64-4.448a109.449 109.449 0 0 0-4.408-.243c-10.643-.711-21.331-.888-31.99-.454-18.192.74-36.62 3.13-53.78 9.499-8.244 3.06-16.289 7.089-23.263 12.5-1.47 1.139-2.198 2.237-1.43 4.037 2.39 5.608 5.903 11.125 10.097 15.539 3.661 3.853 7.935 7.079 12.582 9.63l3.56-8.842 11.098 4.79c2.845-9.116 5.427-17.461 5.443-17.77 0 0-.533 11.08-1.042 21.914l18.156 3.264 5.692-30.991s2.283 7.803 1.098 28.448l31.58-.31 1.545-9.889 3.507 9.153a247.217 247.217 0 0 0 9.477-3.223c7.757-2.693 15.5-5.434 23.15-8.428 6.538-2.559 12.995-5.333 19.478-8.031 1.446-.603 2.951-1.247 3.96-2.45 2.104-2.509 1.634-6.194 1.005-9.155a14.05 14.05 0 0 0-1.888-4.66" style="mix-blend-mode:multiply"/>
              </g>
              <g transform="rotate(54 57.415 164.935)">
                <path fill="url(#d)" d="M128.717 111.25c.975-5.664-2.174-11.38-5.155-16.233-4.08-6.641-9.142-12.692-14.528-18.3a93.914 93.914 0 0 0-2.691-2.709c-6.427-6.621-13.194-12.921-20.299-18.81C73.92 45.15 60.68 36.032 45.934 30.228c-7.085-2.789-14.606-4.834-22.247-5.365-1.609-.112-2.718.179-3.274 1.789-1.736 5.018-2.697 10.626-2.576 15.913.105 4.616.97 9.18 2.469 13.522l7.447-3.669 4.339 9.527c7.147-4.26 13.676-8.173 13.867-8.365 0 0-6.808 6.873-13.456 13.598L42.268 79.8 64.01 63.013s-3.085 6.378-15.892 19.07l20.48 18.076 6.762-5.513-3.085 7.961a212.65 212.65 0 0 0 7.971 3.396c6.558 2.744 13.135 5.45 19.798 7.937 5.696 2.126 11.465 4.065 17.206 6.069 1.282.447 2.625.9 3.975.705 2.816-.408 4.665-3.068 5.987-5.351a12.307 12.307 0 0 0 1.506-4.112" transform="rotate(-42 73.362 72.801)"/>
                <path fill="#8BCA50" fill-opacity=".9" d="M140.227 64.335c-3.066-4.862-9.231-7.003-14.694-8.615-7.475-2.205-15.286-3.315-23.041-3.878a93.914 93.914 0 0 0-3.813-.212c-9.206-.62-18.45-.775-27.67-.396-15.735.645-31.675 2.729-46.517 8.282-7.13 2.668-14.089 6.181-20.122 10.9-1.27.993-1.9 1.95-1.237 3.52 2.068 4.89 5.106 9.7 8.734 13.55 3.167 3.359 6.863 6.172 10.883 8.396l3.08-7.71 9.598 4.177c2.461-7.949 4.694-15.225 4.708-15.495 0 0-.46 9.662-.901 19.108l15.704 2.847 4.923-27.023s1.975 6.803.95 24.805l27.315-.27 1.336-8.623 3.034 7.982a212.65 212.65 0 0 0 8.197-2.81c6.71-2.35 13.407-4.74 20.023-7.35 5.656-2.231 11.24-4.65 16.848-7.003 1.251-.525 2.553-1.087 3.426-2.136 1.82-2.188 1.413-5.4.868-7.982a12.307 12.307 0 0 0-1.632-4.064" style="mix-blend-mode:multiply"/>
              </g>
            </g>
          </g>
          <g opacity=".7" style="mix-blend-mode:multiply">
            <g transform="translate(0 34.104)">
              <g transform="rotate(15 18.842 143.122)">
                <path fill="url(#d)" d="M128.717 111.25c.975-5.664-2.174-11.38-5.155-16.233-4.08-6.641-9.142-12.692-14.528-18.3a93.914 93.914 0 0 0-2.691-2.709c-6.427-6.621-13.194-12.921-20.299-18.81C73.92 45.15 60.68 36.032 45.934 30.228c-7.085-2.789-14.606-4.834-22.247-5.365-1.609-.112-2.718.179-3.274 1.789-1.736 5.018-2.697 10.626-2.576 15.913.105 4.616.97 9.18 2.469 13.522l7.447-3.669 4.339 9.527c7.147-4.26 13.676-8.173 13.867-8.365 0 0-6.808 6.873-13.456 13.598L42.268 79.8 64.01 63.013s-3.085 6.378-15.892 19.07l20.48 18.076 6.762-5.513-3.085 7.961a212.65 212.65 0 0 0 7.971 3.396c6.558 2.744 13.135 5.45 19.798 7.937 5.696 2.126 11.465 4.065 17.206 6.069 1.282.447 2.625.9 3.975.705 2.816-.408 4.665-3.068 5.987-5.351a12.307 12.307 0 0 0 1.506-4.112" transform="rotate(-42 73.362 72.801)"/>
                <path fill="#7BB447" d="M16.15 75.224s-.93 6.203-3.058 13.507c.255.25.514.494.775.737 2.06-7.69 2.283-14.244 2.283-14.244m11.946-.279s-.557 6.02-2.197 13.258l.868.378c1.467-7.478 1.329-13.636 1.329-13.636m22.054 3.687s-.314 9.334-2.49 18.858l.995.18c2.25-9.77 1.496-19.038 1.496-19.038"/>
                <path fill="url(#e)" d="M128.717 111.25c.975-5.664-2.174-11.38-5.155-16.233-4.08-6.641-9.142-12.692-14.528-18.3a93.914 93.914 0 0 0-2.691-2.709c-6.427-6.621-13.194-12.921-20.299-18.81C73.92 45.15 60.68 36.032 45.934 30.228c-7.085-2.789-14.606-4.834-22.247-5.365-1.609-.112-2.718.179-3.274 1.789-1.736 5.018-2.697 10.626-2.576 15.913.105 4.616.97 9.18 2.469 13.522l7.447-3.669 4.339 9.527c7.147-4.26 13.676-8.173 13.867-8.365 0 0-6.808 6.873-13.456 13.598L42.268 79.8 64.01 63.013s-3.085 6.378-15.892 19.07l20.48 18.076 6.762-5.513-3.085 7.961a212.65 212.65 0 0 0 7.971 3.396c6.558 2.744 13.135 5.45 19.798 7.937 5.696 2.126 11.465 4.065 17.206 6.069 1.282.447 2.625.9 3.975.705 2.816-.408 4.665-3.068 5.987-5.351a12.307 12.307 0 0 0 1.506-4.112" style="mix-blend-mode:multiply" transform="rotate(-42 73.362 72.801)"/>
              </g>
              <g transform="translate(8.745 11.225)">
                <path fill="url(#f)" d="M148.534 128.488c1.098-6.51-2.552-13.098-6.004-18.693-4.725-7.655-10.578-14.637-16.802-21.11a109.29 109.29 0 0 0-3.11-3.127c-7.425-7.644-15.242-14.919-23.445-21.722-14-11.61-29.28-22.153-46.277-28.893-8.167-3.238-16.833-5.623-25.63-6.267-1.852-.136-3.127.193-3.76 2.043-1.977 5.763-3.058 12.209-2.897 18.29.142 5.31 1.157 10.562 2.902 15.563l8.555-4.187 5.036 10.975c8.208-4.868 15.706-9.34 15.924-9.56 0 0-7.806 7.875-15.428 15.58l11.295 14.56 24.95-19.212s-3.522 7.321-18.208 21.862l23.652 20.88 7.76-6.312-3.518 9.143a246.887 246.887 0 0 0 9.19 3.94c7.56 3.185 15.143 6.325 22.823 9.215 6.565 2.47 13.214 4.726 19.831 7.055 1.477.52 3.025 1.047 4.578.828 3.24-.457 5.356-3.508 6.868-6.128.9-1.56 1.448-3.139 1.715-4.723" transform="rotate(-42 84.663 84.02)"/>
                <path fill="#7BB447" d="M18.582 86.81s-1.074 7.109-3.532 15.481c.295.286.594.566.895.844 2.379-8.814 2.637-16.325 2.637-16.325m13.798-.322s-.643 6.902-2.538 15.196l1.003.433c1.695-8.57 1.535-15.629 1.535-15.629"/>
                <path fill="#8BCA50" fill-opacity=".6" d="M161.884 74.328c-3.541-5.573-10.661-8.026-16.97-9.874-8.634-2.528-17.656-3.8-26.612-4.445a109.29 109.29 0 0 0-4.404-.243c-10.632-.712-21.31-.888-31.958-.454-18.172.74-36.582 3.128-53.723 9.493-8.236 3.058-16.273 7.084-23.24 12.492-1.468 1.139-2.195 2.237-1.429 4.035 2.388 5.605 5.898 11.119 10.087 15.53 3.658 3.85 7.927 7.075 12.57 9.624l3.556-8.836 11.086 4.787c2.842-9.111 5.422-17.451 5.438-17.76 0 0-.532 11.075-1.041 21.902l18.137 3.262 5.686-30.973s2.28 7.798 1.097 28.43l31.547-.31 1.544-9.882 3.504 9.148a246.887 246.887 0 0 0 9.466-3.22c7.75-2.693 15.485-5.432 23.126-8.424 6.532-2.557 12.982-5.33 19.458-8.027 1.446-.602 2.949-1.246 3.957-2.448 2.101-2.507 1.632-6.19 1.003-9.15a14.046 14.046 0 0 0-1.885-4.657" style="mix-blend-mode:multiply"/>
              </g>
            </g>
            <g transform="translate(36.683)">
              <g transform="rotate(47 61.509 141.46)">
                <path fill="url(#g)" d="M148.68 128.62c1.097-6.515-2.557-13.109-6.013-18.708-4.73-7.663-10.59-14.652-16.82-21.131a109.449 109.449 0 0 0-3.114-3.13C115.3 78 107.475 70.717 99.263 63.907 85.249 52.285 69.955 41.73 52.94 34.98c-8.174-3.243-16.848-5.632-25.652-6.278-1.854-.136-3.13.193-3.764 2.044-1.976 5.767-3.057 12.218-2.894 18.304.143 5.313 1.16 10.57 2.907 15.575l8.562-4.188 5.042 10.985c8.214-4.87 15.717-9.344 15.936-9.564 0 0-7.81 7.879-15.438 15.589l11.308 14.574L73.915 72.8s-3.524 7.326-18.22 21.875l23.677 20.9 7.765-6.313-3.518 9.149a246.182 246.182 0 0 0 9.198 3.945c7.568 3.19 15.156 6.334 22.844 9.227 6.571 2.474 13.225 4.732 19.849 7.065 1.478.52 3.027 1.049 4.582.83 3.242-.457 5.36-3.51 6.872-6.131a14.05 14.05 0 0 0 1.716-4.727" transform="rotate(-42 84.747 84.102)"/>
                <path fill="#8BCA50" fill-opacity=".6" d="M162.047 74.406c-3.545-5.576-10.672-8.03-16.987-9.88-8.643-2.529-17.674-3.801-26.64-4.448a109.449 109.449 0 0 0-4.408-.243c-10.643-.711-21.331-.888-31.99-.454-18.192.74-36.62 3.13-53.78 9.499-8.244 3.06-16.289 7.089-23.263 12.5-1.47 1.139-2.198 2.237-1.43 4.037 2.39 5.608 5.903 11.125 10.097 15.539 3.661 3.853 7.935 7.079 12.582 9.63l3.56-8.842 11.098 4.79c2.845-9.116 5.427-17.461 5.443-17.77 0 0-.533 11.08-1.042 21.914l18.156 3.264 5.692-30.991s2.283 7.803 1.098 28.448l31.58-.31 1.545-9.889 3.507 9.153a247.217 247.217 0 0 0 9.477-3.223c7.757-2.693 15.5-5.434 23.15-8.428 6.538-2.559 12.995-5.333 19.478-8.031 1.446-.603 2.951-1.247 3.96-2.45 2.104-2.509 1.634-6.194 1.005-9.155a14.05 14.05 0 0 0-1.888-4.66" style="mix-blend-mode:multiply"/>
              </g>
              <g transform="rotate(54 57.415 164.935)">
                <path fill="url(#d)" d="M128.717 111.25c.975-5.664-2.174-11.38-5.155-16.233-4.08-6.641-9.142-12.692-14.528-18.3a93.914 93.914 0 0 0-2.691-2.709c-6.427-6.621-13.194-12.921-20.299-18.81C73.92 45.15 60.68 36.032 45.934 30.228c-7.085-2.789-14.606-4.834-22.247-5.365-1.609-.112-2.718.179-3.274 1.789-1.736 5.018-2.697 10.626-2.576 15.913.105 4.616.97 9.18 2.469 13.522l7.447-3.669 4.339 9.527c7.147-4.26 13.676-8.173 13.867-8.365 0 0-6.808 6.873-13.456 13.598L42.268 79.8 64.01 63.013s-3.085 6.378-15.892 19.07l20.48 18.076 6.762-5.513-3.085 7.961a212.65 212.65 0 0 0 7.971 3.396c6.558 2.744 13.135 5.45 19.798 7.937 5.696 2.126 11.465 4.065 17.206 6.069 1.282.447 2.625.9 3.975.705 2.816-.408 4.665-3.068 5.987-5.351a12.307 12.307 0 0 0 1.506-4.112" transform="rotate(-42 73.362 72.801)"/>
                <path fill="#8BCA50" fill-opacity=".9" d="M140.227 64.335c-3.066-4.862-9.231-7.003-14.694-8.615-7.475-2.205-15.286-3.315-23.041-3.878a93.914 93.914 0 0 0-3.813-.212c-9.206-.62-18.45-.775-27.67-.396-15.735.645-31.675 2.729-46.517 8.282-7.13 2.668-14.089 6.181-20.122 10.9-1.27.993-1.9 1.95-1.237 3.52 2.068 4.89 5.106 9.7 8.734 13.55 3.167 3.359 6.863 6.172 10.883 8.396l3.08-7.71 9.598 4.177c2.461-7.949 4.694-15.225 4.708-15.495 0 0-.46 9.662-.901 19.108l15.704 2.847 4.923-27.023s1.975 6.803.95 24.805l27.315-.27 1.336-8.623 3.034 7.982a212.65 212.65 0 0 0 8.197-2.81c6.71-2.35 13.407-4.74 20.023-7.35 5.656-2.231 11.24-4.65 16.848-7.003 1.251-.525 2.553-1.087 3.426-2.136 1.82-2.188 1.413-5.4.868-7.982a12.307 12.307 0 0 0-1.632-4.064" style="mix-blend-mode:multiply"/>
              </g>
            </g>
          </g>
        </g>
        <g transform="translate(0 23.315)">
          <g transform="translate(0 39.09)">
            <g transform="rotate(15 21.6 164.072)">
              <path fill="url(#h)" d="M147.555 127.554c1.112-6.488-2.5-13.04-5.92-18.601-4.68-7.612-10.486-14.549-16.662-20.977a107.839 107.839 0 0 0-3.086-3.106c-7.369-7.59-15.128-14.814-23.273-21.566-13.902-11.522-29.079-21.978-45.98-28.64-8.12-3.2-16.739-5.55-25.493-6.165-1.844-.13-3.114.202-3.75 2.046-1.985 5.747-3.081 12.17-2.939 18.229.125 5.287 1.12 10.516 2.841 15.492l8.53-4.196 4.979 10.917c8.186-4.875 15.663-9.352 15.881-9.57 0 0-7.794 7.866-15.406 15.565l11.2 14.47 24.896-19.214s-3.53 7.303-18.192 21.832l23.48 20.726 7.744-6.31-3.529 9.118a244.065 244.065 0 0 0 9.137 3.897c7.516 3.15 15.054 6.254 22.69 9.109 6.529 2.441 13.14 4.667 19.72 6.968 1.47.513 3.008 1.034 4.556.811 3.226-.465 5.341-3.51 6.855-6.125a14.078 14.078 0 0 0 1.721-4.71" transform="rotate(-42 84.1 83.458)"/>
              <path fill="#7BB447" d="M18.503 86.235s-1.067 7.1-3.507 15.463c.293.285.59.565.889.843 2.361-8.804 2.618-16.306 2.618-16.306m13.697-.321s-.639 6.893-2.52 15.178l.996.432c1.682-8.56 1.524-15.61 1.524-15.61m25.286 4.221s-.36 10.686-2.855 21.59l1.14.205c2.58-11.185 1.715-21.795 1.715-21.795m26.47-.469s.517 10.133-.903 20.898l1.167-.012c1.394-10.984-.264-20.886-.264-20.886m24.338 19.252c.375-.124.748-.25 1.123-.376 0-9.558-1.915-17.354-1.915-17.354s1.035 8.177.792 17.73m23.076-23.454s2.459 6.484 3.79 13.794l.757-.257c-1.394-7.447-4.547-13.537-4.547-13.537"/>
              <path fill="url(#i)" d="M147.555 127.554c1.112-6.488-2.5-13.04-5.92-18.601-4.68-7.612-10.486-14.549-16.662-20.977a107.839 107.839 0 0 0-3.086-3.106c-7.369-7.59-15.128-14.814-23.273-21.566-13.902-11.522-29.079-21.978-45.98-28.64-8.12-3.2-16.739-5.55-25.493-6.165-1.844-.13-3.114.202-3.75 2.046-1.985 5.747-3.081 12.17-2.939 18.229.125 5.287 1.12 10.516 2.841 15.492l8.53-4.196 4.979 10.917c8.186-4.875 15.663-9.352 15.881-9.57 0 0-7.794 7.866-15.406 15.565l11.2 14.47 24.896-19.214s-3.53 7.303-18.192 21.832l23.48 20.726 7.744-6.31-3.529 9.118a244.065 244.065 0 0 0 9.137 3.897c7.516 3.15 15.054 6.254 22.69 9.109 6.529 2.441 13.14 4.667 19.72 6.968 1.47.513 3.008 1.034 4.556.811 3.226-.465 5.341-3.51 6.855-6.125a14.078 14.078 0 0 0 1.721-4.71" style="mix-blend-mode:multiply" transform="rotate(-42 84.1 83.458)"/>
            </g>
            <g transform="translate(10.025 12.858)">
              <path fill="url(#j)" d="M170.273 147.318c1.252-7.458-2.935-15.008-6.895-21.42-5.42-8.774-12.133-16.777-19.27-24.198a125.493 125.493 0 0 0-3.565-3.585c-8.515-8.763-17.477-17.104-26.883-24.905C97.61 59.9 80.094 47.807 60.613 40.07c-9.36-3.716-19.292-6.456-29.37-7.2-2.124-.158-3.585.218-4.309 2.336-2.259 6.6-3.493 13.984-3.302 20.952.167 6.081 1.334 12.1 3.337 17.83l9.8-4.79 5.778 12.578c9.401-5.57 17.988-10.686 18.238-10.937 0 0-8.937 9.014-17.664 17.834l12.955 16.69 28.57-21.988s-4.03 8.384-20.844 25.03l27.118 23.939 8.885-7.223-4.022 10.47a283.362 283.362 0 0 0 10.534 4.523c8.665 3.654 17.354 7.259 26.157 10.575 7.524 2.836 15.144 5.425 22.728 8.1 1.693.596 3.466 1.202 5.247.952 3.71-.52 6.132-4.014 7.863-7.014a16.066 16.066 0 0 0 1.961-5.41" transform="rotate(-42 97.056 96.318)"/>
              <path fill="#7BB447" d="M21.29 99.515s-1.232 8.139-4.05 17.723c.338.328.68.648 1.026.967 2.728-10.09 3.024-18.69 3.024-18.69m15.819-.367s-.738 7.9-2.91 17.396l1.15.496c1.943-9.811 1.76-17.892 1.76-17.892m29.205 4.838s-.415 12.248-3.297 24.745l1.317.236c2.979-12.82 1.98-24.981 1.98-24.981m30.571-.538s.596 11.614-1.043 23.952l1.348-.013c1.61-12.59-.305-23.939-.305-23.939m28.109 22.066c.433-.142.864-.287 1.297-.43 0-10.956-2.212-19.891-2.212-19.891s1.195 9.371.915 20.32m26.652-26.88s2.84 7.432 4.376 15.81l.875-.295c-1.61-8.536-5.251-15.515-5.251-15.515"/>
              <path fill="#8BCA50" fill-opacity=".6" d="M185.593 85.226c-4.06-6.38-12.224-9.188-19.457-11.303-9.9-2.894-20.243-4.35-30.512-5.09-1.68-.12-3.364-.225-5.049-.278-12.19-.814-24.432-1.016-36.642-.52-20.835.848-41.942 3.582-61.596 10.868-9.443 3.502-18.657 8.11-26.646 14.301-1.683 1.305-2.516 2.561-1.637 4.62 2.738 6.417 6.761 12.729 11.565 17.78 4.193 4.407 9.088 8.098 14.41 11.017l4.079-10.116 12.71 5.48c3.259-10.43 6.216-19.978 6.235-20.332 0 0-.61 12.679-1.194 25.074l20.795 3.734 6.52-35.458s2.615 8.927 1.257 32.548l36.17-.355 1.77-11.313 4.018 10.472a283.362 283.362 0 0 0 10.854-3.687c8.885-3.082 17.754-6.218 26.515-9.644 7.49-2.927 14.884-6.101 22.31-9.189 1.657-.689 3.38-1.426 4.536-2.802 2.41-2.87 1.872-7.087 1.15-10.475a16.066 16.066 0 0 0-2.161-5.332" style="mix-blend-mode:multiply"/>
            </g>
          </g>
          <g transform="translate(42.065)">
            <g transform="rotate(47 70.512 162.167)">
              <path fill="url(#k)" d="M170.44 147.47c1.251-7.464-2.94-15.02-6.906-21.438-5.427-8.783-12.147-16.794-19.29-24.222a125.676 125.676 0 0 0-3.57-3.588c-8.524-8.772-17.495-17.122-26.91-24.93-16.068-13.326-33.6-25.432-53.099-33.178-9.369-3.721-19.31-6.466-29.397-7.214-2.125-.157-3.586.219-4.311 2.338-2.26 6.606-3.492 13.994-3.3 20.967.168 6.087 1.338 12.11 3.344 17.846l9.807-4.791 5.786 12.588c9.407-5.572 18-10.69 18.25-10.942 0 0-8.942 9.02-17.675 17.845l12.97 16.706 28.59-22s-4.032 8.39-20.857 25.045l27.146 23.964 8.89-7.227-4.022 10.478c3.481 1.583 7 3.087 10.543 4.528 8.673 3.66 17.37 7.269 26.181 10.59 7.532 2.84 15.158 5.433 22.749 8.11 1.694.598 3.47 1.205 5.251.956 3.714-.521 6.137-4.016 7.868-7.019a16.072 16.072 0 0 0 1.962-5.413" transform="rotate(-42 97.151 96.413)"/>
              <path fill="#8BCA50" fill-opacity=".6" d="M185.779 85.315c-4.064-6.383-12.236-9.194-19.477-11.31-9.91-2.895-20.264-4.352-30.543-5.092a125.676 125.676 0 0 0-5.054-.279c-12.204-.814-24.458-1.016-36.68-.52-20.857.848-41.985 3.584-61.66 10.875-9.452 3.503-18.676 8.115-26.673 14.31-1.684 1.304-2.519 2.561-1.639 4.621 2.74 6.42 6.768 12.737 11.577 17.79 4.198 4.41 9.097 8.104 14.426 11.024l4.082-10.122 12.723 5.483c3.263-10.436 6.223-19.99 6.242-20.343 0 0-.611 12.686-1.195 25.088l20.816 3.737 6.526-35.48s2.618 8.933 1.26 32.568l36.207-.355 1.772-11.32 4.021 10.478a283.74 283.74 0 0 0 10.865-3.69c8.895-3.083 17.773-6.221 26.543-9.648 7.497-2.93 14.9-6.105 22.332-9.195 1.66-.69 3.385-1.426 4.542-2.804 2.412-2.872 1.873-7.09 1.151-10.48a16.072 16.072 0 0 0-2.164-5.336" style="mix-blend-mode:multiply"/>
            </g>
            <g transform="rotate(54 65.828 189.078)">
              <path fill="url(#h)" d="M147.555 127.554c1.112-6.488-2.5-13.04-5.92-18.601-4.68-7.612-10.486-14.549-16.662-20.977a107.839 107.839 0 0 0-3.086-3.106c-7.369-7.59-15.128-14.814-23.273-21.566-13.902-11.522-29.079-21.978-45.98-28.64-8.12-3.2-16.739-5.55-25.493-6.165-1.844-.13-3.114.202-3.75 2.046-1.985 5.747-3.081 12.17-2.939 18.229.125 5.287 1.12 10.516 2.841 15.492l8.53-4.196 4.979 10.917c8.186-4.875 15.663-9.352 15.881-9.57 0 0-7.794 7.866-15.406 15.565l11.2 14.47 24.896-19.214s-3.53 7.303-18.192 21.832l23.48 20.726 7.744-6.31-3.529 9.118a244.065 244.065 0 0 0 9.137 3.897c7.516 3.15 15.054 6.254 22.69 9.109 6.529 2.441 13.14 4.667 19.72 6.968 1.47.513 3.008 1.034 4.556.811 3.226-.465 5.341-3.51 6.855-6.125a14.078 14.078 0 0 0 1.721-4.71" transform="rotate(-42 84.1 83.458)"/>
              <path fill="#8BCA50" fill-opacity=".9" d="M160.763 73.768c-3.516-5.566-10.584-8.017-16.847-9.862-8.571-2.525-17.527-3.795-26.418-4.44a107.839 107.839 0 0 0-4.372-.243c-10.555-.71-21.155-.887-31.726-.454-18.04.74-36.316 3.125-53.333 9.482-8.176 3.055-16.154 7.077-23.07 12.478-1.458 1.137-2.18 2.234-1.419 4.03 2.371 5.598 5.855 11.106 10.014 15.512 3.63 3.846 7.869 7.066 12.478 9.612l3.53-8.826 11.006 4.782c2.821-9.1 5.382-17.43 5.398-17.74 0 0-.528 11.063-1.033 21.877l18.005 3.258 5.645-30.936s2.264 7.789 1.089 28.397l31.318-.31 1.532-9.87 3.478 9.137a244.065 244.065 0 0 0 9.398-3.218c7.693-2.688 15.373-5.425 22.958-8.413 6.485-2.554 12.887-5.323 19.317-8.017 1.434-.602 2.927-1.244 3.928-2.445 2.086-2.505 1.62-6.183.995-9.139a14.078 14.078 0 0 0-1.871-4.652" style="mix-blend-mode:multiply"/>
            </g>
          </g>
        </g>
      </g>
    </g>
    <g mask="url(#c)">
      <g transform="scale(-1 1) rotate(3 337.783 -3737.23)">
        <g transform="translate(13.253 150.146)">
          <g transform="translate(2.286 .905)">
            <path fill="#443735" d="M149.021 179.871c-1.776-6.82-1.05-12.226-.224-19.062 2.121-17.623 4.919-34.778 9.019-52.019 3.412-14.337 3.776-29.357 3.878-44.036.095-13.223-.572-26.948-5.201-39.463C150.564 9.278 133.87.841 117.946.454c-15.662-.384-36.013.689-48.77 10.889-6.737 5.393-13.99 16.105-15.612 24.721-5.631 29.962-6.459 63.758-1.52 93.853 1.524 9.288 5.143 19.694 6.092 29.07.506 5.122-1.103 7.57-2.09 11.717-.277 1.165-4.811 5.43-5.625 6.614 0 0-3.003 7.89 7.83 8.342 1.4.058 2.005 2.152 2.158 4.372.154 2.24 3.62 13.092 10.169 8.143 0 0 .577-1.809 5.009.44 0 0 10.498-3.446 8.322-15.645-.38-2.13-.484-7.112-.328-9.432.223-3.32.4-6.1.562-9.13.456-8.508 3.393-23.426 14.167-20.24 12.498 3.693 14.826 13.326 14.97 26.403.024 2.288.316 7.873.157 9.964-.443 5.81-.308 6.62-.659 12.106-.216 3.373-1.297 7.551 3.943 9.083.776.226 4.138-4.256 8.074-.46 3.24 3.126 6.087 12.015 15.394.852 1.089-1.306 3.62 4.853 8.616 5.68 2.774.459 4.408-5.139 3.035-15.24-.62-4.558-2.474-11.365-2.819-12.685"/>
            <path fill="#784C43" d="M149.103 208.21c-.118 0-.24-.011-.36-.031-3.014-.499-5.174-2.856-6.603-4.416-.619-.675-1.319-1.439-1.598-1.44h-.003c-3.206 3.823-5.901 5.657-8.289 5.645l-.08-.001c-2.65-.059-4.391-2.346-5.928-4.365-.592-.779-1.152-1.514-1.715-2.058-2.709-2.612-5.099-.994-6.528-.027-.632.429-1.014.69-1.386.578-4.942-1.443-4.596-5.243-4.318-8.296.037-.401.073-.797.097-1.182.155-2.422.215-3.918.272-5.363.072-1.8.14-3.5.387-6.748.107-1.4.006-4.466-.076-6.93-.04-1.19-.076-2.265-.084-3-.145-13.437-2.655-22.48-14.69-26.037-2.622-.775-4.926-.475-6.854.89-5.593 3.96-6.632 15.544-6.818 19a643.582 643.582 0 0 1-.563 9.136c-.162 2.408-.041 7.288.324 9.338 1.767 9.91-4.841 14.852-8.583 16.08l-.152.05-.144-.072c-2.47-1.253-3.6-1.155-4.055-.985-.328.124-.411.32-.415.329l-.04.1-.09.079c-1.852 1.4-3.639 1.72-5.312.957-3.685-1.684-5.377-7.936-5.477-9.382-.17-2.473-.838-3.972-1.787-4.012-3.802-.158-6.385-1.237-7.679-3.205-1.66-2.526-.544-5.534-.495-5.661l.042-.082c.325-.475 1.162-1.36 2.132-2.386 1.309-1.384 3.286-3.477 3.434-4.098.282-1.182.61-2.218.928-3.221.81-2.558 1.51-4.767 1.154-8.368-.539-5.322-1.96-11.057-3.337-16.603-1.03-4.148-2.095-8.44-2.752-12.443-4.851-29.571-4.311-62.95 1.523-93.987 1.711-9.097 9.351-19.83 15.75-24.952C82.176.453 103.25-.291 117.955.066c14.873.363 32.67 8.261 38.9 25.09 4.763 12.878 5.314 27.246 5.226 39.6-.104 15.08-.48 29.803-3.889 44.124-3.754 15.783-6.701 32.784-9.011 51.976l-.066.543c-.8 6.597-1.43 11.808.281 18.374l.12.457c.528 2 2.139 8.085 2.708 12.274 1.017 7.49.454 13.103-1.507 15.013-.471.46-1.024.696-1.614.693"/>
          </g>
          <path fill="#EDBD95" d="M32.524 112.487c4.262 5.114 2.592 7.267 6.77 19.351.869 2.51 5.661 11.898-.416 12.144-1.452.058-3.233-.473-5.715-3.427-1.284-1.527-4.676-6.467-4.676-6.467s-.366 7.808 2.908 11.748c0 0 4.914 3.708 8.081 2.422 0 0 7.749-1.51 5.714 5.657-1.03 3.626-5.046 9.441-13.354 6.952 0 0-3.645 6.804-12.305.27 0 0-6.8 2.219-11.058-8.71 0 0-15.964-4.616-2.6-34.494 0 0 19.434-14.106 26.651-5.446"/>
          <path fill="#443735" d="M52.363 30.814a7.094 7.094 0 0 1 2.19.866c5.766 3.527 13.52 20.155 8.06 34.438-3.649 8.314-10.628 14.636-17.32 21.295.258-5.21 5.243-9.412 5.918-14.595-16.368 14.203-13.736 44.346-13.97 46.536-.481 0-1.364-.002-1.521-.001-1.443-.002-2.154.767-2.376 2.132-.28 1.723.805 4.408-1.973 4.392a.085.085 0 0 0-.013-.003c-1.625-.36-2.312-1.747-2.874-2.201-.739-.594-1.457-1.038-2.331-1.23a4.425 4.425 0 0 0-.697-.098 6.308 6.308 0 0 0-5.91 3.16c-1.086 1.921-1.436 4.174-2.333 6.18-2.768 6.174-8.87 8.787-15.196 7.389-.1-.022-.2-.046-.3-.07-2.044-7.342-2.114-15.33-.992-22.731.9-6.295 3.157-12.547 5.767-18.323 5.918-12.945 10.84-26.742 17.702-39.315 2.346-4.294 4.8-8.222 7.408-11.846-2.525.81-5.026 1.868-6.849 2.86-.976.48-1.745.953-2.299 1.271-.554.325-.872.506-.872.506s4.257-2.943 4.596-3.485c.036-.06.028-.09-.016-.1-.295-.065-2.183.825-2.581.737-.094-.02-.105-.095.005-.247 1.243-1.862 3.15-4.213 5.335-6.424 2.16-2.245 4.667-4.163 6.6-5.589.974-.685 1.814-1.213 2.398-1.602.522-.342 8.594-5.195 14.444-3.902"/>
          <path fill="#78217B" d="M46.322 125.876c.702.711 7.928 7.689 24.789 12.14 29.465 7.775 65.285 2.021 90.306-4.242 1.027-3.57 8.18-49.387 6.536-58.648-1.494-8.423-3.417-58.993-10.327-67.266-5.633-.955-88.117-14.718-101.97-3.447-.717 1.505-19.381 51.942-12.368 78.48l.045.291-.149.255c-.027.047-2.73 4.774-3.677 12.345-.87 6.959-.393 17.822 6.815 30.092"/>
        </g>
        <path fill="#4D1A64" d="M167.636 199.78c-.253 4.659-7.68 5.951-7.428 11.108.35 7.16.553 15.794 1.909 24.062 1.497 9.131 4.138 12.098 4.782 17.645.65 5.586 16.313 4.367 21.8 5.355 9.716 1.751 19.78 4.213 29.512 2.554 2.688-.458 1.858-5.198 1.907-7.909.063-3.526-.151-7.233-1.576-10.463-14.01-31.765-10.291-35.736-42.084-45.078l-8.822 2.726z"/>
        <path fill="#4D1A64" d="M185.962 210.535c-2.41 3.995-9.576 1.65-11.773 6.32-3.052 6.488-6.927 14.206-9.612 22.143-2.965 8.765-2.025 12.624-4.06 17.825-2.05 5.236 12.353 11.513 16.733 14.962 7.757 6.108 15.487 13.006 24.858 16.11 2.59.858 4.081-3.718 5.397-6.088 1.712-3.083 3.263-6.457 3.521-9.978 2.543-34.624 7.69-36.384-15.995-59.56l-9.07-1.734z"/>
        <g transform="translate(42.253)">
          <path fill="#3C3C3B" d="M26.01 150.345c.995.58-1.005-.705 0 0"/>
          <path fill="#784C43" d="M69.88 7.683c7.163 3.585 19.446 10.267 20.472 14.408l.278 1.12-1.126.27c-6.414 1.537-12.424 3.816-17.863 6.775a64.508 64.508 0 0 0-6.798 4.254l-.275.198-.339.017c-6.06.313-12.153 2.139-17.157 5.14-3.47 2.08-6.444 4.69-8.84 7.762-2.604 3.343-4.422 7.168-5.406 11.365-1.627 7.013-1.951 15.953-1.936 22.216l.002.882-.856.228c-4.571 1.223-8.97 3.527-13.077 6.844-6.594 5.344-11.753 12.879-14.524 21.217-3.82 11.491-3.135 23.754 1.983 35.462 5.836 13.387 17.128 25.492 33.563 35.977 4.995 3.202 12.585 6.404 21.376 9.021 9.009 2.652 21.578 4.844 32.018 5.583 40.36 2.858 74.916-18.05 88.033-53.266a150.57 150.57 0 0 0 5.079-16.39l.2-.81.835-.06c2.071-.15 4.116-.713 6.08-1.676 2.443-1.188 4.666-2.972 6.611-5.302 3.816-4.545 6.178-10.71 6.652-17.364.54-7.573-.543-13.617-3.22-17.962l-.001-.002c-2.57-4.18-6.613-6.668-11.384-7.006-.812-.057-1.725-.027-2.792.09l-1.023.115-.227-1c-1.463-6.425-3.627-12.477-6.43-17.988C163.008 24.9 139.837 12.1 131.867 8.5c1.604 3.28 3.926 8.694 3.729 12.196l-.148 2.62-1.83-1.888c-9.923-10.231-19.424-15.72-25.647-18.525-3.233-1.456-5.94-2.359-7.888-2.904 3.492 4.158 9.77 12.404 11.398 19.676l.702 3.141-2.538-1.99C95.662 9.867 78.195 7.932 69.88 7.682"/>
          <path fill="#FEBE88" d="M162.5 128.83c-1.34-3.99-3.478-7.778-6.376-11.248-2.252-2.733-4.988-5.283-8.103-7.57a54.054 54.054 0 0 0-5.664-3.636c3.365-4.224 8.343-11.717 10.124-20.784 1.018-5.176.871-10.33-.432-15.328-1.219-4.59-3.36-8.968-6.432-12.985-7.57-9.934-19.952-16.668-32.285-17.545-6.984-.497-13.51.942-18.851 4.164a27.619 27.619 0 0 0-7.213 6.242 17.003 17.003 0 0 0-2.134-3.577c-3.523-4.53-9.27-7.272-16.153-7.762-6.489-.461-13.403 1.185-18.968 4.546-3.027 1.827-5.626 4.121-7.68 6.769a25.123 25.123 0 0 0-4.627 9.79c-1.923 8.319-1.927 19.798-1.773 25.663-5.235.517-10.606 2.877-15.455 6.825-5.963 4.827-10.64 11.699-13.168 19.347-3.484 10.495-2.835 21.766 1.845 32.547 5.482 12.62 16.196 24.136 31.897 34.196 9.007 5.791 28.688 12.385 48.904 13.823 13.702.975 25.983-.438 36.553-4.19 12.869-4.545 22.846-12.514 29.61-23.646 7.86-12.905 9.994-24.881 6.38-35.642"/>
          <path fill="url(#l)" d="M62.402 46.878l.594.004c19.461.272 22.668 13.817 22.832 15.755l.024-.07c.348-.998 1.573-3.687 4.173-6.376l.155-.158c5.155-5.22 15.53-10.315 34.773-2.908l.907.36c29.536 12.055 18.72 42.124 14.76 51.48l-.51-.355c-6.14-4.224-14.18-7.078-20.862-9.217l-.498-.158c-10.567-3.308-16.742-2.818-24.372-2.329l-.202-.233c-6.64-7.655-11.346-10.351-27.132-10.83l-.254.012c-1.074.085-1.814.598-2.545 1.148l-.337.255c-.735.553-1.51 1.08-2.648 1.193l-.15.026c-1.533.251-2.398.196-3.646-.044l-.247-.049c-1.386-.28-3.283-.763-6.956-1.3l-.34-.049c-4.034-.555-6.32-.226-11.157 1.168v-.01a31.53 31.53 0 0 1-.008-.626v-.344c.018-5.673.968-34.134 18.2-36.033a49.799 49.799 0 0 1 5.446-.312z"/>
          <path fill="#2D2D2D" d="M71.055 120.251a1.37 1.37 0 0 1-.969-.396c-6.36-6.32-12.488-3.672-15.106-2.542-.668.29-1.07.463-1.482.5-.745.07-1.408-.469-1.477-1.198-.067-.702.441-1.326 1.146-1.432.127-.04.45-.18.713-.294 2.863-1.236 10.467-4.522 18.144 3.108a1.304 1.304 0 0 1-.018 1.874 1.37 1.37 0 0 1-.951.38"/>
          <path fill="#2D2D2D" d="M48.281 127.385c-.277 0-.557-.083-.8-.254a1.328 1.328 0 0 1-.306-1.876c6.526-8.875.857-13.632.612-13.83a1.33 1.33 0 0 1-.194-1.887 1.38 1.38 0 0 1 1.913-.202c2.79 2.2 6.357 8.69-.116 17.492a1.372 1.372 0 0 1-1.109.557m26.46 4.076c-.42 0-.835-.192-1.103-.556-2.948-3.985-3.906-7.803-2.848-11.347 1.9-6.372 9.649-9.292 9.977-9.413a1.374 1.374 0 0 1 .948 2.578c-.078.028-6.803 2.584-8.301 7.63-.792 2.669.024 5.669 2.427 8.917a1.375 1.375 0 0 1-1.1 2.191m36.35-37.706c.408-1.08.722-2.276.909-3.552.792-5.42-.976-10.204-3.982-10.678-2.998-.466-6.065 3.556-6.857 8.98a16.6 16.6 0 0 0-.063 4.563c2.993-.085 6.382.138 9.993.687m-62.998-10.5c3.632.27 6.943 1.125 9.574 2.348.186-.768.324-1.58.402-2.425.444-5.114-1.412-9.514-4.184-9.79-2.8-.284-5.422 3.653-5.883 8.78a16.61 16.61 0 0 0-.067 1.076l.158.01"/>
          <path fill="#2D2D2D" d="M75.996 75.706C64.48 74.31 54.66 78.02 54.09 84.013c-.088.888-.178 4.586 1.842 4.443 6.247-.483 8.72 3.786 9.676 6.668-1.356 3.924-3.02 7.061-4.74 16.181a149.24 149.24 0 0 1-.31 1.614l2.778.199c1.427-11.04 3.861-13.994 5.507-18.543 3.818-3.52 11.79-8.049 24.204-1.733 1.856.929 2.71-2.773 2.796-3.772.574-5.991-8.31-11.96-19.848-13.364"/>
          <path fill="#4D1A64" d="M117.898 196.682h13.28-13.28z"/>
          <path fill="#78217B" d="M140.843 260.884c4.77-3.073 18.359-27.11 47.256-30.504-4.374-25.349-14.83-53.986-46.77-51.937-14.133.907-24.208 12.122-24.038 26.065.076 6.304 2.997 12.253 3.18 18.371 10.218 15.947 18.439 33.724 20.372 38.005z"/>
          <path fill="#78217B" d="M168.376 235.215l-23.223 5.483-1.347 24.262c14.792 4.487 22.188 6.474 22.188 5.961 0-.512.794-12.414 2.382-35.706z"/>
        </g>
        <g transform="translate(0 113.526)">
          <path fill="url(#m)" d="M115.457 160.58c-26.896 26.406-69.939 25.842-96.148-1.24-26.221-27.097-25.665-70.472 1.231-96.878a67.224 67.224 0 0 1 6.68-5.76 67.371 67.371 0 0 1 19.452-10.243 67.875 67.875 0 0 1 36.572-1.7 66.965 66.965 0 0 1 22.356 9.682 67.476 67.476 0 0 1 11.102 9.275c26.21 27.084 25.651 70.46-1.245 96.865"/>
          <path fill="#FFF" d="M43.98 77.621a6.5 6.5 0 1 1-9.074-9.31 6.5 6.5 0 0 1 9.073 9.31" opacity=".1" style="mix-blend-mode:screen"/>
          <path fill="#3C3C3B" d="M105.883 55.004c-.439-14.361-9.817-30.313-22.151-37.442L59.75 3.667C52.112-.758 44.112-1.197 37.816 2.452 31.522 6.1 27.91 13.267 27.91 22.103v35.139A67.156 67.156 0 0 1 47.261 47.1V22.103c0-1.358.195-2.186.349-2.652.477.092 1.289.35 2.463 1.021l23.984 13.896c3.703 2.135 7.224 6.39 9.584 11.049 1.795 3.557 2.917 7.361 2.917 10.647V93.17c0 15.775 19.351 15.775 19.351 0V56.064c0-.349 0-.71-.026-1.06"/>
        </g>
        <g transform="rotate(50 -106.603 228.148)">
          <path fill="#EDBD95" d="M45.54 102.049c-8.772 1.065-5.716 1.14-19.566 13.628-4.376 3.946-18.338-3.116-18.546 6.438-.047 2.119 4.507 8.083 10.002 9.347 5.418 1.246 10.836-1.454 10.836-1.454s-3.27 11.699-10.42 13.915c0 0-7.918 5.192-17.295 9.97 0 0-4.363 11.288 11.461 10.176 0 0 8.752 8.516 19.38 1.454 0 0 15.629 5.4 39.886-38.992 0 0-9.38-26.468-25.737-24.482"/>
          <path fill="#784C43" d="M115.463 69.48L93.832 28.139l-5.897 7.515A375.358 375.358 0 0 1 54.737 87.81c-3.772 4.965-7.94 10.052-14.248 11.61-2.675.66-5.684 3.236-6.622 5.818-4.655 12.81 9.792 4.213 12.737 5.248 4.86 1.707 6.668 9.138 6.251 11.63-.846 5.067-6.427 8.78-9.794 12.67-2.497 2.885-3.59 9.448-1.25 12.461 1.99 2.563 8.242.25 11.461-.207 16.951-2.41 7.502-9.762 34.594-31.69 1.71-1.385 2.8-3.382 4.126-5.105 13.588-17.665 14.367-20.372 23.471-40.763"/>
          <path fill="#784C43" d="M73.979 20.327l5.044 8.112a375.357 375.357 0 0 1 37.657 49.034c3.375 5.242 6.73 10.898 6.035 17.359-.294 2.74 1.098 6.448 3.203 8.213 10.446 8.755 7.309-7.761 9.288-10.175 3.266-3.983 10.868-3.14 13.067-1.896 4.471 2.529 6.052 9.043 8.556 13.537 1.857 3.333 7.65 6.604 11.282 5.437 3.089-.994 3.054-7.66 3.725-10.841 3.533-16.753-6.607-10.388-17.947-43.347-.716-2.08-2.22-3.788-3.386-5.623-11.952-18.81-14.23-20.468-30.277-35.997l-46.247 6.187z"/>
        </g>
        <path fill="#78217B" d="M160.255 194.052c2.784 17.763-.57 34.14 9.748 49.79 2.73 4.141 10.996 9.034 15.877 9.919 8.642 1.567 13.973 17.059 22.63 15.574 2.392-.41 8.626-20.427 8.67-22.854.056-3.155-.134-6.474-1.401-9.365-12.462-28.432-24.295-34.628-52.575-42.99l-2.95-.074z"/>
      </g>
    </g>
  </g>
</svg>
