<?xml version="1.0" encoding="utf-8"?><svg xmlns="http://www.w3.org/2000/svg" width="220" height="37" viewBox="0 0 220 37"><defs><linearGradient id="a" x1="49.13%" x2="49.805%" y1="-22.033%" y2="69.429%"><stop offset="0%" stop-color="#8F6A4C"/><stop offset="13.24%" stop-color="#A57B58"/><stop offset="39.17%" stop-color="#CC986D"/><stop offset="63.13%" stop-color="#E7AD7C"/><stop offset="84.17%" stop-color="#F8BA85"/><stop offset="100%" stop-color="#FEBE88"/></linearGradient></defs><g fill="none"><path d="M215.266 11.654c-.473-.529-.697-1.183-.697-1.938 0-.73.199-1.46.697-1.938.474-.529 1.121-.78 1.968-.78.848 0 1.52.251 2.019.78.473.528.722 1.183.722 1.938 0 .73-.25 1.41-.722 1.938-.474.528-1.122.78-2.019.78-.872 0-1.52-.277-1.968-.78zm.374-3.574c-.399.453-.573.981-.573 1.636 0 .654.174 1.183.573 1.636.399.453.922.654 1.644.654.698 0 1.246-.201 1.645-.654.398-.453.598-.982.598-1.636 0-.655-.2-1.183-.598-1.636-.399-.453-.972-.655-1.645-.655-.747 0-1.32.202-1.644.655zm1.819 1.887h-.648v1.36h-.523V8.054h1.22c.25 0 .524.076.698.328.175.176.324.453.324.704 0 .353-.125.604-.448.78.05.051.074.076.124.177l.474 1.233-.474.176-.473-1.308c-.15-.126-.2-.177-.274-.177zm0-1.434h-.648v1.006h.648c.124 0 .199-.05.324-.125a.5.5 0 0 0 .124-.353.605.605 0 0 0-.124-.352c-.05-.151-.2-.176-.324-.176zM8.396 12.03c-1.62 0-3.263.655-4.036 1.989-.249-1.133-.972-1.813-2.143-1.813-1.295.05-2.167.957-2.167 2.417v17.92c0 1.46.872 2.417 2.143 2.417 1.245 0 2.142-.981 2.142-2.416v-5.286a5.933 5.933 0 0 0 3.912 1.51c4.31 0 7.05-4.052 7.05-8.155 0-4.178-2.316-8.583-6.9-8.583zM7.65 24.793c-2.342 0-3.364-2.417-3.364-4.48 0-2.115 1.097-4.28 3.364-4.28 2.217 0 3.314 2.366 3.314 4.405.05 2.039-1.047 4.355-3.314 4.355zm21.9-12.535c-1.046 0-1.918.73-2.043 1.812-.971-1.36-2.491-1.988-4.036-1.988-3.912 0-7.051 3.674-7.051 8.432 0 4.883 3.065 8.33 7.051 8.33 1.644 0 2.965-.704 4.036-2.038.324 1.133.773 1.838 2.043 1.838 2.043 0 2.043-1.712 2.043-2.82V15.102c0-1.158 0-2.844-2.043-2.844zm-5.53 12.535c-2.318 0-3.39-2.291-3.39-4.355 0-2.064 1.047-4.405 3.39-4.405 2.266 0 3.313 2.341 3.313 4.405-.025 2.09-1.096 4.355-3.314 4.355zm19.383-10.245c0-1.585-1.046-2.34-2.093-2.34-1.345 0-2.167.604-3.015 1.812h-.05c0-1.36-.971-1.813-2.092-1.813-1.097 0-2.218.705-2.218 2.165v11.805c0 1.46.872 2.416 2.143 2.416 1.246 0 2.143-.981 2.143-2.416v-6.595c0-1.711 1.295-2.29 2.566-2.894 1.345-.655 2.616-.73 2.616-2.14zm7.25 1.485c1.346 0 2.317.856 3.389.856.996 0 1.644-1.183 1.644-2.064 0-2.114-3.513-2.743-5.232-2.743-4.535 0-7.674 4.002-7.674 8.406 0 4.48 3.065 8.332 7.674 8.332 1.52 0 5.232-.73 5.232-2.996 0-1.006-.847-1.887-1.819-1.887-.523 0-2.093.88-3.189.88-2.317 0-3.637-2.24-3.637-4.354.025-2.215 1.146-4.43 3.612-4.43zm20.954 3.902c0-3.625-3.065-7.879-7.724-7.879-4.534 0-7.674 4.002-7.674 8.407 0 4.808 3.24 8.332 8.023 8.332 3.19 0 6.976-1.813 6.976-3.675 0-.932-.847-1.838-1.744-1.838-1.121 0-2.666 1.762-4.833 1.762-2.018 0-3.763-1.007-4.037-3.12h9.12c1.32-.076 1.893-.68 1.893-1.99zm-11.062-.932c.199-1.837 1.495-3.297 3.388-3.297 2.018 0 3.19 1.41 3.388 3.297h-6.776zM75.219 5.261c-1.246 0-2.143.981-2.143 2.416v18.55c0 1.46.872 2.417 2.143 2.417 1.245 0 2.142-.982 2.142-2.417V7.677c0-1.435-.922-2.416-2.142-2.416zm53.019 6.77c-1.445 0-3.314.78-4.535 2.19-1.12-1.46-2.666-2.19-4.435-2.19-1.57 0-2.915.655-3.961 1.813-.125-1.007-.872-1.637-1.968-1.637-1.246 0-2.143.982-2.143 2.417v11.528c0 1.46.872 2.416 2.143 2.416 1.245 0 2.142-.982 2.142-2.416v-7.526c0-1.762.773-2.995 2.542-2.995 1.52 0 2.491 1.233 2.491 2.995v7.55c0 1.46.922 2.417 2.143 2.417 1.246 0 2.143-.981 2.143-2.416V18.65c0-1.762.971-2.995 2.54-2.995 1.52 0 2.492 1.233 2.492 2.995v7.526c0 1.46.872 2.416 2.143 2.416 1.246 0 2.143-.981 2.143-2.416v-8.281c0-3.776-2.392-5.865-5.88-5.865zm15.223 0c-4.535 0-7.674 4.002-7.674 8.407 0 4.48 3.065 8.331 7.674 8.331 4.61 0 7.674-3.825 7.674-8.33-.025-4.406-3.164-8.408-7.674-8.408zm0 12.762c-2.317 0-3.389-2.291-3.389-4.355 0-2.064 1.047-4.405 3.389-4.405 2.342 0 3.388 2.341 3.388 4.405 0 2.09-1.096 4.355-3.388 4.355zm17.715-12.762c-2.019 0-3.314.604-4.161 1.762-.125-1.007-.872-1.586-1.969-1.586-1.245 0-2.142.982-2.142 2.417v11.528c0 1.46.872 2.416 2.142 2.416 1.271 0 2.143-.982 2.143-2.416v-7.526c0-1.661.972-2.995 2.74-2.995 1.52 0 2.791.981 2.791 2.995v7.55c0 1.46.872 2.417 2.143 2.417 1.27 0 2.143-.981 2.143-2.416v-8.281c.025-3.65-2.467-5.865-5.83-5.865zm16.095 7.3 3.762-3.424c.598-.578.847-1.107.847-1.711 0-.982-.723-1.938-1.819-1.938-.573 0-1.246.252-1.918.931l-4.71 4.631V7.677c0-1.46-.871-2.416-2.142-2.416-1.246 0-2.118.981-2.118 2.416v18.55c0 1.46.872 2.417 2.143 2.417 1.27 0 2.143-.982 2.143-2.417v-5.286h.05l5.232 6.52c.697.855 1.245 1.308 2.043 1.308 1.12 0 2.018-.93 2.018-2.064 0-.478-.125-1.006-.523-1.46l-5.008-5.914zm21.227.604c0-3.625-3.064-7.879-7.723-7.879-4.535 0-7.674 4.002-7.674 8.407 0 4.808 3.239 8.332 8.022 8.332 3.19 0 6.977-1.813 6.977-3.675 0-.932-.847-1.838-1.744-1.838-1.122 0-2.666 1.762-4.834 1.762-2.018 0-3.762-1.007-4.036-3.12h9.144c1.295-.076 1.868-.68 1.868-1.99zm-11.087-.932c.2-1.837 1.495-3.297 3.389-3.297 2.018 0 3.189 1.41 3.388 3.297h-6.777zm23.894-6.745c-1.047 0-1.794.579-2.143 1.535l-3.14 8.155-2.964-8.18c-.35-.982-1.097-1.535-2.143-1.535-.872 0-2.018.78-2.018 1.837 0 .453.075.78.2 1.108l4.683 11.93-1.868 4.732c-.125.403-.25.856-.25 1.259 0 .93.773 1.837 2.218 1.837.997 0 1.644-.78 2.018-1.712l7.15-18.072c.125-.352.2-.654.2-1.107.075-1.032-1.071-1.787-1.943-1.787z" fill="#FFF"/><g transform="translate(75.243)"><path fill="#784C43" d="M34.682 12.963h-.125C31.991 6.544 27.507 1.988 22.25.956c-.025 0-.075.026-.05.076.449.755.823 1.56 1.171 2.416.025.076-.05.126-.1.076-1.17-1.234-2.49-2.19-3.886-2.769a9.14 9.14 0 0 0-2.94-.705c-.05 0-.05.05-.025.076.299.302.573.604.847.931.673.78 1.246 1.661 1.794 2.618.025.05-.05.126-.1.075-1.245-.931-2.616-1.585-4.06-1.887a8.043 8.043 0 0 0-1.745-.177 9.49 9.49 0 0 0-2.516.353c-.05 0-.05.075 0 .075a9.463 9.463 0 0 1 2.267.83c.872.454 1.67 1.033 2.442 1.712.05.026.025.101-.025.101-1.221.353-2.392.881-4.111 2.165-.573-.025-1.146.025-1.645.176-1.594.403-2.89 1.485-3.737 3.096-.722 1.36-1.096 3.045-1.096 4.757 0 .554.05 1.082.124 1.61a14.247 14.247 0 0 0-2.217 1.99c-1.621 1.836-2.567 4-2.567 6.316 0 2.567 1.17 4.959 3.139 6.922 2.417 2.391 6.054 4.128 10.265 4.782.922.151 1.894.227 2.865.277.3 0 .598.025.897.025 8.048 0 14.8-3.85 16.693-9.061.424-.982.748-2.039 1.022-3.146.025-.05.025-.101.025-.151.15-.655.274-1.31.349-2.014 1.52-.428 2.665-2.391 2.665-4.732 0-2.643-1.47-4.807-3.313-4.807z"/><path fill="#FEBE88" d="M31.767 25.07v-.403c-.175-3.046-2.168-5.764-5.208-7.627 0-3.8-1.644-8.306-5.68-9.313-2.093-.528-5.008 0-6.403 1.812-.698-1.006-2.118-1.535-3.488-1.535-.4 0-.823.05-1.196.151-1.346.327-2.392 1.233-3.14 2.618-.647 1.208-.996 2.743-.996 4.304 0 .755.074 1.485.224 2.19C2.89 19.23.997 22.024.997 25.095c0 5.915 6.876 10.722 15.372 10.722 8.496 0 15.373-4.807 15.373-10.722.025 0 .025-.026.025-.026z"/><path fill="url(#a)" d="M25.712 16.814c-.324-3.449-1.818-6.973-5.182-7.879-1.943-.528-4.834-.05-6.154 1.762-.723-1.132-1.894-1.812-3.488-1.812-5.207 0-4.784 8.23-4.784 8.23s2.79-2.869 10.14-2.869c3.688.025 6.902.932 9.468 2.568z"/><ellipse cx="34.433" cy="17.695" fill="#FEBE88" rx="2.666" ry="3.901"/><path fill="#41413F" d="M34.233 17.191a.591.591 0 0 0-.349.126c-.024.025-.024.05 0 .076.25.2.424.578.424 1.006 0 .428-.174.806-.424 1.007-.024.025-.024.05 0 .076.1.075.225.125.35.125.448 0 .821-.528.821-1.208 0-.68-.373-1.208-.822-1.208zm.1-2.089c-.523 0-.997.277-1.345.755-.025.025.024.1.05.076a1.85 1.85 0 0 1 .896-.252c1.146 0 2.093 1.183 2.317 2.743 0 .05.075.05.075 0 0-.125.025-.226.025-.352 0-1.636-.897-2.97-2.018-2.97zm-12.906 8.684c-.05-.025-.075.025-.05.075.3.302.498.68.573 1.057 0 .05-.025.101-.05.126-.747.353-1.495.68-2.292.957a27.861 27.861 0 0 1-4.26 1.158 31.794 31.794 0 0 1-4.46.528c-.025-.579-.05-1.158-.05-1.737 0-2.24.224-4.404.673-6.468.274-1.209 1.27-1.989 2.84-1.989.523 0 1.022.1 1.445.277a.619.619 0 0 0 .797-.83c-.473-1.058-1.843-2.04-4.01-2.064-1.745-.026-3.24.73-3.888 1.787-.224.377.075.855.499.805 1.196-.1 1.993.755 1.893 1.259-.548 2.29-.822 4.732-.822 7.223 0 .58.025 1.183.05 1.762h-.847c-.598 0-1.221-.025-1.82-.05-.722-.05-1.444-.1-2.142-.201-.05 0-.075-.05-.05-.101.025-.076.075-.151.125-.227.025-.05-.025-.1-.05-.05-.124.1-.249.201-.299.327a.676.676 0 0 0-.075.302c0 .252.15.478.374.63.05.025.1-.026.05-.076a.602.602 0 0 1-.15-.277c0-.025.025-.05.05-.05.972.075 2.442 1.837 3.937 2.492a5.27 5.27 0 0 0 2.143.428c.747 0 1.47-.152 2.068-.403 1.395-.58 2.665-1.31 3.737-2.165.847-.705 1.844-1.309 2.915-1.862.473-.252.996-.479 1.495-.68.025-.025.075.025.05.05-.1.277-.274.554-.499.806-.025.025 0 .1.05.075.523-.277.872-.68.997-1.158.025-.1.05-.2.05-.327.024-.554-.374-1.082-.997-1.41zm-2.69-8.508c.622 0 1.12-.73 1.12-1.636 0-.906-.498-1.636-1.12-1.636-.624 0-1.122.73-1.122 1.636 0 .906.498 1.636 1.121 1.636zm-9.244-.302c.498 0 .897-.579.897-1.283 0-.705-.4-1.284-.897-1.284-.499 0-.897.579-.897 1.284 0 .704.423 1.283.897 1.283zm5.132 16.436a7.522 7.522 0 0 1-2.765.529 7.325 7.325 0 0 1-2.766-.529c-.05-.025-.075.05-.05.076.673.553 1.694.906 2.816.906 1.12 0 2.142-.353 2.815-.906.05-.025 0-.1-.05-.076z"/></g></g></svg>