<svg xmlns="http://www.w3.org/2000/svg" width="64" height="36"><defs><clipPath id="A"><path d="M61.51 0A2.488 2.488 0 0 1 64 2.474v31.052A2.48 2.48 0 0 1 61.51 36H2.49A2.488 2.488 0 0 1 0 33.526V2.474A2.48 2.48 0 0 1 2.49 0h59.02z"/></clipPath><clipPath id="B"><path d="M24.913 3.415a.31.31 0 0 1 .283.18.281.281 0 0 1-.066.32.317.317 0 0 1-.217.087.308.308 0 0 1-.285-.18.282.282 0 0 1 .065-.32.32.32 0 0 1 .22-.086zm0 .066a.243.243 0 0 0-.168.066.226.226 0 0 0 0 .324.24.24 0 0 0 .333 0 .225.225 0 0 0-.074-.373.233.233 0 0 0-.09-.017zM22.641.817c.223-.002.444.038.65.119.194.075.37.186.518.326s.263.307.342.492c.165.395.165.837 0 1.232a1.49 1.49 0 0 1-.342.491c-.149.14-.324.252-.517.327a1.843 1.843 0 0 1-1.302 0 1.506 1.506 0 0 1-.856-.818 1.599 1.599 0 0 1 0-1.232 1.507 1.507 0 0 1 .856-.818c.207-.08.428-.12.651-.119zM6.908.821a1.16 1.16 0 0 1 .958.432V.895h.66v2.95h-.66v-.358a1.163 1.163 0 0 1-.958.432c-.85-.04-1.516-.722-1.516-1.55S6.059.861 6.908.821zm3.767 0c.85 0 1.434.63 1.44 1.549 0 .086-.006.166-.013.247H9.85a.837.837 0 0 0 .907.722 1.47 1.47 0 0 0 .882-.309l.324.475c-.348.282-.791.43-1.244.414-.856-.02-1.542-.696-1.554-1.528S9.82.864 10.675.821zm3.267 0c.434-.015.863.092 1.237.308l-.286.519a1.996 1.996 0 0 0-.945-.253c-.362 0-.577.13-.577.345 0 .198.228.253.514.29l.31.043c.66.093 1.06.365 1.06.883 0 .562-.508.963-1.383.963a2.231 2.231 0 0 1-1.313-.383l.31-.5a1.65 1.65 0 0 0 1.01.309c.45 0 .69-.13.69-.358 0-.167-.17-.26-.532-.309l-.311-.043c-.679-.092-1.047-.389-1.047-.87 0-.586.495-.944 1.263-.944zM16.984 0v.895h1.079v.586h-1.078v1.333c0 .296.107.494.437.494.206-.007.407-.064.584-.167l.19.55a1.58 1.58 0 0 1-.824.228c-.78 0-1.053-.408-1.053-1.093V1.481h-.616V.895h.616V0h.665zM3.616.82a1.15 1.15 0 0 1 .869.325 1.08 1.08 0 0 1 .323.848v1.852h-.666V2.203c0-.5-.216-.777-.666-.777a.725.725 0 0 0-.559.223.684.684 0 0 0-.183.56v1.636h-.666V2.203c0-.5-.222-.777-.66-.777a.72.72 0 0 0-.561.22.678.678 0 0 0-.181.563v1.636H0V.895h.66v.364C.855.97 1.193.803 1.548.82c.407-.017.792.184 1.002.524.23-.35.639-.551 1.066-.524zm16.73 0c.16.001.319.029.47.081l-.204.605a1.101 1.101 0 0 0-.412-.074c-.431 0-.647.271-.647.759v1.654h-.66V.895h.654v.358a.9.9 0 0 1 .799-.432zm2.295.604a1.009 1.009 0 0 0-.377.07.893.893 0 0 0-.5.492c-.097.247-.097.52 0 .767a.893.893 0 0 0 .5.493c.243.093.512.093.754 0a.893.893 0 0 0 .503-.493c.097-.247.097-.52 0-.767a.894.894 0 0 0-.503-.493 1.009 1.009 0 0 0-.377-.069zm-15.62.104a.909.909 0 0 0-.95.842.87.87 0 0 0 .247.668c.174.18.418.28.672.276a.906.906 0 0 0 .915-.878.904.904 0 0 0-.884-.908zm3.641-.133a.773.773 0 0 0-.805.716h1.573a.744.744 0 0 0-.768-.716z"/></clipPath><clipPath id="C"><path d="M10.005 0v17.492H0V0h10.005z"/></clipPath><clipPath id="D"><path d="M3.034 3.577C7.08-.685 13.812-1.206 18.5 2.38c-2.76 2.107-4.37 5.332-4.367 8.745-.003 3.414 1.607 6.639 4.367 8.746-4.688 3.585-11.42 3.064-15.466-1.198a10.904 10.904 0 0 1 0-15.095z"/></clipPath><clipPath id="E"><path d="M.785.896H.697l-.13-.65V1H.484V0h.12l.138.688L.88 0H1v1H.915V.245l-.13.651zM.392.002V.17H.238V1H.154V.17H0V.003h.392z"/></clipPath><clipPath id="F"><path d="M12.063 1.119C16.001 2.98 18.5 6.865 18.5 11.124S16 19.268 12.063 21.13 3.442 22.502 0 19.87c2.757-2.11 4.367-5.333 4.367-8.746S2.757 4.488 0 2.378c3.442-2.631 8.126-3.12 12.063-1.26z"/></clipPath></defs><g clip-path="url(#A)"><path fill="#f7f7f7" d="M0 0h64v36H0V0z"/></g><g clip-path="url(#B)" transform="translate(19.378 27.998)"><path d="M0 0h25.22v4.002H0V0z"/></g><g clip-path="url(#C)" transform="translate(26.498 6.379)"><path fill="#7375cf" d="M0 0h10.005v17.492H0V0z"/></g><g clip-path="url(#D)" transform="translate(13 4)"><path fill="#eb001b" d="M0 0h18.5v22.249H0V0z"/></g><g clip-path="url(#E)" transform="translate(48.68 21.586)"><path fill="#00a2e5" d="M0 0h1v1H0V0z"/></g><g clip-path="url(#F)" transform="translate(31.5 4)"><path fill="#00a2e5" d="M0 0h18.5v22.249H0V0z"/></g></svg>