<svg xmlns="http://www.w3.org/2000/svg" width="64" height="36"><defs><clipPath id="A"><path d="M61.51 0A2.488 2.488 0 0 1 64 2.474v31.052A2.48 2.48 0 0 1 61.51 36H2.49A2.488 2.488 0 0 1 0 33.526V2.474A2.48 2.48 0 0 1 2.49 0h59.02z"/></clipPath><clipPath id="B"><path d="M11.255 0v18.866H0L.343 0h10.912z"/></clipPath><clipPath id="C"><path d="M3.28 3.859C7.654-.74 14.932-1.301 20 2.566 17.016 4.839 15.275 8.318 15.279 12c-.004 3.682 1.737 7.161 4.721 9.434-5.068 3.867-12.346 3.305-16.72-1.293a11.74 11.74 0 0 1 0-16.282z"/></clipPath><clipPath id="D"><path d="M13.041 1.207C17.298 3.215 20 7.406 20 12s-2.702 8.785-6.959 10.793S3.721 24.273 0 21.434C2.981 19.16 4.721 15.681 4.721 12S2.981 4.841 0 2.566c3.72-2.84 8.785-3.367 13.041-1.36z"/></clipPath></defs><g clip-path="url(#A)"><path fill="#f7f7f7" d="M0 0h64v36H0V0z"/></g><g clip-path="url(#B)" transform="translate(26.735 8.592)"><path fill="#ff5e00" d="M0 0h11.255v18.866H0V0z"/></g><g clip-path="url(#C)" transform="translate(12 6)"><path fill="#eb001b" d="M0 0h20v24H0V0z"/></g><g clip-path="url(#D)" transform="translate(32 6)"><path fill="#f79e1b" d="M0 0h20v24H0V0z"/></g></svg>