<svg xmlns="http://www.w3.org/2000/svg" xmlns:xlink="http://www.w3.org/1999/xlink" width="874.842" height="671.387" viewBox="0 0 874.842 671.387">
  <defs>
    <filter id="d" width="12.2%" height="29.3%" x="inf%" y="inf%" filterUnits="objectBoundingBox">
      <feOffset dx="10" dy="12" in="SourceAlpha" result="shadowOffsetOuter1"/>
      <feGaussianBlur in="shadowOffsetOuter1" result="shadowBlurOuter1" stdDeviation="7"/>
      <feColorMatrix in="shadowBlurOuter1" result="shadowMatrixOuter1" values="0 0 0 0 0 0 0 0 0 0 0 0 0 0 0 0 0 0 0.2 0"/>
      <feMerge>
        <feMergeNode in="shadowMatrixOuter1"/>
        <feMergeNode in="SourceGraphic"/>
      </feMerge>
    </filter>
    <filter id="e" width="109.9%" height="104.5%" x="-5%" y="-1.4%" filterUnits="objectBoundingBox">
      <feOffset dy="4" in="SourceAlpha" result="shadowOffsetOuter1"/>
      <feGaussianBlur in="shadowOffsetOuter1" result="shadowBlurOuter1" stdDeviation="3"/>
      <feColorMatrix in="shadowBlurOuter1" result="shadowMatrixOuter1" values="0 0 0 0 0 0 0 0 0 0 0 0 0 0 0 0 0 0 0.3 0"/>
      <feMerge>
        <feMergeNode in="shadowMatrixOuter1"/>
        <feMergeNode in="SourceGraphic"/>
      </feMerge>
    </filter>
    <linearGradient id="b" x1="100%" x2="-242.155%" y1="62.527%" y2="62.527%">
      <stop offset="0%" stop-color="#EDBD95"/>
      <stop offset="100%" stop-color="#3E2915"/>
    </linearGradient>
    <path id="a" d="M9.775 74.06h-8.55C.55 74.06 0 72.868 0 71.397V40.92c0-1.47.549-2.663 1.225-2.663h8.55c.676 0 1.225 1.192 1.225 2.663v30.478c0 1.471-.549 2.663-1.225 2.663m-.506-38.256H1.497c-.616 0-1.114-1.192-1.114-2.663V2.663C.383 1.193.88 0 1.497 0h7.772c.615 0 1.114 1.192 1.114 2.663V33.14c0 1.47-.499 2.663-1.114 2.663"/>
  </defs>
  <g fill="none" fill-rule="evenodd" transform="rotate(-9 416.805 92.048)">
    <g transform="rotate(-7 1540.23 94.204)">
      <path fill="#EDBD95" d="M225.178 88.06s25.658-18.857 44.831-43.623c8.073-10.429 23.274-26.79 39.064-43.865 9.468-10.24-34.946 120.207-10.788 133.567 36.29 20.07 109.494 6.972 106.127 18.715-2.007 6.998-6.24 11.466-10.061 14.29-29.324 21.67-115.037 54.036-115.037 54.036L225.178 88.06z"/>
      <path fill="#443735" d="M293.615 187.035c-3.412-6.57-11.937-9.679-11.937-9.679s6.33-1.635 4.625-5.772c-.97-2.352-5.959-2.462-10.083-2.119 1.59-2.62 3.307-6.478 1.673-9.073-1.213-1.926-3.923-1.859-6.527-1.21 1.829-3.23 3.927-7.912 2.261-10.104-1.143-1.505-3.527-2.145-5.887-2.386 1.371-7.367-5.168-15.657-9.138-23.583-4.247-8.479-22.353-18.965-25.259-30.344-2.906-11.38-5.349-13.16-8.165-13.165-2.405-.002-6.588 2.009-15.082 16.491s-50.964 50.669-50.964 50.669C51.992 209.35-1.047 244.604.016 252.52c3.209 23.915 58.605 39.8 166.186 47.654 0 0 18.047 5.175 122.8-72.868 15.328-11.42 14.574-15.246 8.686-24.606-.169-5.2-1.982-11.641-4.073-15.665z"/>
      <path fill="#CC9871" d="M287.133 107.981l11.204 8.133s-5.65 20.771-22.075 18.44c-25.162-3.573 10.871-26.573 10.871-26.573"/>
    </g>
    <g transform="rotate(-90 300.95 -.705)">
      <path fill="#24242D" d="M202.856 0c10.966 0 20.311 7.595 23.88 18.24-3.285-6.202-9.431-10.375-16.472-10.375H34.516c-10.499 0-19.01 9.279-19.01 20.725v318.595c0 11.446 8.51 20.725 19.01 20.725h175.748c5.592 0 10.62-2.632 14.097-6.822-4.505 7.795-12.453 12.97-21.506 12.97H25.428C11.384 374.058 0 361.603 0 346.239V27.82C0 12.454 11.385 0 25.428 0h177.428z"/>
      <path fill="#E6E6E6" d="M210.616 0c14.044 0 25.428 12.486 25.428 27.889V347.11c0 15.403-11.385 27.889-25.428 27.889H33.188C19.145 375 7.76 362.514 7.76 347.111V27.888C7.76 12.486 19.145 0 33.19 0h177.427zm-.352 7.865H34.516c-10.499 0-19.01 9.279-19.01 20.725v318.595c0 11.446 8.51 20.725 19.01 20.725h175.748c10.498 0 19.01-9.279 19.01-20.725V28.59c0-11.446-8.512-20.725-19.01-20.725z"/>
      <g transform="translate(230 259.8)">
        <mask id="c" fill="#fff">
          <use xlink:href="#a"/>
        </mask>
        <use fill="#E6E6E6" xlink:href="#a"/>
        <rect width="4.702" height="113.065" x="6.108" y="-32.505" fill="url(#b)" mask="url(#c)" opacity=".4" style="mix-blend-mode:luminosity"/>
      </g>
    </g>
    <g transform="rotate(-6 1081.344 -2052.5)">
      <path fill="#EDBD95" d="M5.05 129.875s22.996-42.017 23.277-53.86c.28-11.844 5.329-25.098 7.011-30.174 1.683-5.076-3.646-29.045.56-36.376C40.107 2.133 61.702-8.583 73.2 11.72c11.498 20.304-6.731 61.475-7.011 83.47-.28 21.995 17.668 71.063-8.133 93.904-24.177 21.403-67.187-31.133-53.006-59.219"/>
      <path fill="#443735" d="M37.533 186.07a6.318 6.318 0 0 1-1.308-.348c1.763-1.175 3.186-2.646 2.453-4.077-1.606-3.134-7.712-1.447-7.714-1.446.002-.004 4.03-12.706.44-13.275-1.443-.23-2.856 1.047-4.03 2.654-.676-2.801-1.232-5.557-1.765-7.898-1.987-8.739-12.751-8.912-12.751-8.912.165-7.327-7.287-23.854-10.612-24.645-3.326-.791-1.974 19.15-1.974 19.15.165 35.634 27.821 51.453 34.776 55.949 5.714 3.692 6.79-6.827 9.275-9.13 2.484-2.302.828-6.856-6.79-8.021"/>
    </g>
    <g filter="url(#e)" transform="translate(570.106 115.289)">
      <path fill="#EDBD95" d="M85.81 86.292c-3.94 4.688-9.756 11.29-12.784 20.896C70 116.793 72.69 119.995 70 123.87c-2.691 3.876-7.065 11.121-9.924 32.017-2.86 20.896 23.89 61.002 34.655 64.71 10.765 3.707 102.09 5.392 106.632-5.393 4.541-10.785 16.42-45.798 17.934-69.22 1.514-23.424-3.128-68.426-12.525-78.314-9.265-9.75-13.183-1.287-28.116-12.048-10.023-7.224-49.282-6.74-64.252 0-14.97 6.74-26.75 28.475-28.594 30.67"/>
      <path fill="#EDBD95" d="M190.102 67.802s-1.07-11.677-8.088-18.946c-7.017-7.268-17.314-6.346-25.938-5.761-8.95.607-13.925-.673-18.672 3.378-4.748 4.051-18.663 25.5-18.663 25.5l44.604 17.693 26.757-21.864z"/>
      <path fill="#CC9871" d="M188.63 60.859c1.194 3.923 1.472 6.943 1.472 6.943s.726-2.722.777-6.363c-.715-.15-1.463-.34-2.25-.58"/>
      <path fill="#EDBD95" d="M41.182 92.99c10.813 7.41 25.28-.249 31.422-10.114 6.143-9.866 17.018-25.86 17.018-25.86L45.745 33.423S41.677 43 40.468 56.14c-1.822 19.785-11.911 28.197.714 36.849"/>
      <path fill="#EDBD95" d="M91.97 35.375c4.623 13.007-2.153 27.306-15.136 31.937-12.982 4.632-27.254-2.157-31.877-15.164-4.624-13.007 2.153-27.305 15.135-31.937 12.983-4.632 27.255 2.158 31.878 15.164"/>
      <path fill="#EDBD95" d="M91.908 35.202c4.719 12.973-1.953 27.32-14.9 32.048-12.95 4.728-27.27-1.956-31.99-14.928C40.3 39.349 46.973 25 59.92 20.273c12.948-4.727 27.27 1.957 31.988 14.93m71.276 24.975c5.815 15.985-2.406 33.666-18.362 39.491-15.955 5.826-33.346 7.185-39.418-18.396-3.929-16.552 2.406-33.667 18.362-39.492 15.956-5.825 33.604 2.411 39.418 18.397"/>
      <path fill="#EDBD95" d="M65.862 18.894s7.235-1.681 20.065 2.012c12.83 3.693 15.545 9.301 27.595 12.01 12.049 2.708 39.545 1.455 48.575 24.65l-56.693 23.707s-10.607 1.633-20.644-2.74c-10.037-4.375-10.893-7.193-13.472-11.497-2.58-4.305-5.426-48.142-5.426-48.142"/>
      <path fill="#CC9871" d="M126.228 34.838c12.669 1.886 28.389 5.677 35.283 21.324l-.13-.687c-4.614-16.332-19.928-19.685-32.422-20.443-.26-.017-2.585-.242-2.73-.194"/>
      <path fill="#EDBD95" d="M13.916 61.894c7.627 10.67 23.836 8.438 32.98 1.275 9.143-7.162 24.827-18.46 24.827-18.46L38.56 7.495s-7.095 7.601-12.722 19.533C17.366 44.992 5.01 49.434 13.916 61.894"/>
      <path fill="#EDBD95" d="M81.325 25.184C81.223 38.99 69.97 50.1 56.189 49.999c-13.78-.102-24.87-11.377-24.768-25.183C31.52 11.009 42.776-.101 56.556 0c13.781.101 24.87 11.376 24.769 25.183"/>
      <path fill="#EDBD95" d="M81.325 25c0 13.806-11.171 24.999-24.952 24.999-13.781 0-24.953-11.193-24.953-25C31.42 11.194 42.592 0 56.373 0c13.78 0 24.952 11.193 24.952 25m58.433 47.915c0 17.014-13.767 30.806-30.748 30.806-16.982 0-33.786-4.688-30.749-30.806 1.966-16.9 13.767-30.806 30.749-30.806 16.981 0 30.748 13.793 30.748 30.806"/>
      <path fill="#CC9871" d="M78.261 72.915s-10.525-2.104-18.46-9.656c-7.576-7.212-7.775-10.22-8.606-14.768-.462 3.48.232 10.027 7.607 16.61 4.351 3.885 9.568 6.433 13.662 7.472 2.94.746 4.333.737 5.786.443l.011-.1zm24.931-44.209C92.797 22.028 88.696 16.455 85.445 13.52a.083.083 0 0 0-.008-.007c6.469 6.063 8.404 11.246 16.977 16.754 10.18 6.54 35.575 14.594 37.144 38.303l.2-.01c2.48-22.766-26.17-33.175-36.566-39.853"/>
      <path fill="#EDBD95" d="M62.427.742s7.373.903 18.165 8.774c10.792 7.87 11.427 14.071 21.822 20.75 10.395 6.678 36.657 14.932 37.215 39.823l-61.368 2.826s-10.525-2.104-18.46-9.656c-7.935-7.553-7.776-10.495-8.729-15.424C50.12 42.906 62.427.742 62.427.742"/>
      <path fill="#CC9871" d="M78.261 72.915a41.99 41.99 0 0 1 .922-5.137c-1.669.339-3.216 3.342-3.375 7.77-.312 8.694 1.746 17.217 8.325 20.851-4.691-4.618-7.212-11.967-5.872-23.484"/>
      <path fill="#EDBD95" d="M50.016 118.418c0 13.807-11.172 25-24.953 25-13.781 0-24.953-11.193-24.953-25 0-13.806 11.172-24.999 24.953-24.999 13.78 0 24.953 11.193 24.953 25"/>
      <path fill="#CC9871" d="M45.97 80.312c-5.082 1.724-17.23 7.474-25.901 11.656 9.45-3.92 20.607-8.888 25.304-10.482 10.794-3.66 27.975.58 21.985 22.044-1.103 3.952-3.683 7.244-7.18 9.988 4.023-2.893 7.008-6.434 8.218-10.768 5.99-21.463-11.63-26.1-22.425-22.438"/>
      <path fill="#EDBD95" d="M.743 112.801s3.43-14.531 13.562-18.499c10.132-3.968 25.365-10.88 31.068-12.815 10.794-3.661 27.975.58 21.985 22.043-6.227 22.31-59.5 23.623-59.5 23.623L.743 112.8z"/>
      <path fill="#EDBD95" d="M50.016 118.418c0 13.807-11.172 25-24.953 25-13.781 0-24.953-11.193-24.953-25 0-13.806 11.172-24.999 24.953-24.999 13.78 0 24.953 11.193 24.953 25m57.566 51.314c0 17.804-14.405 32.236-32.176 32.236-17.77 0-32.176-14.432-32.176-32.236 0-17.803 14.406-32.236 32.176-32.236 17.77 0 32.176 14.433 32.176 32.236"/>
      <path fill="#EDBD95" d="M89.115 140.562c-14.363-6.76-22.905-9.703-22.905-9.703s-4.136-6.418-8.54-9.627c-4.405-3.209-15.882-6.284-15.882-6.284H.35s-3.67 11.232 12.745 29.55c16.415 18.317 21.086 36.112 39.103 41.99 18.016 5.876 36.917-45.926 36.917-45.926"/>
      <path fill="#CC9871" d="M56.632 123.052c4.404 3.208 9.105 9.82 9.105 9.82s3.796.004 9.329 1.445c-5.697-2.37-8.856-3.458-8.856-3.458s-3.497-5.724-7.779-9.096c-5.332-4.2-11.745-5.34-15.536-5.765 2.797 1.615 10.593 4.763 13.737 7.054"/>
      <path fill="#443735" d="M107.582 156.392c-8.113-5.92-20.381 1.91-34.064-2.321s-23.987-9.816-31.251-2.37c-7.264 7.447-11.656 24.202 5.574 38.587 17.23 14.385 43.751 22.34 57.434 9.139 13.683-13.2 12.612-35.518 2.307-43.035"/>
      <path fill="#443735" d="M81.398 203.252s-9.523 3.165-12.726 1.56c-3.203-1.604 1.915-2.843 1.915-2.843s-10.847.834-12.65-2.095c-1.801-2.928 3.442-2.84 3.442-2.84l-20.22-15.844s-.496-.726-1.406-1.73c-.909-1.002 1.407-1.479 1.407-1.479l11.811-10.273 28.427 35.544zm49.882-101.728c24.68-17.593 80.25 1.01 87.349 13.72 7.098 12.71 1.788 53.949-4.896 72.257-6.685 18.31-12.71 35.335-9.489 60.266 3.223 24.93-21.125 43.046-61.943 45.916-40.818 2.87-69.929-13.147-59.724-72.515 3.399-19.773 13.727-40.468 19.085-55.728 10.732-30.558 15.582-53.91 29.618-63.916"/>
      <path fill="#443735" d="M80.526 242.775s.853-11.388-3.818-15.666c-4.67-4.28.668-6.384 5.339-2.658 0 0-10.277-8.04-8.542-12.05 1.735-4.011 7.74 0 7.74 0s-7.873-9.36-4.803-13.237c3.07-3.877 11.185 2.805 11.185 2.805l10.168-40.51s-4.271-9.36-1.068-11.632c3.203-2.273 8.468 5.242 8.468 5.242s-1.437-22.758 2.387-24.63c3.825-1.871 5.217 1.852 5.217 1.852s6.509-10.172 11.684-17.53c3.074-4.37 5.608-1.651 5.608-1.651l20.018-14.76s3.44-.93 5.676-1.144c2.235-.214 0 6.077 0 6.077s7.473-4.152 10.009-3.216c2.536.936.955 3.665.955 3.665l14.722-.033 25.835 2.511s-4.294.432-1.892 1.635c2.402 1.204 1.273 8.25 1.273 8.25s4.6-.724 6.734.795c2.135 1.518-1.72 3.243-1.72 3.243s4.79-1.725 5.857.681c1.068 2.407-1.868 8.178-1.868 8.178l-61.269 37.184-59.562 84.465-14.333-7.866z"/>
      <path fill="#443735" d="M84.838 256.759c-7.792 89.83-6.232 155.094 4.682 195.791 10.914 40.698 53.29 45.653 127.127 14.864 4.798-49.844.469-121.114-12.988-213.811-13.457-92.698-53.064-91.646-118.82 3.156z"/>
    </g>
  </g>
</svg>
