<svg xmlns="http://www.w3.org/2000/svg" width="277" height="101"><g fill="none" fill-rule="evenodd" class="symbols"><g class="symbols__parcelforce"><path fill="#DE1E2C" class="symbols__parcelforce__rectangle" d="M0 .6h277v100H0z"/><g fill-rule="nonzero" class="symbols__parcelforce__group"><path fill="#FFF" d="M209.8 82.1c-11.8-4.7-24.2-8.5-37.1-11.5 10.8.9 24.4 2.6 39.1 7.6.3.6.4 1.1.3 1.4-.2.9-1 1.7-2.3 2.5m-10.8 3c-9-5.3-18.2-9.8-27.5-13.6 12.9 2.9 25.2 6.7 36.9 11.3-2.2 1-5.5 1.8-9.4 2.3m-14.4.5c-5.3-5.3-10.8-10-16.3-14.1 9.7 3.8 19.3 8.3 28.6 13.7-3.5.4-7.7.6-12.3.4m-15-1.4c-1.3-4.9-2.7-9.3-4.2-13.3 5.9 4.1 11.8 9 17.5 14.6-4.2-.2-8.6-.6-13.3-1.3m-8-1.5c-2.5-.5-4.9-1.1-7.3-1.7 3.3-4.1 6.5-7.6 9.5-10.6 1.6 4 2.9 8.5 4.3 13.6-2.1-.4-4.2-.8-6.5-1.3m-8.6-2.1c-4.5-1.2-8.6-2.6-12.5-4.1 7.5-2.8 14.8-4.9 21.8-6.3-2.9 3-6.2 6.5-9.3 10.4m-25.2-9.9c10.6-1.1 21.1-1.5 31.5-1-6.7 1.5-13.5 3.5-20.5 6.2-4.1-1.7-7.8-3.4-11-5.2m-9-6.6c12.4.5 24.9 1.9 37.5 4.3-9.9-.3-20.1.2-30.2 1.3-3.2-2-5.7-3.9-7.3-5.6M85.3 78c-2.3-3.8-3.3-7.6-2.5-11 .1-.5.3-1 .6-1.6 11.1-1.3 22.4-1.8 33.9-1.5 1.4 1.8 3.8 3.8 7 5.9-13.1 1.7-26.1 4.4-39 8.2m-36.8-6.8c1.8-1.4 4.2-2.8 7.4-3.9 10-3.2 20.2-5.7 30.6-7.5-1.7 1.3-3.2 3-4.1 4.6-11.5 1.4-22.9 3.6-33.9 6.8m-3 .8c-4.3 1.3-8.5 2.7-12.7 4.2 5-2.3 10-4.4 15.1-6.2-1 .7-1.8 1.3-2.4 2m62.6-14.7c2.5.1 5.3.3 8.3.7-.4.4-.7.9-.8 1.4-.2 1 .1 2.2.8 3.5-10.9-.3-21.7.2-32.3 1.4 1.4-2.2 3.6-4.4 6.2-5 5.8-1 11.8-1.7 17.8-2m8.6 2.3c.1-.4.5-.9 1.2-1.4 11.9 1.7 26 5.3 36.7 8.6-12.3-2.2-24.6-3.6-36.8-3.9l-.3-.3c-.7-1.2-1-2.2-.8-3m4.9-2.8c5 0 10.1.2 15.1.5 7.1 1.8 15.4 5.4 22.7 9.7-10.7-3.5-26.4-7.8-39.8-9.8.6-.1 1.3-.3 2-.4m37.1 3.2c1.5 2.2 3.1 5.6 4 7.7-6.4-4.1-13.7-7.6-20.5-9.9 5.5.5 11 1.3 16.5 2.2m7.1 1.4c1.8.4 3.7.8 5.5 1.2-2.6 1.9-5.7 4.5-7 5.7-.7-1.6-2.4-5.3-4-8 1.8.3 3.7.7 5.5 1.1m22.7 6c-6.9-.6-14.8-.2-22.5 1 1.7-1.5 4.6-4 6.9-5.4 5.2 1.3 10.5 2.8 15.6 4.4m18.9 7.2c1.2.6 2.2 1.2 2.9 1.8-15.6-5.1-29.8-6.4-40.7-7.3 8.4-1.1 16.8-1.2 23.8-.1 4.7 1.7 9.3 3.6 14 5.6m24.8 12.7c3.6 2.2 7.2 4.5 10.7 6.9h2.1c-23.7-16.6-50.1-28-78.9-34-36.5-7.6-73.8-5.6-108.5 5.2-.4.1-.8.3-1.2.4-12.7 4.1-25 9.3-36.8 15.7h-.1C12.9 85.1 6.4 89 .1 93.4v.8h1C7.2 90 13.6 86.1 20 82.6c7.8-3.5 15.9-6.4 24.1-8.9-1.6 2.1-2.3 4.3-2.8 6.5-.9 4.4-.5 9.1 1.3 14.1h1.6c-1.9-4.9-2.3-9.5-1.4-13.7.5-2.4 1.5-5.1 3.8-7.6 11.5-3.4 23.3-5.8 35.2-7.3-.2.4-.3.8-.4 1.1-.8 3.7.1 7.6 2.5 11.7-13.5 4.1-26.8 9.4-39.7 15.8h2.7c12.3-5.9 24.9-10.9 37.6-14.7 3.2 4.9 8.5 9.9 15.7 14.7h2.6c-7.8-5-13.6-10.1-16.9-15.1 13.2-3.9 26.6-6.6 39.9-8.2 3.2 1.9 7 3.8 11.4 5.6-11.2 4.4-22.8 10.3-34.3 17.7h2.4c11.3-7.1 22.6-12.8 33.6-17 4.1 1.6 8.5 3.1 13.4 4.5-3 3.8-6.2 8-9.3 12.6h1.9c3.1-4.5 5.9-8.5 8.8-12.2 2.5.7 5.1 1.3 7.8 1.9 2.4.5 4.7.9 7.1 1.3.7 2.8 1.3 5.9 2 9h1.7c-.6-3.1-1.6-6-2.3-8.8 4.9.7 9.7 1.2 14.2 1.4 2.4 2.4 4.7 4.9 7 7.5h1.6c-2.3-2.6-4.6-5.1-6.9-7.4 4.7.1 9.1 0 12.9-.5 4.2 2.5 8.3 5.1 12.5 7.9h2.1c-4.2-2.9-8.4-5.6-12.7-8.2 3.9-.6 7.1-1.5 9.3-2.7 8 3.2 15.7 6.8 23.1 10.8h2.5c-7.8-4.3-16-8.2-24.4-11.6 1.1-.8 1.8-1.8 2.1-2.8.1-.3.1-.7 0-1.1 4.6 1.6 9.3 3.6 14 6-.1-.3 3.8 1.8 4.9 2.4M58 27.1l3.1-5.3h1.8s1.5.1 1.2 1.6c-.1.3-.3.8-.5 1.2-.6 1.1-1.9 2.1-3 2.4h-.2c-1 .2-2.4.1-2.4.1m-1.2 2.1s2.5.1 4.1-.3c1.7-.5 3.8-2.1 4.7-3.8.3-.6 1.1-2.1.6-3.7-.5-1.9-2.4-1.7-2.4-1.7l-4.2.2-8.3 14.2 2.3.1h.3l2.9-5" class="symbols__parcelforce__group__shape"/><path fill="#FFF" class="symbols__parcelforce__group__path" d="M209.9 58.4l.1-.7-2.2-.3-1.6-.1.9-8.3.1-.8-1.8-.1-1.3 10.8 1.7.1 4 .4z"/><path fill="#FFF" d="M171.5 26.3c1.4-4.7 4.9-7.8 10.5-8 3.5-.1 5.4 1.6 6.3 3.7.9 2.1.8 4.6.4 6.2-.6 2.2-3.1 7.2-10.2 7.4-1.9.1-3.7-.3-5-1.3-2.1-1.3-3.2-3.9-2-8m6.9 13.9c11.3-.9 14.4-6.9 15.7-13.1.5-2.3.1-4.9-1-7.1-1.7-3.2-5.2-5.6-10.7-5.4-4.8.2-8.5 2.3-11 4.8-.8.7-1.4 1.5-2 2.2-1.1 1.5-1.8 3-2.2 4-.2.6-.3 1.1-.4 1.6-.3 1.4-.4 2.6-.4 3.7.1 2.9 1.4 5.1 3.1 6.6 2.5 2.1 5.9 2.9 8.9 2.7" class="symbols__parcelforce__group__shape"/><path fill="#FFF" class="symbols__parcelforce__group__path" d="M158.4 28.5h7l.3-1.3.7-2.4h-7l1.5-5.4 7.6-.3.3-.9.6-2.5-12 .4-3.7 13.1-.2.8-2.4 8.6 2.9.1 1.5.1zm-41.8-8.8l.8-2-3.4.1-.9 2.1-1.1 2.8-1.9 4.4-1.2 2.8-2.2 5.4-.5 1.3h1.3l1.5.1 7.4.3.5-1.3.7-2-3.5-.2-2.8-.1zm-11.1 15.5l.8-1.9-3.4-.1-2.6-.1 2.4-5.2h5.1l.3-.8.8-2h-5.1l1.9-4.3 5.6-.2.3-.7.9-2.1-9 .4-8.1 17.9 1.6.1h1l7 .3zm-10.7.1l.2-.4 1.3-3.1c-2.8 1.4-4.6 1.5-5.7 1.1-1.2-.4-1.7-1.4-1.8-2.1-.3-1.2.5-3.4 2-5.5.5-.7 1.2-1.4 1.9-2.1l.1-.1.6-.6c.4-.3.7-.5 1-.7 3.9-2.3 6.3.6 6.3.6l1-2.2.4-.9c-.8-1.2-6.3-2.6-11.3 1.9-.5.5-1 1-1.5 1.6-1.8 2.2-3.4 5-3.8 7.3-.1.7-.2 1.4-.1 2 .4 2 1.3 3.1 2.4 3.7 2.8 1.5 7-.5 7-.5"/><path fill="#FFF" class="symbols__parcelforce__group__path" d="M125 27.6l-.2-.4 4.2-3.4-12.3 3.1-1.8.4 1.4.5 3.3 1.1 7 2.4zm13.1-5.2l.1-.9L140 6.6l-9 15.5 4.6-3.6.5.7 1.2 1.9zm-5.8 11.8l-2.3 1.7-.8.6-.2-.3-1.5-3-.4-.9-.1.7-2.6 16.5 3.4-5.8 6.7-11.1zm20.7-6.9l-12.7-3.5-.8-.2-.9-.3 2.3 4.1-2 1.7-3.1 2.5 1.9-.5 5.2-1.3 6.8-1.7zm90.1 11.4l.1 4h.6l1.9.1 17 .8-.1-2.1-.2-3.2-10.4-.4-2.5-.1-.2-8.5 11.1.1-.3-5H249l-.1-7 11.3-.3-.1-1.6-.2-3.3-17 .6v4.6l.1 5.2z"/><path fill="#FFF" class="symbols__parcelforce__group__path" d="M131.6 26.6l2.6-4.3-5.7 4.4-.7.5z"/><path fill="#FFF" d="M70 28.2h-3.1l4.6-5.6-1.5 5.6zm4-7.2l.4-1.7-3 .1-3.5 4.2-5.6 6.9-.2.2-3.1 3.8 2.6.1h.3l3.2-4.1 4.3.2-.4 1.6-.6 2.7 1.8.1h.9L74 21m6.6 6c-1.3.3-2.4.2-2.5.1l3-5.7 2.4-.1c1.4.2 1.6.9 1.5 1.8-.2.9-.8 1.9-1.2 2.3-1 1-2.2 1.4-3.2 1.6m.4 2.3c4.7-.7 6.2-4.4 6.6-5.7.4-1.1.4-2 .2-2.6-.5-2.2-3.4-2.1-3.4-2.1l-4.9.2L71.2 35l1.5.1h1.2l4.1-7.9 1.7 8.2h1.2l1.9.1-1.8-6.2" class="symbols__parcelforce__group__shape"/><path fill="#FFF" d="M216.1 31.2c.5 2.4 1.9 4.7 3.9 6.7 4.6 4.5 12.6 7 21.2 3v-5.8c-1.3.9-4.8 2.3-8 2.3-3.2.1-6.1-.9-8.3-2.7-2-1.7-3.3-4.1-3.7-7-.6-5.1 5.1-9.1 7.5-9.8 7.3-2.1 12.2 1.7 12.2 1.7v-5.2c-.8-.6-6.1-1.8-9.7-1.6-2.1.1-9.5 1.5-13.2 7.5-1.4 2.3-2.3 5.2-2.2 9 0 .7.1 1.3.3 1.9m-22.9 9.2l3.9.2 1.4.1 2.9-22.2s3.6-.2 5.3-.2c1.3 0 2.9 1 3.4 2.8.1.5.2 1.1.1 1.7-.6 3.1-3.6 4.3-6.1 4.7-2 .3-3.8.2-3.8.2l3.1 4.7 5.8 8.7 1.7.1 4.9.2-7.7-10.5c4.1-1.6 6.9-3.8 7.4-7.4.4-2.8-.1-4.7-1-6.1-2.3-3.6-7.2-3.3-7.2-3.3l-10.5.4-3 21.6-.6 4.3M264 64.2l-.1-1.3-4.4-.4-1.7-.2-.2-3.8 5.8.5-.1-.6v-1.3l-4.1-.3-1.7-.2-.2-3.3 6.2.4v-.6l-.1-1.3-8.1-.5.5 12.9 1.8.1 6.5.7z" class="symbols__parcelforce__group__path"/><path fill="#FFF" d="M245.6 61.2l-.1-8.6h.3c2.2.1 3.4.5 4.3 1.3l.6.6c.5.6.8 1.5.9 2.7.1 1.7-.5 2.6-1.4 3.3-.4.3-1.1.8-2.8.9-.4 0-.9 0-1.4-.1 0-.1-.2-.1-.4-.1m7.8-3.8c0-2.1-.7-3.6-1.7-4.6-1.5-1.5-3.8-2-5.4-2.1l-2.9-.2.1 12.4 1.8.2.8.1c2.7.2 7.3-.7 7.3-5.8" class="symbols__parcelforce__group__shape"/><path fill="#FFF" class="symbols__parcelforce__group__path" d="M241 51.5v-1.2l-1.9-.1v12.2l1.7.2h.3zm-58.3-5l-2-.1-1.9 3.7-.8 1.5-1-3.8-.5-2-2.6 4.3-.9 1.6-1.1-5.3-.1-.5-1.8-.1 2.2 9.8 3.6-5.6 1.6 6.2 4.9-9z"/><path fill="#FFF" d="M184.7 54.4c-.6-.7-.8-1.5-.6-2.4.2-1 .6-1.8 1.4-2.4.8-.7 1.7-1 2.7-1 .9 0 1.6.3 2.1.8.1.1.2.1.2.2.6.7.8 1.5.6 2.5-.1 1-.6 1.8-1.4 2.4-.8.6-1.7.9-2.7.9-.3 0-.6-.1-.8-.1-.5-.1-1-.4-1.5-.9m6.3 1.5c1.2-.9 1.9-2.2 2-3.6.2-1.4-.2-2.7-1.1-3.7l-.6-.6c-.8-.7-1.8-1-2.9-1-1.4 0-2.7.5-3.9 1.4-1.2 1-1.9 2.1-2.2 3.5-.2 1.4.1 2.7 1 3.7.5.6 1.1 1 1.9 1.2.5.2 1.1.3 1.7.3 1.5.1 2.9-.3 4.1-1.2" class="symbols__parcelforce__group__shape"/><path fill="#FFF" d="M199.6 54.4c1.5-.3 2.4-1.4 2.6-3.1.1-1.1-.1-1.9-.7-2.6-.6-.7-1.5-1.1-2.7-1.1l-3.3-.2-1.3 10.5 1.4.1h.4l1.2-8.8 1.8.1c.7 0 1.2.3 1.4.9.1.3.2.6.1 1-.2 1.2-1.4 1.5-2.4 1.5-.7 0-1.3-.1-1.3-.1l1.1 1.9 2.1 3.8.8.1 1.4.1-2.6-4.1" class="symbols__parcelforce__group__path"/><path fill="#FFF" d="M214.4 50.4h.6c1.2.1 2.8.3 3.8 1.4.5.6.9 1.5.8 2.7-.3 3-2.2 3.6-4.2 3.5-.3 0-.7 0-1-.1l-.6-.1.6-7.4zm6.9 4.4c.2-2.1-.5-3.5-1.5-4.4-1.3-1.2-3.1-1.6-4.6-1.7l-2.6-.2-1 11.1 1.6.2.8.1c2.8.3 6.9-.1 7.3-5.1" class="symbols__parcelforce__group__shape"/><path fill="#FFF" class="symbols__parcelforce__group__path" d="M236.9 50.1L235 50l-2.1 5.4-.7 1.5-1.9-5.5-.8-2.1-3.1 7.1-2-6.1-.3-1-2-.2 4 12.1.7-1.5 2.5-5.9.9 2.6 1.9 5.5.6-1.6 3.8-9.1z"/><path fill="#9EABD3" class="symbols__parcelforce__group__path" d="M130.8 31.3l.8-4.7-3.8.6.5 1.1 2.3 4.3z"/><path fill="#9EABD3" class="symbols__parcelforce__group__path" d="M133.2 26.9l4 .7-1.5-2.7-1-1.7-.5-.8v-.1l-2.6 4.3z"/><path fill="#004A97" class="symbols__parcelforce__group__path" d="M131.6 26.6l-.8 4.7-.2 1.3.6-.5 6-4.5-4-.7z"/></g></g></g></svg>