<svg xmlns="http://www.w3.org/2000/svg" width="64" height="36"><defs><clipPath id="A"><path d="M61.51 0A2.488 2.488 0 0 1 64 2.474v31.052A2.48 2.48 0 0 1 61.51 36H2.49A2.488 2.488 0 0 1 0 33.526V2.474A2.48 2.48 0 0 1 2.49 0h59.02z"/></clipPath><clipPath id="B"><path d="M3.83 0c.832 0 1.458.254 1.81.735.322.438.428 1.064.317 1.86-.246 1.819-1.19 2.737-2.826 2.737h-.786c-.17 0-.314.143-.34.338l-.271 1.992c-.027.195-.171.338-.341.338H.207C.08 8-.017 7.869.003 7.723L1.007.338c.026-.195.17-.338.34-.338zm-.775 1.599h-.32c-.102 0-.189.085-.204.202l-.263 1.93h.479c.624-.003 1.242-.055 1.37-1.034.05-.363.01-.626-.12-.802-.219-.297-.642-.297-1.09-.297z"/></clipPath><clipPath id="C"><path d="M2.769 0c.59 0 1.18.13 1.445.517l.085.125.055-.345a.214.214 0 0 1 .21-.181h1.224c.13 0 .23.118.21.248l-.662 4.219a.356.356 0 0 1-.351.302H3.883a.214.214 0 0 1-.21-.248l.054-.343S3.123 5 2.034 5C1.399 5 .865 4.816.492 4.373.086 3.89-.08 3.2.037 2.479.262 1.032 1.417 0 2.769 0zm.29 1.307c-.697 0-1.261.489-1.371 1.187-.058.342.01.65.192.866s.466.332.821.332c.708 0 1.263-.472 1.381-1.177.053-.34-.02-.65-.207-.872s-.469-.336-.816-.336z"/></clipPath><clipPath id="D"><path d="M1.442 0c.16 0 .3.113.346.277l.73 2.63L4.237.171A.355.355 0 0 1 4.536 0h1.248c.174 0 .276.212.177.366L1.812 6.833A.353.353 0 0 1 1.516 7H.27c-.175 0-.278-.213-.176-.368l1.292-1.97L.012.31C-.036.157.068 0 .217 0z"/></clipPath><clipPath id="E"><path d="M3.831 0c.831 0 1.457.254 1.81.735.32.438.428 1.064.316 1.86-.247 1.819-1.19 2.737-2.826 2.737h-.786c-.17 0-.315.143-.34.338l-.286 2.093C1.701 7.9 1.6 8 1.481 8H.207C.08 8-.017 7.869.003 7.723L1.007.338c.026-.195.17-.338.34-.338zm-.775 1.599h-.32c-.102 0-.189.085-.204.202l-.264 1.93h.479c.624-.003 1.242-.055 1.37-1.034.05-.363.01-.626-.12-.802-.218-.297-.642-.297-1.09-.297z"/></clipPath><clipPath id="F"><path d="M2.768 0c.59 0 1.18.13 1.445.517L4.3.642l.054-.345a.212.212 0 0 1 .21-.181h1.223c.131 0 .232.118.211.248l-.661 4.219a.356.356 0 0 1-.35.302H3.882a.214.214 0 0 1-.21-.248l.054-.343S3.123 5 2.033 5C1.398 5 .866 4.816.492 4.373.085 3.89-.08 3.2.037 2.479.26 1.032 1.416 0 2.768 0zm.29 1.307c-.697 0-1.26.489-1.372 1.187-.057.342.011.65.192.866s.467.332.822.332c.708 0 1.263-.472 1.38-1.177.055-.34-.02-.65-.206-.872s-.469-.336-.817-.336z"/></clipPath><clipPath id="G"><path d="M2.76 0a.24.24 0 0 1 .237.278L1.828 7.662A.4.4 0 0 1 1.432 8H.24a.24.24 0 0 1-.237-.277L1.188.203A.241.241 0 0 1 1.425 0z"/></clipPath><clipPath id="H"><path d="M5.195 0C6.39 0 7.212.253 7.642.754c.201.234.33.48.392.75.065.282.066.62.002 1.033l-.004.03v.265l.201.116a1.4 1.4 0 0 1 .408.318c.173.2.284.455.332.757.048.311.032.681-.048 1.1-.092.482-.24.901-.441 1.245a2.55 2.55 0 0 1-.7.782 2.81 2.81 0 0 1-.941.433c-.347.093-.69 0-1.125 0h-.346c-.2 0-.38.213-.532.345a.869.869 0 0 0-.286.519l-.02.117-.355 2.29-.016.083c-.004.027-.011.04-.022.05a.059.059 0 0 1-.037.013H2.377l.2-1.299-.446-.01H0L1.481.104A.127.127 0 0 1 1.523.03.12.12 0 0 1 1.602 0h3.593z"/></clipPath><clipPath id="I"><path d="M6.957 0c.216.111.402.247.551.412.494.545.59 1.32.404 2.248-.447 2.221-1.974 2.989-3.926 2.989h-.301a.48.48 0 0 0-.479.396l-.024.128-.38 2.332-.019.1A.48.48 0 0 1 2.304 9H.29a.285.285 0 0 1-.286-.325l.164-1.013.582-3.573a.546.546 0 0 1 .545-.453H2.43c2.23 0 3.977-.877 4.487-3.416l.04-.22z"/></clipPath><clipPath id="J"><path d="M5.676 0C6.93 0 7.911.28 8.454.933c.492.593.636 1.248.494 2.21a2.525 2.525 0 0 0-.503-.21 3.625 3.625 0 0 0-.467-.11 5.624 5.624 0 0 0-.942-.073H4.182a.435.435 0 0 0-.197.047.477.477 0 0 0-.253.36l-.607 4.06L2.561 11H.312c-.191 0-.338-.181-.308-.382L1.52.465A.53.53 0 0 1 2.035 0z"/></clipPath><clipPath id="K"><path d="M4.055 0c.347 0 .672.02.968.063a4.909 4.909 0 0 1 .48.096l.11.03c.145.044.28.095.405.154l-.056.512C5.468 3.125 3.78 3.91 1.625 3.91H.527c-.264 0-.486.172-.527.405l.018-.103L.642.67C.666.529.785.1.92.04A.51.51 0 0 1 1.123 0z"/></clipPath></defs><g clip-path="url(#A)"><path fill="#f7f7f7" d="M0 0h64v36H0V0z"/></g><g clip-path="url(#B)" transform="translate(23 14)"><path fill="#253b80" d="M0 0h6v8H0V0z"/></g><g clip-path="url(#C)" transform="translate(28.5 17)"><path fill="#253b80" d="M0 0h6v5H0V0z"/></g><g clip-path="url(#D)" transform="translate(35 17)"><path fill="#253b80" d="M0 0h6v7H0V0z"/></g><g clip-path="url(#E)" transform="translate(41 14)"><path fill="#169bd7" d="M0 0h6v8H0V0z"/></g><g clip-path="url(#F)" transform="translate(46.5 17)"><path fill="#169bd7" d="M0 0h6v5H0V0z"/></g><g clip-path="url(#G)" transform="translate(52.5 14)"><path fill="#169bd7" d="M0 0h3v8H0V0z"/></g><g clip-path="url(#H)" transform="translate(9 12)"><path fill="#253b80" d="M0 0h9v11H0V0z"/></g><g clip-path="url(#I)" transform="translate(11 14)"><path fill="#169bd7" d="M0 0h8v9H0V0z"/></g><g clip-path="url(#J)" transform="translate(9 11)"><path fill="#253b80" d="M0 0h9v11H0V0z"/></g><g clip-path="url(#K)" transform="translate(12 13.685)"><path fill="#212c65" d="M0 0h6.018v4.315H0V0z"/></g></svg>