<svg xmlns="http://www.w3.org/2000/svg" width="298" height="72"><defs><linearGradient id="a" x1="90.408%" x2="20.629%" y1="80.412%" y2="35.806%"><stop offset="0%" stop-color="#00C8F4"/><stop offset="65.974%" stop-color="#8891C6"/><stop offset="100%" stop-color="#D481B7"/></linearGradient><linearGradient id="b" x1="62.046%" x2="21.919%" y1="80.533%" y2="-7.305%"><stop offset="0%" stop-color="#00C8F4"/><stop offset="55.602%" stop-color="#8891C6"/><stop offset="100%" stop-color="#D481B7"/></linearGradient><linearGradient id="c" x1="61.671%" x2="24.356%" y1="80.533%" y2="6.394%"><stop offset="0%" stop-color="#00C8F4"/><stop offset="61.793%" stop-color="#8891C6"/><stop offset="100%" stop-color="#D481B7"/></linearGradient><linearGradient id="d" x1="67.932%" x2="46.551%" y1="89.612%" y2="35.749%"><stop offset="0%" stop-color="#00C8F4"/><stop offset="38.658%" stop-color="#8891C6"/><stop offset="100%" stop-color="#D481B7"/></linearGradient><linearGradient id="e" x1="63.99%" x2="47.052%" y1="100%" y2="35.749%"><stop offset="0%" stop-color="#00C8F4"/><stop offset="38.658%" stop-color="#8891C6"/><stop offset="100%" stop-color="#D481B7"/></linearGradient><linearGradient id="f" x1="65.51%" x2="43.945%" y1="115.466%" y2="28.128%"><stop offset="0%" stop-color="#00C8F4"/><stop offset="44.283%" stop-color="#968EC3"/><stop offset="100%" stop-color="#D481B7"/></linearGradient></defs><g fill="none" fill-rule="evenodd" class="symbols"><g fill-rule="nonzero" class="symbols__pitney-bowes"><path fill="#616161" d="M201.088 44.991c1.257.897 3.407 1.45 5.64 1.45 4.658 0 7.444-2.385 7.444-6.26 0-3.043-1.609-4.606-5.956-6.052-2.896-.938-4.11-1.836-4.11-3.244 0-1.796 1.532-2.698 3.757-2.698 2 0 3.917.509 5.642 1.563v-2.696c-1.14-.86-3.526-1.485-5.561-1.485-4.309 0-6.932 1.993-6.932 5.394 0 2.619 1.529 4.457 5.207 5.665 3.523 1.135 4.856 1.878 4.856 3.791 0 2.069-1.644 3.364-4.347 3.364-2.158 0-4.424-.625-5.64-1.526v2.734zm-17.604-10.862c.353-3.637 2.307-5.903 5.793-5.903 3.567 0 5.364 1.953 5.483 5.903h-11.276zm13.898 8.243c-1.565.784-4.073 1.331-6.5 1.331-4.857 0-7.32-2.303-7.518-6.957h14.41l.118-2.073c0-5.629-2.86-9.106-8.38-9.106-6.187 0-9.321 4.535-9.321 10.476 0 6.682 3.526 10.397 10.298 10.397 2.703 0 5.289-.472 6.891-1.406v-2.662h.002zm-24.438 3.597l5.755-19.932h-3.094l-4.148 15.673-4.623-15.673h-3.447l-4.58 15.866-4.111-15.866h-3.367l5.752 19.932h3.253l4.777-15.833 4.58 15.833h3.253zm-32.462-2.266c-3.994 0-6.229-3.046-6.229-7.66 0-4.691 2.235-7.74 6.229-7.74 3.993 0 6.225 3.049 6.225 7.66 0 4.694-2.27 7.74-6.225 7.74zm0 2.739c6.341 0 9.515-4.617 9.515-10.438 0-5.865-2.742-10.434-9.516-10.434-6.343 0-9.516 4.61-9.516 10.434-.002 5.863 2.743 10.438 9.517 10.438zm-27.288-17.08c1.41-.744 2.859-1.06 4.737-1.06 4.308 0 6.776 2.854 6.776 7.076 0 5.357-2.937 8.325-8.066 8.325-1.41 0-2.388-.157-3.445-.547V29.363l-.002-.002zm3.17 17.078c7.244 0 11.628-4.026 11.628-11.101 0-6.099-3.758-9.772-9.75-9.772a12.473 12.473 0 00-5.05 1.02V16.62h-3.134v28.76M90.533 56.09l3.8-10.122 7.947-19.932h-3.444l-6.068 16.298-5.955-16.298h-3.561L91.2 45.969l-3.838 10.122h3.172-.001zM67.11 34.129c.35-3.637 2.31-5.903 5.797-5.903 3.563 0 5.366 1.953 5.482 5.903H67.11zm13.901 8.243c-1.566.784-4.073 1.331-6.5 1.331-4.857 0-7.323-2.303-7.518-6.957h14.41l.118-2.073c0-5.629-2.86-9.106-8.38-9.106-6.188 0-9.32 4.535-9.32 10.476 0 6.682 3.524 10.397 10.298 10.397 2.704 0 5.287-.472 6.892-1.406v-2.662h.002-.002zM60.452 45.97V32.916c0-5.626-3.408-7.347-7.752-7.347-2.937 0-6.423.743-8.967 1.68v18.72h3.134V29.284c1.292-.509 3.328-.9 5.09-.9 3.64 0 5.363 1.251 5.363 5.627v11.96h3.134v-.002h-.002zm-19.734-2.734a12.03 12.03 0 01-3.526.506c-1.41 0-2.468-.39-2.468-2.969V28.657h5.247v-2.62h-5.247v-4.923h-3.092v4.923h-3.33v2.619h3.33v12.702c0 3.594 1.877 5.082 4.816 5.082 1.642 0 3.053-.233 4.269-.703v-2.503l.001.001zm-17.37-20.949a2.023 2.023 0 002.038-2.032c0-1.135-.9-2.073-2.037-2.073a2.068 2.068 0 00-2.076 2.073c0 1.135.9 2.032 2.076 2.032zm1.528 3.75h-3.13V45.97h3.13V26.037zm-21.743 3.52c1.33-.86 2.858-1.253 4.74-1.253 4.306 0 6.773 2.853 6.773 7.075 0 5.357-2.937 8.325-8.106 8.325-1.411 0-2.389-.157-3.407-.547v-13.6H3.13h.002zm0 26.535V46.006c1.06.287 2.152.433 3.25.434 7.127 0 11.55-4.026 11.55-11.101 0-6.057-3.798-9.772-9.748-9.772-2.82 0-5.755.86-8.185 2.891v27.633h3.134-.001z" class="symbols__pitney-bowes__shape"/><path fill="#4F69B3" d="M268.998 28.941a9.92 9.92 0 00-7.067-2.912c-3.616 0-7.706 1.847-7.924 3.554-.033.266-.014 1.787-.014 1.787v29.109c0 1.13.735 1.666 1.881 1.666 1.074 0 1.88-.503 1.88-1.666V31.172c1.107-.997 2.572-1.405 4.173-1.405 3.444 0 6.243 2.8 6.243 6.236 0 3.437-2.799 6.226-6.243 6.229l-.367.006c-.99 0-1.581.728-1.581 1.87 0 1.124.591 1.861 1.581 1.861.069 0 .295.017.367.017a9.905 9.905 0 007.07-2.932 9.909 9.909 0 002.932-7.05 9.939 9.939 0 00-2.932-7.061l.001-.002z" class="symbols__pitney-bowes__path"/><path d="M261.924 0c-19.918 0-36.073 16.122-36.073 36.006S242.006 72 261.924 72C281.85 72 298 55.881 298 36.006S281.853 0 261.924 0z" class="symbols__pitney-bowes__path"/><path d="M261.924 71.17c-19.459 0-35.236-15.748-35.236-35.169 0-19.42 15.777-35.168 35.236-35.168 19.458 0 35.242 15.743 35.242 35.168 0 19.426-15.78 35.169-35.242 35.169z" class="symbols__pitney-bowes__path"/><path fill="url(#a)" d="M259.98 5.25c0-.376.198-.599.51-.599.477-.02.955-.031 1.434-.031 17.366 0 31.447 14.038 31.447 31.38 0 17.332-14.08 31.382-31.447 31.382-17.367 0-31.44-14.05-31.44-31.382 0-13.522 8.554-25.027 20.555-29.45.292-.113.557.04.675.377.129.335.031.624-.27.738-11.538 4.256-19.767 15.333-19.767 28.334 0 16.674 13.544 30.19 30.247 30.19 16.7.002 30.242-13.514 30.25-30.192 0-16.688-13.543-30.2-30.252-30.2-.479 0-.964.01-1.443.03-.316.001-.5-.223-.5-.578h.001z" class="symbols__pitney-bowes__path"/><path fill="url(#b)" d="M261.039 55.144c.295.01.59.014.886.014 10.604 0 19.194-8.576 19.194-19.155-.009-10.581-8.599-19.155-19.194-19.158-.247 0-.638.003-.886.014-.668 0-1.059-.494-1.059-1.255 0-.761.39-1.256 1.059-1.256.278-.009.606-.015.886-.015 11.987 0 21.706 9.698 21.716 21.668-.011 11.97-9.73 21.667-21.716 21.666a27.08 27.08 0 01-.886-.02c-.668 0-1.059-.497-1.059-1.253 0-.765.39-1.253 1.059-1.253v.003z" class="symbols__pitney-bowes__path"/><path fill="url(#c)" d="M261.925 60.806c13.722.003 24.85-11.1 24.856-24.803.006-13.703-11.125-24.815-24.856-24.815l-1.127.02c-.51 0-.818-.372-.818-.965 0-.594.306-.968.818-.968.375-.013.751-.02 1.127-.02 14.806 0 26.804 11.97 26.804 26.75 0 14.768-11.998 26.744-26.804 26.744-.376 0-.752-.009-1.127-.026-.512 0-.818-.368-.818-.967 0-.6.303-.966.818-.966l1.127.018v-.002z" class="symbols__pitney-bowes__path"/><path fill="url(#d)" d="M251.341 58.452c.463.22.535.697.29 1.226-.247.53-.652.748-1.117.528-9.097-4.272-15.386-13.518-15.386-24.203 0-10.694 6.28-19.911 15.355-24.196.463-.21.904-.001 1.152.522.253.546.137 1.02-.325 1.232a24.808 24.808 0 00-14.242 22.442c-.004 9.906 5.836 18.473 14.275 22.45h-.002z" class="symbols__pitney-bowes__path"/><path fill="url(#e)" d="M251.3 51.954c.555.371.615.998.188 1.633-.427.636-1.027.826-1.582.453A21.618 21.618 0 01240.215 36c0-7.262 3.622-14.02 9.691-18.046.552-.376 1.163-.175 1.585.459.422.634.364 1.263-.19 1.627a19.13 19.13 0 00-8.586 15.957 19.13 19.13 0 008.586 15.957z" class="symbols__pitney-bowes__path"/><path fill="url(#f)" d="M249.086 45.54a15.872 15.872 0 01-3.169-9.534 15.928 15.928 0 013.166-9.544c.485-.633 1.253-.657 1.981-.095.73.545.915 1.288.436 1.925a12.805 12.805 0 00-2.552 7.712 12.805 12.805 0 002.56 7.707c.475.634.291 1.374-.44 1.925-.73.55-1.498.542-1.98-.095l-.002-.001z" class="symbols__pitney-bowes__path"/><path fill="#4F69B3" d="M256.212 24.541c-1.347.377-2.22-.605-2.22-1.667V6.529c0-1.006.74-1.588 1.883-1.588s1.877.58 1.877 1.588v13.662a16.568 16.568 0 014.173-.54c9.058.004 16.4 7.336 16.405 16.382-.005 9.043-7.35 16.37-16.405 16.367l-.35-.014c-1 0-1.598-.74-1.598-1.887 0-1.138.598-1.878 1.598-1.878l.35.006c6.868 0 12.605-5.541 12.605-12.623 0-7.17-5.866-12.641-12.51-12.641-3.21 0-4.452.794-5.808 1.18v-.002z" class="symbols__pitney-bowes__path"/></g></g></svg>