<svg xmlns="http://www.w3.org/2000/svg" xmlns:xlink="http://www.w3.org/1999/xlink" width="230" height="230" viewBox="0 0 230 230">
  <defs>
    <filter id="b" width="180%" height="180%" x="-40%" y="-40%" filterUnits="objectBoundingBox">
      <feOffset in="SourceAlpha" result="shadowOffsetOuter1"/>
      <feGaussianBlur in="shadowOffsetOuter1" result="shadowBlurOuter1" stdDeviation="20"/>
      <feColorMatrix in="shadowBlurOuter1" values="0 0 0 0 1 0 0 0 0 0.850980392 0 0 0 0 0.874509804 0 0 0 1 0"/>
    </filter>
    <filter id="e" width="109.3%" height="109.3%" x="-4.7%" y="-4.7%" filterUnits="objectBoundingBox">
      <feGaussianBlur in="SourceAlpha" result="shadowBlurInner1" stdDeviation="5"/>
      <feOffset dx="2" dy="4" in="shadowBlurInner1" result="shadowOffsetInner1"/>
      <feComposite in="shadowOffsetInner1" in2="SourceAlpha" k2="-1" k3="1" operator="arithmetic" result="shadowInnerInner1"/>
      <feColorMatrix in="shadowInnerInner1" values="0 0 0 0 0.243137255 0 0 0 0 0.0823529412 0 0 0 0 0.31372549 0 0 0 0.3 0"/>
    </filter>
    <circle id="a" cx="76" cy="76.136" r="75"/>
    <circle id="c" cx="75" cy="76" r="75"/>
    <radialGradient id="d" cx="25.273%" cy="100%" r="57.259%" fx="25.273%" fy="100%">
      <stop offset="0%" stop-color="#2C1F47" stop-opacity=".984"/>
      <stop offset="100%" stop-color="#863888"/>
    </radialGradient>
    <path id="f" d="M151 0v93.41h-1.999C141.2 126.505 111.476 151.136 76 151.136c-35.476 0-65.2-24.631-73.001-57.726H1V0h150z"/>
  </defs>
  <g fill="none" fill-rule="evenodd" transform="translate(39 38.864)">
    <use fill="#000" filter="url(#b)" opacity=".3" xlink:href="#a"/>
    <use fill="url(#d)" xlink:href="#c"/>
    <use fill="#000" filter="url(#e)" xlink:href="#c"/>
    <mask id="g" fill="#fff">
      <use xlink:href="#f"/>
    </mask>
    <path fill="#FFF" fill-rule="nonzero" d="M140.995 21a2.943 2.943 0 0 1 2.943 2.943v85.193a2.943 2.943 0 0 1-2.943 2.943h-1.304c2.212 0 4.465.641 5.023 1.432l20.575 29.028c.248.354.35.682.322.976v1.752c3.49 1.052 5.389 2.183 5.389 3.362 0 5.58-42.533 10.103-95 10.103s-95-4.523-95-10.103c0-1.079 1.59-2.118 4.535-3.093l-.001-2.21c.025-.243.13-.507.327-.787L6.436 113.51c.56-.788 2.81-1.432 5.023-1.432h-1.305a2.943 2.943 0 0 1-2.943-2.943V23.943A2.943 2.943 0 0 1 10.154 21h130.84z" mask="url(#g)"/>
    <g mask="url(#g)" opacity=".7">
      <g transform="translate(-19 21)">
        <ellipse cx="95" cy="127.629" fill="#000" fill-rule="nonzero" opacity=".21" rx="95" ry="10.103"/>
        <g transform="translate(4.534)">
          <rect width="136.727" height="91.079" x="21.677" fill="#352A5F" fill-rule="nonzero" rx="2.943"/>
          <rect width="130.044" height="80.671" x="25.019" y="4.203" fill="#FFF" fill-rule="nonzero"/>
          <path fill="#291A4E" fill-rule="nonzero" d="M0 122.327h180.076v2.555c.271 2.102-1.18 2.553-4.132 2.54H3.857c-1.539.007-3.853.01-3.853-2.547L0 122.327z"/>
          <path fill="#6983C1" fill-rule="nonzero" d="M154.158 91.079c2.211 0 4.465.641 5.022 1.432l20.575 29.028c1.068 1.523-.581 2.553-3.538 2.54H3.864c-2.957.013-4.606-1.017-3.537-2.54L20.902 92.51c.56-.788 2.81-1.432 5.023-1.432h128.233z"/>
          <path fill="#88AEDD" fill-rule="nonzero" d="M151.352 94.412a3.49 3.49 0 0 1 2.364.673l11.482 16.306c.502.715-.273 1.199-1.664 1.194H16.547c-1.388.005-2.162-.479-1.663-1.194l10.573-16.306a3.5 3.5 0 0 1 2.364-.673h123.531z"/>
          <path fill="#526EB2" fill-rule="nonzero" d="M105.92 114.394c.386-.031.77.079 1.082.31l4.44 6.26c.23.33-.126.552-.763.55H69.402c-.636 0-.993-.22-.762-.55l4.438-6.26a1.61 1.61 0 0 1 1.084-.31h31.757z"/>
          <path fill="#3E4C8F" fill-rule="nonzero" d="M111.441 120.964l-4.439-6.261a1.602 1.602 0 0 0-1.083-.31H74.162a1.606 1.606 0 0 0-1.084.31l-4.437 6.26c-.232.33.125.552.762.55h.583l3.836-5.662a1.49 1.49 0 0 1 1.035-.312h30.366a1.5 1.5 0 0 1 1.037.308l3.835 5.662h.584c.637 0 .992-.22.762-.549m39.23-18.716c.007-.013 0-.026 0-.039v-.08a.061.061 0 0 0-.006-.072c-.64-.882-.963-1.323-1.601-2.204a.875.875 0 0 0-.597-.175h-5.652a.062.062 0 0 0 .027-.062.056.056 0 0 0 0-.04c.007-.013 0-.025 0-.04v-.318a.053.053 0 0 0 0-.04c.007-.013 0-.027 0-.04v-.199a.05.05 0 0 0 0-.04.056.056 0 0 0 0-.04c.007-.012 0-.027 0-.04a.062.062 0 0 0 0-.07c-.58-.882-.876-1.324-1.451-2.205a.803.803 0 0 0-.568-.176h-5.748c-.224 0-.363.063-.35.144a.063.063 0 0 0 0 .04c-.007.012 0 .026 0 .04v.278a.063.063 0 0 0 0 .04.06.06 0 0 0 0 .04c-.007.012 0 .026 0 .04v.04a.06.06 0 0 0 0 .04c-.007.012 0 .026 0 .04v.159a.058.058 0 0 0 0 .038.068.068 0 0 0 0 .071c.506.882.757 1.323 1.262 2.205a.29.29 0 0 0 .138.093h-2.13c-.262 0-.43.078-.38.175 0 .013-.008.026 0 .04 0 .013-.008.025 0 .039 0 .012-.008.025 0 .039 0 .014-.008.025 0 .038 0 .013-.008.025 0 .038 0 .014-.008.025 0 .04 0 .012-.008.025 0 .039 0 .012-.008.024 0 .037 0 .012-.008.025 0 .039 0 .014-.008.026 0 .038 0 .013-.008.025 0 .04 0 .014-.008.025 0 .04 0 .011-.008.024 0 .038 0 .013-.008.025 0 .037 0 .013-.008.025 0 .04 0 .011-.008.024 0 .04 0 .012-.008.025 0 .039 0 .012-.008.024 0 .039 0 .013-.008.025 0 .039 0 .013-.008.025 0 .038 0 .013-.008.026 0 .039l1.18 2.204a.468.468 0 0 0 .295.142h-2.759c.115-.031.18-.081.148-.142 0-.011.009-.022 0-.035v-.005c0-.011.009-.023 0-.035 0-.012.009-.024 0-.036 0-.012.009-.023 0-.036 0-.011.009-.023 0-.035v-.004c0-.012.009-.024 0-.035 0-.013.009-.023 0-.036 0-.011.009-.023 0-.036v-.004c0-.013.009-.023 0-.035 0-.014.008-.024 0-.037 0-.012.009-.024 0-.037 0-.013.009-.024 0-.036v-.005c0-.01.009-.023 0-.035 0-.013.009-.024 0-.037 0-.012.009-.022 0-.036 0-.01.009-.023 0-.035v-.004c0-.013.009-.023 0-.036 0-.012.009-.023 0-.035 0-.013.009-.023 0-.036v-.005c0-.01.009-.022 0-.035v-.004c0-.011.009-.023 0-.035l-1.117-2.206a.263.263 0 0 0-.133-.093h2.16c.263 0 .426-.078.374-.176 0-.015.01-.026 0-.04-.008-.014.01-.026 0-.04v-.012a.067.067 0 0 0 0-.069c0-.011.01-.024 0-.038-.008-.014.01-.026 0-.04v-.012a.065.065 0 0 0 0-.067c0-.014.01-.026 0-.04-.008-.014.01-.026 0-.041-.008-.015.01-.025 0-.04-.008-.014.01-.025 0-.039-.008-.014.01-.025 0-.04v-.01a.067.067 0 0 0 0-.07c0-.012.01-.024 0-.038-.008-.014.01-.027 0-.04v-.012a.062.062 0 0 0 0-.068c0-.012.01-.025 0-.039-.008-.014.01-.025 0-.04l-1.2-2.204a.723.723 0 0 0-.548-.175h-5.757c-.25 0-.417.077-.373.175v.006c0 .01-.01.02 0 .034v.004c0 .012-.01.023 0 .035v.007c0 .01-.01.02 0 .034 0 .012-.01.023 0 .036v.004c0 .011-.01.022 0 .034v.006c0 .01-.01.023 0 .034v.006c0 .012-.01.022 0 .035 0 .011-.01.023 0 .035v.005c0 .012-.01.022 0 .034v.006c0 .01-.01.021 0 .035v.005c0 .011-.01.023 0 .034v.006c0 .012-.01.021 0 .033v.007c0 .01-.01.02 0 .033v.006c0 .012-.01.022 0 .034v.005c0 .013-.01.023 0 .036 0 .013-.01.024 0 .036 0 .012-.01.024 0 .035v.006c0 .01-.01.021 0 .035v.005c0 .011-.01.022 0 .034v.004c0 .013-.01.023 0 .035v.007c0 .01-.01.021 0 .034.403.88.607 1.322 1.009 2.204a.263.263 0 0 0 .128.093h-2.223a1.18 1.18 0 0 0-.198.019c.06-.03.088-.07.071-.112v-.01c0-.009.009-.02 0-.03v-.009c0-.01.009-.02 0-.031v-.01c0-.01.009-.018 0-.03v-.008c0-.01.009-.02 0-.033v-.008c0-.01.009-.02 0-.03v-.009c0-.01.009-.02 0-.03v-.009c0-.012.009-.02 0-.031v-.009c0-.01.009-.02 0-.031v-.01c0-.01.009-.02 0-.03v-.009c0-.01.009-.02 0-.032v-.008c0-.01.009-.02 0-.031v-.01c0-.009.009-.018 0-.03v-.009c0-.01.009-.02 0-.031v-.009c0-.01.009-.02 0-.031v-.008c0-.01.009-.02 0-.032v-.009c0-.01.009-.018 0-.03v-.008c0-.011.009-.021 0-.033v-.007c0-.01.009-.02 0-.031v-.01c0-.01.009-.019 0-.03v-.01c0-.009.009-.02 0-.03v-.009c0-.01.009-.02 0-.031l-.95-2.205c-.04-.096-.277-.175-.524-.175h-5.75c-.251 0-.427.077-.394.175l.005.014c0 .008-.008.017-.005.026l.005.014c0 .008-.008.016-.005.025l.005.014c0 .01-.008.018-.005.026l.005.013c0 .01-.008.018-.005.028l.005.014c0 .007-.008.016-.005.025l.005.013c0 .01-.008.018-.005.026l.005.014c0 .01-.008.018-.005.028l.005.012c0 .009-.008.017-.005.026l.005.015c0 .008-.008.017-.005.025l.005.014c0 .01-.008.017-.005.027l.005.013c0 .008-.008.016-.005.026l.005.013c0 .01-.008.018-.005.027l.005.014c0 .008-.008.016-.005.025l.005.015c0 .009-.008.016-.005.025l.005.013c0 .01-.008.018-.005.026l.005.016c0 .007-.008.016-.005.025l.005.014c0 .009-.008.016-.005.025l.005.014c0 .01-.008.018-.005.027l.005.013c0 .01-.008.016-.005.027l.005.012c0 .01-.008.019-.005.027l.005.015c0 .008-.008.016-.005.025l.758 2.205a.218.218 0 0 0 .118.093h-2.322a.8.8 0 0 0-.083.007c.047-.029.077-.062.064-.1l-.004-.017c0-.008.007-.015.004-.023l-.004-.016c0-.008.007-.016.004-.024l-.004-.017c0-.008.007-.015.004-.023l-.004-.017c0-.007.007-.015.004-.024l-.004-.015c0-.008.007-.015.004-.023l-.004-.018c0-.007.007-.014.004-.022l-.004-.017c0-.008.007-.014.004-.022l-.004-.017c0-.008.007-.015.004-.023l-.004-.018c0-.008.007-.015.004-.022l-.004-.016c0-.01.007-.016.004-.025l-.004-.017c0-.007.007-.014.004-.022l-.004-.018c0-.007.007-.014.004-.022l-.004-.016c0-.008.007-.015.004-.024l-.004-.017c0-.008.007-.015.004-.023l-.004-.015c0-.01.007-.016.004-.025l-.004-.016c0-.008.007-.014.004-.023l-.004-.018c0-.008.007-.015.004-.023l-.004-.015c0-.009.007-.016.004-.023l-.004-.018c0-.007.007-.014.004-.022l-.004-.017c0-.009.007-.015.004-.024l-.004-.015c0-.01.007-.015.004-.024a374.35 374.35 0 0 0-.7-2.205c-.029-.096-.263-.175-.507-.175h-5.748c-.25 0-.438.077-.414.175a.067.067 0 0 1 .005.022c0 .006-.006.011-.005.018a.072.072 0 0 1 .005.022c0 .006-.006.012-.005.017a.067.067 0 0 1 .005.024c0 .006-.006.01-.005.016a.077.077 0 0 1 .005.023c0 .005-.006.01-.005.018a.067.067 0 0 1 .005.021c0 .006-.006.012-.005.018a.073.073 0 0 1 .005.022c0 .007-.006.011-.005.017a.072.072 0 0 1 .005.024s-.006.01-.005.018a.062.062 0 0 1 .005.02c0 .008-.006.013-.005.018a.077.077 0 0 1 .005.023c0 .006-.006.011-.005.017a.072.072 0 0 1 .005.023c0 .006-.006.01-.005.018a.062.062 0 0 1 .005.02c0 .008-.006.013-.005.02a.067.067 0 0 1 .005.022c0 .005-.006.01-.005.017a.072.072 0 0 1 .005.022c0 .006-.006.012-.005.017a.072.072 0 0 1 .005.024c0 .005-.006.01-.005.016a.067.067 0 0 1 .005.022c0 .007-.006.012-.005.017a.088.088 0 0 1 .005.023c0 .007-.006.013-.005.018a.073.073 0 0 1 .005.022c0 .007-.006.011-.005.017a.077.077 0 0 1 .005.023c0 .005-.006.012-.005.018a.067.067 0 0 1 .005.023s-.006.01-.005.017a.062.062 0 0 1 .005.022c0 .006-.006.01-.005.017a.072.072 0 0 1 .005.022c0 .006-.006.012-.005.018.204.882.306 1.323.507 2.205.009.036.05.066.106.093h-2.396c.043-.027.073-.057.066-.093a.145.145 0 0 1-.005-.025c0-.005.006-.009.005-.015a.13.13 0 0 1-.005-.025c0-.005.006-.009.005-.015a.155.155 0 0 1-.005-.025c0-.005.006-.01.005-.015a.227.227 0 0 1-.005-.024c0-.006.006-.01.005-.017a.2.2 0 0 1-.005-.024c0-.005.006-.01.005-.014a.123.123 0 0 1-.005-.025c0-.005.006-.01.005-.015a.154.154 0 0 1-.005-.026s.006-.009.005-.013a.145.145 0 0 1-.005-.025c0-.007.006-.01.005-.015a.13.13 0 0 1-.005-.026c0-.005.006-.009.005-.014a.14.14 0 0 1-.005-.026c0-.005.006-.01.005-.015a.1.1 0 0 1-.005-.024c0-.006.006-.01.005-.015a.123.123 0 0 1-.005-.025c0-.005.006-.01.005-.015a.145.145 0 0 1-.005-.025c0-.005.006-.009.005-.015a.137.137 0 0 1-.005-.025c0-.005.006-.01.005-.015a.1.1 0 0 1-.005-.025s.006-.01.005-.015a.123.123 0 0 1-.005-.024c0-.006.006-.01.005-.015a.13.13 0 0 1-.005-.026c0-.005.006-.01.005-.015a.103.103 0 0 1-.005-.023c0-.006.006-.01.005-.015l-.005-.025c0-.007.006-.011.005-.015a.13.13 0 0 1-.005-.026c0-.005.006-.009.005-.015a.13.13 0 0 1-.005-.025s.006-.01.005-.014c-.175-.881-.267-1.324-.445-2.205-.019-.096-.239-.175-.488-.175h-5.75c-.25 0-.444.077-.437.175 0 .012 0 .02.005.032.005.011-.005 0-.005.008 0 .01.002.021.005.031 0 0-.005.005-.005.008s0 .021.005.032c.005.012-.005.005-.005.01 0 .004 0 .02.005.03.005.012-.005.006-.005.01 0 .003 0 .02.005.03.005.01-.005 0-.005.008 0 .01.002.021.005.032l-.005.007c0 .011.002.022.005.032 0 0-.005.006-.005.01 0 .003 0 .019.005.03l-.005.009c0 .01.002.02.005.03 0 0-.005.007-.005.01 0 .002 0 .02.005.03.005.01-.005.006-.005.01 0 .003 0 .02.005.03.005.01-.005.006-.005.01 0 .003 0 .02.005.03l-.005.009c0 .012 0 .02.005.031s-.005.005-.005.008 0 .021.005.032l-.005.008c0 .01.002.021.005.032 0 0-.005.005-.005.01 0 .004 0 .019.005.03.005.01-.005.004-.005.009 0 .004 0 .02.005.03.005.012-.005.006-.005.01 0 .003 0 .02.005.03.005.01-.005.006-.005.01 0 .003 0 .019.005.03.005.012-.005.005-.005.009 0 .003 0 .021.005.032l-.005.007c0 .012 0 .02.005.031.005.01-.005.006-.005.01l.255 2.204c0 .036.043.066.096.093H97.34c.047-.027.08-.057.076-.093v-.837l-.193-2.205c-.008-.096-.22-.175-.469-.175h-5.75c-.25 0-.453.077-.452.175v3.04c0 .036.035.066.088.093h-2.397c.05-.028.088-.057.088-.094l.056-2.203v-.852c0-.096-.198-.175-.447-.175h-5.744c-.25 0-.462.077-.473.175l-.25 2.205s.005.005.005.009l-.004.03.004.01c0 .01 0 .019-.004.03l.004.009-.004.032.004.007-.004.032.004.008-.004.032.004.009-.004.03.004.01-.004.03.004.01-.004.03.004.009-.004.031.004.008-.004.032.004.008-.004.031.004.009-.004.032.004.007-.004.033.004.008-.004.032.004.008c0 .01 0 .02-.004.032l.004.007-.004.032.004.008-.004.03.004.01-.004.03.004.01-.004.031.004.008-.004.032.004.008-.004.033c0 .035.028.065.073.093h-2.391c.051-.028.087-.058.097-.093.121-.882.184-1.324.308-2.205 0 0-.004-.007-.004-.01 0-.004 0-.019.004-.03l-.004-.01c0-.011 0-.02.004-.03l-.004-.01c0-.01 0-.02.004-.03.004-.009-.004-.006-.004-.01 0-.003 0-.019.004-.03l-.004-.01a.285.285 0 0 0 .004-.029c0-.004-.004-.008-.004-.01 0-.003 0-.02.004-.03.004-.009-.004-.008-.004-.01 0-.003 0-.02.004-.03.004-.012-.004-.007-.004-.011 0-.004 0-.02.004-.03l-.004-.01c0-.01 0-.019.004-.03l-.004-.01a.284.284 0 0 0 .004-.029s-.004-.006-.004-.01c0-.005 0-.019.004-.03.004-.01-.004-.006-.004-.01a.285.285 0 0 0 .004-.03s-.004-.005-.004-.01a.252.252 0 0 0 .004-.029s0-.006-.004-.01a.284.284 0 0 0 .004-.03s0-.007-.004-.01a.267.267 0 0 0 .004-.03l-.004-.01a.268.268 0 0 0 .004-.03l-.004-.01c0-.01 0-.018.004-.028.004-.01-.004-.008-.004-.013a.235.235 0 0 0 .004-.028s-.004-.007-.004-.011a.267.267 0 0 0 .004-.03s-.004-.005-.004-.01c0-.004 0-.019.004-.028.004-.01-.004-.008-.004-.012a.284.284 0 0 0 .004-.029c.013-.096-.175-.175-.43-.175h-5.748c-.25 0-.47.077-.493.175l-.5 2.205c0 .006.006.01.006.016a.188.188 0 0 1-.006.024c0 .006.006.01.006.017 0 .007 0 .014-.005.023-.004.009.005.01.005.017 0 .006 0 .014-.006.023-.005.01.006.01.006.016a.146.146 0 0 1-.006.023c0 .007.006.011.006.016 0 .006-.005.016-.006.024 0 .008.006.011.006.017 0 .005 0 .014-.006.022-.005.01.006.013.006.016a.188.188 0 0 1-.006.024c0 .006.006.011.006.017 0 .006 0 .014-.006.023-.005.009.006.01.006.017 0 .006 0 .015-.006.023-.005.01.006.01.006.017 0 .007 0 .014-.006.023-.005.009.006.011.006.016a.159.159 0 0 1-.006.023c0 .006.006.012.006.018 0 .006 0 .015-.006.023-.005.01.006.01.006.016s0 .015-.006.024c-.005.009.006.011.006.015a.217.217 0 0 1-.006.025c0 .005.006.01.006.016a.188.188 0 0 1-.006.024c0 .006.006.011.006.016 0 .005 0 .014-.005.023-.004.009.005.01.005.017a.16.16 0 0 1-.006.022c0 .007.006.01.006.018a.199.199 0 0 1-.006.022c0 .006.006.011.006.017 0 .006 0 .013-.006.023-.005.01.006.01.006.017 0 .006-.005.015-.006.023 0 .01.006.01.006.017 0 .006 0 .015-.006.024-.007.035.021.065.065.093H70.06c.056-.028.098-.058.108-.093l.56-2.206c0-.007-.005-.012-.005-.02l.006-.02c0-.006-.006-.012-.006-.02l.006-.019c0-.007-.006-.013-.006-.02l.006-.02c0-.007-.006-.012-.006-.02l.006-.02c0-.007-.006-.014-.006-.02l.006-.02c0-.008-.006-.013-.006-.02l.006-.021c0-.006-.006-.011-.006-.017l.006-.022c0-.006-.006-.012-.006-.019l.006-.02c0-.008-.006-.014-.006-.02l.006-.02c0-.007-.006-.012-.006-.02l.006-.02c0-.006-.006-.013-.006-.019l.006-.02c0-.008-.006-.013-.006-.02l.006-.021c0-.006-.006-.012-.006-.019l.006-.02c0-.008-.006-.013-.006-.02l.006-.02c0-.006-.006-.012-.006-.018l.006-.022c0-.007-.006-.012-.006-.019l.006-.02c0-.008-.006-.014-.006-.02l.006-.02c0-.007-.006-.012-.006-.02l.006-.02c0-.008-.006-.014-.006-.02l.006-.02c0-.007-.006-.013-.006-.018l.006-.022c0-.007-.006-.012-.006-.02l.006-.02c.024-.096-.159-.175-.41-.175H64.57c-.25 0-.48.077-.513.175l-.75 2.205c0 .009.004.016.004.025l-.005.015c0 .008.005.015.006.024l-.006.015c0 .009.005.018.005.025l-.005.015c0 .01.005.016.006.026l-.006.014c0 .008.005.016.006.024l-.006.016c0 .01.005.017.005.025l-.005.014c0 .01.005.016.005.025a.03.03 0 0 1-.005.015c0 .01.005.017.005.026l-.005.014c0 .009.005.016.005.025a.03.03 0 0 1-.005.015c0 .008.005.017.006.025l-.006.015c0 .009.005.016.006.025l-.006.014c0 .01.005.018.005.025l-.005.015c0 .01.005.017.006.025l-.006.015c0 .009.005.016.006.025l-.006.016c0 .008.005.016.005.025l-.005.014c0 .01.005.016.006.025l-.006.015c0 .009.005.017.005.025l-.005.014c0 .01.005.017.005.026l-.005.014c0 .009.005.017.005.025l-.005.015c0 .01.005.017.006.026l-.006.014c0 .01.005.016.005.025l-.005.014c-.012.037.012.067.053.095h-2.395c.06-.028.108-.058.12-.093l.812-2.205v-.835c.036-.097-.139-.176-.39-.176h-5.747c-.251 0-.488.077-.534.175l-1.002 2.205c-.006.012 0 .022 0 .033v.007c-.006.012 0 .022 0 .034v.006c-.006.011 0 .022 0 .033v.046c-.006.012 0 .022 0 .034v.006c-.006.012 0 .022 0 .034v.005c-.006.013 0 .022 0 .034v.006c-.006.012 0 .023 0 .033v.007c-.006.012 0 .023 0 .033v.007c-.006.013 0 .022 0 .033v.007c-.006.012 0 .023 0 .033v.006c-.006.013 0 .023 0 .034v.007c-.006.011 0 .022 0 .034v.006c-.006.011 0 .02 0 .032v.008c-.006.012 0 .022 0 .033v.007c-.006.011 0 .02 0 .032v.007c-.007.011 0 .022 0 .034v.005a.088.088 0 0 0 0 .034v.006c-.006.012 0 .022 0 .034v.006c-.006.012 0 .023 0 .033v.007c-.006.012 0 .022 0 .034v.007c-.016.035.005.065.04.093H51.87a.263.263 0 0 0 .13-.093c.427-.882.639-1.324 1.065-2.206.006-.012 0-.024 0-.036.006-.012 0-.024 0-.036a.053.053 0 0 0 0-.037c.006-.012 0-.023 0-.035.006-.014 0-.025 0-.037.006-.013 0-.025 0-.037.006-.011 0-.022 0-.035.006-.012 0-.025 0-.036.006-.012 0-.024 0-.035v-.004c.006-.013 0-.025 0-.036a.05.05 0 0 0 0-.036c.006-.013 0-.025 0-.037v-.004c.006-.012 0-.023 0-.035.006-.014 0-.024 0-.037a.055.055 0 0 0 0-.038c.006-.011 0-.024 0-.037.006-.013 0-.024 0-.037.006-.012 0-.023 0-.035.006-.014 0-.025 0-.037.006-.012 0-.024 0-.035v-.005c.006-.012 0-.023 0-.035.045-.096-.12-.175-.371-.175h-5.749a.741.741 0 0 0-.551.175c-.502.882-.752 1.324-1.256 2.205a.067.067 0 0 0 0 .068c0 .014-.006.028 0 .04.006.011-.006.028 0 .04s-.006.027 0 .04c.006.014-.006.028 0 .04a.075.075 0 0 0 0 .04c0 .012-.006.027 0 .04.006.012-.006.027 0 .039s-.006.028 0 .04c.006.01-.006.027 0 .04.006.013-.006.028 0 .04s-.006.027 0 .04c.006.012-.006.026 0 .039.006.013-.006.028 0 .04.006.01-.006.027 0 .04.006.014-.006.028 0 .04s-.006.028 0 .04c.006.01-.006.027 0 .039.006.011-.006.028 0 .04s-.006.027 0 .04c.006.012-.006.027 0 .04 0 .025.011.05.032.065h-2.395a.314.314 0 0 0 .141-.093l1.313-2.205a.067.067 0 0 0 0-.071c0-.013.008-.028 0-.039-.007-.01.008-.028 0-.04-.007-.01.008-.028 0-.04-.007-.012.008-.028 0-.04a.053.053 0 0 0 0-.04.05.05 0 0 0 0-.04c0-.013.008-.027 0-.04a.05.05 0 0 0 0-.04c0-.013.008-.027 0-.038-.007-.012.008-.028 0-.04-.007-.014.008-.028 0-.04a.056.056 0 0 0 0-.041.05.05 0 0 0 0-.039c0-.014.008-.028 0-.04-.007-.012.008-.027 0-.04-.007-.012.008-.028 0-.04-.007-.012.008-.027 0-.04a.053.053 0 0 0 0-.04c0-.013.008-.027 0-.039-.007-.012.008-.028 0-.04.01-.08-.13-.143-.35-.143h-5.745a.825.825 0 0 0-.573.175l-1.504 2.205a.061.061 0 0 0-.006.072.067.067 0 0 0 0 .04.07.07 0 0 0 0 .04.06.06 0 0 0 0 .039.075.075 0 0 0 0 .04.07.07 0 0 0 0 .04.067.067 0 0 0 0 .039.07.07 0 0 0 0 .04.07.07 0 0 0 0 .04.067.067 0 0 0 0 .04.07.07 0 0 0 0 .04.067.067 0 0 0 0 .04.067.067 0 0 0 0 .04.07.07 0 0 0 0 .04.07.07 0 0 0 0 .04.064.064 0 0 0 0 .038.07.07 0 0 0 0 .04.07.07 0 0 0 0 .04.067.067 0 0 0 0 .04.07.07 0 0 0 0 .04.07.07 0 0 0 0 .04.071.071 0 0 0 .025.061h-3.18a.875.875 0 0 0-.596.175l-1.589 2.204a.059.059 0 0 0 0 .072c-.004.014-.008.027 0 .04a.044.044 0 0 0 0 .04c-.004.014-.008.027 0 .04a.046.046 0 0 0 0 .04.043.043 0 0 0 0 .039.046.046 0 0 0 0 .04.04.04 0 0 0 0 .039.046.046 0 0 0 0 .041c-.004.014-.008.028 0 .04a.044.044 0 0 0 0 .04.042.042 0 0 0 0 .04.044.044 0 0 0 0 .04.045.045 0 0 0 0 .039c0 .014-.007.028 0 .04-.004.014-.008.026 0 .04-.004.014-.008.028 0 .039a.044.044 0 0 0 0 .04.044.044 0 0 0 0 .04.045.045 0 0 0 0 .04.047.047 0 0 0 0 .04c-.013.08.13.141.368.141h2.255a.56.56 0 0 0-.32.142c-.6.882-.903 1.322-1.506 2.203a.064.064 0 0 0 0 .072c0 .012-.008.027 0 .04.008.012-.008.026 0 .039.008.013-.008.027 0 .04.008.013-.008.027 0 .04.008.012-.008.027 0 .04.008.011-.008.026 0 .04.008.013-.008.027 0 .04.008.013-.008.027 0 .038.008.012-.008.028 0 .04.008.013-.008.029 0 .04s-.008.028 0 .04-.008.028 0 .04c.008.011-.008.028 0 .04s-.008.027 0 .04c.008.013-.008.027 0 .039.008.011-.008.028 0 .04.008.014-.008.027 0 .04.008.013-.008.028 0 .04.008.011-.008.028 0 .04s-.008.027 0 .04c-.011.077.13.134.35.14h-.313a.938.938 0 0 0-.632.176c-.602.882-.9 1.322-1.5 2.204a.06.06 0 0 0 0 .07.07.07 0 0 0 0 .04.07.07 0 0 0 0 .04.067.067 0 0 0 0 .04.067.067 0 0 0 0 .04c0 .013-.007.028 0 .039a.073.073 0 0 0 0 .04.067.067 0 0 0 0 .04.067.067 0 0 0 0 .04.07.07 0 0 0 0 .04.067.067 0 0 0 0 .04.073.073 0 0 0 0 .04.064.064 0 0 0 0 .039.07.07 0 0 0 0 .04.07.07 0 0 0 0 .04.064.064 0 0 0 0 .04c0 .014-.007.027 0 .039a.074.074 0 0 0 0 .04.067.067 0 0 0 0 .04.067.067 0 0 0 0 .04.07.07 0 0 0 0 .04c-.012.08.152.144.412.144h6.684a.9.9 0 0 0 .631-.175c.526-.876.788-1.322 1.314-2.203a.06.06 0 0 0 0-.041c0-.009.006-.02 0-.028v-.011c0-.01.006-.02 0-.028v-.082c0-.01.006-.02 0-.028v-.012a.058.058 0 0 0 0-.069v-.01c0-.01.006-.02 0-.028a.063.063 0 0 0 0-.04v-.012c.007-.014 0-.027 0-.04 0-.013.006-.02 0-.028v-.012c0-.01.006-.019 0-.027v-.012c0-.01.006-.02 0-.028v-.013c0-.009.006-.018 0-.027v-.013c0-.008.006-.018 0-.027-.007-.008.007-.028 0-.04v-.012c.007-.013 0-.027 0-.04a.055.055 0 0 0 0-.067v-.011c0-.01.006-.02 0-.03v-.012c0-.008.006-.018 0-.026v-.013c0-.01.006-.02 0-.028v-.012c0-.008.006-.019 0-.028.007-.077-.141-.137-.374-.143h.251a.87.87 0 0 0 .613-.175l1.313-2.205a.061.061 0 0 0 0-.067c0-.015.006-.03 0-.042a.072.072 0 0 0 0-.038.079.079 0 0 0 0-.04.079.079 0 0 0 0-.04c0-.013.006-.028 0-.04a.082.082 0 0 0 0-.04c0-.014.006-.027 0-.04-.006-.011.006-.028 0-.04-.006-.01.006-.027 0-.039-.006-.011.006-.028 0-.04s.006-.027 0-.04c-.006-.012.006-.028 0-.039s.006-.029 0-.041.006-.027 0-.04a.079.079 0 0 0 0-.04c0-.013.006-.027 0-.038-.006-.012.006-.03 0-.04a.082.082 0 0 0 0-.041c0-.013.006-.027 0-.039-.006-.011.006-.028 0-.04.009-.082-.145-.145-.389-.145h-2.321a.525.525 0 0 0 .31-.142c.559-.882.84-1.323 1.401-2.205a.067.067 0 0 0 0-.07c0-.013.008-.027 0-.04-.008-.012.008-.027 0-.04-.008-.012.008-.026 0-.04-.008-.012.008-.027 0-.04-.008-.012.008-.027 0-.039s.008-.028 0-.04.008-.027 0-.04c-.008-.012.008-.027 0-.039s.008-.028 0-.041c-.008-.013.008-.026 0-.039-.008-.012.008-.027 0-.04-.008-.013.008-.027 0-.04-.008-.012.008-.027 0-.04-.008-.012.008-.026 0-.04-.008-.012.008-.026 0-.039-.008-.012.007-.028 0-.039s.008-.028 0-.041c-.008-.013.008-.028 0-.04-.008-.011.008-.028 0-.039s.008-.028 0-.04a.073.073 0 0 0-.029-.064h2.422a.301.301 0 0 0-.142.095l-1.337 2.204a.064.064 0 0 0 0 .068c0 .015-.007.028 0 .04s-.007.027 0 .04c.007.013-.007.028 0 .04.007.011-.007.028 0 .04a.063.063 0 0 0 0 .04c0 .013-.007.027 0 .039.007.011-.007.029 0 .04a.06.06 0 0 0 0 .04.063.063 0 0 0 0 .04c0 .015-.007.028 0 .04.007.01-.007.028 0 .039.007.01-.007.028 0 .04.007.013-.007.028 0 .04s-.007.028 0 .04c.007.013-.007.027 0 .04a.063.063 0 0 0 0 .04c0 .013-.007.027 0 .039.007.011-.007.029 0 .04s-.007.028 0 .04c.007.013-.007.028 0 .04-.01.081.146.145.385.145h2.351a.476.476 0 0 0-.304.142l-1.255 2.203c-.008.014 0 .026 0 .04-.008.012 0 .025 0 .038-.008.013 0 .026 0 .039-.008.012 0 .024 0 .037-.008.014 0 .027 0 .039-.008.013 0 .025 0 .038-.008.014 0 .026 0 .039-.008.014 0 .025 0 .038-.008.014 0 .025 0 .037-.008.013 0 .026 0 .039-.008.014 0 .025 0 .038-.008.014 0 .025 0 .039-.008.012 0 .025 0 .038-.008.014 0 .025 0 .038-.008.014 0 .025 0 .039-.008.014 0 .027 0 .038-.008.013 0 .026 0 .039-.008.014 0 .026 0 .038-.008.013 0 .026 0 .039v.04c-.009.013 0 .025 0 .038-.053.087.112.164.368.17H41.5a.859.859 0 0 0-.613.176c-.5.88-.748 1.322-1.247 2.204-.009.013 0 .024 0 .037-.009.013 0 .024 0 .036-.009.013 0 .025 0 .038-.009.014 0 .024 0 .037-.009.013 0 .023 0 .036v.005c-.009.011 0 .023 0 .037-.009.013 0 .024 0 .037-.009.013 0 .026 0 .037-.009.012 0 .025 0 .037-.009.013 0 .025 0 .036-.009.015 0 .025 0 .038-.009.014 0 .025 0 .038-.009.014 0 .025 0 .038-.009.013 0 .024 0 .036-.009.014 0 .025 0 .038-.009.013 0 .026 0 .038-.009.014 0 .024 0 .038-.009.013 0 .024 0 .037-.009.012 0 .025 0 .037-.009.014 0 .025 0 .038-.009.013 0 .025 0 .036-.056.097.137.176.428.176h6.686c.293 0 .566-.08.613-.176.423-.876.636-1.321 1.058-2.203.005-.012 0-.022 0-.033v-.008c.005-.01 0-.02 0-.03v-.01c.005-.01 0-.02 0-.032v-.007c.005-.011 0-.02 0-.032v-.008c.005-.01 0-.021 0-.03v-.01c.005-.01 0-.02 0-.032v-.007c.005-.011 0-.022 0-.032v-.008c.005-.01 0-.02 0-.033v-.007c.005-.01 0-.021 0-.032v-.008c.005-.011 0-.02 0-.032v-.008c.005-.01 0-.021 0-.033v-.006c.005-.012 0-.022 0-.033v-.008c.005-.01 0-.02 0-.032v-.007c.005-.012 0-.022 0-.032v-.008c.005-.011 0-.02 0-.032v-.008c.005-.01 0-.021 0-.031v-.01c.005-.01 0-.02 0-.03v-.008c.005-.011 0-.023 0-.032v-.007c.005-.013 0-.023 0-.033v-.008c.005-.01 0-.02 0-.031v-.009c.005-.011 0-.02 0-.032v-.008c.045-.088-.128-.161-.384-.17h.146c.279 0 .546-.078.59-.176.427-.882.64-1.322 1.065-2.205.006-.011 0-.022 0-.032v-.007c.006-.012 0-.022 0-.034v-.006c.006-.011 0-.022 0-.034v-.006c.006-.011 0-.022 0-.032v-.007c.006-.012 0-.022 0-.034v-.007c.006-.011 0-.022 0-.032v-.007c.006-.012 0-.023 0-.033v-.007c.006-.012 0-.022 0-.033v-.006c.006-.013 0-.023 0-.033v-.007c.006-.012 0-.022 0-.034v-.007c.006-.01 0-.021 0-.033v-.005c.006-.013 0-.023 0-.034v-.007c.006-.012 0-.023 0-.034v-.006c.006-.012 0-.022 0-.033v-.007c.006-.01 0-.022 0-.032v-.007c.006-.013 0-.022 0-.034v-.006c.006-.012 0-.022 0-.034v-.006c.006-.012 0-.023 0-.033v-.007c.006-.012 0-.021 0-.033v-.006c.006-.012 0-.023 0-.033v-.007c.006-.013 0-.023 0-.034v-.006c.047-.097-.136-.175-.409-.175h-2.41a.459.459 0 0 0 .293-.142c.46-.882.688-1.322 1.147-2.205.007-.013 0-.024 0-.037.007-.012 0-.025 0-.037.007-.013 0-.025 0-.037.007-.014 0-.026 0-.038.007-.013 0-.025 0-.037.007-.014 0-.026 0-.039.007-.014 0-.025 0-.037.007-.013 0-.025 0-.038.007-.013 0-.026 0-.038.007-.014 0-.025 0-.037.007-.015 0-.027 0-.04.007-.012 0-.023 0-.036.007-.014 0-.024 0-.037.007-.013 0-.025 0-.037.007-.013 0-.026 0-.039.007-.014 0-.025 0-.037.007-.013 0-.023 0-.036.007-.012 0-.025 0-.037.007-.013 0-.025 0-.038.007-.013 0-.024 0-.037.007-.014 0-.026 0-.039.019-.037 0-.066-.036-.095h2.424a.263.263 0 0 0-.132.095c-.434.881-.65 1.322-1.086 2.204a.054.054 0 0 0 0 .035v.004a.05.05 0 0 0 0 .035v.005a.053.053 0 0 0 0 .035v.005a.05.05 0 0 0 0 .034v.006a.053.053 0 0 0 0 .035.055.055 0 0 0 0 .036v.005a.053.053 0 0 0 0 .035.056.056 0 0 0 0 .036.053.053 0 0 0 0 .035v.005a.054.054 0 0 0 0 .035.053.053 0 0 0 0 .035v.005a.053.053 0 0 0 0 .035v.006a.054.054 0 0 0 0 .035v.004a.053.053 0 0 0 0 .035v.005a.05.05 0 0 0 0 .035v.006a.052.052 0 0 0 0 .034v.005a.052.052 0 0 0 0 .034v.005a.054.054 0 0 0 0 .036v.005a.054.054 0 0 0 0 .035.054.054 0 0 0 0 .035v.004a.057.057 0 0 0 0 .036c-.047.096.132.175.401.175h2.445c-.143.031-.258.083-.284.142l-1.003 2.203c-.005.013 0 .021 0 .032v.01c-.005.01 0 .019 0 .03v.008c-.005.01 0 .02 0 .032v.01c-.005.009 0 .02 0 .029v.009c-.005.011 0 .02 0 .031v.009c-.005.01 0 .02 0 .03v.01c-.005.01 0 .02 0 .03v.01c-.005.011 0 .02 0 .03v.01c-.005.01 0 .02 0 .03v.01c-.005.01 0 .02 0 .03v.009c-.005.011 0 .02 0 .031v.01c-.005.01 0 .02 0 .03v.01c-.005.01 0 .019 0 .03v.009c-.005.01 0 .02 0 .03v.01c-.005.01 0 .02 0 .03v.008c-.005.012 0 .022 0 .032v.009c-.005.01 0 .02 0 .03v.01c-.005.01 0 .02 0 .03v.01c-.005.011 0 .02 0 .03v.008c-.005.012 0 .021 0 .032v.009c-.006.01 0 .02 0 .031v.009c-.042.087.13.164.386.17h-.116c-.282 0-.548.078-.59.176-.401.882-.6 1.323-.998 2.205-.006.01.004.02.004.03l-.004.01c-.006.01.004.02.004.029l-.004.01c-.006.01.004.02.004.03l-.004.01c-.006.011.004.02.004.03l-.004.01c-.006.011.004.02.004.03l-.004.011c-.005.01.004.019.004.028l-.004.01c-.006.011.004.02.004.03l-.004.01c-.006.01.004.02.004.03l-.004.01c-.006.011.004.02.004.03l-.004.01c-.006.01.004.02.004.029l-.004.01c-.006.013.004.02.004.031l-.004.01c-.006.01.004.02.004.03l-.004.009c-.006.012.004.02.004.03l-.004.01c-.006.012.004.02.004.03l-.004.01c-.006.01.004.02.004.03l-.004.01c-.006.011 0 .02.004.03l-.004.01c-.006.01.004.019.004.03l-.004.01c-.006.011.004.019.004.029l-.004.011c-.006.01.004.02.004.029l-.004.01c-.006.01.004.019.004.03l-.004.01c-.006.01.004.02.004.03l-.004.01c-.045.096.157.174.449.174h6.685c.291 0 .556-.078.59-.175.324-.876.486-1.322.809-2.203 0-.009-.006-.016-.006-.024l.006-.016c0-.009-.006-.017-.006-.025l.006-.014c0-.01-.006-.016-.006-.025l.006-.016c0-.009-.006-.016-.006-.023l.006-.017c0-.009-.006-.015-.006-.025l.006-.014c0-.01-.006-.016-.006-.025l.006-.014c0-.01-.006-.017-.006-.025l.006-.015c0-.01-.006-.017-.006-.025l.006-.016c0-.01-.006-.016-.006-.024l.006-.016c0-.008-.006-.015-.006-.024l.006-.016c0-.008-.006-.015-.006-.024l.006-.015c0-.009-.006-.016-.006-.025l.006-.015c0-.01-.006-.017-.006-.025l.006-.015c0-.008-.006-.016-.006-.024l.006-.016c0-.009-.006-.016-.006-.024l.006-.015c0-.008-.006-.016-.006-.025l.006-.016c0-.008-.006-.016-.006-.024l.006-.015c0-.009-.006-.016-.006-.024l.006-.015c0-.01-.006-.017-.006-.027l.006-.014c0-.007-.006-.016-.006-.025l.006-.015c0-.009-.006-.016-.006-.024l.006-.015c.033-.088-.145-.163-.403-.175h.05c.28 0 .537-.078.572-.176l.813-2.204c0-.01-.006-.016-.006-.026l.006-.014c0-.01-.006-.017-.006-.025l.006-.014c0-.01-.006-.018-.006-.027l.006-.014c0-.008-.006-.015-.006-.025l.006-.014c0-.008-.006-.017-.006-.025l.006-.015c0-.01-.006-.017-.006-.027l.006-.013c0-.01-.006-.016-.006-.025l.005-.015c.005-.009-.005-.017-.005-.025l.006-.014c0-.01-.006-.017-.006-.026l.006-.014c0-.01-.005-.017-.006-.026l.006-.014c0-.01-.006-.017-.006-.026l.006-.013c0-.01-.006-.018-.006-.026l.006-.015c0-.009-.006-.016-.006-.025l.006-.014c0-.01-.006-.018-.006-.026l.005-.015c.005-.008-.005-.016-.005-.024l.006-.014c0-.01-.005-.018-.006-.026l.006-.014c0-.01-.006-.017-.006-.027l.006.05c0-.01-.005-.016-.006-.025l.006-.014c0-.009-.005-.018-.006-.026l.006-.014c0-.01-.006-.017-.006-.026l.006-.014c0-.01-.006-.017-.006-.025l.006-.014c.036-.098-.155-.176-.43-.176h-2.508c.14-.031.254-.081.276-.141.36-.883.539-1.323.895-2.205.006-.01 0-.02 0-.03v-.01c.006-.011 0-.02 0-.028v-.012c.006-.01 0-.02 0-.03v-.008c.006-.011 0-.02 0-.031v-.01c.006-.01 0-.02 0-.03v-.01c.006-.01 0-.02 0-.029v-.01c.006-.012 0-.02 0-.03v-.012c.006-.008 0-.018 0-.029v-.01c.006-.01 0-.02 0-.029v-.01c.006-.011 0-.02 0-.03v-.009c.006-.01 0-.02 0-.03v-.012c.006-.009 0-.018 0-.029v-.01c.006-.01 0-.019 0-.029v-.01c.006-.01 0-.02 0-.029v-.011c.006-.01 0-.02 0-.03v-.01c.006-.01 0-.02 0-.03v-.01c.006-.01 0-.02 0-.03v-.01c.006-.01 0-.02 0-.03v-.01c.006-.01 0-.018 0-.03v-.01c.006-.01 0-.02 0-.029v-.01c.006-.01 0-.02 0-.03v-.009c.015-.037-.008-.067-.046-.095h2.424a.23.23 0 0 0-.122.095l-.834 2.204c0 .01 0 .017.005.026l-.005.013c0 .01 0 .019.005.026l-.005.014c0 .01 0 .018.005.027l-.005.013c0 .009 0 .018.005.026l-.005.013c0 .01 0 .019.005.028l-.005.013c0 .009 0 .017.005.025l-.005.014c0 .01 0 .018.005.027l-.005.013c0 .01 0 .018.005.028l-.005.012c0 .01 0 .018.005.027a.046.046 0 0 0-.005.013c0 .01 0 .018.005.026l-.005.013c0 .01 0 .018.005.027l-.002.011c0 .01 0 .019.006.027a.059.059 0 0 0-.006.014c0 .008 0 .017.006.026l-.006.013c0 .01 0 .018.006.026l-.006.014c0 .009 0 .018.006.027l-.006.014c0 .01 0 .016.006.026l-.006.013c0 .01 0 .018.006.026l-.006.013c0 .01 0 .019.006.027l-.006.014c0 .008 0 .016.006.026l-.006.013c0 .009 0 .019.006.026l-.006.014c0 .01 0 .018.006.027l-.006.013c-.035.095.155.175.423.175h2.54c-.143.03-.251.082-.271.142-.3.882-.452 1.322-.752 2.203 0 .009.006.016.006.023l-.006.018c0 .008.006.014.006.023l-.006.016c0 .008.006.016.006.023l-.006.018c0 .007.006.014.006.02 0 .008 0 .013-.006.018-.006.006.006.015.006.024l-.006.017c0 .007.006.015.006.022a.175.175 0 0 1-.006.017c0 .008.006.015.006.024l-.006.016c0 .008.006.015.006.023l-.006.018c0 .007.006.014.006.022 0 .007 0 .011-.006.017-.006.006.006.015.006.023l-.006.017c0 .007.006.014.006.023l-.006.017c0 .007.006.015.006.023l-.006.017c0 .008.006.014.006.022 0 .008 0 .011-.006.018-.006.006.006.014.006.022l-.006.017c0 .008.006.015.006.023s0 .01-.006.015c-.006.006.006.017.006.024l-.006.018c0 .008.006.015.006.022l-.006.017c0 .008.006.015.006.024l-.006.016c0 .007.006.014.006.024l-.006.015c0 .009.006.016.006.024a.17.17 0 0 1-.006.016c0 .009.006.015.006.024l-.006.017c-.03.087.15.163.407.17h-.021c-.283 0-.539.078-.572.176-.298.88-.445 1.321-.745 2.204 0 .007.007.014.007.022l-.007.018c0 .007.007.015.007.022l-.007.017c0 .008.007.014.007.022l-.007.018c0 .007.007.014.007.022l-.007.018c0 .008.007.015.007.022l-.007.019c0 .006.007.013.007.021l-.007.018c0 .008.007.014.007.022l-.007.017c0 .009.007.015.007.023l-.007.017c0 .007.007.015.007.022l-.007.018c0 .008.007.015.007.022l-.007.017c0 .009.007.016.007.024l-.007.016c0 .01.007.015.007.023l-.007.017c0 .009.007.015.007.023l-.007.017c0 .008.007.015.007.023l-.007.017c0 .008.007.015.007.023l-.007.016c0 .009.007.016.007.023 0 .007 0 .011-.007.018-.007.007.007.014.007.021 0 .007 0 .013-.007.019-.007.005.007.014.007.021l-.007.019c0 .007.007.015.007.022l-.007.017c0 .008.007.015.007.022l-.007.018c0 .008.007.015.007.022l-.007.017c-.032.096.175.175.47.175h6.687c.29 0 .547-.079.571-.175.222-.876.332-1.323.554-2.203 0-.007-.005-.012-.005-.017l.005-.024c0-.005-.005-.01-.005-.016l.005-.024c0-.005-.005-.01-.005-.016l.005-.023c0-.005-.005-.011-.005-.017 0-.008.003-.016.005-.023 0-.006-.005-.01-.005-.017l.005-.023c0-.007-.005-.01-.005-.017l.005-.022c0-.007-.005-.011-.005-.018l.005-.022c0-.007-.005-.01-.005-.018l.005-.022c0-.007-.005-.011-.005-.017l.005-.023c0-.005-.005-.01-.005-.018l.005-.022c0-.006-.005-.01-.005-.016l.005-.023c0-.007-.005-.012-.005-.017l.005-.024c0-.005-.005-.01-.005-.017l.005-.023c0-.006-.005-.01-.005-.015l.004-.024c0-.006-.006-.011-.006-.017l.006-.023c0-.005-.006-.01-.006-.016l.006-.025s-.006-.01-.006-.016l.006-.022c0-.006-.006-.011-.006-.018l.006-.021c0-.007-.006-.012-.006-.018l.006-.024c0-.005-.006-.01-.006-.015l.006-.024c0-.006-.006-.01-.006-.017l.006-.023c.023-.093-.175-.168-.445-.176.27 0 .504-.08.525-.175l.562-2.205c0-.005-.006-.01-.006-.017l.006-.022c0-.006-.006-.012-.006-.018l.006-.021c0-.007-.006-.013-.006-.019l.006-.023c0-.006-.006-.01-.006-.016l.006-.022c0-.007-.006-.012-.006-.018l.006-.022c0-.007-.006-.01-.006-.018l.006-.023c0-.006-.006-.011-.006-.017l.006-.023c0-.005-.006-.01-.006-.017l.006-.022c0-.007-.006-.012-.006-.019l.006-.02c0-.007-.006-.012-.006-.018l.006-.022c0-.006-.006-.012-.006-.019l.006-.02c0-.008-.006-.013-.006-.019l.006-.023c0-.005-.006-.011-.006-.017l.006-.022c0-.006-.006-.012-.006-.018l.006-.023c0-.005-.006-.01-.006-.016l.006-.022c0-.007-.006-.012-.006-.018a.175.175 0 0 1 .006-.022c0-.006-.006-.013-.006-.018l.006-.023c0-.006-.006-.01-.006-.017l.006-.022c0-.006-.006-.011-.006-.018l.006-.021c0-.008-.006-.012-.006-.018l.006-.023c0-.006-.006-.012-.006-.017l.006-.022c.025-.097-.175-.175-.45-.175h-2.6c.138-.032.243-.082.262-.142.256-.882.384-1.323.643-2.205 0-.008-.007-.013-.007-.022l.007-.018c0-.007-.007-.014-.007-.02l.007-.02c0-.007-.007-.013-.007-.02a.074.074 0 0 1 .007-.018c0-.01-.007-.015-.007-.023l.007-.018c0-.008-.007-.015-.007-.02a.115.115 0 0 1 .007-.02c0-.008-.007-.014-.007-.021l.007-.018c0-.008-.007-.015-.007-.022l.007-.02c0-.005-.007-.012-.007-.02l.007-.018c0-.008-.007-.014-.007-.022l.007-.018c0-.008-.007-.014-.007-.02a.088.088 0 0 1 .007-.019c0-.009-.007-.016-.007-.022l.007-.02c0-.007-.007-.012-.007-.02l.007-.018c0-.008-.007-.015-.007-.022l.007-.019c0-.007-.007-.013-.007-.02l.007-.02c0-.005-.007-.012-.007-.02l.007-.019c0-.008-.007-.014-.007-.022l.007-.019c0-.006-.007-.012-.007-.02l.007-.02c0-.006-.007-.012-.007-.02l.007-.019c0-.007-.007-.013-.007-.02l.007-.019c0-.007-.007-.014-.007-.021l.007-.018c0-.01-.007-.014-.007-.021a.088.088 0 0 1 .007-.019c.01-.037-.018-.066-.06-.094h2.424c-.057.028-.101.057-.111.094-.233.881-.35 1.322-.58 2.204 0 .006.006.012.006.02a.054.054 0 0 0-.006.02c0 .006.006.01.006.018a.064.064 0 0 0-.006.02c0 .008.006.014.006.02a.068.068 0 0 0-.006.021c0 .006.006.012.006.02a.06.06 0 0 0-.006.02c0 .007.006.011.006.018a.052.052 0 0 0-.006.022c0 .007.005.012.006.02a.05.05 0 0 0-.006.02c0 .005.005.01.006.017a.044.044 0 0 0-.006.022c0 .007.005.013.006.019a.07.07 0 0 0-.006.021c0 .007.006.012.006.018a.063.063 0 0 0-.006.022c0 .006.006.012.006.019l-.006.02c0 .008.006.013.006.02a.07.07 0 0 0-.01.026c0 .007.006.013.006.02a.07.07 0 0 0-.006.02c0 .007.006.013.006.019a.064.064 0 0 0-.006.021c0 .006.005.012.006.018a.04.04 0 0 0-.006.022c0 .007.005.013.006.02a.059.059 0 0 0-.006.02c0 .007.006.012.006.018a.063.063 0 0 0-.006.022c0 .007.006.011.006.018a.064.064 0 0 0-.006.021c0 .007.006.013.006.019a.068.068 0 0 0-.006.022c0 .006.006.011.006.019a.046.046 0 0 0-.006.02c0 .006.006.012.006.019a.07.07 0 0 0-.006.02c0 .008.005.013.006.019a.088.088 0 0 0-.006.022c-.026.095.175.175.438.175h2.634c-.136.03-.24.081-.252.141l-.5 2.203c0 .006.006.01.006.016s0 .016-.006.025c-.006.01.006.01.006.015 0 .005 0 .016-.006.024s.006.01.006.016l-.006.025s.006.009.006.014c0 .005 0 .016-.006.025-.006.008.006.01.006.014 0 .005 0 .017-.006.026-.006.009.006.01.006.016s0 .014-.006.023.006.01.006.015c0 .004 0 .017-.006.026-.006.008.006.01.006.015 0 .006 0 .016-.006.025-.006.009.006.01.006.014s0 .016-.006.025c-.006.009.006.01.006.016s0 .015-.006.024c-.006.008.006.01.006.015 0 .004 0 .016-.006.025-.006.009.006.009.006.015s0 .016-.006.025c-.006.01.006.009.006.014 0 .006 0 .016-.006.026-.006.01.006.01.006.015 0 .005 0 .015-.006.024-.006.009.006.01.006.015 0 .005 0 .016-.006.024-.006.007.006.01.006.016s0 .016-.006.025c-.006.009.006.01.006.016l-.006.023c0 .006.006.01.006.015 0 .004 0 .017-.006.025-.006.01.006.01.006.015 0 .004 0 .016-.006.024s.006.01.006.016c0 .005 0 .016-.006.024s.006.01.006.016c0 .005 0 .016-.006.025-.022.096.187.175.466.175-.268.006-.496.08-.518.17a784.12 784.12 0 0 1-.492 2.205c0 .007.005.01.005.015l-.005.026s.005.01.005.015l-.005.024s.005.01.005.014l-.005.026c0 .005.005.01.005.014l-.005.026c0 .004.005.01.005.014l-.005.027s.005.009.005.013l-.005.026c0 .005.005.01.005.014l-.005.025c0 .006.005.01.005.015l-.005.025s.005.01.005.015l-.005.025c0 .005.005.01.005.015l-.005.023c0 .005.005.01.005.017l-.005.024c0 .007.005.01.005.015l-.005.025c0 .005.005.01.005.015l-.005.025c0 .005.005.01.005.015l-.005.025c0 .006.005.01.005.015l-.005.024c0 .006.005.01.005.016l-.005.024c0 .005.005.01.005.015l-.005.026s.005.008.005.014l-.005.026c0 .004.005.009.005.014l-.005.024c0 .006.005.01.005.016l-.005.025c0 .005.005.01.005.015l-.005.024c-.02.096.197.175.489.175h37.837c.292 0 .512-.079.492-.175a.093.093 0 0 1-.005-.026c0-.005.005-.008.005-.013a.088.088 0 0 1-.005-.027c0-.005.005-.008.005-.014a.088.088 0 0 1-.005-.026s.005-.009.005-.012a.099.099 0 0 1-.005-.027s.005-.01.005-.013a.107.107 0 0 1-.005-.027c0-.005.005-.008.005-.014l-.005-.026c0-.009.005-.008.005-.014a.077.077 0 0 1-.005-.025s.005-.01.005-.014a.088.088 0 0 1-.005-.027s.005-.009.005-.013l-.005-.026c0-.009.005-.009.005-.014a.088.088 0 0 1-.005-.026c0-.005.005-.01.005-.014a.088.088 0 0 1-.005-.024c0-.007.005-.012.005-.017a.088.088 0 0 1-.005-.025c0-.005.005-.008.005-.013a.1.1 0 0 1-.005-.026c0-.006.005-.01.005-.014a.1.1 0 0 1-.005-.026c0-.005.005-.008.005-.014a.088.088 0 0 1-.005-.026s.005-.01.005-.013a.093.093 0 0 1-.005-.028s.005-.007.005-.011a.112.112 0 0 1-.005-.028s.005-.009.005-.013a.1.1 0 0 1-.005-.026c0-.005.005-.01.005-.014a.082.082 0 0 1-.005-.027s.005-.008.005-.013l-.005-.025c0-.009.005-.01.005-.014a.1.1 0 0 1-.005-.027c0-.005.005-.007.005-.014l-.462-2.203c-.02-.097-.263-.176-.547-.176h-.728c.258-.007.45-.08.431-.17v-.027c0-.004.006-.009 0-.014v-.025s.006-.009 0-.013v-.027c0-.005.006-.01 0-.014v-.026c0-.004.006-.008 0-.014v-.024c0-.006.006-.01 0-.015v-.027c0-.005.006-.008 0-.014v-.025c0-.005.006-.009 0-.014a.22.22 0 0 1 0-.025c0-.006.006-.01 0-.014v-.027c0-.004.006-.009 0-.013v-.026c0-.005.006-.01 0-.014v-.026c0-.006.006-.01 0-.014v-.027c0-.004.006-.009 0-.013v-.025c0-.006.006-.01 0-.014v-.027c0-.005.006-.01 0-.014v-.025c0-.005.006-.01 0-.015v-.024c0-.007.006-.01 0-.015v-.027s.006-.008 0-.013v-.026c0-.006.006-.009 0-.013v-.027c0-.005.006-.01 0-.014v-.027s.006-.007 0-.012v-.027s.006-.009 0-.014c-.175-.881-.267-1.321-.445-2.203-.011-.061-.114-.111-.251-.142h2.79c-.124.03-.204.08-.19.142l.006.024c0 .006-.007.01-.006.015l.006.024c0 .005-.007.01-.006.017l.006.022c0 .007-.007.012-.006.017l.006.023c0 .007-.007.01-.006.016l.006.024c0 .005-.007.01-.006.017l.006.024c0 .006-.007.01-.005.016a.12.12 0 0 0 .005.023c0 .005-.007.011-.006.016l.006.024s-.007.012-.006.016l.006.024c0 .006-.007.01-.006.015l.006.024c0 .007-.007.01-.006.017l.006.022c0 .007-.007.012-.006.017l.006.024c0 .006-.007.011-.006.016l.006.024c0 .005-.007.01-.006.017l.006.023c0 .006-.007.01-.006.015l.006.025c0 .005-.007.01-.006.015l.006.024c0 .006-.007.01-.006.016l.006.024c0 .005-.007.01-.006.016l.006.024c0 .005-.008.01-.006.016a.201.201 0 0 0 .006.024c0 .006-.007.01-.006.016l.006.024c0 .006-.007.01-.006.015l.006.024c0 .006-.007.011-.006.016.203.883.305 1.322.506 2.205.023.096.268.175.548.175h.379c-.263.007-.458.08-.438.175a.23.23 0 0 0 .005.024c0 .006-.007.01-.005.015a.217.217 0 0 0 .005.026s-.007.008-.005.015a.23.23 0 0 0 .005.023c0 .007-.007.01-.005.017.002.007 0 .015.005.024.005.008-.007.01-.005.015.002.006 0 .015.005.025.005.01-.007.01-.005.014a.185.185 0 0 0 .005.025c0 .006-.007.01-.005.016a.188.188 0 0 0 .005.024c0 .006-.007.01-.005.015a.23.23 0 0 0 .005.024c0 .006-.007.01-.005.016.002.005 0 .016.005.025.005.01-.007.01-.005.014a.202.202 0 0 0 .005.025c0 .005-.007.01-.005.016.002.007 0 .016.005.025.005.009-.007.01-.005.014a.217.217 0 0 0 .005.025c0 .005-.007.01-.005.015a.188.188 0 0 0 .005.024c0 .006-.007.011-.005.017a.159.159 0 0 0 .005.023c0 .006-.007.01-.005.017a.23.23 0 0 0 .005.024c0 .006-.007.01-.005.015.002.006 0 .015.005.024.005.009-.007.011-.005.016a.245.245 0 0 0 .005.024c0 .005-.007.01-.005.015a.202.202 0 0 0 .005.025c0 .006-.007.01-.005.015.002.006 0 .016.005.025.005.009-.007.01-.005.015a.159.159 0 0 0 .005.023c0 .007-.007.012-.005.017a.23.23 0 0 0 .005.024c0 .006-.007.01-.005.016l.512 2.203c.023.097.275.176.567.176h6.687c.29 0 .502-.08.472-.176a.065.065 0 0 1-.006-.018c0-.008.01-.013.006-.021a.07.07 0 0 1-.006-.02c0-.006.008-.011.006-.02a.071.071 0 0 1-.006-.019c0-.008.01-.013.006-.02l.005-.02c0-.006.008-.011.006-.02a.071.071 0 0 1-.006-.018c0-.007.008-.014.006-.02a.082.082 0 0 1-.006-.02c0-.007.009-.013.006-.022l-.006-.017c0-.008.008-.014.006-.022a.065.065 0 0 1-.006-.019c0-.007.009-.013.006-.02a.075.075 0 0 1-.006-.019c0-.008.009-.014.006-.022-.003-.008 0-.012-.006-.018-.006-.006.008-.014.006-.021a.071.071 0 0 1-.006-.02c0-.005.009-.013.006-.02a.07.07 0 0 1-.006-.018c0-.008.009-.014.006-.022a.071.071 0 0 1-.006-.02c0-.005.008-.012.006-.02a.082.082 0 0 1-.006-.019c0-.007.008-.012.006-.02a.062.062 0 0 1-.006-.02c0-.007.009-.012.006-.02a.075.075 0 0 1-.006-.019c0-.008.008-.014.006-.02a.096.096 0 0 1-.006-.02c0-.008.008-.013.006-.02a.075.075 0 0 1-.006-.02c0-.006.008-.013.006-.02a.082.082 0 0 1-.006-.02c0-.007.009-.013.006-.02a.082.082 0 0 1-.006-.02c0-.006.008-.013.006-.02a.071.071 0 0 1-.006-.02c0-.006.009-.012.006-.02-.281-.882-.422-1.323-.7-2.205-.033-.096-.288-.175-.57-.175h-.431c.255-.008.438-.08.409-.171a.07.07 0 0 1 0-.019c0-.007.007-.014 0-.021v-.018c0-.008.007-.015 0-.023v-.017c0-.007.007-.014 0-.021v-.02c0-.006.007-.013 0-.02a.062.062 0 0 1 0-.02c0-.007.007-.013 0-.02v-.02c0-.006.007-.012 0-.021l-.006-.017c0-.008.008-.014.006-.022v-.019c0-.006.007-.013 0-.02v-.018c0-.008.007-.015 0-.022v-.019c0-.007.007-.014 0-.02v-.02c0-.007.007-.013 0-.021v-.018c0-.008.007-.015 0-.022v-.019c0-.006.007-.013 0-.02v-.018c0-.008.007-.015 0-.022v-.02c0-.007.007-.014 0-.02a.07.07 0 0 1 0-.019c0-.008.007-.014 0-.02l-.006-.02c0-.007.008-.013.006-.021-.003-.008 0-.012-.006-.019-.007-.006.008-.013.006-.02v-.02c0-.007.007-.013 0-.02a.07.07 0 0 1 0-.02c0-.006.007-.012 0-.02v-.019c0-.008.007-.014 0-.022-.28-.88-.418-1.32-.696-2.203-.02-.061-.128-.11-.27-.142h2.791c-.122.031-.195.081-.175.142l.006.015c0 .009-.009.017-.006.025l.006.015c0 .008-.009.016-.006.025l.006.015c0 .009-.009.016-.006.024l.006.015c0 .008-.009.015-.006.025l.006.016c0 .008-.009.016-.006.024l.006.016c0 .008-.009.015-.006.024l.006.015c0 .008-.009.016-.006.024l.006.017c0 .008-.009.015-.006.023l.006.017c0 .008-.009.015-.006.023l.006.015c0 .01-.009.016-.006.026l.006.015c0 .007-.009.015-.006.023l.006.016c0 .009-.009.015-.006.025l.006.015c0 .008-.009.015-.006.025l.006.015c0 .008-.009.016-.006.024l.006.016c0 .008-.009.016-.006.024l.006.016c0 .007-.009.015-.006.023l.006.017c0 .008-.009.016-.006.024l.006.015c0 .01-.009.016-.006.024l.006.017c0 .007-.009.015-.006.023l.006.015c0 .009-.009.016-.006.025l.006.015c0 .01-.009.016-.006.024l.76 2.205c.032.096.286.175.566.175h.464c-.258.01-.437.08-.408.17a.074.074 0 0 0 .006.018c0 .008-.009.015-.006.023l.006.017c0 .009-.009.016-.006.023l.006.017c0 .007-.009.015-.006.024l.006.016c0 .008-.008.015-.006.023l.006.017c0 .008-.009.014-.006.022l.006.017c0 .008-.009.016-.006.023l.006.017c0 .008-.009.015-.006.023l.006.017c0 .007-.009.015-.006.023l.006.016c0 .01-.009.016-.006.023l.006.018c0 .008-.009.015-.006.023l.006.017c0 .008-.009.014-.006.022l.006.018c0 .007-.009.014-.006.022l.006.018c0 .006-.009.013-.006.022l.006.016c0 .008-.009.016-.006.024l.006.017c0 .007-.009.014-.006.023l.006.016c0 .008-.009.015-.006.024l.006.017c0 .007-.009.013-.006.022l.006.018c0 .007-.009.014-.006.022l.006.017c0 .008-.009.015-.007.023l.007.018c0 .007-.008.013-.006.021l.006.017c0 .009-.009.016-.006.024.305.876.458 1.323.765 2.203.032.098.297.176.587.176h6.688c.29 0 .492-.08.45-.176l-.004-.011c0-.01.009-.018.004-.028l-.004-.011c0-.01.009-.019.004-.028l-.004-.011c0-.01.009-.02.004-.029l-.004-.013c0-.009.009-.016.004-.027l-.004-.012c0-.01.009-.019.004-.028l-.004-.012c0-.008.009-.017.004-.029l-.004-.011c0-.009.009-.018.004-.028l-.004-.01c0-.01.009-.018.004-.03l-.004-.012c0-.009.009-.017.004-.028l-.004-.011c0-.01.009-.019.004-.028l-.004-.013c0-.008.009-.016.004-.028l-.004-.01c0-.01.009-.02.004-.03l-.004-.01c0-.01.009-.018.004-.028l-.004-.013c0-.01.009-.018.004-.028l-.004-.01c0-.01.009-.019.004-.03l-.004-.011c0-.01.009-.017.004-.027l-.004-.012c0-.01.009-.02.004-.029l-.004-.011c0-.009.009-.019.004-.028l-.004-.013c0-.01.009-.018.004-.028l-.004-.011c0-.01.009-.018.004-.028l-.004-.012c0-.01.009-.018.004-.027-.38-.883-.573-1.324-.953-2.205-.042-.097-.305-.175-.59-.175h-.525c.253-.007.429-.08.39-.171v-.01c0-.01.009-.02 0-.03v-.011c0-.01.009-.018 0-.03v-.01c0-.01.009-.019 0-.028v-.013c0-.008.009-.017 0-.028v-.01c0-.01.009-.02 0-.03v-.01c0-.01.009-.02 0-.03v-.01c0-.01.009-.02 0-.029v-.011c0-.009.009-.018 0-.028v-.012c0-.01.009-.019 0-.028v-.011c0-.009.009-.018 0-.029v-.01c0-.01.009-.02 0-.03v-.01c0-.01.009-.02 0-.03v-.011c0-.01.009-.018 0-.028v-.012c0-.01.009-.019 0-.028v-.01c0-.011.009-.02 0-.03v-.01c0-.012.009-.02 0-.03v-.01c0-.011.009-.02 0-.03v-.01c0-.01.009-.02 0-.029v-.011c0-.01.009-.02 0-.03v-.01c0-.01.009-.019 0-.029v-.011c0-.01.009-.018 0-.03-.38-.881-.57-1.32-.948-2.203-.026-.061-.138-.111-.285-.142h2.79c-.117.03-.184.08-.157.142v.007c0 .012-.009.021 0 .033v.007c0 .012-.009.022 0 .033v.008c0 .01-.009.02 0 .031v.008c0 .012-.009.021 0 .032v.008c0 .01-.009.02 0 .032v.007c0 .01-.009.021 0 .033v.007c0 .012-.009.021 0 .032v.009c0 .01-.009.02 0 .031v.008c0 .011-.009.021 0 .032v.008c0 .01-.009.02 0 .033v.007c0 .01-.009.02 0 .031v.009c0 .01-.009.02 0 .032v.007c0 .01-.009.02 0 .033v.007c0 .011-.009.02 0 .031v.01c0 .01-.009.02 0 .03v.009c0 .011-.009.021 0 .031v.009c0 .01-.009.02 0 .031v.008c0 .01-.009.021 0 .032v.008c0 .011-.009.02 0 .032v.008c0 .01-.009.02 0 .032v.007c0 .013-.009.021 0 .032l1.01 2.205c.044.096.308.175.587.175h.561c-.257.008-.432.08-.39.17v.01c0 .01-.01.02 0 .031v.01c0 .01-.01.019 0 .03v.008c0 .012-.01.021 0 .033v.008c0 .01-.008.02 0 .031v.008c0 .01-.01.02-.006.03l.006.011c0 .01-.008.02 0 .03v.01c0 .01-.01.019-.006.03l.006.009c0 .01-.008.02 0 .03v.01c0 .01-.01.02 0 .03v.01c0 .01-.008.019 0 .031v.008c0 .011-.01.021 0 .03v.01c0 .01-.01.02 0 .031v.01c0 .01-.01.019 0 .03v.01c0 .01-.01.02-.006.03l.006.01c0 .01-.008.019 0 .03v.008c0 .01-.01.021 0 .031v.01c0 .01-.01.02 0 .03v.009c0 .011-.01.022 0 .031v.009c0 .01-.01.02 0 .03v.01c0 .01-.008.02 0 .03v.009c0 .011-.01.02 0 .032.404.881.613 1.323 1.014 2.203.044.097.317.175.613.175h6.686c.29 0 .486-.078.433-.175 0-.013.01-.023 0-.036v-.004c0-.011.009-.022 0-.035v-.004c0-.013.01-.023 0-.036 0-.012.009-.023 0-.035 0-.012.009-.024 0-.035v-.006c0-.011.01-.023 0-.036 0-.011.009-.022 0-.035 0-.011.01-.022 0-.035 0-.012.01-.023 0-.036v-.004c0-.01.009-.022 0-.035 0-.012.01-.024 0-.037 0-.01.01-.022 0-.035v-.004c0-.012.009-.023 0-.035v-.005c0-.012.009-.022 0-.036 0-.011.01-.022 0-.035 0-.013.009-.022 0-.034v-.005c0-.012.009-.023 0-.036 0-.011.009-.022 0-.035 0-.011.01-.024 0-.036 0-.012.009-.024 0-.035v-.005c0-.012.01-.022 0-.034-.482-.883-.722-1.324-1.206-2.206-.052-.096-.326-.175-.607-.175h-.626c.255-.007.424-.08.374-.171 0-.012.008-.024 0-.037 0-.013.008-.023 0-.038 0-.012.008-.023 0-.036 0-.013.008-.024 0-.037v-.004c0-.011.008-.022 0-.036 0-.01.008-.023 0-.037 0-.012.008-.024 0-.037 0-.012.008-.024 0-.036 0-.012.008-.024 0-.036 0-.012.008-.023 0-.036 0-.012.008-.023 0-.037 0-.013.008-.023 0-.036v-.005c0-.011.008-.022 0-.035 0-.012.008-.022 0-.036 0-.012.008-.023 0-.036 0-.01.008-.024 0-.036 0-.012.008-.024 0-.037 0-.012.008-.024 0-.036 0-.012.008-.024 0-.037 0-.012.008-.023 0-.035 0-.012.008-.024 0-.037l-1.2-2.203a.474.474 0 0 0-.3-.14h2.787c-.094.025-.145.066-.14.113-.008.012 0 .026 0 .04v.08a.06.06 0 0 0 0 .067v.012c-.008.011 0 .025 0 .039a.062.062 0 0 0 0 .068v.012c-.008.012 0 .027 0 .04v.159a.06.06 0 0 0 0 .067v.013c-.008.012 0 .026 0 .04v.16a.063.063 0 0 0 0 .066l1.261 2.205a.85.85 0 0 0 .607.175h.657c-.257.008-.424.08-.37.17 0 .014-.009.026 0 .04 0 .012-.009.023 0 .037 0 .013-.009.025 0 .04.007.013-.009.025 0 .039 0 .013-.009.025 0 .037 0 .013-.009.025 0 .038 0 .013-.009.025 0 .039 0 .013-.009.024 0 .038 0 .013-.009.025 0 .038 0 .013-.009.025 0 .04 0 .012-.009.024 0 .037 0 .013-.009.025 0 .039 0 .012-.009.025 0 .038 0 .012-.009.025 0 .039 0 .013-.009.025 0 .039 0 .012-.009.025 0 .039.007.014-.009.026 0 .039 0 .012-.009.025 0 .039 0 .013-.009.024 0 .038 0 .013-.009.025 0 .038 0 .012-.009.023 0 .038.505.881.76 1.323 1.266 2.203a.89.89 0 0 0 .626.176h6.686c.263 0 .426-.064.415-.145.008-.013 0-.026 0-.04v-.757a.058.058 0 0 0 0-.068c-.583-.883-.875-1.324-1.455-2.206a.925.925 0 0 0-.628-.175h-.72c.224-.007.364-.065.35-.141.008-.012 0-.027 0-.04v-.757a.062.062 0 0 0 0-.07c-.58-.88-.875-1.32-1.451-2.203a.54.54 0 0 0-.318-.142h4.847c.236 0 .38-.06.366-.142.008-.012 0-.026 0-.039v-.637m-8.738.673c.008-.011 0-.025 0-.039v-.199a.063.063 0 0 0 0-.04c.008-.012 0-.026 0-.04v-.239a.06.06 0 0 0 0-.039c.008-.013 0-.027 0-.04v-.16a.06.06 0 0 0 0-.069c-.549-.882-.822-1.322-1.368-2.204a.328.328 0 0 0-.146-.095h1.717a.07.07 0 0 0-.029.065c-.008.011 0 .025 0 .04v.038a.053.053 0 0 0 0 .04c-.008.012 0 .026 0 .041v.238a.05.05 0 0 0 0 .039c-.008.012 0 .027 0 .041v.039a.053.053 0 0 0 0 .04c-.008.012 0 .026 0 .04a.053.053 0 0 0 0 .04c-.008.012 0 .026 0 .04v.118a.065.065 0 0 0 0 .071c.566.882.848 1.323 1.412 2.205a.54.54 0 0 0 .313.142h-2.032c.088-.026.138-.065.132-.113m-17.536-3.066l.005.009c0 .01-.008.02-.005.03l.005.01c0 .009-.008.019-.005.03l.005.009c0 .01-.008.019-.005.03l.005.01c0 .01-.008.02-.005.03l.005.01c0 .01-.009.02-.005.03l.005.01c0 .01-.008.02-.005.03l.005.01c0 .01-.008.02-.005.03l.005.009c0 .01-.009.019-.005.03l.005.01c0 .01-.008.02-.005.03l.005.01c0 .01-.008.019-.005.029l.005.01c0 .011-.008.02-.005.032l.005.009c0 .01-.008.02-.005.03l.005.008c0 .01-.008.021-.005.032l.005.009c0 .01-.008.02-.005.03l.005.01c0 .01-.008.02-.005.03l.005.01c0 .01-.009.02-.005.03l.005.01c0 .01-.008.019-.005.03l.005.008c0 .012-.009.02-.005.033l.005.008c0 .01-.008.02-.005.03l.005.009c0 .01-.008.02-.005.03l.005.01c0 .01-.008.021-.005.03l.93 2.206c.025.06.136.11.28.142h-2.76c.115-.032.186-.082.162-.142v-.013c0-.01.008-.016 0-.028v-.011c0-.01.008-.018 0-.028v-.012c0-.008.008-.018 0-.027v-.013c0-.01.008-.018 0-.028v-.011c0-.01.008-.019 0-.028v-.012c0-.01.008-.018 0-.028v-.013c0-.01.008-.017 0-.027v-.012c0-.01.008-.018 0-.028v-.012c0-.01.008-.019 0-.028v-.012c0-.01.008-.017 0-.028v-.012c0-.009.008-.018 0-.028v-.012c0-.01.008-.017 0-.027v-.012c0-.01.008-.017 0-.028v-.012c0-.009.008-.018 0-.028v-.012c0-.01.008-.018 0-.028v-.011c0-.01.008-.019 0-.028v-.012c0-.01.008-.018 0-.028v-.012c0-.01.008-.018 0-.028v-.012c0-.01.008-.019 0-.028v-.012c0-.01.008-.018 0-.028v-.012c0-.01.008-.016 0-.027a839.04 839.04 0 0 0-.865-2.204.224.224 0 0 0-.124-.095h2.26c.063 0 .127-.007.19-.018-.059.03-.088.07-.073.113m-9.208 0l.004.019c0 .007-.007.014-.004.021a.129.129 0 0 0 .004.018c0 .007-.007.014-.004.023l.004.017c0 .008-.007.014-.004.021l.004.019c0 .008-.007.014-.004.022l.004.017c0 .009-.007.015-.004.022l.004.018c0 .007-.007.014-.004.022l.004.017c0 .008-.007.015-.004.023l.004.018c0 .008-.007.014-.004.022l.004.017c0 .007-.007.016-.004.023l.004.018c0 .007-.007.014-.004.02 0 .007.002.013.004.02 0 .007-.007.014-.004.021l.004.018c0 .007-.007.014-.004.022l.004.018c0 .008-.007.015-.004.023l.004.016c0 .008-.007.014-.004.022 0 .006.002.012.004.018 0 .008-.007.015-.004.023l.004.018c0 .007-.007.013-.004.022l.004.017c0 .007-.007.014-.004.022l.004.018c0 .008-.007.014-.004.023l.004.017c0 .007-.007.014-.004.022l.004.017c0 .008-.007.015-.004.022 0 .006.002.012.004.018 0 .008-.007.014-.004.023l.675 2.204c.018.06.126.11.262.142h-2.76c.12-.031.196-.081.181-.142l-.005-.02c0-.007.006-.012.005-.02l-.005-.02c0-.006.006-.012.005-.02l-.005-.02c0-.006.006-.012.005-.019l-.005-.02c0-.007.006-.013.005-.02l-.005-.02c0-.006.006-.012.005-.02l-.005-.02c0-.007.007-.013.005-.019l-.005-.023c0-.004.006-.01 0-.017v-.02c0-.007.006-.013.005-.02l-.005-.02c0-.008.006-.013.005-.02l-.005-.02c0-.007.006-.013.005-.02l-.005-.021c0-.005.006-.012.005-.02l-.005-.02c0-.006.006-.011.005-.018l-.005-.021c0-.007.006-.011.005-.02a.057.057 0 0 1-.005-.02c0-.006.006-.013 0-.02v-.019c0-.006.006-.013.005-.02a.068.068 0 0 1-.005-.02c0-.007.006-.012 0-.02v-.02c0-.006.007-.013.005-.02l-.005-.02c0-.007.006-.013.005-.02l-.005-.02c0-.006.006-.012.005-.02l-.005-.02c0-.007.006-.01.005-.019l-.005-.02c0-.007.006-.013.005-.02-.247-.881-.37-1.322-.613-2.203-.01-.037-.054-.067-.113-.096h2.353a.738.738 0 0 0 .079-.006c-.048.028-.077.063-.065.1m-27.63 0l-.08 2.204v.78c0 .06.088.11.214.142h-2.762c.131-.032.226-.082.228-.142.057-.882.088-1.323.141-2.205v-.799c0-.037-.031-.067-.08-.095h2.423c-.05.028-.087.058-.087.095m7.066 3.04v-.917l-.11-2.204c0-.036-.039-.066-.088-.095h2.423c-.048.029-.08.059-.079.095v.822l.175 2.205c.005.06.099.11.231.142h-2.759c.128-.032.217-.082.212-.142m-18.922 0c.158-.882.235-1.323.392-2.205v-.118c0-.006 0-.01-.005-.014l.005-.027c0-.005 0-.008-.005-.013l.005-.026v-.173a.24.24 0 0 1 0-.026v-.173a.24.24 0 0 1 0-.027v-.171a.23.23 0 0 1 0-.027v-.04c.007-.037-.025-.066-.07-.095h2.416c-.052.028-.093.058-.1.094-.13.882-.197 1.322-.33 2.204v.08s0 .006.005.009l-.005.03v.01a.11.11 0 0 1 0 .03c0 .004 0 .007.005.01 0 .01-.003.02-.005.03v.01a.11.11 0 0 1 0 .03s.005.007.005.01c0 .01-.003.02-.005.029 0 0 .005.007.005.01 0 .01-.003.02-.005.03v.051a.099.099 0 0 1 0 .028v.081s0 .007.005.01l-.005.03v.04s0 .006.005.009l-.005.03v.05a.11.11 0 0 1 0 .03v.04s.005.007.005.01c0 .01-.003.02-.005.03 0 0 0 .005.005.01l-.005.029v.04c-.01.065.087.117.224.148-.03 0-.054-.006-.083-.006H75.46c.133-.032.232-.082.243-.142m2.614 3.357c.122-.883.185-1.323.308-2.206v-.835c.01-.065-.087-.117-.223-.148.025 0 .05.006.079.006h2.73c-.134.03-.23.083-.239.142l-.247 2.203v.838c-.01.087.191.163.451.17H77.82c.263-.007.482-.08.496-.17m9.368.17c.263-.007.47-.08.472-.175l.058-2.205v-.83c0-.06-.088-.111-.217-.141h2.786c-.13.03-.22.082-.22.142v3.033c0 .088.206.164.468.176h-3.347zm16.202-3.385c.125-.032.207-.082.197-.142v-.04a.137.137 0 0 1 0-.028v-.49a.138.138 0 0 1 0-.029v-.249l-.363-2.205c-.005-.035-.046-.067-.1-.094h2.422c-.044.027-.075.059-.068.095a.216.216 0 0 1 .006.026c0 .004-.006.009-.006.014a.216.216 0 0 1 .006.025c0 .005-.006.009-.006.014a.23.23 0 0 1 .006.026s-.006.01-.006.014l.006.026s-.006.009-.006.013c.001.004 0 .018.006.027.005.01-.006.009-.006.012.001.004 0 .019.006.028.005.008-.006.008-.006.014a.198.198 0 0 1 .006.026s-.006.008-.006.013a.231.231 0 0 1 .006.026c0 .006-.006.01-.006.013.001.005 0 .018.006.027.005.008-.006.008-.006.014.001.005 0 .016.006.024.005.008-.006.01-.006.014.001.005 0 .019.006.027.005.007-.006.008-.006.015a.244.244 0 0 1 .006.025c0 .004-.006.01-.006.014.001.004 0 .017.006.026.005.009-.006.008-.006.014a.23.23 0 0 1 .006.026s-.006.008-.006.013c.001.004 0 .016.006.026.005.01-.006.01-.006.015.001.005 0 .017.006.025.005.009-.006.01-.006.015a.244.244 0 0 1 .006.025c0 .005-.006.01-.006.015a.243.243 0 0 1 .006.024c0 .006-.006.01-.006.016.001.006 0 .017.006.024.005.008-.006.01-.006.014.001.005 0 .018.006.027.005.008-.006.008-.006.013.001.005 0 .017.006.027.005.01-.006.009-.006.013.171.882.255 1.322.424 2.205.012.06.114.11.249.142h-2.76zm-6.336 3.385c.258-.007.46-.08.451-.175v-.828c-.076-.88-.116-1.32-.193-2.203-.006-.06-.101-.11-.232-.14h2.785c-.126.03-.212.082-.205.141v.557a.184.184 0 0 0 0 .032v.246c.101.883.154 1.323.255 2.205.01.087.224.164.485.17H97.55"/>
          <path fill="#6983C1" fill-rule="nonzero" d="M42.915 98.744a.788.788 0 0 1-.571.175h-5.94c-.257 0-.413-.076-.35-.175.602-.88.902-1.322 1.504-2.204a.823.823 0 0 1 .573-.176h5.75c.249 0 .406.077.35.176l-1.314 2.204m9.083.001c-.046.097-.294.175-.552.175h-5.94c-.257 0-.423-.078-.369-.175.503-.876.754-1.323 1.255-2.204a.739.739 0 0 1 .552-.175h5.748c.25 0 .417.076.371.175-.426.881-.638 1.324-1.065 2.205m9.083-.002c-.035.097-.273.175-.532.175h-5.939c-.262 0-.433-.077-.39-.175.402-.88.603-1.322 1.004-2.204.044-.097.282-.176.532-.176h5.749c.251 0 .425.077.39.176-.324.882-.488 1.323-.814 2.204m9.084.001c-.025.097-.254.175-.513.175h-5.938c-.263 0-.442-.078-.41-.175.301-.882.45-1.323.752-2.204.033-.097.263-.175.513-.175h5.748c.25 0 .433.076.41.175l-.562 2.205m9.085 0c-.014.096-.236.174-.494.174h-5.937c-.262 0-.452-.077-.43-.175.2-.876.3-1.323.5-2.204.022-.097.243-.175.493-.175h5.748c.25 0 .443.076.429.175l-.31 2.205m9.089-.002c-.005.097-.216.175-.474.175h-5.942c-.263 0-.461-.077-.45-.175l.249-2.204c.01-.097.223-.176.473-.176h5.749c.25 0 .45.077.447.176l-.056 2.204m9.084.001c.008.097-.195.175-.453.175h-5.94c-.262 0-.467-.078-.468-.175v-2.204c0-.097.202-.175.453-.175h5.75c.249 0 .46.076.469.175.078.881.115 1.324.192 2.205m9.08-.002c.019.097-.175.175-.431.175h-5.942c-.257 0-.476-.077-.487-.175l-.255-2.205c-.01-.097.183-.176.438-.176h5.748c.25 0 .47.078.489.176.175.882.262 1.323.445 2.204m9.08.001c.03.097-.155.175-.413.175h-5.938c-.259 0-.486-.077-.51-.175-.2-.882-.303-1.323-.506-2.205-.021-.097.164-.176.414-.176h5.75c.247 0 .477.078.507.176.277.882.419 1.323.7 2.204m9.082.001c.04.097-.135.175-.393.175h-5.94c-.258 0-.495-.077-.525-.175l-.758-2.205c-.034-.097.143-.176.394-.176h5.75c.249 0 .486.078.524.176l.95 2.204m9.08.001c.052.097-.115.175-.374.175h-5.939c-.257 0-.503-.076-.548-.175l-1.01-2.204c-.043-.097.124-.176.374-.176h5.749a.725.725 0 0 1 .548.176l1.2 2.204m9.083 0c.063.097-.095.175-.35.175h-5.94a.773.773 0 0 1-.567-.175l-1.262-2.204c-.054-.097.104-.176.35-.176h5.75a.8.8 0 0 1 .566.176c.58.882.87 1.323 1.452 2.204m-103.9 6.664a.865.865 0 0 1-.613.175H31.89c-.279 0-.454-.078-.387-.175l1.506-2.202a.885.885 0 0 1 .613-.176h6.244c.272 0 .446.077.388.176l-1.313 2.202m9.84 0c-.046.096-.313.175-.593.175h-6.435c-.279 0-.462-.078-.408-.175l1.256-2.202c.054-.099.32-.176.59-.176h6.245c.271 0 .455.077.409.176l-1.065 2.202m9.845 0c-.035.096-.292.175-.571.175H51.62c-.281 0-.472-.078-.428-.175.4-.882.602-1.321 1.003-2.202.044-.099.298-.176.57-.176h6.245c.272 0 .465.077.429.176l-.813 2.202m9.844 0c-.025.097-.272.175-.55.175h-6.436c-.28 0-.48-.078-.449-.175l.752-2.202c.032-.099.28-.176.552-.176h6.244c.272 0 .473.077.449.176l-.562 2.202m9.846 0c-.014.096-.252.175-.533.175h-6.434c-.28 0-.49-.078-.468-.175l.5-2.202c.022-.099.258-.176.531-.176h6.245c.273 0 .482.077.468.176l-.31 2.202m9.845 0c0 .096-.232.175-.511.175h-6.435c-.28 0-.5-.078-.489-.175.098-.882.15-1.321.247-2.202.012-.099.242-.176.513-.176h6.246c.273 0 .489.077.487.176-.023.88-.033 1.32-.058 2.202m9.845 0c.01.096-.211.175-.492.175h-6.435c-.28 0-.507-.078-.507-.175v-2.202c0-.099.22-.176.49-.176h6.248c.27 0 .499.077.507.176.077.88.117 1.32.193 2.202m9.84 0c.02.097-.192.175-.471.175h-6.437c-.28 0-.516-.078-.525-.175l-.256-2.202c-.01-.099.201-.176.472-.176h6.246c.271 0 .508.077.525.176.175.88.263 1.32.445 2.202m9.846 0c.03.096-.175.175-.453.175h-6.435c-.28 0-.525-.078-.548-.175-.201-.882-.303-1.321-.506-2.202-.022-.099.181-.176.452-.176h6.245c.27 0 .518.077.549.176l.696 2.202m9.844 0c.042.096-.151.175-.431.175h-6.435c-.28 0-.535-.078-.568-.175l-.759-2.202c-.033-.099.16-.176.438-.176h6.245c.272 0 .525.077.567.176l.948 2.202m9.84 0c.052.096-.132.175-.414.175h-6.43c-.279 0-.542-.078-.587-.175l-1.01-2.202c-.044-.099.142-.176.414-.176h6.243c.273 0 .535.077.589.176l1.2 2.202m9.839 0c.064.096-.114.175-.393.175h-6.435a.847.847 0 0 1-.607-.175l-1.261-2.202c-.056-.099.12-.176.393-.176h6.245a.875.875 0 0 1 .606.176l1.452 2.202m-109.37-3.359a.853.853 0 0 1-.6.175h-6.184c-.269 0-.433-.077-.362-.175l1.588-2.204a.883.883 0 0 1 .597-.175h5.994c.263 0 .426.078.365.175l-1.401 2.204m9.462 0c-.05.097-.308.175-.578.175h-6.184c-.269 0-.438-.077-.383-.175.535-.88.803-1.322 1.336-2.204a.803.803 0 0 1 .58-.175h5.994c.262 0 .432.078.382.175l-1.147 2.204m9.462 0c-.04.097-.289.175-.558.175h-6.185c-.269 0-.45-.077-.402-.175l1.086-2.204c.046-.096.297-.175.558-.175h5.994c.263 0 .438.079.402.175l-.895 2.204m9.463 0c-.03.097-.27.175-.54.175h-6.184c-.27 0-.459-.077-.423-.175l.833-2.204c.037-.096.278-.175.539-.175h5.995c.262 0 .451.078.422.175-.258.882-.386 1.323-.642 2.204m9.46 0c-.017.097-.248.175-.519.175h-6.184c-.27 0-.468-.077-.438-.175.232-.88.35-1.322.58-2.204.026-.096.258-.175.519-.175h5.996c.263 0 .459.078.442.175-.156.882-.234 1.323-.392 2.204m9.458 0c-.006.097-.229.175-.5.175h-6.182c-.27 0-.479-.077-.465-.175.133-.88.2-1.322.331-2.204.015-.097.239-.175.5-.175h5.99c.263 0 .47.078.463.175-.056.882-.088 1.323-.14 2.204m9.465 0c.005.097-.208.175-.479.175h-6.184c-.27 0-.486-.077-.482-.175l.078-2.204c0-.096.219-.175.48-.175h5.993c.262 0 .477.078.481.175.046.882.067 1.323.111 2.204m9.464 0c.016.097-.19.175-.459.175h-6.183c-.269 0-.495-.077-.502-.175-.069-.88-.104-1.322-.176-2.204-.007-.096.2-.175.46-.175h5.997c.262 0 .485.077.5.175.146.883.217 1.325.363 2.206m9.462-.002c.026.097-.175.175-.437.175h-6.186c-.27 0-.503-.077-.525-.175-.17-.88-.253-1.322-.423-2.204-.02-.096.175-.175.438-.175h6c.263 0 .497.078.526.175l.613 2.204m9.455 0c.038.097-.149.175-.417.175h-6.186c-.269 0-.512-.077-.542-.175l-.676-2.205c-.029-.096.159-.176.419-.176h5.995c.263 0 .505.078.542.176.35.88.519 1.322.865 2.204m9.461.001c.05.097-.13.175-.4.175h-6.183c-.27 0-.525-.077-.562-.175l-.928-2.204c-.04-.096.14-.175.4-.175h5.995c.262 0 .513.077.56.175.45.883.672 1.325 1.118 2.206m9.46-.002c.06.097-.109.175-.377.175h-6.185c-.27 0-.531-.077-.582-.175-.472-.88-.708-1.322-1.179-2.204-.051-.096.119-.175.38-.175h5.994a.817.817 0 0 1 .581.175c.547.882.82 1.323 1.369 2.204m8.733 0c.07.097-.092.175-.36.175h-6.186a.856.856 0 0 1-.599-.175c-.565-.88-.847-1.322-1.412-2.204-.061-.096.101-.175.361-.175h5.997a.886.886 0 0 1 .598.175l1.601 2.204M37.14 108.794a.91.91 0 0 1-.632.175h-6.684c-.292 0-.476-.077-.41-.175l1.499-2.205a.943.943 0 0 1 .632-.175h6.495c.284 0 .468.076.411.175l-1.313 2.206m10.234 0c-.048.096-.32.174-.613.174h-6.686c-.291 0-.484-.078-.429-.175l1.248-2.204a.861.861 0 0 1 .613-.175H48c.283 0 .476.076.43.175-.424.882-.636 1.323-1.058 2.206m10.227-.002c-.034.097-.299.175-.591.175h-6.686c-.291 0-.493-.077-.449-.175l.997-2.205c.043-.097.31-.176.592-.176h6.497c.284 0 .484.078.45.176-.324.88-.486 1.321-.809 2.204m10.232.001c-.024.097-.281.175-.571.175h-6.687c-.293 0-.501-.078-.469-.175.3-.883.447-1.323.745-2.205.033-.095.29-.175.572-.175h6.496c.283 0 .494.076.47.175l-.556 2.206m41.322 0c.021.096-.2.174-.49.174h-37.84c-.291 0-.509-.077-.488-.175.197-.881.297-1.323.493-2.205.022-.095.27-.175.552-.175h36.764c.283 0 .525.078.548.175l.461 2.204m9.834.001c.03.097-.182.175-.473.175h-6.687c-.291 0-.544-.078-.566-.175-.205-.882-.309-1.323-.513-2.204-.022-.095.188-.175.47-.175h6.498c.283 0 .537.076.568.175.281.882.421 1.323.7 2.206m10.233-.002c.042.097-.16.175-.453.175h-6.685c-.291 0-.556-.077-.589-.175l-.764-2.205c-.034-.097.17-.176.453-.176h6.495c.285 0 .547.078.59.176.38.88.57 1.321.953 2.204m10.23.001c.054.097-.142.175-.432.175h-6.687c-.291 0-.564-.077-.613-.175-.404-.883-.608-1.323-1.013-2.205-.045-.097.15-.176.437-.176h6.497c.28 0 .555.077.607.176l1.206 2.205m10.228 0c.064.097-.12.175-.414.175h-6.686a.888.888 0 0 1-.626-.175l-1.267-2.205c-.055-.097.13-.176.41-.176h6.499a.922.922 0 0 1 .627.176c.582.882.875 1.322 1.457 2.205"/>
          <path fill="#141525" fill-rule="nonzero" d="M91.283 2.85a1.243 1.243 0 1 1-2.485 0 1.243 1.243 0 0 1 2.485 0"/>
        </g>
        <path fill="#00BD64" fill-rule="nonzero" d="M135.525 29.278h-15.107c-1.176-.003-2.129-.936-2.132-2.087v-1.598c.003-1.152.956-2.084 2.132-2.088h15.107c1.176.004 2.129.936 2.132 2.088v1.598c-.003 1.151-.956 2.084-2.132 2.087"/>
        <g transform="translate(50.282 19.794)">
          <path fill="#00BD64" fill-rule="nonzero" d="M84.846 29.052H69.843a2.125 2.125 0 0 1-2.117-2.121v-1.623a2.125 2.125 0 0 1 2.117-2.122h15.003a2.125 2.125 0 0 1 2.117 2.122v1.623a2.125 2.125 0 0 1-2.117 2.12M69.843 43.54h15.003a2.125 2.125 0 0 1 2.116 2.12v1.624a2.125 2.125 0 0 1-2.116 2.121H69.843a2.125 2.125 0 0 1-2.118-2.121V45.66a2.125 2.125 0 0 1 2.118-2.121" opacity=".5"/>
          <path fill="#BCBBBB" fill-rule="nonzero" d="M14.005 7.015c0 3.874-3.135 7.015-7.002 7.015C3.135 14.03 0 10.89 0 7.015 0 3.141 3.135 0 7.003 0c3.867 0 7.002 3.14 7.002 7.015m0 19.817c0 3.875-3.135 7.015-7.002 7.015-3.868 0-7.003-3.14-7.003-7.015 0-3.874 3.135-7.015 7.003-7.015 3.867 0 7.002 3.141 7.002 7.015m0 18.937c0 3.874-3.135 7.015-7.002 7.015C3.135 52.784 0 49.643 0 45.769c0-3.875 3.135-7.015 7.003-7.015 3.867 0 7.002 3.14 7.002 7.015"/>
          <rect width="35.827" height="1.958" x="18.24" y="3.914" fill="#BCBBBB" fill-rule="nonzero"/>
          <rect width="13.433" height="1.694" x="18.24" y="7.44" fill="#BCBBBB" fill-rule="nonzero"/>
          <rect width="35.827" height="1.958" x="18.24" y="24.164" fill="#BCBBBB" fill-rule="nonzero"/>
          <rect width="13.433" height="1.694" x="18.24" y="27.691" fill="#BCBBBB" fill-rule="nonzero"/>
          <rect width="35.827" height="1.958" x="18.24" y="43.539" fill="#BCBBBB" fill-rule="nonzero"/>
          <rect width="13.433" height="1.694" x="18.24" y="47.066" fill="#BCBBBB" fill-rule="nonzero"/>
        </g>
        <g transform="translate(126.53 23.505)">
          <polygon fill="#FFF" fill-rule="nonzero" points="1.943 2.066 9.405 31.037 16.38 21.624 27.329 31.767 32.037 27.628 21.733 15.943 30.006 10.098"/>
          <path fill="#272727" fill-rule="nonzero" d="M33.416 26.648L23.04 16.267l8.584-5.203a1.29 1.29 0 0 0-.307-2.342L1.652.052a1.29 1.29 0 0 0-1.6 1.6L8.72 31.337a1.289 1.289 0 0 0 2.34.307l5.2-8.589 10.376 10.382a1.29 1.29 0 0 0 1.824 0l4.959-4.961a1.292 1.292 0 0 0 0-1.825m-5.874 4.05L16.921 20.067a1.29 1.29 0 0 0-2.015.241l-4.534 7.488L3.192 3.19l24.588 7.19-7.484 4.536a1.29 1.29 0 0 0-.243 2.016L30.681 27.56l-3.136 3.14z"/>
        </g>
        <path fill="#272727" fill-rule="nonzero" d="M119.851 17.696l.878-.879a.39.39 0 0 1 .553 0l4.52 4.525a.392.392 0 0 1 0 .554l-.876.878a.392.392 0 0 1-.554 0l-4.52-4.524a.392.392 0 0 1 0-.554zm3.138 10.988v-1.243a.392.392 0 0 0-.391-.392h-6.395a.392.392 0 0 0-.391.392v1.243c0 .216.175.39.391.39h6.394a.39.39 0 0 0 .39-.39m-3.106 9.156l4.442-4.446a.446.446 0 0 1 .632 0l.8.8a.448.448 0 0 1 0 .633l-4.443 4.445a.446.446 0 0 1-.632 0l-.799-.8a.448.448 0 0 1 0-.632zm16.532-16.529l4.443-4.446a.446.446 0 0 1 .632 0l.799.8a.448.448 0 0 1 0 .633l-4.444 4.446a.446.446 0 0 1-.632 0l-.8-.8a.448.448 0 0 1 .001-.633zm-5.944-1.345h1.242a.392.392 0 0 0 .391-.391v-6.401a.392.392 0 0 0-.391-.39h-1.242a.391.391 0 0 0-.39.391v6.4c0 .216.174.39.39.39"/>
      </g>
    </g>
  </g>
</svg>
