<svg xmlns="http://www.w3.org/2000/svg" xmlns:xlink="http://www.w3.org/1999/xlink" width="230" height="230" viewBox="0 0 230 230">
  <defs>
    <filter id="b" width="180%" height="180%" x="-40%" y="-40%" filterUnits="objectBoundingBox">
      <feOffset in="SourceAlpha" result="shadowOffsetOuter1"/>
      <feGaussianBlur in="shadowOffsetOuter1" result="shadowBlurOuter1" stdDeviation="20"/>
      <feColorMatrix in="shadowBlurOuter1" values="0 0 0 0 1 0 0 0 0 0.850980392 0 0 0 0 0.874509804 0 0 0 1 0"/>
    </filter>
    <filter id="e" width="109.3%" height="109.3%" x="-4.7%" y="-4.7%" filterUnits="objectBoundingBox">
      <feGaussianBlur in="SourceAlpha" result="shadowBlurInner1" stdDeviation="5"/>
      <feOffset dx="2" dy="4" in="shadowBlurInner1" result="shadowOffsetInner1"/>
      <feComposite in="shadowOffsetInner1" in2="SourceAlpha" k2="-1" k3="1" operator="arithmetic" result="shadowInnerInner1"/>
      <feColorMatrix in="shadowInnerInner1" values="0 0 0 0 0.243137255 0 0 0 0 0.0823529412 0 0 0 0 0.31372549 0 0 0 0.3 0"/>
    </filter>
    <circle id="a" cx="75" cy="97.727" r="75"/>
    <circle id="c" cx="75" cy="97.591" r="75"/>
    <radialGradient id="d" cx="25.273%" cy="100%" r="57.259%" fx="25.273%" fy="100%">
      <stop offset="0%" stop-color="#2C1F47" stop-opacity=".984"/>
      <stop offset="100%" stop-color="#863888"/>
    </radialGradient>
    <path id="f" d="M150 0v95h-.049c.033.905.049 1.814.049 2.727 0 41.422-33.579 75-75 75s-75-33.578-75-75c0-.913.016-1.822.049-2.727H0V0h150z"/>
  </defs>
  <g fill="none" fill-rule="evenodd" transform="translate(40 17.273)">
    <use fill="#000" filter="url(#b)" opacity=".3" xlink:href="#a"/>
    <use fill="url(#d)" xlink:href="#c"/>
    <use fill="#000" filter="url(#e)" xlink:href="#c"/>
    <mask id="g" fill="#fff">
      <use xlink:href="#f"/>
    </mask>
    <path fill="#FFF" fill-rule="nonzero" d="M133.141 34.59a11.537 11.537 0 0 1 6 1.686 11.577 11.577 0 0 1 5.559 9.885v83.302c0 .688-.061 1.362-.177 2.016-.958 5.429-5.688 9.55-11.382 9.556H89.68l3.781 20.82h2.7a6.946 6.946 0 0 1 6.933 6.94v1.297c21.31.89 36.027 2.785 36.027 4.98 0 3.048-28.39 5.519-63.41 5.519-35.02 0-63.408-2.471-63.408-5.52 0-2.17 14.386-4.047 35.31-4.949l.001-1.328a6.946 6.946 0 0 1 6.932-6.938l2.695-.001 2.942-16.196.838-4.624H17.558a11.51 11.51 0 0 1-6.529-2.027 11.639 11.639 0 0 1-4.345-5.624 11.504 11.504 0 0 1-.455-1.625l-.052-.279A11.666 11.666 0 0 1 6 129.464V46.16a11.572 11.572 0 0 1 1.49-5.678l.139-.239.054-.09a11.608 11.608 0 0 1 5.913-4.862l.108-.039c.242-.086.488-.164.738-.234l.055-.015a11.334 11.334 0 0 1 1.1-.245l.144-.024a11.557 11.557 0 0 1 1.817-.144H133.14z" mask="url(#g)"/>
    <g mask="url(#g)" opacity=".75">
      <g transform="translate(6 34.59)">
        <ellipse cx="69.711" cy="140.481" fill="#393939" fill-rule="nonzero" opacity=".212" rx="63.409" ry="5.519"/>
        <path fill="#E6E6E7" fill-rule="nonzero" d="M127.141 0H11.56C5.178.007.007 5.183 0 11.57v83.303c.006 6.387 5.177 11.564 11.559 11.571H127.14c6.38-.006 11.552-5.182 11.559-11.569V11.57C138.693 5.183 133.522.007 127.141 0"/>
        <path fill="#CED0D1" fill-rule="nonzero" d="M6.932 94.872V11.569C6.94 5.181 12.112.005 18.494 0h-6.936C5.178.007.008 5.183 0 11.57v83.302c.006 6.388 5.176 11.565 11.558 11.572h6.936c-6.383-.005-11.556-5.183-11.562-11.572"/>
        <path fill="#62B7A5" fill-rule="nonzero" d="M87.806 129.168l-4.623-25.454c-.2-1.1-1.158-1.9-2.275-1.9H57.792a2.31 2.31 0 0 0-2.274 1.9l-4.624 25.454a2.315 2.315 0 0 0 2.275 2.727H85.53a2.313 2.313 0 0 0 2.276-2.727"/>
        <path fill="#33A68D" fill-rule="nonzero" d="M83.183 103.715c-.2-1.1-1.158-1.9-2.275-1.9H57.792c-1.117 0-2.075.8-2.275 1.9l-1.339 7.354H84.52l-1.336-7.354z"/>
        <path fill="#73BEB2" fill-rule="nonzero" d="M90.155 127.265h-41.61a6.946 6.946 0 0 0-6.932 6.939v2.315a2.313 2.313 0 0 0 2.312 2.314H94.78a2.313 2.313 0 0 0 2.312-2.314v-2.315a6.946 6.946 0 0 0-6.932-6.939"/>
        <path fill="#62B7A5" fill-rule="nonzero" d="M46.233 136.523v-2.314a6.947 6.947 0 0 1 6.931-6.938h-4.62a6.947 6.947 0 0 0-6.931 6.938v2.314a2.315 2.315 0 0 0 2.312 2.314h4.623a2.313 2.313 0 0 1-2.312-2.314M138.699 11.57C138.692 5.183 133.521.007 127.141 0H11.558C5.178.007.007 5.183 0 11.57v2.314h138.7v-2.315zM11.56 106.442h115.58c6.381-.007 11.552-5.183 11.559-11.57H0c.007 6.387 5.178 11.563 11.559 11.57"/>
        <path fill="#33A68D" fill-rule="nonzero" d="M18.493 0h-6.931C5.18.005.007 5.182 0 11.57v2.314h6.932V11.57C6.939 5.182 12.112.005 18.493 0M6.932 94.872H0c.007 6.387 5.177 11.563 11.558 11.57h6.936c-6.382-.005-11.555-5.182-11.562-11.57"/>
        <path fill="#4E5057" fill-rule="nonzero" d="M104.322 88.063H34.813a2.32 2.32 0 0 1-2.042-3.489 2.317 2.317 0 0 1 2.042-1.146h69.509c5.118 0 9.268-4.15 9.268-9.27 0-5.12-4.15-9.27-9.268-9.27H71.885c-7.678 0-13.902-6.225-13.902-13.904 0-7.68 6.224-13.905 13.902-13.905h41.701a2.317 2.317 0 0 1 0 4.635H71.885a9.268 9.268 0 0 0-8.027 13.905 9.268 9.268 0 0 0 8.027 4.635h32.437c7.677 0 13.901 6.225 13.901 13.904 0 7.68-6.224 13.905-13.901 13.905"/>
        <g transform="translate(13.909 32.444)">
          <path fill="#DD3E2D" fill-rule="nonzero" d="M20.863 0C9.346.013.013 9.343 0 20.857c0 10.769 17.13 31.592 19.084 33.93a2.318 2.318 0 0 0 3.558 0c1.954-2.338 19.084-23.161 19.084-33.93C41.713 9.344 32.38.013 20.863 0"/>
          <path fill="#C42E1F" fill-rule="nonzero" d="M4.636 23.175a20.845 20.845 0 0 1 8.8-17.022A20.86 20.86 0 0 1 32.416 3.5a20.86 20.86 0 0 0-21.409-1.03A20.846 20.846 0 0 0 0 20.858c0 10.768 17.13 31.59 19.084 33.93a2.311 2.311 0 0 0 3.089.421C17.445 49.314 4.637 32.486 4.637 23.174"/>
          <path fill="#E6E6E7" fill-rule="nonzero" d="M20.863 6.952c7.682 0 13.91 6.226 13.91 13.905 0 7.68-6.228 13.904-13.91 13.904-7.681 0-13.909-6.225-13.909-13.904 0-7.68 6.228-13.905 13.91-13.905"/>
          <path fill="#CED0D1" fill-rule="nonzero" d="M20.863 11.588c5.122 0 9.273 4.15 9.273 9.27 0 5.12-4.151 9.27-9.273 9.27-5.12 0-9.273-4.15-9.273-9.27 0-5.12 4.152-9.27 9.273-9.27"/>
        </g>
        <g transform="translate(105.087 27.423)">
          <polygon fill="#855C36" fill-rule="nonzero" points="21.634 16.219 10.817 21.627 10.817 10.809 21.634 5.403"/>
          <polygon fill="#A67F41" fill-rule="nonzero" points="10.817 21.627 0 16.219 0 5.403 10.817 10.811"/>
          <polygon fill="#B38A47" fill-rule="nonzero" points="21.634 5.407 10.817 10.812 0 5.4 10.817 0"/>
          <polygon fill="#DDAA56" fill-rule="nonzero" points="10.817 10.839 0 5.43 0 5.407 .025 5.394 10.817 10.792"/>
          <polygon fill="#DCC092" fill-rule="nonzero" points="10.818 10.839 21.636 5.431 21.636 5.407 21.611 5.394 10.818 10.792"/>
          <path fill="#836D59" fill-rule="nonzero" d="M10.818 10.814l10.818-5.41-10.818 5.41z"/>
          <path fill="#855C36" fill-rule="nonzero" d="M10.818 12.147v-1.33a50.328 50.328 0 0 0 0 10.813v-1.698a54.433 54.433 0 0 1 0-7.786"/>
          <path fill="#5A3C21" fill-rule="nonzero" d="M10.818 21.055V11.028a91.673 91.673 0 0 0 0 10.027"/>
          <polygon fill="#F9EAC4" fill-rule="nonzero" points="5.849 13.947 4.287 13.167 4.287 7.578 5.849 8.359"/>
          <polygon fill="#FFF4CC" fill-rule="nonzero" points="4.287 7.579 5.849 8.359 16.772 2.975 15.21 2.194"/>
          <path fill="#21262F" fill-rule="nonzero" d="M1.61 15.195l-1.217-.608c-.046-.023-.079-.005-.079.041v1.217a.153.153 0 0 0 .08.123l1.216.609c.046.023.08.004.08-.042V15.32a.154.154 0 0 0-.08-.124m.019 1.242c0 .047-.038.066-.085.042l-1.085-.542a.159.159 0 0 1-.083-.126v-1.085c0-.047.037-.066.083-.043l1.085.543c.048.025.08.072.085.126v1.085z"/>
          <polygon fill="#21262F" fill-rule="nonzero" points=".78 15.904 .701 15.866 .701 15.029 .78 15.067"/>
          <polygon fill="#21262F" fill-rule="nonzero" points=".742 14.939 .638 15.097 .742 15.15 .847 15.202"/>
          <polygon fill="#21262F" fill-rule="nonzero" points="1.301 16.164 1.222 16.125 1.222 15.289 1.301 15.327"/>
          <polygon fill="#21262F" fill-rule="nonzero" points="1.262 15.2 1.158 15.358 1.262 15.411 1.367 15.463"/>
          <polygon fill="#21262F" fill-rule="nonzero" points=".529 15.892 .529 15.812 1.475 16.288 1.475 16.367"/>
          <path fill="#21262F" fill-rule="nonzero" d="M3.249 16.013l-1.217-.608c-.046-.023-.08-.005-.08.041v1.217a.153.153 0 0 0 .08.123l1.217.609c.046.023.079.004.079-.042v-1.216a.154.154 0 0 0-.08-.124m.019 1.242c0 .047-.038.066-.085.042l-1.085-.542a.159.159 0 0 1-.083-.126v-1.085c0-.047.037-.066.083-.043l1.085.543c.048.025.08.072.085.126v1.085z"/>
          <path fill="#21262F" fill-rule="nonzero" d="M2.928 16.62a.352.352 0 0 1-.188-.278v-.43l.375.187v.43c0 .102-.085.144-.187.093"/>
          <polygon fill="#21262F" fill-rule="nonzero" points="2.95 17.063 2.906 17.041 2.906 16.592 2.95 16.614"/>
          <path fill="#21262F" fill-rule="nonzero" d="M2.741 16.986c0-.023.02-.034.044-.022l.284.143a.086.086 0 0 1 .044.066l-.372-.187zm-.575-1.362v.607c.028.169.21.318.483.397.269.073.482.013.482-.132v-.603l-.965-.27zm.866.85c0 .112-.172.163-.383.104-.217-.062-.36-.181-.382-.315v-.557l.765.21v.558z"/>
          <polygon fill="#21262F" fill-rule="nonzero" points="2.375 16.775 2.331 16.753 2.331 16.304 2.375 16.326"/>
          <path fill="#21262F" fill-rule="nonzero" d="M2.166 16.701c0-.024.02-.034.044-.022l.285.142c.024.014.04.038.043.066l-.372-.186zm2.721.13l-1.217-.607c-.046-.023-.08-.005-.08.041v1.217a.154.154 0 0 0 .08.123l1.217.608c.046.023.08.005.08-.04v-1.218a.154.154 0 0 0-.08-.123m.018 1.242c0 .047-.038.066-.085.042l-1.084-.542a.159.159 0 0 1-.084-.126v-1.085c0-.047.038-.066.084-.043l1.084.543c.048.025.08.072.085.126v1.085z"/>
          <path fill="#21262F" fill-rule="nonzero" d="M4.03 17.069a.167.167 0 0 1 .132.017.38.38 0 0 1 .133.115.167.167 0 0 1 .132.018.369.369 0 0 1 .13.115.169.169 0 0 1 .133.015.362.362 0 0 1 .033.02.817.817 0 0 0-.423-.6c-.222-.11-.403-.032-.423.175l.023.01a.372.372 0 0 1 .132.115"/>
          <path fill="#21262F" fill-rule="nonzero" d="M4.211 17.74a.212.212 0 0 1-.113-.17v-.022c0-.012.01-.018.023-.01.013.006.022.02.024.034v.022c.003.043.029.08.066.1.038.018.067 0 .067-.033v-.943c0-.014.01-.019.024-.013.013.007.021.02.023.035v.943c0 .063-.051.088-.114.057"/>
        </g>
      </g>
    </g>
  </g>
</svg>
