<svg xmlns="http://www.w3.org/2000/svg" xmlns:xlink="http://www.w3.org/1999/xlink" width="230" height="230" viewBox="0 0 230 230">
  <defs>
    <filter id="b" width="180%" height="180%" x="-40%" y="-40%" filterUnits="objectBoundingBox">
      <feOffset in="SourceAlpha" result="shadowOffsetOuter1"/>
      <feGaussianBlur in="shadowOffsetOuter1" result="shadowBlurOuter1" stdDeviation="20"/>
      <feColorMatrix in="shadowBlurOuter1" values="0 0 0 0 1 0 0 0 0 0.850980392 0 0 0 0 0.874509804 0 0 0 1 0"/>
    </filter>
    <filter id="e" width="109.3%" height="109.3%" x="-4.7%" y="-4.7%" filterUnits="objectBoundingBox">
      <feGaussianBlur in="SourceAlpha" result="shadowBlurInner1" stdDeviation="5"/>
      <feOffset dx="2" dy="4" in="shadowBlurInner1" result="shadowOffsetInner1"/>
      <feComposite in="shadowOffsetInner1" in2="SourceAlpha" k2="-1" k3="1" operator="arithmetic" result="shadowInnerInner1"/>
      <feColorMatrix in="shadowInnerInner1" values="0 0 0 0 0.243137255 0 0 0 0 0.0823529412 0 0 0 0 0.31372549 0 0 0 0.3 0"/>
    </filter>
    <circle id="a" cx="75" cy="96.136" r="75"/>
    <circle id="c" cx="75" cy="96" r="75"/>
    <radialGradient id="d" cx="26.08%" cy="100%" r="57.259%" fx="26.08%" fy="100%">
      <stop offset="0%" stop-color="#2C1F47" stop-opacity=".984"/>
      <stop offset="100%" stop-color="#863888"/>
    </radialGradient>
    <path id="f" d="M150 0v93.41h-.049c.033.904.049 1.813.049 2.726 0 41.422-33.579 75-75 75s-75-33.578-75-75c0-17.29 5.85-33.213 15.68-45.898L15.682 0H150z"/>
  </defs>
  <g fill="none" fill-rule="evenodd" transform="translate(40 18.864)">
    <use fill="#000" filter="url(#b)" opacity=".3" xlink:href="#a"/>
    <use fill="url(#d)" xlink:href="#c"/>
    <use fill="#000" filter="url(#e)" xlink:href="#c"/>
    <mask id="g" fill="#fff">
      <use xlink:href="#f"/>
    </mask>
    <g mask="url(#g)">
      <g transform="translate(4.773 21.136)">
        <path fill="#FFF" fill-rule="nonzero" d="M115.378 0c.244 0 .442.2.442.445v19.378l.001 18.102v19.379a.445.445 0 0 1-.363.437l-.08.007h-10.357a3.027 3.027 0 0 1 2.992 3.03 3.027 3.027 0 0 1-3.021 3.033h-1.815v1.514a15.46 15.46 0 0 1-4.504 10.912 15.349 15.349 0 0 1-10.873 4.52H74.471l.001 8.947h18.233c9.957.006 18.027 8.105 18.033 18.098v28.59h2.306a3.116 3.116 0 0 1 3.101 3.112l.003.92c10.257 1.016 16.476 2.348 16.476 3.807 0 3.186-29.689 5.769-66.312 5.769S0 147.417 0 144.23c0-1.684 8.304-3.2 21.546-4.255v-.47a3.117 3.117 0 0 1 3.102-3.114h2.304v-28.59c.006-9.992 8.076-18.091 18.033-18.097H63.22v-8.947H49.892a15.347 15.347 0 0 1-10.59-4.244l-.283-.276a15.46 15.46 0 0 1-4.503-10.912v-1.514h-1.818a3.027 3.027 0 0 1-3.02-3.032l.004-.178a3.027 3.027 0 0 1 2.839-2.849l.147-.005H22.314a.442.442 0 0 1-.443-.443V.444c0-.245.198-.444.443-.444h93.064zm9.637 1.083a.425.425 0 0 1 0 .851h-.9c.23.005.414.19.418.421v38.268h5.364v-.431a.609.609 0 0 1 .505-.595l.097-.009h3.423a.67.67 0 0 1 .666.669l.001.765a8.425 8.425 0 0 1 5.832 7.743l.005.256c-.018 4.326-3.284 7.883-7.478 8.338v.2a8.29 8.29 0 0 1-.527.021h-6.932a2.502 2.502 0 0 1-2.479-2.501V53.3l.385-.001v-3.417h-.042a.429.429 0 0 1-.413-.355l-.006-.076v-.033a.428.428 0 0 1 .42-.42l.041-.001v-.808h-.042a.42.42 0 0 1-.412-.345l-.007-.075v-.032a.42.42 0 0 1 .42-.42l.041-.001v-.808h-.042a.427.427 0 0 1-.41-.336l-.009-.084v-.032a.43.43 0 0 1 .42-.432h.041v-.808h-.042a.42.42 0 0 1-.412-.345l-.007-.076v-.032a.428.428 0 0 1 .42-.42l.041-.001v-2.586a.742.742 0 0 1 .29-.58V2.354v2.92a.425.425 0 1 1-.849 0v-3.77a.43.43 0 0 1 .43-.42h1.75z" style="mix-blend-mode:color"/>
        <g opacity=".7">
          <ellipse cx="66.312" cy="144.231" fill="#393939" fill-rule="nonzero" opacity=".212" rx="66.312" ry="5.769"/>
          <g fill-rule="nonzero" transform="translate(21.547)">
            <g transform="translate(8.132 57.747)">
              <rect width="11.252" height="8.949" x="33.542" y="23.008" fill="#585755"/>
              <path fill="#BDBDBD" d="M4.838 6.064v1.514A15.46 15.46 0 0 0 9.342 18.49a15.349 15.349 0 0 0 10.873 4.52h37.907c4.078 0 7.99-1.626 10.873-4.52a15.46 15.46 0 0 0 4.504-10.912V6.064H4.839z"/>
              <path fill="#585755" d="M0 3.032a3.027 3.027 0 0 0 3.021 3.032h72.293a3.027 3.027 0 0 0 3.02-3.032A3.027 3.027 0 0 0 75.315 0H3.02A3.027 3.027 0 0 0 0 3.032"/>
            </g>
            <g transform="translate(.324)">
              <path fill="#A67F41" d="M0 .445v56.859a.445.445 0 0 0 .443.444h93.064a.443.443 0 0 0 .443-.444V.444A.444.444 0 0 0 93.507 0H.443C.198 0 0 .2 0 .445"/>
              <rect width="26.323" height="18.101" y="19.824" fill="#FFF4CC"/>
              <rect width="25.917" height="18.101" x="68.033" y="19.824" fill="#FFF4CC"/>
              <g fill="#21282C" transform="translate(80.852 3.529)">
                <rect width="8.667" height="1"/>
                <rect width="8.667" height="1" y="1.519"/>
                <rect width="8.667" height="1" y="3.039"/>
                <rect width="8.667" height="1" y="4.559"/>
                <rect width="8.667" height="1" y="6.077"/>
                <rect width="8.667" height="1" y="7.596"/>
                <rect width="8.667" height="1" y="9.116"/>
                <rect width="8.667" height="1" y="10.635"/>
                <rect width="8.667" height="1" y="12.153"/>
              </g>
            </g>
            <g transform="translate(101.29 1.083)">
              <path fill="#CEE9F6" d="M.85 41.135V.852h.429c.23.004.414.19.418.42v39.863a.424.424 0 1 1-.847 0"/>
              <path fill="#313A3C" d="M11.752 40.65v-1.476a.67.67 0 0 0-.666-.668H7.663a.608.608 0 0 0-.601.603v1.541h4.69z"/>
              <path fill="#FB0" d="M17.59 47.938c-.015-4.628-3.748-8.378-8.36-8.397H1.29a.741.741 0 0 0-.73.733v13.754a2.3 2.3 0 0 0 2.284 2.297H9.23c4.61-.016 8.342-3.761 8.359-8.387"/>
              <path fill="#F78B00" d="M5.432 39.54H1.29a.741.741 0 0 0-.73.734v13.754a2.3 2.3 0 0 0 2.285 2.296h2.586v-3.33a6.528 6.528 0 0 1-2.401-5.06c0-1.965.882-3.824 2.401-5.062l.001-3.331z"/>
              <path fill="#313A3C" d="M.174 52.218v1.778a2.502 2.502 0 0 0 2.479 2.502h6.932c.183 0 .355-.011.527-.022v-1.272a.427.427 0 0 0-.419-.42H3.222c-1.03-.033-1.438-.529-1.492-1.304v-.777a.488.488 0 0 0-.483-.485H.174zm14.84-4.28c-.002-3.063-2.478-5.544-5.53-5.542-3.051.002-5.523 2.486-5.522 5.548.001 3.063 2.475 5.545 5.527 5.545 3.053-.003 5.526-2.488 5.526-5.552m-12.91-2.93v-.033a.43.43 0 0 0-.419-.432H.517a.43.43 0 0 0-.42.432v.032a.43.43 0 0 0 .42.421h1.168a.428.428 0 0 0 .418-.42m0-1.693v-.033a.428.428 0 0 0-.418-.42H.517a.428.428 0 0 0-.42.42v.033c0 .232.189.42.42.42h1.168a.42.42 0 0 0 .418-.42m0 3.373v-.032a.42.42 0 0 0-.418-.42H.517a.42.42 0 0 0-.42.42v.032a.42.42 0 0 0 .42.421h1.168a.42.42 0 0 0 .418-.42m0 1.68v-.031a.427.427 0 0 0-.418-.421H.517a.428.428 0 0 0-.42.42v.033a.43.43 0 0 0 .42.432h1.168a.43.43 0 0 0 .418-.432"/>
              <path fill="#21282C" d="M13.233 47.938a3.747 3.747 0 0 0-3.737-3.755 3.746 3.746 0 0 0-3.743 3.75 3.747 3.747 0 0 0 3.734 3.757 3.75 3.75 0 0 0 3.746-3.752"/>
              <path fill="#80939D" d="M2.182.852H.849v3.341a.425.425 0 1 1-.849 0V.42A.43.43 0 0 1 .43 0h1.75a.425.425 0 0 1 0 .852"/>
            </g>
            <g transform="translate(0 89.704)">
              <path fill="#DEDEDC" d="M89.191 18.097v28.595H5.406V18.097C5.41 8.105 13.48.005 23.438 0h47.72c9.957.005 18.028 8.105 18.033 18.097"/>
              <path fill="#585755" d="M94.6 49.8v1.8a3.116 3.116 0 0 1-3.1 3.113H3.101A3.117 3.117 0 0 1 0 51.6v-1.8a3.117 3.117 0 0 1 3.102-3.113h88.395a3.116 3.116 0 0 1 3.101 3.113"/>
              <path fill="#353536" d="M47.298 4.668c-10.278 0-18.61 8.362-18.61 18.677s8.332 18.677 18.61 18.677c10.278 0 18.61-8.362 18.61-18.677S57.576 4.668 47.298 4.668"/>
              <path fill="#3CA4DE" d="M47.298 9.338a13.957 13.957 0 0 0-12.896 8.645 14.044 14.044 0 0 0 3.024 15.266 13.92 13.92 0 0 0 15.21 3.038 14.008 14.008 0 0 0 8.617-12.942c0-7.736-6.249-14.007-13.957-14.007"/>
            </g>
            <g transform="translate(44.198 100.598)">
              <path fill="#585755" d="M3.102 0S0 10.732 0 12.451a3.107 3.107 0 0 0 3.102 3.113 3.107 3.107 0 0 0 3.101-3.113C6.203 10.732 3.102 0 3.102 0"/>
              <path fill="#BDBDBD" d="M3.1 10.57c-.758 0-1.442.458-1.733 1.161-.29.704-.13 1.514.407 2.052a1.87 1.87 0 0 0 2.044.408 1.882 1.882 0 0 0 1.158-1.74c0-1.039-.84-1.881-1.875-1.881"/>
            </g>
          </g>
        </g>
      </g>
    </g>
  </g>
</svg>
