<svg xmlns="http://www.w3.org/2000/svg" width="297" height="41"><g fill="none" fill-rule="evenodd" class="symbols"><g fill-rule="nonzero" class="symbols__purolator"><g class="symbols__purolator__purolator-courier-logo-2006"><path fill="#EF3829" d="M209.18 10.056c-5.12 0-9.757 1.417-12.241 2.503l-2.914 6.24c2.802-1.28 6.63-2.57 10.497-2.57 4.015 0 4.197 2.018 3.306 3.932l-.236.5c-9.322.018-18.18 3.482-21.813 11.263-2.318 4.979-.6 9.075 5.045 9.075 3.292 0 6.707-1.201 9.69-3.539h.174l-.85 2.947h8.185c.51-1.82 1.574-4.393 2.807-7.032l4.98-10.674c3.067-6.573 3.362-12.645-6.63-12.645m-5.79 20.197c-.24.514-.53 1.045-.873 1.485-1.474 1.86-3.813 3.042-5.746 3.042-1.809 0-2.958-1.13-1.732-3.762 1.774-3.798 6.17-4.857 10.264-4.862l-1.913 4.097zm-88.397-19.605l-8.53 18.293c-.403.86-.925 1.654-1.445 2.207-1.122 1.296-3.08 2.73-5.185 2.73-2.932 0-2.918-2.575-.98-6.73l7.701-16.5h-9.136l-8.275 17.737C85.107 37.05 86.908 41 93.077 41c4.568 0 8.44-2.42 10.647-4.326h.173l-1.294 3.734h8.127c.505-1.82 1.547-4.432 2.8-7.033 1.258-2.599 10.595-22.727 10.595-22.727h-9.132v.001zm37.465 23.985c-3.567 0-3.331-4.045-.963-9.12 2-4.283 5.525-9.084 9.47-9.084 3.711 0 2.794 4.786.8 9.058-2.301 4.931-5.929 9.146-9.242 9.146h-.065zM149.438 41c6.719 0 16.352-4.15 21.732-15.682 4.268-9.15 1.608-15.263-6.983-15.263-8.366 0-17.275 5.575-21.976 15.638C137.72 35.323 141 41 149.371 41h.067zm99.709-6.367c-3.57 0-3.331-4.045-.96-9.12 1.996-4.283 5.524-9.084 9.466-9.084 3.722 0 2.795 4.786.8 9.058-2.299 4.931-5.925 9.146-9.24 9.146h-.066zM246.127 41c6.727 0 16.352-4.15 21.734-15.682 4.265-9.15 1.607-15.263-6.982-15.263-8.366 0-17.28 5.575-21.976 15.638-4.489 9.63-1.212 15.307 7.16 15.307h.064zM297 10.216c-.56-.123-.995-.16-1.872-.16-2.698 0-6.764 1.764-10.062 5.605h-.232l1.95-5.013h-7.86a216.94 216.94 0 01-4.15 9.44l-9.48 20.32h4.852c2.8 0 4.97-1.47 6.218-4.142l5.1-10.937c.447-.961.954-1.831 1.406-2.454 2.148-2.962 5.28-4.494 8.051-4.494.941 0 1.59.06 2.189.189l3.89-8.354zm-67.022 23.592c-2.359 0-2.925-1.309-1.276-4.834l5.596-12.005h5.48l2.945-6.32h-5.478l3.691-7.917h-4.717c-2.804 0-4.967 1.477-6.222 4.148l-1.758 3.77h-3.942l-2.943 6.32h3.935l-6.059 12.99c-2.06 4.42-2.364 7.015-1.38 8.69.851 1.458 2.87 2.281 5.693 2.281 2.482 0 4.704-.3 6.09-.677l3.128-6.705c-.886.195-1.503.26-2.783.26m-39.503-31.08c-2.806 0-4.97 1.479-6.223 4.15l-15.64 33.529h4.849c2.804 0 4.969-1.471 6.216-4.142l15.645-33.537h-4.847zm-42.476 7.487c-.56-.123-.998-.16-1.87-.16-2.699 0-6.764 1.764-10.06 5.605h-.237l1.954-5.013h-7.866a212.273 212.273 0 01-4.147 9.44l-9.48 20.32h4.851c2.802 0 4.968-1.47 6.216-4.142l5.102-10.937c.447-.961.958-1.831 1.408-2.454 2.147-2.962 5.279-4.494 8.048-4.494.943 0 1.59.06 2.188.189l3.893-8.354zm-54.981 2.288C95.436 6.64 95.447 0 82.46 0H70.855L52 40.408h4.776c2.805 0 4.969-1.47 6.222-4.142l5.027-10.78c.7.079 1.573.125 2.545.125 4.73 0 10.011-.476 14.385-3.333 3.476-2.271 6.293-5.484 8.063-9.774m-19.435 6.278c-1.029 0-1.765-.043-2.347-.175l5.745-12.292c.861-.146 1.878-.071 3.308-.071 4.453 0 5.539 2.228 3.767 6.18-1.817 4.039-5.724 6.358-10.473 6.358" class="symbols__purolator__purolator-courier-logo-2006__shape"/><path fill="#00529C" d="M62 0H46.7L28 40h11.044c2.783 0 4.929-1.454 6.17-4.1C46.456 33.253 62 0 62 0" class="symbols__purolator__purolator-courier-logo-2006__path"/><path fill="#EF3829" d="M39.175 0c-2.81 0-4.978 1.462-6.23 4.103L16 40h7.116L42 0h-2.825z" class="symbols__purolator__purolator-courier-logo-2006__path"/><path fill="#00529C" d="M19 22H1.788a1.775 1.775 0 00-1.266.54A1.85 1.85 0 000 23.835c0 .505.197.966.526 1.294L12.152 37 19 22z" class="symbols__purolator__purolator-courier-logo-2006__path"/></g></g></g></svg>