<svg xmlns="http://www.w3.org/2000/svg" width="64" height="36"><defs><clipPath id="A"><path d="M61.51 0A2.488 2.488 0 0 1 64 2.474v31.052A2.48 2.48 0 0 1 61.51 36H2.49A2.488 2.488 0 0 1 0 33.526V2.474A2.48 2.48 0 0 1 2.49 0h59.02z"/></clipPath><clipPath id="B"><path d="M4.958 0L3.05 11.444H0L1.908 0h3.05z"/></clipPath><clipPath id="C"><path d="M6.418 0C7.6 0 8.548.25 9.151.48l-.413 2.481-.274-.13a5.506 5.506 0 0 0-2.282-.44c-1.195 0-1.747.509-1.747.984-.008.538.646.89 1.712 1.42 1.76.816 2.573 1.805 2.562 3.11-.025 2.374-2.107 3.908-5.311 3.908C2.029 11.8.71 11.523 0 11.203l.426-2.561.393.182c1.003.427 1.651.6 2.872.6.877 0 1.818-.351 1.826-1.118.004-.5-.395-.86-1.583-1.42-1.156-.547-2.69-1.464-2.671-3.109C1.281 1.553 3.403 0 6.418 0z"/></clipPath><clipPath id="D"><path d="M8.484 0l2.468 11.437h-2.83l-.371-1.715h-.849L6.69 9.72l-.454-.001-.714-.001H5.06l-.218-.001h-.395l-.17-.001h-.433l-.255.68-.11.296-.276.744H0L4.529.949C4.849.202 5.396 0 6.127 0h2.357zM6.342 3.085l-.405 1.091-1.215 3.2h2.532l-.706-3.304z"/></clipPath><clipPath id="E"><path d="M10.761 0L5.958 11.423l-3.227.002L0 1.415c1.937.993 3.668 2.974 4.225 4.801l.32 1.586L7.528 0h3.232z"/></clipPath><clipPath id="F"><path d="M4.958 0c.663.025 1.199.24 1.383.966L7.41 6.224C6.359 3.474 3.827 1.185 0 .237L.04 0z"/></clipPath></defs><g clip-path="url(#A)"><path fill="#f7f7f7" d="M0 0h64v36H0V0z"/></g><g clip-path="url(#B)" transform="translate(26.745 12.284)"><path fill="#1634cb" d="M0 0h4.958v11.444H0V0z"/></g><g clip-path="url(#C)" transform="translate(31.706 12.084)"><path fill="#1634cb" d="M0 0h9.151v11.813H0V0z"/></g><g clip-path="url(#D)" transform="translate(40.196 12.295)"><path fill="#1634cb" d="M0 0h10.952v11.437H0V0z"/></g><g clip-path="url(#E)" transform="translate(16.657 12.293)"><path fill="#1634cb" d="M0 0h10.761v11.425H0V0z"/></g><g clip-path="url(#F)" transform="translate(13.472 12.285)"><path fill="#1634cb" d="M0 0h7.41v6.224H0V0z"/></g></svg>